<?xml version="1.0" encoding="UTF-8"?>
<svg id="_图层_2" xmlns="http://www.w3.org/2000/svg" width="72.42mm" height="20.02mm" viewBox="0 0 205.3 56.74">
  <defs>
    <style>
      .cls-1,.cls-2{fill:#231815;}
      .cls-2{fill-rule:evenodd;}
    </style>
  </defs>
  <g id="_参考线">
    <!-- 已修复的路径数据 -->
    <path class="cls-2" d="M166.29,34.93c-1.47,-0.31 -0.59,-0.78 -0.83,-2.03 -0.2,-1.08 -1.18,-2.14 -1.15,-2.94 0.08,-2.16 2.86,-2.03 4.54,-1.34 0.3,0.12 0.65,0.58 0.96,1.02 0.77,1.11 1.67,2.72 0.48,3.95 -1.03,1.05 -2.72,1.62 -4,1.34"/>
    <path class="cls-2" d="M149.59,32.68s-0.1,-0.04 -0.14,-0.06c0.01,-0.16 0.02,-0.33 0.03,-0.47 0.46,-0.17 4.45,-2.78 4.44,-2.89 1.16,-0.93 2.2,-1.96 2.54,-3.45 -2.86,0.94 -5.57,3.02 -8.54,3.24 -1.37,-0.34 -2.31,-1.08 -3.28,-1.5 0,-0.07 0,-0.12 -0.01,-0.16 -1.57,-1.03 -1.71,-2.34 0.02,-2.91 2.98,0.66 7.55,-1.47 10.36,-2.54 0.63,-0.28 2.45,-0.92 2.94,-1.5 0.66,-3.94 0.23,-7.88 0.46,-11.65 0.96,-2.72 2.66,-0.87 4.34,0.49 0.11,0.23 0.5,0.48 0.84,0.99 0.05,0 0.09,0 0.16,-0.01 0.71,1.13 0.91,1.65 -0.19,2.71 -0.75,1.85 -1.11,3.9 -1.02,6.03 2.05,-0.29 3.29,-2.08 5.66,-2.12 0.57,1.1 0.5,2.03 -0.55,2.95 -1.73,0.83 -3.61,1.57 -5.57,2.46 -0.46,1.99 -1.25,4.42 -2.65,6.04 -0.21,0.24 -1.22,1.18 -1.46,1.32 -1.27,0.74 -2.41,1.64 -3.8,2.03 -3.85,1.07 -3.89,0.89 -4.58,0.99"/>
    <path class="cls-2" d="M112.82,39.39c-1.42,-0.65 -2.7,-2.36 -3.47,-3.42 0.13,-0.38 0.26,-0.76 0.41,-1.11 3.34,-2.5 6.64,-4.82 9.66,-7.8 0.92,-1.41 2.11,-2.88 3.09,-4.27 0.04,-0.03 0.11,-0.05 0.17,-0.05 0,-0.07 0,-0.11 -0.01,-0.15 0.85,-0.67 1.21,-0.84 1.94,0.25 0.05,0.91 -1.59,1.89 -2.1,2.75 -0.64,1.63 -1.37,3.29 -2.2,4.95q-0.27,0.3 -1.33,2.05c-0.89,0.69 -2.09,2.51 -2.59,3.6 -1.05,0.61 -1.5,2.47 -2.77,3.12 -0.28,0.02 -0.54,0.05 -0.8,0.09"/>
    <path class="cls-2" d="M132.51,27.7c-2.06,-0.09 -2.64,-1.4 -3.76,-2.6 -0.03,-0.54 0.3,-0.87 0.34,-1.24q0.51,-0.12 0.83,-0.31c0.86,-0.12 1.17,-0.07 2.11,-0.13 1.18,-0.27 4.22,-2.36 5.23,-1.46 0.15,2.5 -2.57,5.02 -4.75,5.74"/>
    <path class="cls-2" d="M116.71,23.76c-0.79,-0.69 -0.94,-3.87 -1,-4.87 0.59,-1.78 2.37,-1.85 3.87,-0.7 1.19,1.56 1.99,2.21 0.75,4.03 -1.41,1.22 -2.03,1.31 -3.61,1.53"/>
    <path class="cls-2" d="M131.95,22.22c-0.21,-0.97 1.12,-3.03 0.74,-3.53 -0.5,0.08 -1.01,0.26 -1.53,0.29 -1.24,-0.6 -2.59,-2.11 -2.1,-3.27 0.92,-1.04 0.56,-0.78 1.99,-0.87 1.36,-0.61 2.72,-1.2 4.1,-1.78 2.31,-0.43 3.37,0.84 3.51,3.09 -0.41,1.46 -1.39,2.62 -2.34,3.77 -1.22,0.67 -2.33,1.41 -3.44,2.13 -0.32,0.04 -0.63,0.1 -0.93,0.17"/>
    <path class="cls-2" d="M119.33,15.69c-0.49,-0.43 -0.28,-0.66 -0.03,-1.09 -0.06,-0.96 -0.63,-1.72 -0.69,-2.64 0.31,-1.67 -0.01,-2.29 1.38,-3.09 1.08,0.48 4.84,2.4 3.95,4.5 -1.03,1.31 -3.12,2.14 -4.61,2.32"/>
    <path class="cls-2" d="M70.62,40.96c-2.23,-0.86 -4.19,-5.29 -1.49,-6.38 0.07,-0.39 0.4,-0.78 0.73,-0.9 0,-0.07 0,-0.12 -0.01,-0.16 2.17,-2.1 3.6,-5.03 5.42,-7.35 0.47,-0.88 0.72,-1.73 1.73,-1.98 0.5,0.44 0.33,1.45 0.19,2.22 0.22,0.2 1,0.05 1.46,-0.09 1.51,-1.3 3.48,-2.44 4.98,-3.81 0.08,-0.67 0.15,-1.34 0.26,-1.99 -1.05,0.25 -4.51,1.06 -3.68,-0.88 1.3,-0.51 3.26,-1.63 3.96,-3.02 0.34,-1.42 0.14,-2.99 0.86,-4.01 1.45,-0.76 3.17,1.08 3.46,2.65 0.58,1.03 2.4,-0.25 0.13,2.93 -0.48,0.36 -0.46,1.04 -0.36,1.77 0.17,0.01 0.33,0.03 0.5,0.04 1.27,-0.91 2.66,-1.89 4.1,-2.72 0.39,-2.04 0.72,-3.74 1.7,-5.46 1.41,-0.96 3.32,0.08 4.7,1.18 1.06,-0.07 1.72,-0.51 2.67,-1.21q0.37,-0.12 1.09,-0.11c0.29,0.5 0.39,1.02 0.44,1.77 -0.68,2.08 -6.63,2.76 -5.49,5.18 1.04,-0.07 1.4,-1.2 1.78,-1.96 1.17,-0.62 3.68,0.12 4.9,1.02 1.36,1.65 0.3,2.21 -1.2,3.25 -0.15,0.22 -0.3,0.45 -0.43,0.67q-0.1,3.33 -0.06,7.83c-0.52,1.22 -0.88,1.81 -1.82,2.79 0,0.05 0,0.09 0.01,0.14 -0.07,0 -0.12,0 -0.17,0 -0.58,1.01 -1.99,2 -2.83,1.05 -0.02,-3.7 0.19,-7.53 0.07,-11.05 -0.07,0 -0.14,0.03 -0.18,0.06 -0.27,1.79 -2.07,5.17 -3.61,6.29 -1.42,0.09 -2.61,-0.74 -3.02,-1.94 0.15,-0.36 0.42,-0.45 0.72,-0.71 0.8,-1.64 0.56,-4.66 0.56,-6.27 -1.15,0.17 -3.1,2.78 -3.96,3.75 -0.59,0.46 -1.18,0.93 -1.74,1.39 -0.41,1.37 -0.73,2.72 -1.09,4.19 -0.32,0.66 -0.63,1.34 -0.94,2.03 -0.07,0 -0.12,0 -0.17,0.01 -0.54,0.91 -2.28,3.29 -3.33,1.79 -0.01,-0.21 -0.02,-0.4 -0.01,-0.59 0.87,-1.29 1.54,-3.08 1.56,-4.55 -1.42,0.47 -2.35,1.76 -3.77,1.85 -0.82,-0.16 -1.64,-0.42 -2.18,-0.69 0,-0.07 0,-0.12 0,-0.16 -0.35,-0.22 -0.7,-0.53 -0.91,-0.44 -0.26,0.8 -0.52,1.62 -0.75,2.44 -1.47,3.05 -2.54,6.06 -3.49,9.41 -0.54,0.53 -0.72,0.61 -1.28,0.75"/>
    <path class="cls-2" d="M73.41,23.36c-0.44,-0.64 0.1,-1.48 0.12,-2.21 -0.7,-2.09 -1.25,-3.64 0.09,-5.41 0.21,-0.03 0.43,-0.05 0.64,-0.06 0.97,0.67 2.34,2.22 3.17,3.34 1.01,2.5 -2.22,3.62 -4.02,4.35"/>
    <path class="cls-2" d="M75.42,15.27c-0.53,-0.18 -0.52,-0.3 -0.62,-0.48 0.25,-0.51 0.5,-0.81 0.39,-1.33 -1.28,-1.96 -1.21,-4.95 1.01,-5.94 0.64,0.08 0.66,0.62 0.95,1.51 1.44,1.4 4.12,3.14 1.58,5.03 -1.07,0.47 -2.23,0.84 -3.3,1.21"/>
    <path class="cls-2" d="M182.22,22.94c-2,-0.62 -1.63,-3.92 -1.29,-5.24 1.46,-0.93 3.38,1 3.49,2.72 -0.37,1.89 -0.35,2.17 -2.2,2.52"/>
    <path class="cls-2" d="M193.05,38.11c-0.07,-0.04 -0.12,-0.09 -0.17,-0.11 -2.56,0.16 -5.01,-0.09 -7.3,-0.9q-0.1,-0.2 -0.12,-0.51c1.35,-0.79 3.26,-0.57 4.29,-1.99 0.16,-1.11 0.29,-2.05 0.18,-3 -2.54,0.16 -3.9,1.95 -5.91,2.68 -1.72,0.11 -4.79,-1.45 -5.29,-2.82 0,-2.22 0.46,-1.22 2.83,-1.37 2.82,-0.5 5.64,-2.12 8.37,-3.32q0.58,-0.44 0.9,-0.57c0.61,-1.84 1.03,-2.16 2.95,-2.54q0.75,-0.37 2.93,-1.7c0.06,-0.21 0.11,-0.43 0.19,-0.64 -3.32,0.39 -6,3.08 -8.65,4.86 -1.31,0.36 -2.31,0.14 -3.22,-0.27 -0.58,0.08 -3.89,0.66 -2.29,-0.65 0.98,-0.38 1.73,-1.09 2.78,-1.55 2.49,-1.68 5.37,-3.11 8.05,-4.66 -0.03,-0.42 -0.18,-0.64 -0.26,-0.76 0.01,-0.56 0.11,-0.85 0.27,-1.28 -0.51,0.17 -0.65,0.14 -0.74,0.52 -1.59,0.7 -2.27,2.15 -3.61,0.62 -0.36,1.4 -1.35,2.37 -2.75,2.46 -1.42,-0.73 -1.46,-3.11 -1.71,-4.21 -0.1,-0.13 -0.3,-1.05 -0.69,-2.13 -0.64,-1.31 -1.83,-2.78 -1.04,-3.97 1.01,-0.62 1.42,-0.86 2.27,0.51 0.74,0.56 1.67,1.32 2.41,2.3 0.05,0 0.1,0 0.16,-0.01 0.45,1.21 1.56,2.8 1.44,4.35 0.75,-0.44 1.81,-1.3 1.26,-2.25 -1.23,-0.67 -0.53,-1.81 0.33,-2.24q0.61,0.03 1.4,-0.04c-0.02,-0.3 -0.04,-0.3 -0.19,-0.48 -1.03,-0.35 -0.83,-0.6 -0.55,-1.43 -1.2,-0.44 -1.65,-1.69 -1.19,-2.59q3.47,-0.87 5.1,-1.39c1.08,-1.35 2.26,-5.04 4.35,-4.36 0.66,0.78 1.11,2.08 0.98,3.37 -0.27,0.55 -0.64,1.02 -0.74,1.63 0.21,-0.01 0.42,0 0.63,0 1.45,-0.72 2.12,-1.58 2.98,0.58 1.4,0.75 1.91,0.56 1.38,2.6 -1.02,2.05 -2.12,4.24 -3.25,6.29 -0.02,0.1 -0.04,0.19 -0.03,0.28 0.26,0.05 0.52,0.11 0.78,0.19 0.15,0.92 0.18,2.07 0.15,3.19 -0.88,1.29 -1.98,1.29 -3.37,1.47 -1.77,0.88 -3.36,1.61 -5.02,2.6 0,0.33 -0.05,0.66 0.11,1.09 0.84,-0.03 1.7,-0.03 2.57,-0.04 0.95,0.62 0.87,2.35 0.28,3.37 -0.97,0.13 -1.55,0.26 -2.3,0.66 -0.09,0.47 -0.18,0.94 -0.26,1.44 0.07,1.84 1.02,6.29 -1.71,6.71"/>

    <path d="M145.3 43."/>

  </g>
</svg>