<?xml version="1.0" encoding="UTF-8" standalone="no"?>
<!-- Created with Inkscape (http://www.inkscape.org/) -->

<svg
   width="141.95354mm"
   height="61.396103mm"
   viewBox="0 0 141.95354 61.396103"
   version="1.1"
   id="svg1"
   xml:space="preserve"
   inkscape:export-filename="9.svg"
   inkscape:export-xdpi="96"
   inkscape:export-ydpi="96"
   xmlns:inkscape="http://www.inkscape.org/namespaces/inkscape"
   xmlns:sodipodi="http://sodipodi.sourceforge.net/DTD/sodipodi-0.dtd"
   xmlns="http://www.w3.org/2000/svg"
   xmlns:svg="http://www.w3.org/2000/svg"><sodipodi:namedview
     id="namedview1"
     pagecolor="#ffffff"
     bordercolor="#000000"
     borderopacity="0.25"
     inkscape:showpageshadow="2"
     inkscape:pageopacity="0.0"
     inkscape:pagecheckerboard="0"
     inkscape:deskcolor="#d1d1d1"
     inkscape:document-units="mm"><inkscape:page
       x="-1.3619021e-14"
       y="0"
       width="141.95352"
       height="61.396103"
       id="page2"
       margin="0"
       bleed="0" /></sodipodi:namedview><defs
     id="defs1"><linearGradient
       id="paint0_linear_58_1385"
       x1="0.348268"
       y1="33.084202"
       x2="66.909401"
       y2="33.084202"
       gradientUnits="userSpaceOnUse"
       gradientTransform="matrix(0.26458333,0,0,0.26458333,42.211837,115.34028)"><stop
         stop-color="#0071EF"
         id="stop5" /><stop
         offset="1"
         stop-color="#149BFF"
         id="stop6" /></linearGradient><linearGradient
       id="paint1_linear_58_1385"
       x1="0.42147601"
       y1="50.576199"
       x2="31.6187"
       y2="50.576199"
       gradientUnits="userSpaceOnUse"
       gradientTransform="matrix(0.26458333,0,0,0.26458333,42.211837,115.34028)"><stop
         stop-color="#43C5AC"
         id="stop7" /><stop
         offset="1"
         stop-color="#8AD4C2"
         id="stop8" /></linearGradient><style
       id="style1">.cls-1,.cls-2{fill:#231815;}.cls-2{fill-rule:evenodd;}</style><style
       id="style1-6">.cls-1,.cls-2{fill:#231815;}.cls-2{fill-rule:evenodd;}</style><style
       id="style1-8">.cls-1,.cls-2{fill:#231815;}.cls-2{fill-rule:evenodd;}</style><style
       id="style1-66">.cls-1,.cls-2{fill:#231815;}.cls-2{fill-rule:evenodd;}</style><style
       id="style1-80">.cls-1,.cls-2{fill:#231815;}.cls-2{fill-rule:evenodd;}</style><style
       id="style1-7">.cls-1,.cls-2{fill:#231815;}.cls-2{fill-rule:evenodd;}</style></defs><g
     inkscape:label="图层 1"
     inkscape:groupmode="layer"
     id="layer1"
     transform="translate(-13.69991,-70.954071)"><g
       id="g2"
       transform="translate(-28.511928,-0.48877591)"><path
         d="m 59.30736,128.67814 c 0.382455,0.57396 0.527817,1.27225 0.405976,1.94995 -0.121867,0.67768 -0.501623,1.2827 -1.060423,1.68944 -0.5588,0.40677 -1.253728,0.58402 -1.940534,0.49499 -0.686805,-0.089 -1.312756,-0.43755 -1.74789,-0.97317 -0.08276,-0.0945 -0.163777,-0.19079 -0.244793,-0.28882 -1.23309,-1.48449 -2.191305,-3.17476 -2.830062,-4.99215 -0.263419,-0.75028 -0.693817,-1.43182 -1.259179,-1.99372 -0.565335,-0.56192 -1.251029,-0.98973 -2.005912,-1.25153 -1.826392,-0.63143 -3.525705,-1.57964 -5.019111,-2.80064 -0.09686,-0.0805 -0.19548,-0.1628 -0.288819,-0.24506 -0.577067,-0.41921 -0.962953,-1.0491 -1.072768,-1.75109 -0.109814,-0.70199 0.06544,-1.41859 0.487205,-1.99216 0.421764,-0.57356 1.055494,-0.9571 1.761776,-1.06625 0.706289,-0.10915 1.427252,0.065 2.004335,0.48424 0.522578,0.35656 0.991103,0.78568 1.391258,1.2743 l 0.227172,0.27131 c 0.880559,1.0765 1.481084,2.39106 2.486686,3.35554 l 0.202512,0.19079 c 0.191479,0.18309 0.427646,0.31343 0.685245,0.37815 0.257598,0.0647 0.527711,0.0616 0.783722,-0.009 0.256011,-0.0707 0.489056,-0.20646 0.676169,-0.39394 0.187113,-0.18751 0.321813,-0.42024 0.390842,-0.67524 l 0.05813,-0.21707 c 0.244793,-0.9067 0.253577,-1.88343 0.611082,-2.75338 l 0.05988,-0.14703 c 0.189627,-0.46067 0.490855,-0.86761 0.876935,-1.18461 0.386054,-0.31699 0.845,-0.53421 1.335934,-0.63233 0.490935,-0.0981 0.99867,-0.0741 1.478016,0.07 0.479319,0.14404 0.915405,0.40363 1.269418,0.75565 0.354039,0.35203 0.614997,0.78558 0.759698,1.26207 0.144727,0.47649 0.168672,0.98114 0.06974,1.46906 -0.09895,0.48792 -0.317685,0.94395 -0.636799,1.32755 -0.319114,0.38359 -0.728663,0.68281 -1.192239,0.87106 l -0.149675,0.0613 c -0.88056,0.35007 -1.856211,0.36409 -2.768441,0.60737 l -0.216614,0.0578 c -0.388224,0.10287 -0.719985,0.35367 -0.923396,0.69805 -0.203385,0.34438 -0.262044,0.75456 -0.163222,1.14162 0.06466,0.25615 0.195845,0.49094 0.380418,0.68091 l 0.191955,0.20129 c 0.97036,0.99949 2.289413,1.59287 3.374258,2.47158 l 0.274717,0.22231 c 0.491067,0.39708 0.922232,0.86219 1.280319,1.38107"
         fill="url(#paint0_linear_58_1385)"
         id="path1"
         style="fill:url(#paint0_linear_58_1385);stroke-width:0.264583" /><path
         d="m 45.783897,125.45038 c 0.258842,-0.26101 0.566896,-0.46879 0.906542,-0.61145 0.339619,-0.14264 0.704215,-0.21741 1.072938,-0.22 0.368062,-0.002 0.732896,0.068 1.074262,0.20481 0.513635,0.20802 0.953531,0.56295 1.263941,1.01981 0.310382,0.45683 0.477308,0.99502 0.479557,1.54628 0.0013,0.36626 -0.07046,0.72916 -0.211005,1.06775 -0.140547,0.33856 -0.34716,0.64614 -0.607907,0.90496 l -0.02114,0.0228 -2.736744,2.66586 c -0.518954,0.50753 -1.218645,0.79066 -1.946672,0.78772 -0.728014,-0.003 -1.425379,-0.29168 -1.940176,-0.80336 -0.514795,-0.51167 -0.805308,-1.2048 -0.808255,-1.92841 -0.0029,-0.72358 0.281908,-1.41904 0.79252,-1.93485 z"
         fill="url(#paint1_linear_58_1385)"
         id="path2"
         style="fill:url(#paint1_linear_58_1385);stroke-width:0.264583" /><path
         d="m 67.535187,124.30741 -2.389823,-3.85088 h 2.018216 l 1.31908,2.23001 0.30472,0.77192 0.285221,-0.77544 1.375304,-2.23001 h 1.813984 l -2.472532,3.77563 2.604559,4.0662 h -1.995223 l -1.502304,-2.38581 -0.352108,-0.80695 -0.325808,0.80695 -1.505717,2.38581 h -1.81393 z"
         fill="#333333"
         id="path3"
         style="stroke-width:0.264583" /><path
         d="m 85.450839,128.29484 h -5.431102 v -7.84183 h 1.667668 v 6.38548 h 3.763434 z m 0.808302,-5.47878 c 0.39661,-0.16627 0.809889,-0.29009 1.232693,-0.36934 0.505619,-0.0974 1.019175,-0.14607 1.534054,-0.14528 0.350838,-0.009 0.700617,0.0404 1.03558,0.14528 0.251883,0.076 0.47916,0.21646 0.659341,0.4072 0.180182,0.19076 0.306917,0.42516 0.367242,0.67982 0.07779,0.27686 0.115623,0.56327 0.112712,0.85069 0,0.38158 -0.01587,0.75792 -0.04577,1.13252 -0.0299,0.37457 -0.04577,0.76843 -0.04577,1.18676 -5.3e-4,0.2776 0.01905,0.55486 0.05821,0.82971 0.0344,0.2622 0.09313,0.52062 0.175948,0.77192 H 90.05777 l -0.258762,-0.87522 h -0.121444 c -0.202406,0.26927 -0.454554,0.49745 -0.743214,0.67218 -0.35269,0.20002 -0.754857,0.2971 -1.160727,0.28006 -0.268023,0.003 -0.534723,-0.0382 -0.788988,-0.12253 -0.223837,-0.0767 -0.430742,-0.19553 -0.609335,-0.3501 -0.165629,-0.1547 -0.300302,-0.33946 -0.396082,-0.54435 -0.09155,-0.21661 -0.137583,-0.4495 -0.135731,-0.68442 0,-0.66398 0.221986,-1.16401 0.665692,-1.50009 0.443971,-0.3361 1.123685,-0.51112 2.039408,-0.52514 0.211931,4.2e-4 0.423598,0.0192 0.632354,0.056 0.210079,0.0303 0.356129,0.0531 0.438415,0.0683 0.02064,-0.13385 0.03175,-0.26895 0.03334,-0.40436 0.01005,-0.1134 -0.004,-0.2276 -0.04048,-0.33544 -0.03678,-0.10784 -0.09551,-0.20698 -0.172508,-0.2912 -0.142611,-0.13478 -0.410369,-0.2013 -0.799571,-0.2013 -0.356658,-7.1e-4 -0.711729,0.0446 -1.056746,0.13478 -0.310621,0.075 -0.612246,0.18299 -0.899848,0.32208 z m 2.062162,4.31299 c 0.301625,0.0156 0.599546,-0.0708 0.845344,-0.24505 0.188912,-0.13817 0.347133,-0.3133 0.465137,-0.51462 v -0.67389 c -0.05741,-0.0195 -0.116416,-0.0341 -0.176212,-0.0438 -0.07408,-0.0158 -0.160338,-0.0298 -0.259027,-0.0455 -0.09313,-0.0159 -0.187325,-0.027 -0.281517,-0.0333 -0.08996,0 -0.176212,-0.0122 -0.248444,-0.0122 -0.31697,-0.0236 -0.633148,0.055 -0.9017,0.22405 -0.08996,0.0586 -0.163777,0.13856 -0.214841,0.2327 -0.05107,0.0941 -0.07779,0.19947 -0.07752,0.30641 -0.0082,0.11087 0.0077,0.22218 0.04657,0.32637 0.03889,0.10422 0.100013,0.19886 0.178859,0.27752 0.177006,0.14007 0.399256,0.21159 0.62521,0.20129 z m 4.526227,-6.67604 h 1.584854 v 2.46457 h 0.135732 c 0.189177,-0.20762 0.424127,-0.36878 0.686858,-0.47086 0.297391,-0.11983 0.61595,-0.17933 0.936889,-0.17504 0.76544,0 1.347788,0.25032 1.74678,0.75094 0.399256,0.50061 0.601927,1.2247 0.607747,2.17225 0.0034,0.46858 -0.07752,0.93398 -0.239447,1.37406 -0.124884,0.37981 -0.334434,0.72655 -0.613834,1.01399 -0.279135,0.28747 -0.620183,0.50816 -0.997744,0.6454 -0.423597,0.147 -0.870214,0.2187 -1.318947,0.2118 -0.505884,0.005 -1.010973,-0.0359 -1.509448,-0.12253 -0.347663,-0.0516 -0.68924,-0.13785 -1.01944,-0.25731 z m 1.584854,6.50801 c 0.148696,0.0746 0.308769,0.12427 0.473869,0.14703 0.175948,0.014 0.35216,0.021 0.552979,0.021 0.975519,0 1.46394,-0.63481 1.464998,-1.90444 0,-0.53679 -0.101335,-0.9452 -0.304535,-1.22526 -0.10213,-0.14068 -0.238125,-0.25342 -0.395817,-0.32779 -0.157692,-0.0743 -0.331788,-0.10792 -0.505883,-0.0976 -0.29263,-0.0141 -0.581819,0.0683 -0.822325,0.23455 -0.220398,0.18304 -0.381529,0.42659 -0.463286,0.70017 z"
         fill="#333333"
         id="path4"
         style="stroke-width:0.264583" /><path
         d="m 76.116868,125.49417 c 0.778139,0 1.408906,-0.62696 1.408906,-1.40034 0,-0.77337 -0.630767,-1.40033 -1.408906,-1.40033 -0.777875,0 -1.408642,0.62696 -1.408642,1.40033 0,0.77338 0.630767,1.40034 1.408642,1.40034 z"
         fill="#333333"
         id="path5"
         style="stroke-width:0.264583" /></g><g
       id="_参考线"
       transform="matrix(0.70730568,0,0,0.70730568,14.701575,70.954068)"><path
         class="cls-2"
         d="m 160.30485,41.850334 c -1.47,-0.31 -0.59,-0.78 -0.83,-2.03 -0.2,-1.08 -1.18,-2.14 -1.15,-2.94 0.08,-2.16 2.86,-2.03 4.54,-1.34 0.3,0.12 0.65,0.58 0.96,1.02 0.77,1.11 1.67,2.72 0.48,3.95 -1.03,1.05 -2.72,1.62 -4,1.34"
         id="path1-22" /><path
         class="cls-2"
         d="m 143.60485,39.600334 c 0,0 -0.1,-0.04 -0.14,-0.06 0.01,-0.16 0.02,-0.33 0.03,-0.47 0.46,-0.17 4.45,-2.78 4.44,-2.89 1.16,-0.93 2.2,-1.96 2.54,-3.45 -2.86,0.94 -5.57,3.02 -8.54,3.24 -1.37,-0.34 -2.31,-1.08 -3.28,-1.5 0,-0.07 0,-0.12 -0.01,-0.16 -1.57,-1.03 -1.71,-2.34 0.02,-2.91 2.98,0.66 7.55,-1.47 10.36,-2.54 0.63,-0.28 2.45,-0.92 2.94,-1.5 0.66,-3.94 0.23,-7.88 0.46,-11.65 0.96,-2.72 2.66,-0.87 4.34,0.49 0.11,0.23 0.5,0.48 0.84,0.99 0.05,0 0.09,0 0.16,-0.01 0.71,1.13 0.91,1.65 -0.19,2.71 -0.75,1.85 -1.11,3.9 -1.02,6.03 2.05,-0.29 3.29,-2.08 5.66,-2.12 0.57,1.1 0.5,2.03 -0.55,2.95 -1.73,0.83 -3.61,1.57 -5.57,2.46 -0.46,1.99 -1.25,4.42 -2.65,6.04 -0.21,0.24 -1.22,1.18 -1.46,1.32 -1.27,0.74 -2.41,1.64 -3.8,2.03 -3.85,1.07 -3.89,0.89 -4.58,0.99"
         id="path2-8" /><path
         class="cls-2"
         d="m 106.83485,46.310334 c -1.42,-0.65 -2.7,-2.36 -3.47,-3.42 0.13,-0.38 0.26,-0.76 0.41,-1.11 3.34,-2.5 6.64,-4.82 9.66,-7.8 0.92,-1.41 2.11,-2.88 3.09,-4.27 0.04,-0.03 0.11,-0.05 0.17,-0.05 0,-0.07 0,-0.11 -0.01,-0.15 0.85,-0.67 1.21,-0.84 1.94,0.25 0.05,0.91 -1.59,1.89 -2.1,2.75 -0.64,1.63 -1.37,3.29 -2.2,4.95 q -0.27,0.3 -1.33,2.05 c -0.89,0.69 -2.09,2.51 -2.59,3.6 -1.05,0.61 -1.5,2.47 -2.77,3.12 -0.28,0.02 -0.54,0.05 -0.8,0.09"
         id="path3-2" /><path
         class="cls-2"
         d="m 126.52485,34.620334 c -2.06,-0.09 -2.64,-1.4 -3.76,-2.6 -0.03,-0.54 0.3,-0.87 0.34,-1.24 q 0.51,-0.12 0.83,-0.31 c 0.86,-0.12 1.17,-0.07 2.11,-0.13 1.18,-0.27 4.22,-2.36 5.23,-1.46 0.15,2.5 -2.57,5.02 -4.75,5.74"
         id="path4-8" /><path
         class="cls-2"
         d="m 110.72485,30.680334 c -0.79,-0.69 -0.94,-3.87 -1,-4.87 0.59,-1.78 2.37,-1.85 3.87,-0.7 1.19,1.56 1.99,2.21 0.75,4.03 -1.41,1.22 -2.03,1.31 -3.61,1.53"
         id="path5-9" /><path
         class="cls-2"
         d="m 125.96485,29.140334 c -0.21,-0.97 1.12,-3.03 0.74,-3.53 -0.5,0.08 -1.01,0.26 -1.53,0.29 -1.24,-0.6 -2.59,-2.11 -2.1,-3.27 0.92,-1.04 0.56,-0.78 1.99,-0.87 1.36,-0.61 2.72,-1.2 4.1,-1.78 2.31,-0.43 3.37,0.84 3.51,3.09 -0.41,1.46 -1.39,2.62 -2.34,3.77 -1.22,0.67 -2.33,1.41 -3.44,2.13 -0.32,0.04 -0.63,0.1 -0.93,0.17"
         id="path6" /><path
         class="cls-2"
         d="m 113.34485,22.610334 c -0.49,-0.43 -0.28,-0.66 -0.03,-1.09 -0.06,-0.96 -0.63,-1.72 -0.69,-2.64 0.31,-1.67 -0.01,-2.29 1.38,-3.09 1.08,0.48 4.84,2.4 3.95,4.5 -1.03,1.31 -3.12,2.14 -4.61,2.32"
         id="path7" /><path
         class="cls-2"
         d="m 64.634846,47.880334 c -2.23,-0.86 -4.19,-5.29 -1.49,-6.38 0.07,-0.39 0.4,-0.78 0.73,-0.9 0,-0.07 0,-0.12 -0.01,-0.16 2.17,-2.1 3.6,-5.03 5.42,-7.35 0.47,-0.88 0.72,-1.73 1.73,-1.98 0.5,0.44 0.33,1.45 0.19,2.22 0.22,0.2 1,0.05 1.46,-0.09 1.51,-1.3 3.48,-2.44 4.98,-3.81 0.08,-0.67 0.15,-1.34 0.26,-1.99 -1.05,0.25 -4.51,1.06 -3.68,-0.88 1.3,-0.51 3.26,-1.63 3.96,-3.02 0.34,-1.42 0.14,-2.99 0.86,-4.01 1.45,-0.76 3.17,1.08 3.46,2.65 0.58,1.03 2.4,-0.25 0.13,2.93 -0.48,0.36 -0.46,1.04 -0.36,1.77 0.17,0.01 0.33,0.03 0.5,0.04 1.27,-0.91 2.66,-1.89 4.1,-2.72 0.39,-2.04 0.72,-3.74 1.7,-5.46 1.41,-0.96 3.32,0.08 4.7,1.18 1.06,-0.07 1.72,-0.51 2.67,-1.21 q 0.37,-0.12 1.09,-0.11 c 0.29,0.5 0.39,1.02 0.44,1.77 -0.68,2.08 -6.63,2.76 -5.49,5.18 1.04,-0.07 1.4,-1.2 1.78,-1.96 1.17,-0.62 3.68,0.12 4.9,1.02 1.360004,1.65 0.3,2.21 -1.2,3.25 -0.15,0.22 -0.3,0.45 -0.43,0.67 q -0.1,3.33 -0.06,7.83 c -0.52,1.22 -0.88,1.81 -1.82,2.79 0,0.05 0,0.09 0.01,0.14 -0.07,0 -0.12,0 -0.17,0 -0.58,1.01 -1.99,2 -2.83,1.05 -0.02,-3.7 0.19,-7.53 0.07,-11.05 -0.07,0 -0.14,0.03 -0.18,0.06 -0.27,1.79 -2.07,5.17 -3.61,6.29 -1.42,0.09 -2.61,-0.74 -3.02,-1.94 0.15,-0.36 0.42,-0.45 0.72,-0.71 0.8,-1.64 0.56,-4.66 0.56,-6.27 -1.15,0.17 -3.1,2.78 -3.96,3.75 -0.59,0.46 -1.18,0.93 -1.74,1.39 -0.41,1.37 -0.73,2.72 -1.09,4.19 -0.32,0.66 -0.63,1.34 -0.94,2.03 -0.07,0 -0.12,0 -0.17,0.01 -0.54,0.91 -2.28,3.29 -3.33,1.79 -0.01,-0.21 -0.02,-0.4 -0.01,-0.59 0.87,-1.29 1.54,-3.08 1.56,-4.55 -1.42,0.47 -2.35,1.76 -3.77,1.85 -0.82,-0.16 -1.64,-0.42 -2.18,-0.69 0,-0.07 0,-0.12 0,-0.16 -0.35,-0.22 -0.7,-0.53 -0.91,-0.44 -0.26,0.8 -0.52,1.62 -0.75,2.44 -1.47,3.05 -2.54,6.06 -3.49,9.41 -0.54,0.53 -0.72,0.61 -1.28,0.75"
         id="path8" /><path
         class="cls-2"
         d="m 67.424846,30.280334 c -0.44,-0.64 0.1,-1.48 0.12,-2.21 -0.7,-2.09 -1.25,-3.64 0.09,-5.41 0.21,-0.03 0.43,-0.05 0.64,-0.06 0.97,0.67 2.34,2.22 3.17,3.34 1.01,2.5 -2.22,3.62 -4.02,4.35"
         id="path9" /><path
         class="cls-2"
         d="m 69.434846,22.190334 c -0.53,-0.18 -0.52,-0.3 -0.62,-0.48 0.25,-0.51 0.5,-0.81 0.39,-1.33 -1.28,-1.96 -1.21,-4.95 1.01,-5.94 0.64,0.08 0.66,0.62 0.95,1.51 1.44,1.4 4.12,3.14 1.58,5.03 -1.07,0.47 -2.23,0.84 -3.3,1.21"
         id="path10" /><path
         class="cls-2"
         d="m 176.23485,29.860334 c -2,-0.62 -1.63,-3.92 -1.29,-5.24 1.46,-0.93 3.38,1 3.49,2.72 -0.37,1.89 -0.35,2.17 -2.2,2.52"
         id="path11" /><path
         class="cls-2"
         d="m 187.06485,45.030334 c -0.07,-0.04 -0.12,-0.09 -0.17,-0.11 -2.56,0.16 -5.01,-0.09 -7.3,-0.9 q -0.1,-0.2 -0.12,-0.51 c 1.35,-0.79 3.26,-0.57 4.29,-1.99 0.16,-1.11 0.29,-2.05 0.18,-3 -2.54,0.16 -3.9,1.95 -5.91,2.68 -1.72,0.11 -4.79,-1.45 -5.29,-2.82 0,-2.22 0.46,-1.22 2.83,-1.37 2.82,-0.5 5.64,-2.12 8.37,-3.32 q 0.58,-0.44 0.9,-0.57 c 0.61,-1.84 1.03,-2.16 2.95,-2.54 q 0.75,-0.37 2.93,-1.7 c 0.06,-0.21 0.11,-0.43 0.19,-0.64 -3.32,0.39 -6,3.08 -8.65,4.86 -1.31,0.36 -2.31,0.14 -3.22,-0.27 -0.58,0.08 -3.89,0.66 -2.29,-0.65 0.98,-0.38 1.73,-1.09 2.78,-1.55 2.49,-1.68 5.37,-3.11 8.05,-4.66 -0.03,-0.42 -0.18,-0.64 -0.26,-0.76 0.01,-0.56 0.11,-0.85 0.27,-1.28 -0.51,0.17 -0.65,0.14 -0.74,0.52 -1.59,0.7 -2.27,2.15 -3.61,0.62 -0.36,1.4 -1.35,2.37 -2.75,2.46 -1.42,-0.73 -1.46,-3.11 -1.71,-4.21 -0.1,-0.13 -0.3,-1.05 -0.69,-2.13 -0.64,-1.31 -1.83,-2.78 -1.04,-3.97 1.01,-0.62 1.42,-0.86 2.27,0.51 0.74,0.56 1.67,1.32 2.41,2.3 0.05,0 0.1,0 0.16,-0.01 0.45,1.21 1.56,2.8 1.44,4.35 0.75,-0.44 1.81,-1.3 1.26,-2.25 -1.23,-0.67 -0.53,-1.81 0.33,-2.24 q 0.61,0.03 1.4,-0.04 c -0.02,-0.3 -0.04,-0.3 -0.19,-0.48 -1.03,-0.35 -0.83,-0.6 -0.55,-1.43 -1.2,-0.44 -1.65,-1.69 -1.19,-2.59 q 3.47,-0.87 5.1,-1.39 c 1.08,-1.35 2.26,-5.0399999 4.35,-4.3599999 0.66,0.7799999 1.11,2.0799999 0.98,3.3699999 -0.27,0.55 -0.64,1.02 -0.74,1.63 0.21,-0.01 0.42,0 0.63,0 1.45,-0.72 2.12,-1.58 2.98,0.58 1.4,0.75 1.91,0.56 1.38,2.6 -1.02,2.05 -2.12,4.24 -3.25,6.29 -0.02,0.1 -0.04,0.19 -0.03,0.28 0.26,0.05 0.52,0.11 0.78,0.19 0.15,0.92 0.18,2.07 0.15,3.19 -0.88,1.29 -1.98,1.29 -3.37,1.47 -1.77,0.88 -3.36,1.61 -5.02,2.6 0,0.33 -0.05,0.66 0.11,1.09 0.84,-0.03 1.7,-0.03 2.57,-0.04 0.95,0.62 0.87,2.35 0.28,3.37 -0.97,0.13 -1.55,0.26 -2.3,0.66 -0.09,0.47 -0.18,0.94 -0.26,1.44 0.07,1.84 1.02,6.29 -1.71,6.71 m 5.47,-22.68 c 0.86,-0.87 1.46,-1.72 1.38,-2.91 -0.71,-0.63 -1.96,-0.72 -2.71,-0.67 q -0.1,0.33 -0.96,1.93 c 0.07,0.04 0.17,0.08 0.27,0.12 -0.09,0.03 -0.19,0.06 -0.25,0.11 0,0.05 0.03,0.09 0.06,0.16 0.38,0.05 0.59,-0.24 0.76,-0.51 1.34,-0.22 1.37,0.26 1.28,1.69 0.05,0.02 0.1,0.04 0.17,0.08"
         id="path12" /><path
         class="cls-1"
         d="M 28.37,0 C 44,0 56.74,12.75 56.74,28.37 56.74,43.99 44,56.74 28.37,56.74 12.74,56.74 0,44 0,28.37 0,12.74 12.75,0 28.37,0 m 0,1.13 c -15,0 -27.24,12.24 -27.24,27.24 0,15 12.24,27.24 27.24,27.24 15,0 27.24,-12.24 27.24,-27.24 0,-15 -12.24,-27.24 -27.24,-27.24"
         id="path31" /><path
         class="cls-1"
         d="m 18.4,40.46 c -1.77,-1.47 -3.23,-3.32 -4.22,-5.42 -0.96,-2.03 -1.49,-4.29 -1.49,-6.67 0,-8.64 7.05,-15.68 15.68,-15.68 8.63,0 15.68,7.04 15.68,15.68 0,2.38 -0.54,4.64 -1.5,6.67 -0.99,2.11 -2.45,3.95 -4.22,5.42 l -0.36,-0.44 c 1.71,-1.42 3.11,-3.2 4.07,-5.23 0.92,-1.95 1.44,-4.13 1.44,-6.43 0,-8.32 -6.79,-15.12 -15.12,-15.12 -8.33,0 -15.11,6.79 -15.11,15.12 0,2.3 0.52,4.48 1.44,6.43 0.96,2.03 2.36,3.81 4.07,5.23 z"
         id="path32" /><path
         d="m 4.08,37.84 -1.07,-2.87 0.58,-0.2 4.91,0.74 -0.75,-2.01 0.58,-0.2 0.98,2.63 -0.59,0.2 -4.9,-0.75 0.84,2.26 z"
         id="path33" /><path
         d="M 5.94,41.75 5.65,41.18 7.95,40 7.22,38.57 l -2.3,1.19 -0.3,-0.57 4.93,-2.54 0.3,0.57 -2.08,1.07 0.73,1.42 2.08,-1.06 0.29,0.57 z"
         id="path34" /><path
         d="m 8.28,44.88 -1.75,-2.45 4.62,-2.87 1.67,2.33 -0.51,0.32 -1.27,-1.78 -1.44,0.89 1.17,1.63 -0.52,0.32 -1.16,-1.63 -1.65,1.03 1.35,1.89 z"
         id="path35" /><path
         d="m 12.21,48.72 -0.59,-0.49 3.41,-4.18 0.58,0.49 z"
         id="path36" /><path
         class="cls-2"
         d="m 14.85,50.56 0.7,-1.48 -0.85,-0.61 -1.26,1.22 -0.58,-0.44 3.99,-3.94 0.8,0.49 -2.12,5.15 -0.69,-0.38 z m 1.02,-2.2 0.83,-1.91 -0.08,-0.06 -1.44,1.46 0.68,0.51 z"
         id="path37" /><path
         d="m 18.84,52.5 -0.71,-0.34 0.41,-3.84 -1.57,3.23 -0.72,-0.33 2.5,-4.95 0.65,0.3 -0.3,3.65 1.62,-3.01 0.61,0.25 z"
         id="path38" /><path
         class="cls-2"
         d="m 22.57,53.61 -0.46,-0.15 0.04,-0.44 c -0.11,0.09 -0.25,0.15 -0.43,0.18 -0.18,0.03 -0.36,0.01 -0.54,-0.05 -0.38,-0.12 -0.67,-0.42 -0.85,-0.9 -0.19,-0.48 -0.15,-1.14 0.11,-1.97 0.28,-0.91 0.63,-1.55 1.04,-1.91 0.41,-0.36 1.04,-0.56 1.59,-0.38 0.6,0.19 0.98,0.92 0.81,1.94 l -0.71,-0.06 c 0.12,-0.43 0.06,-1.11 -0.37,-1.25 -0.34,-0.11 -0.73,0 -0.97,0.27 -0.24,0.27 -0.48,0.79 -0.72,1.55 -0.22,0.72 -0.28,1.25 -0.19,1.58 0.1,0.33 0.27,0.54 0.5,0.61 0.24,0.08 0.45,0.05 0.65,-0.1 0.19,-0.14 0.35,-0.41 0.47,-0.79 l 0.1,-0.32 -0.85,-0.27 0.17,-0.55 1.4,0.45 -0.79,2.57 z"
         id="path39" /><path
         class="cls-2"
         d="m 29.94,52.39 c -0.02,0.5 -0.15,0.89 -0.4,1.17 -0.25,0.28 -0.64,0.41 -1.16,0.39 -0.52,-0.02 -0.9,-0.18 -1.13,-0.48 -0.23,-0.3 -0.34,-0.7 -0.32,-1.2 l 0.12,-3.78 0.66,0.03 -0.12,3.78 c -0.01,0.36 0.06,0.62 0.21,0.79 0.15,0.17 0.35,0.26 0.6,0.27 0.25,0 0.46,-0.07 0.62,-0.23 0.16,-0.16 0.25,-0.42 0.26,-0.77 l 0.12,-3.78 0.66,0.03 z"
         id="path40" /><path
         d="m 33.73,53.39 -0.6,0.1 -1.87,-3.61 0.29,3.87 -0.71,0.1 -0.41,-5.43 0.81,-0.07 1.55,2.53 -0.29,-2.72 0.59,-0.1 z"
         id="path41" /><path
         d="m 35.75,52.83 -0.69,0.21 -1.45,-5.14 0.7,-0.21 z"
         id="path42" /><path
         d="m 37.63,46.32 0.88,5.67 -0.68,0.34 -3.01,-4.82 0.66,-0.28 2.09,3.29 -0.58,-3.92 z"
         id="path43" /><path
         d="m 43.21,49.53 -2.53,1.37 -2.76,-4.74 2.41,-1.3 0.3,0.53 -1.84,0.99 0.86,1.47 1.69,-0.91 0.31,0.52 -1.69,0.92 0.98,1.69 1.96,-1.06 z"
         id="path44" /><path
         class="cls-2"
         d="m 46.1,47.51 -0.56,0.48 -1.96,-1.63 -0.51,0.46 1.33,1.81 -0.56,0.58 -3.25,-4.56 1.04,-0.74 c 0.33,-0.24 0.77,-0.41 1.16,-0.36 1.01,0.12 1.44,0.8 1.4,1.59 -0.01,0.25 -0.03,0.5 -0.13,0.75 l 2.04,1.63 z m -3.51,-3.22 c -0.41,-0.11 -0.74,0.21 -1.04,0.44 l 1.08,1.43 c 0.33,-0.24 0.48,-0.29 0.73,-0.72 0.11,-0.52 -0.12,-0.97 -0.78,-1.14"
         id="path45" /><path
         class="cls-2"
         d="m 47.85,43.1 c 1.13,0.68 0.87,2.62 -0.62,2.84 -0.4,0.06 -0.87,-0.06 -1.07,-0.19 l 0.25,-0.58 c 0.25,0.05 0.49,0.14 0.73,0.1 0.97,-0.18 0.92,-1.19 0.36,-1.6 -0.2,-0.15 -0.48,-0.16 -0.71,-0.14 -0.65,0.07 -1.07,0.56 -1.79,0.6 -0.79,0.05 -1.34,-0.43 -1.48,-1.21 -0.07,-0.41 0.03,-0.8 0.23,-1.12 0.42,-0.66 1.31,-0.75 1.96,-0.36 l -0.25,0.6 c -0.35,-0.19 -0.97,-0.19 -1.21,0.18 -0.12,0.19 -0.17,0.39 -0.13,0.59 0.08,0.44 0.38,0.69 0.8,0.64 0.7,-0.09 1.18,-0.67 1.87,-0.64 0.33,0 0.72,0.09 1.05,0.29"
         id="path46" /><path
         d="m 50.24,42.4 -0.41,0.5 -4.67,-2.93 0.41,-0.5 z"
         id="path47" /><path
         d="m 47.88,36.49 -0.51,0.95 4.41,2.6 -0.3,0.55 L 47.07,38 46.55,38.95 46,38.63 47.33,36.16 Z"
         id="path48" /><path
         d="m 48.69,32.84 2.7,2.4 1.79,0.78 -0.22,0.6 -1.66,-0.65 -3.84,-0.08 0.19,-0.62 2.68,0.05 -1.9,-1.75 z"
         id="path49" /><path
         class="cls-2"
         d="m 11.8,46.31 c -0.48,0.47 -0.92,0.72 -1.33,0.73 -0.41,0.01 -0.78,-0.15 -1.12,-0.49 -0.3,-0.31 -0.46,-0.67 -0.45,-1.09 0,-0.21 0.06,-0.43 0.18,-0.65 l 0.61,0.37 c -0.05,0.1 -0.08,0.2 -0.08,0.3 0,0.22 0.06,0.41 0.21,0.56 0.21,0.21 0.42,0.3 0.65,0.29 0.23,-0.02 0.5,-0.19 0.82,-0.51 l 2.7,-2.67 0.5,0.51 -2.67,2.65 z"
         id="path50" /><path
         class="cls-2"
         d="m 20.97,45.37 -1.89,-1.17 0.17,-0.3 0.7,0.43 1.12,-1.96 -0.7,-0.43 0.15,-0.26 c 0.27,0.16 0.48,0.26 0.63,0.27 0.16,0.02 0.29,-0.04 0.4,-0.19 l 0.4,0.25 -1.51,2.63 0.68,0.42 -0.17,0.3 z m 5.63,-1.19 c 0.03,-0.15 -0.02,-0.29 -0.16,-0.41 -0.14,-0.12 -0.34,-0.2 -0.62,-0.24 -0.25,-0.04 -0.47,-0.02 -0.65,0.05 -0.18,0.07 -0.28,0.18 -0.31,0.33 -0.02,0.11 0,0.21 0.07,0.3 0.06,0.09 0.17,0.18 0.33,0.26 0.06,0.04 0.17,0.09 0.3,0.15 0.14,0.07 0.27,0.12 0.39,0.16 0.22,-0.07 0.38,-0.16 0.47,-0.25 0.09,-0.09 0.15,-0.21 0.18,-0.35 m -0.25,1.69 c 0.03,-0.14 0,-0.25 -0.06,-0.34 -0.07,-0.09 -0.21,-0.2 -0.44,-0.32 -0.07,-0.04 -0.17,-0.08 -0.29,-0.14 -0.12,-0.05 -0.27,-0.11 -0.42,-0.18 -0.21,0.06 -0.38,0.14 -0.5,0.25 -0.13,0.1 -0.21,0.23 -0.24,0.39 -0.04,0.2 0.02,0.38 0.18,0.54 0.16,0.16 0.39,0.26 0.67,0.3 0.29,0.04 0.54,0.01 0.74,-0.07 0.2,-0.09 0.32,-0.23 0.36,-0.43 m -1.17,0.83 c -0.25,-0.04 -0.49,-0.09 -0.69,-0.17 -0.2,-0.08 -0.37,-0.17 -0.5,-0.29 -0.13,-0.11 -0.21,-0.23 -0.27,-0.37 -0.05,-0.13 -0.06,-0.27 -0.03,-0.41 0.04,-0.18 0.15,-0.34 0.33,-0.47 0.18,-0.13 0.42,-0.22 0.73,-0.27 v 0 c -0.23,-0.14 -0.4,-0.28 -0.5,-0.41 -0.1,-0.13 -0.13,-0.28 -0.1,-0.45 0.05,-0.25 0.24,-0.44 0.57,-0.57 0.33,-0.13 0.72,-0.16 1.17,-0.1 0.47,0.07 0.83,0.2 1.09,0.4 0.25,0.2 0.35,0.42 0.3,0.67 -0.03,0.15 -0.13,0.29 -0.3,0.42 -0.16,0.13 -0.38,0.21 -0.66,0.26 v 0 c 0.28,0.15 0.49,0.29 0.62,0.44 0.13,0.15 0.17,0.33 0.13,0.54 -0.06,0.29 -0.27,0.5 -0.63,0.65 -0.36,0.15 -0.78,0.19 -1.27,0.12 m 6.55,-2.06 c 0,-0.23 -0.03,-0.42 -0.09,-0.56 -0.07,-0.14 -0.15,-0.26 -0.27,-0.34 -0.1,-0.07 -0.2,-0.12 -0.3,-0.15 -0.1,-0.03 -0.21,-0.04 -0.34,-0.04 -0.28,0 -0.5,0.07 -0.67,0.2 -0.17,0.13 -0.25,0.33 -0.25,0.58 0,0.14 0.03,0.26 0.08,0.35 0.06,0.09 0.15,0.17 0.27,0.24 0.09,0.05 0.18,0.08 0.3,0.09 0.11,0.02 0.23,0.02 0.35,0.02 0.15,0 0.3,-0.02 0.47,-0.05 0.17,-0.03 0.32,-0.08 0.44,-0.14 0,-0.02 0,-0.05 0,-0.09 0,-0.04 0,-0.08 0,-0.13 M 29.1,44.34 c 0,-0.18 0.04,-0.34 0.13,-0.48 0.09,-0.15 0.2,-0.27 0.35,-0.38 0.14,-0.1 0.31,-0.18 0.52,-0.23 0.21,-0.06 0.41,-0.08 0.62,-0.08 0.23,0 0.45,0.03 0.64,0.08 0.19,0.05 0.35,0.13 0.49,0.23 0.18,0.12 0.31,0.29 0.41,0.49 0.1,0.2 0.15,0.46 0.15,0.77 0,0.28 -0.05,0.55 -0.14,0.8 -0.1,0.25 -0.23,0.46 -0.42,0.63 -0.2,0.18 -0.43,0.31 -0.71,0.4 -0.27,0.09 -0.61,0.14 -1.02,0.14 -0.09,0 -0.19,0 -0.29,0 -0.1,0 -0.2,-0.02 -0.29,-0.04 v -0.44 h 0.04 c 0.06,0.02 0.15,0.04 0.27,0.06 0.12,0.02 0.24,0.03 0.37,0.03 0.45,0 0.8,-0.1 1.05,-0.29 0.25,-0.2 0.4,-0.47 0.43,-0.84 -0.18,0.08 -0.36,0.14 -0.52,0.18 -0.17,0.04 -0.35,0.06 -0.54,0.06 -0.19,0 -0.36,-0.01 -0.52,-0.04 -0.15,-0.03 -0.31,-0.08 -0.47,-0.16 -0.19,-0.09 -0.32,-0.21 -0.42,-0.35 -0.09,-0.14 -0.14,-0.31 -0.14,-0.51 m 7.42,-2.93 -0.13,3.5 -0.53,0.34 0.05,-3.31 -2.04,0.99 -0.18,-0.39 2.57,-1.34 0.27,0.21 z"
         id="path51" /><path
         class="cls-2"
         d="m 37.63,13.11 c -0.41,-0.2 -0.12,-0.27 -0.1,-0.66 0.02,-0.33 -0.19,-0.72 -0.13,-0.95 0.18,-0.63 0.99,-0.39 1.43,-0.07 0.08,0.06 0.15,0.21 0.21,0.37 0.14,0.38 0.3,0.92 -0.15,1.2 -0.38,0.24 -0.92,0.28 -1.27,0.11"
         id="path52" /><path
         class="cls-2"
         d="m 32.86,11.24 c 0,0 -0.03,-0.02 -0.04,-0.03 0.01,-0.05 0.03,-0.09 0.04,-0.14 0.15,-0.02 1.51,-0.5 1.52,-0.53 0.41,-0.19 0.79,-0.42 1,-0.83 -0.91,0.07 -1.86,0.49 -2.75,0.34 -0.38,-0.2 -0.61,-0.49 -0.86,-0.68 0,-0.02 0,-0.03 0,-0.05 -0.39,-0.42 -0.33,-0.81 0.22,-0.86 0.83,0.41 2.33,0.11 3.24,0 0.21,-0.04 0.79,-0.1 0.98,-0.23 0.48,-1.11 0.64,-2.31 0.97,-3.4 0.48,-0.73 0.85,-0.07 1.25,0.46 0.02,0.07 0.11,0.18 0.18,0.35 0.02,0 0.03,0 0.05,0 0.13,0.38 0.15,0.55 -0.25,0.79 C 38.06,6.92 37.8,7.5 37.68,8.14 38.3,8.2 38.8,7.76 39.5,7.92 c 0.09,0.37 0,0.64 -0.37,0.83 -0.57,0.12 -1.18,0.21 -1.82,0.33 -0.28,0.55 -0.68,1.21 -1.21,1.59 -0.08,0.06 -0.44,0.26 -0.53,0.29 -0.43,0.12 -0.83,0.31 -1.27,0.32 -1.21,0.04 -1.21,-0.02 -1.42,-0.04"
         id="path53" /><path
         class="cls-2"
         d="m 19.04,15.28 c -0.5,-0.03 -1.09,-0.39 -1.45,-0.62 0,-0.13 -0.02,-0.26 -0.01,-0.39 0.71,-1.15 1.43,-2.24 1.99,-3.49 0.11,-0.53 0.29,-1.12 0.43,-1.65 0,-0.01 0.03,-0.03 0.04,-0.04 0,-0.02 -0.01,-0.03 -0.02,-0.04 0.18,-0.3 0.27,-0.4 0.61,-0.15 0.12,0.27 -0.25,0.76 -0.31,1.08 0,0.57 -0.02,1.15 -0.07,1.75 q -0.05,0.12 -0.16,0.77 c -0.19,0.31 -0.33,1.01 -0.35,1.39 -0.24,0.31 -0.16,0.92 -0.46,1.27 -0.08,0.04 -0.16,0.08 -0.23,0.12"
         id="path54" /><path
         class="cls-2"
         d="M 23.59,9.42 C 22.96,9.64 22.63,9.31 22.15,9.08 22.07,8.92 22.14,8.78 22.11,8.66 q 0.14,-0.1 0.21,-0.19 c 0.25,-0.14 0.34,-0.16 0.62,-0.29 0.32,-0.22 0.99,-1.21 1.4,-1.06 0.34,0.73 -0.18,1.82 -0.75,2.29"
         id="path55" /><path
         class="cls-2"
         d="M 18.36,10.11 C 18.04,10 17.62,9.06 17.48,8.76 c -0.03,-0.6 0.5,-0.84 1.08,-0.67 0.54,0.33 0.86,0.43 0.7,1.12 -0.28,0.53 -0.46,0.63 -0.91,0.89"
         id="path56" /><path
         class="cls-2"
         d="M 22.77,7.84 C 22.59,7.57 22.75,6.8 22.57,6.69 22.43,6.77 22.3,6.89 22.14,6.96 21.69,6.93 21.11,6.63 21.12,6.22 21.27,5.8 21.2,5.92 21.62,5.72 21.96,5.38 22.3,5.04 22.64,4.7 c 0.65,-0.4 1.11,-0.15 1.42,0.52 0.05,0.49 -0.11,0.95 -0.26,1.41 -0.29,0.35 -0.54,0.7 -0.79,1.05 -0.09,0.05 -0.18,0.11 -0.26,0.16"
         id="path57" /><path
         class="cls-2"
         d="M 18.19,7.36 C 17.99,7.29 18.03,7.19 18.05,7.03 17.92,6.75 17.66,6.59 17.53,6.32 17.42,5.78 17.25,5.63 17.58,5.23 c 0.38,0.01 1.74,0.15 1.72,0.89 -0.15,0.52 -0.68,1.01 -1.11,1.24"
         id="path58" /><path
         class="cls-2"
         d="M 11.22,26.06 C 10.63,26.47 9.21,26.2 9.4,25.35 9.32,25.27 9.27,25.12 9.3,25.02 9.28,25.01 9.27,25 9.26,25 9.11,24.11 8.63,23.27 8.37,22.43 8.23,22.17 8.07,21.96 8.17,21.68 8.37,21.63 8.58,21.84 8.75,22 8.84,21.98 8.93,21.77 8.98,21.63 8.92,21.04 8.96,20.37 8.88,19.76 8.73,19.63 8.58,19.5 8.44,19.36 8.32,19.66 7.94,20.65 7.6,20.12 7.69,19.72 7.75,19.04 7.52,18.64 7.23,18.32 6.81,18.1 6.68,17.75 c 0.06,-0.48 0.8,-0.6 1.23,-0.4 0.35,0.03 0.35,-0.63 0.74,0.46 0,0.18 0.18,0.29 0.38,0.39 0.03,-0.04 0.06,-0.08 0.09,-0.12 0,-0.46 -0.02,-0.97 0.02,-1.47 -0.43,-0.44 -0.8,-0.8 -1.06,-1.34 0,-0.51 0.58,-0.8 1.08,-0.96 0.16,-0.27 0.17,-0.51 0.16,-0.86 q 0.04,-0.11 0.16,-0.29 c 0.17,0.01 0.32,0.08 0.51,0.19 0.4,0.52 -0.44,2.09 0.35,2.22 0.16,-0.27 -0.06,-0.55 -0.18,-0.77 0.04,-0.39 0.65,-0.88 1.08,-1.03 0.63,-0.05 0.59,0.3 0.6,0.84 0.03,0.08 0.06,0.15 0.09,0.22 q 0.8,0.58 1.91,1.33 c 0.21,0.33 0.29,0.52 0.38,0.92 0.01,0 0.02,0.01 0.04,0.02 0,0.02 -0.02,0.03 -0.02,0.04 0.15,0.31 0.16,0.82 -0.22,0.87 -0.91,-0.62 -1.82,-1.32 -2.7,-1.88 -0.01,0.02 -0.02,0.04 -0.02,0.06 0.4,0.37 0.92,1.38 0.94,1.95 -0.22,0.36 -0.62,0.51 -0.99,0.41 -0.07,-0.1 -0.04,-0.18 -0.05,-0.29 -0.27,-0.47 -1.05,-0.93 -1.45,-1.2 -0.15,0.31 0.16,1.23 0.25,1.61 0.02,0.22 0.03,0.45 0.05,0.66 0.27,0.33 0.55,0.64 0.85,0.97 0.11,0.19 0.22,0.38 0.34,0.57 0,0.02 -0.02,0.03 -0.02,0.04 0.13,0.29 0.42,1.12 -0.12,1.12 C 11.05,22 11,21.97 10.95,21.93 10.78,21.5 10.45,21.03 10.1,20.78 9.97,21.2 10.13,21.65 9.92,22.01 9.74,22.18 9.54,22.34 9.38,22.43 9.36,22.42 9.35,22.41 9.34,22.41 c -0.11,0.05 -0.25,0.08 -0.26,0.15 0.15,0.2 0.31,0.4 0.47,0.6 0.5,0.88 1.06,1.64 1.72,2.44 0.04,0.22 0.03,0.28 -0.03,0.44"
         id="path59" /><path
         class="cls-2"
         d="M 7.37,22.41 C 7.14,22.41 7.02,22.14 6.85,22.01 6.22,21.83 5.74,21.7 5.54,21.08 5.57,21.02 5.6,20.97 5.63,20.91 c 0.33,-0.12 0.94,-0.2 1.35,-0.21 0.78,0.17 0.52,1.15 0.39,1.72"
         id="path60" /><path
         class="cls-2"
         d="M 5.72,20.56 C 5.58,20.66 5.56,20.64 5.5,20.63 5.42,20.48 5.38,20.37 5.24,20.31 4.54,20.29 3.82,19.77 3.95,19.06 4.08,18.91 4.21,19 4.48,19.08 5.07,18.96 5.94,18.6 5.98,19.54 5.92,19.88 5.81,20.23 5.72,20.56"
         id="path61" /><path
         class="cls-1"
         d="m 41.69,21.45 h -6.9 c -2.01,0 -3.05,1.97 -3.81,3.75 l -1.16,-2.62 1.95,-0.72 c -1.14,-1.08 -4.7,-1.67 -5.17,-0.04 l -0.84,3.38 c -0.66,-1.52 -1.6,-3.75 -3.71,-3.75 h -7 c 0.91,1.61 1.78,2.19 5,2.05 l 0.42,1.11 -3.53,0.02 c 1.04,1.92 1.64,2 4.49,1.92 l 0.6,1.33 -2.78,0.1 c 0.6,1.36 1.22,1.94 3.61,1.83 l 0.46,1.18 h -2.21 c 0.83,1.38 1.24,2.01 2.99,1.85 l 0.47,1.28 h -1.53 c 0.66,1.48 1.43,1.54 2.37,1.69 0.85,0.13 0.97,1.71 -0.02,2.22 l 2.97,4.82 2.97,-4.82 c -0.99,-0.51 -0.87,-2.09 -0.02,-2.22 0.94,-0.15 1.71,-0.21 2.37,-1.69 h -1.53 l 0.47,-1.28 c 1.75,0.15 2.16,-0.47 2.99,-1.84 H 33.4 l 0.46,-1.19 c 2.38,0.11 3.01,-0.47 3.61,-1.83 l -2.78,-0.1 0.6,-1.33 c 2.84,0.08 3.44,0 4.49,-1.92 h -3.53 l 0.42,-1.13 c 3.22,0.14 4.09,-0.44 5,-2.05"
         id="path62"
         sodipodi:nodetypes="cscccccsccccccccccccccccccccccccccccccc" /><path
         class="cls-1"
         d="m 52.2,18.15 0.02,-0.06 c 0.1,-0.25 0.09,-0.35 0.07,-0.39 -0.03,-0.06 -0.14,-0.09 -0.31,-0.13 -0.05,-0.01 -0.1,-0.02 -0.16,-0.03 l -0.1,-0.02 -0.03,-0.07 c 0,0 -0.07,-0.07 -0.11,-0.1 l -0.13,-0.04 -0.03,-0.02 0.17,-0.13 c 0.12,-0.09 0.26,-0.14 0.41,-0.19 l 0.02,-0.04 0.07,0.03 c 0.24,-0.21 0.41,-0.52 0.43,-0.84 -0.07,-0.1 -0.2,-0.15 -0.39,-0.15 -0.24,0 -0.54,0.1 -0.8,0.18 -0.16,0.05 -0.36,0.12 -0.53,0.15 l -0.06,-0.03 c -0.44,-0.21 -0.46,-0.22 -1.38,-0.7 -0.07,0.04 -0.12,0.11 -0.15,0.18 -0.06,0.13 -0.05,0.28 0.02,0.42 l 0.09,0.07 v 0 c 0,0 0,0 0,0 l -0.22,0.12 c -0.05,0.03 -0.06,0.03 -0.06,0.03 v 0 l -0.06,0.06 c 0,0 0.02,0.07 0.05,0.12 l 0.02,0.1 c 0,0.08 -0.02,0.12 -0.09,0.2 l -0.03,0.1 v 0 c 0,0 0,0.01 0,0.01 L 48.8,16.87 c -0.18,-0.14 -0.19,-0.15 -0.32,-0.28 -0.03,0 -0.07,0 -0.11,0 -0.1,0 -0.18,0.03 -0.22,0.08 -0.04,0.05 -0.03,0.12 0,0.22 v 0.05 c -0.04,0.13 -0.16,0.36 -0.57,0.36 h -0.21 c 0,0 -0.08,0 -0.15,0.03 0,0.28 0.12,0.3 0.41,0.35 0.11,0.02 0.23,0.04 0.39,0.07 0.03,0 0.05,-0.02 0.08,-0.02 0.06,0 0.11,0.03 0.17,0.05 l 0.22,0.09 0.08,0.02 0.04,0.02 -0.27,0.13 c -0.1,0.05 -0.17,0.09 -0.27,0.19 -0.02,0.08 -0.06,0.15 -0.12,0.22 v 0.06 c 0,0 -0.12,-0.03 -0.12,-0.03 -0.2,-0.05 -0.39,-0.1 -0.59,-0.15 l -0.3,-0.08 c -0.54,-0.14 -1.21,-0.32 -1.85,-0.43 -0.15,-0.05 -0.3,-0.08 -0.44,-0.11 l -0.3,-0.03 v 0.08 c 0.06,0.06 0.16,0.13 0.31,0.23 l 0.02,0.05 c 0.09,0.21 0.23,0.47 0.56,0.65 0.22,0.04 0.44,0.06 0.71,0.1 0.79,0.09 1.61,0.18 2.25,0.66 l 0.17,0.09 h 0.04 c 0,0 0,0 0,0 v 0 l -0.24,0.12 c -0.06,0.03 -0.11,0.06 -0.19,0.13 L 47.91,19.77 Q 47.15,19.6 46.88,19.51 c -0.27,-0.18 -0.41,-0.23 -0.55,-0.23 -0.11,0 -0.24,0.05 -0.46,0.18 -0.01,0 -0.02,0.01 -0.04,0.02 h -0.01 c 0,0 -0.01,0.02 -0.02,0.02 L 45.72,19.47 C 45.64,19.44 45.63,19.44 45.4,19.41 45.19,19.34 44.97,19.27 44.74,19.19 44.08,18.98 43.4,18.75 42.84,18.38 42.67,18.24 42.56,18.11 42.47,18 42.44,17.96 42.42,17.94 42.4,17.94 c 0,0 0,0 0,0 l -0.06,-0.07 c 0,0 -0.11,0.08 -0.23,0.2 -0.12,0.37 0.22,1.26 0.52,1.53 0.21,0.09 0.44,0.14 0.68,0.18 0.4,0.08 0.81,0.15 1.21,0.48 l 0.11,0.03 v 0 c 0,0 0,0 0,0 l -0.1,0.14 c -0.13,0.17 -0.28,0.31 -0.45,0.46 L 44,20.96 c -0.05,0.04 -0.1,0.08 -0.14,0.13 h -0.08 c -0.06,0.02 -0.11,0.02 -0.17,0.02 -0.3,0 -0.55,-0.14 -0.77,-0.27 -0.07,-0.04 -0.14,-0.08 -0.25,-0.1 l -0.04,0.08 c 0.31,0.53 0.73,1.01 1.28,1.47 l 0.05,0.08 c 0.07,0.04 0.14,0.05 0.21,0.05 v 0 c 0.4,0 0.83,-0.55 1.15,-0.96 0.07,-0.09 0.13,-0.17 0.2,-0.25 l 0.08,-0.06 c 0.3,-0.22 0.32,-0.24 0.31,-0.24 l 0.07,0.02 c 0.25,0.07 0.42,0.17 0.66,0.3 0.24,-0.1 0.48,-0.34 0.46,-0.6 l -0.1,-0.09 c -0.14,-0.13 -0.28,-0.26 -0.43,-0.39 h -0.08 c 0,0 0.05,-0.14 0.05,-0.14 0.05,-0.13 0.13,-0.2 0.23,-0.31 v -0.05 c 0,0 0.11,0.02 0.11,0.02 0.43,0.1 0.81,0.22 1.28,0.36 l 0.41,0.13 0.1,0.08 c 0.23,0.18 0.4,0.3 0.67,0.3 0.04,0 0.08,0 0.15,-0.03 0.25,-0.26 0.4,-0.43 0.5,-0.63 v 0 c 0,0 0,-0.01 0,-0.02 -0.08,-0.12 -0.11,-0.15 -0.13,-0.15 l 0.08,-0.09 c 0,0 0.05,-0.05 0.12,-0.09 0.69,-0.22 1.45,-0.49 2,-0.69 0.33,-0.21 0.37,-0.23 0.25,-0.54 -0.02,-0.05 -0.04,-0.11 -0.09,-0.2 m -2.64,0.46 0.11,-0.1 c 0.15,-0.14 0.22,-0.21 0.24,-0.28 0,-0.03 -0.04,-0.06 -0.11,-0.11 h -0.03 c 0,0 -0.04,0 -0.08,0 -0.12,0 -0.2,-0.06 -0.24,-0.11 l -0.05,-0.04 v -0.06 c 0,0 0.05,-0.14 0.05,-0.14 h -0.03 c 0,0 0.15,-0.06 0.15,-0.06 q 0.51,-0.17 0.59,-0.22 l 0.04,-0.07 0.1,0.08 c 0.11,0.09 0.46,0.42 0.52,0.83 l -0.05,0.06 c -0.27,0.32 -0.64,0.38 -0.99,0.39 l -0.1,0.02 -0.05,-0.15 z"
         id="path63" /><path
         class="cls-1"
         d="m 46.55,17.34 c -0.15,0 -0.3,-0.05 -0.43,-0.14 -0.08,-0.33 0.16,-0.68 0.34,-0.94 0.06,-0.09 0.11,-0.16 0.15,-0.22 l 0.03,-0.08 0.06,-0.11 c 0.07,-0.14 0.14,-0.28 0.21,-0.43 0.03,-0.08 0.05,-0.16 0.06,-0.23 0.11,-0.43 0.19,-0.7 0.41,-0.78 0.17,0.03 0.25,0.05 0.29,0.11 0.04,0.06 0.03,0.15 0,0.31 l -0.03,0.06 c 0.02,0.06 0.03,0.13 0.04,0.2 0.05,0.25 0.06,0.52 0.03,0.76 v 0.1 c -0.03,0.09 -0.05,0.17 -0.08,0.25 -0.1,0.31 -0.21,0.65 -0.43,0.85 l -0.09,0.08 -0.06,0.04 c -0.15,0.1 -0.32,0.15 -0.48,0.16 h -0.02 z"
         id="path64" /><path
         class="cls-1"
         d="m 46.55,17.33 h 0.02 c 0.16,0 0.32,-0.06 0.47,-0.15 l 0.06,-0.04 0.09,-0.08 c 0.22,-0.2 0.33,-0.54 0.43,-0.85 0.03,-0.08 0.05,-0.16 0.07,-0.25 v -0.1 c 0.04,-0.26 0.02,-0.52 -0.02,-0.75 0,-0.07 -0.02,-0.15 -0.03,-0.21 h -0.01 c 0,0 0.03,-0.05 0.03,-0.05 0.03,-0.15 0.05,-0.25 0,-0.3 -0.04,-0.05 -0.12,-0.08 -0.27,-0.11 -0.21,0.08 -0.29,0.34 -0.39,0.74 -0.02,0.08 -0.04,0.17 -0.07,0.26 -0.07,0.16 -0.14,0.29 -0.21,0.43 l -0.06,0.11 -0.03,0.08 c -0.03,0.06 -0.08,0.13 -0.15,0.21 -0.18,0.26 -0.42,0.61 -0.34,0.92 0.13,0.09 0.27,0.14 0.42,0.14"
         id="path65" /><path
         class="cls-1"
         d="m 45.03,16.95 c -0.08,0 -0.17,-0.04 -0.35,-0.15 -0.23,-0.53 0.6,-1.12 0.7,-1.19 0.14,0.03 0.21,0.1 0.26,0.23 0.1,0.27 0.03,0.64 -0.15,0.86 -0.25,0.18 -0.36,0.25 -0.45,0.25 v 0 z"
         id="path66" /><path
         class="cls-1"
         d="m 45.03,16.94 v 0 c 0.09,0 0.2,-0.07 0.44,-0.24 0.18,-0.21 0.24,-0.58 0.15,-0.84 -0.04,-0.12 -0.12,-0.2 -0.24,-0.23 -0.09,0.07 -0.92,0.66 -0.7,1.16 0.17,0.11 0.27,0.15 0.34,0.15"
         id="path67" /></g></g></svg>
