<?xml version="1.0" encoding="UTF-8" standalone="no"?>
<!-- Created with Inkscape (http://www.inkscape.org/) -->

<svg
   xmlns:dc="http://purl.org/dc/elements/1.1/"
   xmlns:cc="http://creativecommons.org/ns#"
   xmlns:rdf="http://www.w3.org/1999/02/22-rdf-syntax-ns#"
   xmlns:svg="http://www.w3.org/2000/svg"
   xmlns="http://www.w3.org/2000/svg"
   xmlns:sodipodi="http://sodipodi.sourceforge.net/DTD/sodipodi-0.dtd"
   xmlns:inkscape="http://www.inkscape.org/namespaces/inkscape"
   width="297mm"
   height="210mm"
   id="svg2985"
   version="1.1"
   inkscape:version="0.48.4 r9939"
   sodipodi:docname="huibo.svg">
  <defs
     id="defs2987" />
  <sodipodi:namedview
     inkscape:document-units="mm"
     pagecolor="#ffffff"
     bordercolor="#666666"
     borderopacity="1.0"
     inkscape:pageopacity="0.0"
     inkscape:pageshadow="2"
     inkscape:zoom="0.86831672"
     inkscape:cx="424.36347"
     inkscape:cy="403.23264"
     inkscape:current-layer="layer1"
     id="namedview2989"
     showgrid="false"
     inkscape:window-width="1920"
     inkscape:window-height="1018"
     inkscape:window-x="-8"
     inkscape:window-y="-8"
     inkscape:window-maximized="1" />
  <metadata
     id="metadata2991">
    <rdf:RDF>
      <cc:Work
         rdf:about="">
        <dc:format>image/svg+xml</dc:format>
        <dc:type
           rdf:resource="http://purl.org/dc/dcmitype/StillImage" />
        <dc:title />
      </cc:Work>
    </rdf:RDF>
  </metadata>
  <g
     inkscape:label="Layer 1"
     inkscape:groupmode="layer"
     id="layer1">
    <path
       style="fill:#000000"
       d="m 122.4803,201.52339 c -5.22361,-6.076 -16.79975,-17.62544 -21.8918,-21.84135 -1.721349,-1.42516 -1.659529,-1.64656 2.2565,-8.08157 2.2145,-3.63894 4.29302,-6.79259 4.61896,-7.00812 0.63627,-0.42072 14.37952,12.00158 24.71877,22.34288 l 6.3254,6.32665 -5.04498,7.58414 -5.045,7.58413 -5.93785,-6.90676 z"
       id="path1_1" />
    <path
       style="fill:#000000"
       d="m 118.83211,264.61436 c -5.72005,-5.47098 -15.58284,-13.40111 -23.037574,-18.52328 -3.712619,-2.55094 -5.614528,-4.32216 -5.206752,-4.84894 0.353347,-0.45646 2.093289,-3.86053 3.866537,-7.56459 1.773248,-3.70405 3.389402,-6.85586 3.591455,-7.00402 0.750844,-0.55058 16.962584,11.10095 27.834154,20.00468 5.83312,4.77728 6.24478,5.31101 5.19423,6.73464 -0.62752,0.8504 -2.63477,4.67884 -4.46054,8.50765 l -3.31958,6.96149 -4.46193,-4.26763 z"
       id="path1_2" />
    <path
       style="fill:#000000"
       d="m 102.79189,375.64381 c -2.50302,-3.43197 -6.090582,-7.31688 -8.796703,-9.52579 l -3.093671,-2.52525 7.217939,-11.48455 c 13.645725,-21.71187 22.824975,-39.44012 30.495125,-58.89643 2.91764,-7.40095 3.92553,-8.713 5.11159,-6.65418 0.40128,0.69655 2.6338,3.55374 4.96115,6.34931 l 4.23154,5.08284 -11.72135,24.28019 c -12.89442,26.71018 -25.07737,51.00969 -26.62478,53.10448 -0.94165,1.27475 -1.03707,1.28919 -1.78084,0.26938 z"
       id="path1_3" />
    <path
       style="fill:#000000"
       d="m 251.14689,371.24472 c -0.47113,-0.24742 -23.0489,-0.57108 -50.17283,-0.71924 l -49.31624,-0.26939 -0.22826,-95.98274 -0.22825,-95.98275 46.28671,-0.22732 c 25.45768,-0.12504 47.09672,-0.41738 48.08674,-0.64966 1.6755,-0.39312 1.80004,0.21388 1.80004,8.77415 l 0,9.19647 -6.94301,-0.38381 c -3.81865,-0.21109 -22.21761,-0.38379 -40.88658,-0.38379 l -33.94359,0 -0.26055,79.33408 -0.26056,79.33408 34.71844,-0.0339 c 19.09513,-0.0187 38.6528,-0.23398 43.46147,-0.47849 4.80868,-0.24451 8.86972,-0.38515 9.02454,-0.31254 0.15481,0.0727 0.15481,4.43013 0,9.68337 -0.15482,5.25324 -0.66696,9.34889 -1.13807,9.10147 z"
       id="path1_4" />
    <path
       style="fill:#000000"
       d="m 293.1472,310.06662 0,-65.84671 -5.14296,0.1253 c -2.82863,0.0689 -7.34159,0.26532 -10.02879,0.43647 l -4.88582,0.31117 0,-8.94299 0,-8.943 10.38299,0.35642 10.383,0.3564 -0.3542,-34.29641 -0.35422,-34.2964 7.03305,1.1e-4 7.03305,1e-4 -0.75678,34.29849 -0.75677,34.29848 9.92407,-0.34145 9.92408,-0.34146 0,8.92586 0,8.92585 -4.88581,-0.31022 c -2.6872,-0.17062 -6.96872,-0.37008 -9.5145,-0.44324 l -4.62867,-0.13302 0.10652,65.85341 0.10651,65.85339 -6.79236,9e-5 -6.79239,9e-5 0,-65.84673 z"
       id="path2999" />
    <path
       style="fill:#000000"
       d="m 370.35494,290.24852 0.73733,-8.62034 -12.48625,0 -12.48625,0 0,8.08157 0,8.08157 -6.943,0 -6.94301,0 0,-42.56293 0,-42.56294 19.31437,0 19.31436,0 -0.28538,-7.6775 -0.28539,-7.67748 -9.25735,0 c -5.09153,0 -14.92746,0.16988 -21.8576,0.37751 l -12.60028,0.37751 0,-8.27741 0,-8.2774 22.28331,0.30675 22.2833,0.30676 -0.66262,-11.93732 -0.66261,-11.93733 7.53982,0 7.53983,0 -0.50518,11.91275 -0.50516,11.91277 26.8887,-0.1957 26.88871,-0.1957 0,8.22218 0,8.22219 -5.79254,-0.35659 c -3.18589,-0.19613 -15.10472,-0.38008 -26.48627,-0.40879 l -20.69375,-0.0522 -0.2854,7.67749 -0.28538,7.67749 20.85725,0 20.85727,0 0,39.06092 0,39.06092 -6.42872,0 -6.42871,1e-5 0,-4.57956 0,-4.57955 -14.55393,0 -14.55392,0 0.57112,8.62034 0.57111,8.62034 -7.69757,0 -7.69757,0 0.73736,-8.62034 z"
       id="path3003" />
    <path
       style="fill:#000000"
       d="m 370.58151,233.27348 -0.28979,-6.33056 -11.82883,0 -11.82882,0 -0.2952,5.62068 c -0.16237,3.09136 -0.0612,5.94011 0.22486,6.33056 0.3888,0.5307 3.52222,0.70988 12.41382,0.70988 l 11.89375,0 -0.28979,-6.33056 z"
       id="path3009" />
    <path
       style="fill:#000000"
       d="m 412.46404,233.13878 0,-6.19586 -13.88601,0 -13.886,0 -0.29004,6.34588 -0.29005,6.34588 14.17606,-0.15001 14.17604,-0.15002 0,-6.19587 z"
       id="path3011" />
    <path
       style="fill:#000000"
       d="m 370.80602,260.32962 0,-6.75175 -12.08598,0.15179 -12.08597,0.1518 -0.28881,6.59995 -0.28881,6.59994 12.37478,0 12.37479,0 0,-6.75173 z"
       id="path3005" />
    <path
       style="fill:#000000"
       d="m 412.97834,260.34672 0,-6.73465 -14.40031,0 -14.4003,0 0,6.73465 0,6.73464 14.4003,0 14.40031,0 0,-6.73464 z"
       id="path3007" />
    <path
       style="fill:#000000"
       d="m 406.85957,174.08599 c -6.21427,-8.427 -6.2011,-8.0523 -0.4594,-13.07079 2.72656,-2.38313 5.19351,-4.20928 5.4821,-4.05811 0.28861,0.15117 2.65233,3.50006 5.25272,7.44198 l 4.72797,7.16714 -2.41409,1.55795 c -1.32775,0.85686 -3.73279,2.74019 -5.34452,4.18517 l -2.93043,2.62723 -4.31435,-5.85057 z"
       id="path3013" />
    <path
       style="fill:#000000"
       d="m 390.91062,377.89215 c -0.64565,-3.47772 -2.49213,-9.6622 -4.22574,-14.15338 l -0.644,-1.66835 6.53841,-0.31981 c 3.59612,-0.17589 7.31037,-0.47498 8.25389,-0.66462 3.58966,-0.72152 4.23539,-3.37141 4.70095,-19.29131 l 0.45416,-15.53087 -37.90586,0.20898 c -31.14464,0.17171 -38.77733,0.36185 -42.79168,1.06601 l -4.88581,0.85703 0,-9.54856 0,-9.54857 5.40011,0.40285 c 2.97006,0.22157 22.23109,0.42055 42.80228,0.44218 l 37.40216,0.0393 -0.74559,-7.54279 -0.74561,-7.5428 7.43146,0 7.43145,0 -0.74559,7.5428 -0.74559,7.54279 8.60153,-0.0393 c 4.73086,-0.0216 11.0316,-0.22061 14.00167,-0.44218 l 5.40011,-0.40285 0,9.12536 0,9.12537 -2.31433,-0.32761 c -1.27288,-0.18017 -7.52159,-0.48785 -13.88602,-0.68372 l -11.57167,-0.35612 0,19.56844 c 0,20.60169 -0.65487,24.76483 -4.44208,28.23877 -2.10559,1.93144 -11.34185,5.34799 -19.3476,7.15681 l -2.70352,0.61083 -0.71749,-3.86468 z"
       id="path2" />
    <path
       style="fill:#000000"
       d="m 355.10375,358.53481 c -1.56468,-3.03568 -4.73644,-8.68084 -7.04839,-12.54479 l -4.20351,-7.02537 5.41799,-4.98118 c 2.97988,-2.73966 5.75798,-4.79086 6.17355,-4.55822 0.7177,0.40177 13.7522,20.97344 14.49553,22.87754 0.32512,0.83282 -10.3117,11.71438 -11.47603,11.7401 -0.28286,0.006 -1.79448,-2.47239 -3.35914,-5.50808 z"
       id="path3001" />
    <path
       style="fill:#000000"
       d="m 489.66677,325.67276 c 0.23935,-32.94311 0.0249,-50.54631 -0.59902,-49.16288 -0.53454,1.1853 -2.17109,6.27668 -3.63679,11.3142 -4.31259,14.82213 -13.85467,39.18565 -15.77116,40.26803 -0.38851,0.21941 -3.16937,-2.89958 -6.1797,-6.9311 l -5.47331,-7.33004 2.15228,-3.84433 c 5.42512,-9.6902 14.45028,-32.54993 19.17273,-48.56236 2.97706,-10.0944 7.70524,-31.17049 7.70526,-34.34667 l 1e-5,-2.0204 -4.88582,0.0235 c -4.48803,0.0215 -6.9774,0.22356 -16.45749,1.33546 l -3.34293,0.39206 0,-8.92573 0,-8.92573 7.4573,0.37274 c 4.10152,0.205 10.2345,0.37273 13.62886,0.37273 l 6.17157,0 -0.2366,-23.84064 -0.2366,-23.84063 7.95105,-1.9e-4 7.95105,-1.8e-4 -0.34918,24.05842 -0.34918,24.05842 9.82548,-0.36177 c 5.404,-0.19896 11.23126,-0.50902 12.94945,-0.68902 l 3.12397,-0.32726 0,8.74533 c 0,7.06902 -0.26304,8.69246 -1.37228,8.46951 -0.75474,-0.15171 -6.54058,-0.45129 -12.85742,-0.66574 l -11.48514,-0.3899 0,19.03644 0,19.03643 4.72968,-4.82437 c 2.60133,-2.6534 4.85549,-4.89388 5.00927,-4.97883 0.44393,-0.24524 17.01977,30.75872 17.01173,31.81924 -0.007,0.94245 -6.96643,8.57423 -10.11092,11.08797 -1.58295,1.26542 -1.66124,1.19219 -3.44076,-3.21887 -1.00154,-2.48256 -4.26531,-9.6972 -7.25283,-16.03253 l -5.43187,-11.51879 -0.26193,55.83273 -0.26193,55.83273 -7.60985,0 -7.60984,0 0.37286,-51.31797 z"
       id="path3019" />
    <path
       style="fill:#000000"
       d="m 525.5966,375.50911 c -1.00932,-1.40753 -3.79949,-4.62366 -6.20037,-7.14694 l -4.36525,-4.58778 1.82209,-1.87748 c 8.66744,-8.93088 17.062,-26.7968 21.00753,-44.70979 4.25447,-19.31567 6.09033,-53.66104 5.59417,-104.65634 l -0.37088,-38.11808 28.29208,-5e-5 28.29209,-5e-5 0,89.03202 c 0,48.96761 0.37297,89.95472 0.82882,91.08247 1.06072,2.62418 3.98426,4.14542 7.96671,4.14542 4.86549,0 6.09266,-2.24114 7.19356,-13.1374 0.51244,-5.07189 0.94318,-9.80078 0.9572,-10.50865 0.0236,-1.18609 0.36837,-1.09887 4.39702,1.11208 2.40434,1.31952 5.71758,2.93351 7.36277,3.58667 l 2.99124,1.18754 -1.29433,7.93703 c -2.45654,15.06377 -4.76263,21.21771 -8.92102,23.80629 -2.60276,1.6202 -2.76065,1.6408 -12.57321,1.63997 -7.41873,-5.3e-4 -10.8373,-0.23959 -13.48809,-0.94285 -4.98799,-1.32332 -7.97349,-4.76752 -9.26967,-10.6939 -0.66838,-3.05596 -1.05179,-35.13021 -1.05717,-88.43919 l -0.008,-83.64425 -13.73675,0 -13.73678,0 -0.61253,47.27718 c -0.3369,26.00246 -1.09755,51.76246 -1.69033,57.24446 -3.19523,29.54884 -7.41578,46.65704 -15.82267,64.13805 -4.4283,9.20804 -10.04848,18.83274 -10.99704,18.83274 -0.39911,0 -1.55144,-1.15163 -2.56075,-2.55917 z"
       id="path3" />
    <path
       style="fill:#000000"
       d="m 663.95515,191.66205 0,-26.94723 27.77202,0 27.77203,0 0,26.3998 c 0,14.51989 0.11571,26.58163 0.25715,26.80387 0.14142,0.22225 -12.35599,0.46859 -27.77203,0.54743 l -28.02917,0.14335 0,-26.94722 z"
       id="path3031" />
    <path
       style="fill:#000000"
       d="m 707.94549,191.5187 0.27511,-13.33459 -15.96116,0 -15.96117,0 0,13.48331 0,13.48332 15.68605,-0.14873 15.68605,-0.14872 0.27512,-13.33459 z"
       id="path3033" />
    <path
       style="fill:#000000"
       d="m 736.90244,218.18788 c -0.0455,-0.22224 -0.16127,-12.34459 -0.25714,-26.93852 l -0.17431,-26.53445 30.08636,-5e-5 30.08635,-4e-5 0,26.93857 0,26.93857 -29.82921,0 c -16.40606,0 -29.86648,-0.18184 -29.91205,-0.40408 z"
       id="path3035" />
    <path
       style="fill:#000000"
       d="m 784.30058,191.65339 0,-13.46928 -17.48609,0 -17.48608,0 0,13.46928 0,13.46928 17.48608,0 17.48609,0 0,-13.46928 z"
       id="path3037" />
    <path
       style="fill:#000000"
       d="m 651.84699,297.11789 c -0.66543,-2.74101 -2.13679,-6.802 -3.26968,-9.02443 -1.13291,-2.22243 -2.07073,-4.22262 -2.08404,-4.44486 -0.0133,-0.22224 1.98465,-0.40408 4.43993,-0.40408 6.07691,0 18.84136,-1.77104 25.52358,-3.54134 16.9577,-4.49256 26.36649,-9.66228 34.40897,-18.90622 l 3.55691,-4.08828 -30.37673,0.23045 -30.37672,0.23046 0,-8.03743 0,-8.03742 2.82863,0.35604 c 1.55575,0.19584 16.06277,0.49844 32.23781,0.67246 l 29.40917,0.31641 0.67102,-4.51574 c 0.36907,-2.48365 0.6738,-7.23717 0.67719,-10.56337 l 0.006,-6.04762 7.97159,1.55369 c 4.38438,0.85454 8.72765,1.71209 9.6517,1.90569 1.50605,0.31552 1.53354,0.60707 0.26531,2.81434 -1.61524,2.81123 -4.18577,13.98675 -3.32129,14.43955 0.31483,0.16491 7.79766,0.2329 16.6285,0.15109 l 16.05608,-0.14877 -5.11935,-5.59468 -5.11937,-5.59467 4.69064,-4.50728 c 2.57985,-2.47902 5.07354,-4.50729 5.54156,-4.50729 0.468,0 3.07339,2.81119 5.78972,6.2471 4.43976,5.61586 4.79534,6.36442 3.51889,7.40811 -0.78098,0.63855 -2.79029,2.47178 -4.46515,4.07386 l -3.04521,2.91284 17.90766,-0.33492 c 9.84922,-0.18421 18.94913,-0.49287 20.22201,-0.68591 l 2.31433,-0.35099 3.7e-4,8.00971 3.5e-4,8.00972 -32.40105,-0.18615 c -17.82059,-0.10239 -32.40107,-0.0151 -32.40107,0.19396 0,1.00568 6.81825,6.89167 11.47585,9.90675 11.93465,7.7259 29.55927,11.96634 49.86297,11.99694 l 9.39485,0.0142 -1.41846,2.77584 c -1.7529,3.43034 -4.15343,10.35103 -5.04533,14.5456 l -0.66967,3.14941 -3.74632,-0.36812 c -7.24268,-0.71172 -20.3227,-3.09579 -26.9389,-4.91015 -18.28784,-5.01503 -29.0066,-12.16985 -41.07898,-27.42037 -2.34572,-2.96324 -4.74473,-5.98627 -5.33113,-6.71784 -0.97351,-1.21452 -1.41912,-0.83989 -5.12669,4.31017 -10.92395,15.17412 -21.50143,22.54961 -43.40052,30.26242 -9.16307,3.22722 -24.82,7.43478 -27.66589,7.43478 -1.04374,0 -1.77352,-1.37229 -2.65022,-4.98364 z"
       id="path3029" />
    <path
       style="fill:#000000"
       d="m 663.95515,340.89305 0,-38.25276 28.02917,0 28.02918,0 0,37.71399 0,37.714 -5.91442,0 -5.91442,0 0,-8.62034 0,-8.62034 -15.94319,0 -15.9432,0 0,9.15911 0,9.15911 -6.17157,0 -6.17155,0 0,-38.25277 z"
       id="path4" />
    <path
       style="fill:#000000"
       d="m 707.94353,332.13802 -0.27316,-15.22029 -15.68605,-0.14873 -15.68605,-0.14872 0,15.36902 0,15.36901 15.95921,0 15.95922,0 -0.27317,-15.22029 z"
       id="path3023" />
    <path
       style="fill:#000000"
       d="m 784.30058,369.98671 0,-9.15911 -17.48609,0 -17.48608,0 0,8.62034 0,8.62034 -6.03646,0 -6.03645,0 0.0391,-37.714 0.0391,-37.71399 29.65505,0 29.65503,0 0,38.25276 0,38.25277 -6.17156,0 -6.17156,0 0,-9.15911 z"
       id="path3025" />
    <path
       style="fill:#000000"
       d="m 784.05945,332.13802 -0.27316,-15.22029 -17.22894,-0.14772 -17.22894,-0.14772 0,15.36801 0,15.36801 17.5021,0 17.50211,0 -0.27317,-15.22029 z"
       id="path3027" />
    <path
       style="fill:#000000"
       d="m 843.88848,374.9742 c -1.2652,-2.00231 -3.8498,-5.42857 -5.74358,-7.61391 -1.89379,-2.18536 -3.44324,-4.1727 -3.44324,-4.41634 0,-0.24364 2.24392,-1.99583 4.98648,-3.89376 32.43432,-22.44546 53.80229,-58.29327 62.84896,-105.43809 4.19006,-21.83563 4.66782,-28.13209 4.67418,-61.60193 l 0.006,-32.77765 3.88101,0.32503 c 2.13455,0.17878 6.22944,0.58885 9.09972,0.91129 4.94791,0.55581 5.18433,0.66022 4.55588,2.01203 -0.36456,0.78419 -0.9247,12.45714 -1.24476,25.93989 -0.94708,39.89647 1.0148,53.70041 11.56257,81.35448 16.2922,42.71483 34.19553,67.44932 60.63944,83.77696 l 5.40216,3.33554 -4.81928,7.49233 c -2.65061,4.12079 -5.26846,8.46213 -5.81747,9.64742 l -0.99819,2.15509 -5.84966,-4.31017 c -27.21543,-20.05302 -47.73334,-51.97742 -61.46297,-95.63191 -1.63093,-5.18568 -3.29757,-10.97302 -3.70365,-12.86076 -0.96584,-4.48991 -1.89863,-3.35005 -3.47014,4.24041 -6.69889,32.3562 -24.09486,66.22994 -46.48356,90.51359 -7.73751,8.39241 -19.68514,19.62814 -21.49472,20.21394 -0.45377,0.14689 -1.8602,-1.37117 -3.12539,-3.37348 z"
       id="path5" />
  </g>
</svg>
