<?xml version="1.0" encoding="UTF-8" standalone="no"?>
<!-- Created with Inkscape (http://www.inkscape.org/) -->

<svg
   width="161.40729mm"
   height="64.256279mm"
   viewBox="0 0 161.40729 64.256279"
   version="1.1"
   id="svg1"
   xml:space="preserve"
   inkscape:export-filename="mixlogo.svg"
   inkscape:export-xdpi="96"
   inkscape:export-ydpi="96"
   xmlns:inkscape="http://www.inkscape.org/namespaces/inkscape"
   xmlns:sodipodi="http://sodipodi.sourceforge.net/DTD/sodipodi-0.dtd"
   xmlns="http://www.w3.org/2000/svg"
   xmlns:svg="http://www.w3.org/2000/svg"><sodipodi:namedview
     id="namedview1"
     pagecolor="#ffffff"
     bordercolor="#000000"
     borderopacity="0.25"
     inkscape:showpageshadow="2"
     inkscape:pageopacity="0.0"
     inkscape:pagecheckerboard="0"
     inkscape:deskcolor="#d1d1d1"
     inkscape:document-units="mm"><inkscape:page
       x="0"
       y="0"
       width="161.40729"
       height="64.256279"
       id="page2"
       margin="0"
       bleed="0" /></sodipodi:namedview><defs
     id="defs1"><linearGradient
       id="paint0_linear_58_1385"
       x1="0.348268"
       y1="33.084202"
       x2="66.909401"
       y2="33.084202"
       gradientUnits="userSpaceOnUse"
       gradientTransform="matrix(0.26458333,0,0,0.26458333,42.211837,115.34028)"><stop
         stop-color="#0071EF"
         id="stop5" /><stop
         offset="1"
         stop-color="#149BFF"
         id="stop6" /></linearGradient><linearGradient
       id="paint1_linear_58_1385"
       x1="0.42147601"
       y1="50.576199"
       x2="31.6187"
       y2="50.576199"
       gradientUnits="userSpaceOnUse"
       gradientTransform="matrix(0.26458333,0,0,0.26458333,42.211837,115.34028)"><stop
         stop-color="#43C5AC"
         id="stop7" /><stop
         offset="1"
         stop-color="#8AD4C2"
         id="stop8" /></linearGradient><style
       id="style1">.cls-1,.cls-2{fill:#231815;}.cls-2{fill-rule:evenodd;}</style><style
       id="style1-6">.cls-1,.cls-2{fill:#231815;}.cls-2{fill-rule:evenodd;}</style></defs><g
     inkscape:label="图层 1"
     inkscape:groupmode="layer"
     id="layer1"
     transform="translate(-36.288054,-68.582674)"><path
       d="m 59.30736,128.67814 c 0.382455,0.57396 0.527817,1.27225 0.405976,1.94995 -0.121867,0.67768 -0.501623,1.2827 -1.060423,1.68944 -0.5588,0.40677 -1.253728,0.58402 -1.940534,0.49499 -0.686805,-0.089 -1.312756,-0.43755 -1.74789,-0.97317 -0.08276,-0.0945 -0.163777,-0.19079 -0.244793,-0.28882 -1.23309,-1.48449 -2.191305,-3.17476 -2.830062,-4.99215 -0.263419,-0.75028 -0.693817,-1.43182 -1.259179,-1.99372 -0.565335,-0.56192 -1.251029,-0.98973 -2.005912,-1.25153 -1.826392,-0.63143 -3.525705,-1.57964 -5.019111,-2.80064 -0.09686,-0.0805 -0.19548,-0.1628 -0.288819,-0.24506 -0.577067,-0.41921 -0.962953,-1.0491 -1.072768,-1.75109 -0.109814,-0.70199 0.06544,-1.41859 0.487205,-1.99216 0.421764,-0.57356 1.055494,-0.9571 1.761776,-1.06625 0.706289,-0.10915 1.427252,0.065 2.004335,0.48424 0.522578,0.35656 0.991103,0.78568 1.391258,1.2743 l 0.227172,0.27131 c 0.880559,1.0765 1.481084,2.39106 2.486686,3.35554 l 0.202512,0.19079 c 0.191479,0.18309 0.427646,0.31343 0.685245,0.37815 0.257598,0.0647 0.527711,0.0616 0.783722,-0.009 0.256011,-0.0707 0.489056,-0.20646 0.676169,-0.39394 0.187113,-0.18751 0.321813,-0.42024 0.390842,-0.67524 l 0.05813,-0.21707 c 0.244793,-0.9067 0.253577,-1.88343 0.611082,-2.75338 l 0.05988,-0.14703 c 0.189627,-0.46067 0.490855,-0.86761 0.876935,-1.18461 0.386054,-0.31699 0.845,-0.53421 1.335934,-0.63233 0.490935,-0.0981 0.99867,-0.0741 1.478016,0.07 0.479319,0.14404 0.915405,0.40363 1.269418,0.75565 0.354039,0.35203 0.614997,0.78558 0.759698,1.26207 0.144727,0.47649 0.168672,0.98114 0.06974,1.46906 -0.09895,0.48792 -0.317685,0.94395 -0.636799,1.32755 -0.319114,0.38359 -0.728663,0.68281 -1.192239,0.87106 l -0.149675,0.0613 c -0.88056,0.35007 -1.856211,0.36409 -2.768441,0.60737 l -0.216614,0.0578 c -0.388224,0.10287 -0.719985,0.35367 -0.923396,0.69805 -0.203385,0.34438 -0.262044,0.75456 -0.163222,1.14162 0.06466,0.25615 0.195845,0.49094 0.380418,0.68091 l 0.191955,0.20129 c 0.97036,0.99949 2.289413,1.59287 3.374258,2.47158 l 0.274717,0.22231 c 0.491067,0.39708 0.922232,0.86219 1.280319,1.38107"
       fill="url(#paint0_linear_58_1385)"
       id="path1"
       style="fill:url(#paint0_linear_58_1385);stroke-width:0.264583" /><path
       d="m 45.783897,125.45038 c 0.258842,-0.26101 0.566896,-0.46879 0.906542,-0.61145 0.339619,-0.14264 0.704215,-0.21741 1.072938,-0.22 0.368062,-0.002 0.732896,0.068 1.074262,0.20481 0.513635,0.20802 0.953531,0.56295 1.263941,1.01981 0.310382,0.45683 0.477308,0.99502 0.479557,1.54628 0.0013,0.36626 -0.07046,0.72916 -0.211005,1.06775 -0.140547,0.33856 -0.34716,0.64614 -0.607907,0.90496 l -0.02114,0.0228 -2.736744,2.66586 c -0.518954,0.50753 -1.218645,0.79066 -1.946672,0.78772 -0.728014,-0.003 -1.425379,-0.29168 -1.940176,-0.80336 -0.514795,-0.51167 -0.805308,-1.2048 -0.808255,-1.92841 -0.0029,-0.72358 0.281908,-1.41904 0.79252,-1.93485 z"
       fill="url(#paint1_linear_58_1385)"
       id="path2"
       style="fill:url(#paint1_linear_58_1385);stroke-width:0.264583" /><path
       d="m 67.535187,124.30741 -2.389823,-3.85088 h 2.018216 l 1.31908,2.23001 0.30472,0.77192 0.285221,-0.77544 1.375304,-2.23001 h 1.813984 l -2.472532,3.77563 2.604559,4.0662 h -1.995223 l -1.502304,-2.38581 -0.352108,-0.80695 -0.325808,0.80695 -1.505717,2.38581 h -1.81393 z"
       fill="#333333"
       id="path3"
       style="stroke-width:0.264583" /><path
       d="m 85.450839,128.29484 h -5.431102 v -7.84183 h 1.667668 v 6.38548 h 3.763434 z m 0.808302,-5.47878 c 0.39661,-0.16627 0.809889,-0.29009 1.232693,-0.36934 0.505619,-0.0974 1.019175,-0.14607 1.534054,-0.14528 0.350838,-0.009 0.700617,0.0404 1.03558,0.14528 0.251883,0.076 0.47916,0.21646 0.659341,0.4072 0.180182,0.19076 0.306917,0.42516 0.367242,0.67982 0.07779,0.27686 0.115623,0.56327 0.112712,0.85069 0,0.38158 -0.01587,0.75792 -0.04577,1.13252 -0.0299,0.37457 -0.04577,0.76843 -0.04577,1.18676 -5.3e-4,0.2776 0.01905,0.55486 0.05821,0.82971 0.0344,0.2622 0.09313,0.52062 0.175948,0.77192 H 90.05777 l -0.258762,-0.87522 h -0.121444 c -0.202406,0.26927 -0.454554,0.49745 -0.743214,0.67218 -0.35269,0.20002 -0.754857,0.2971 -1.160727,0.28006 -0.268023,0.003 -0.534723,-0.0382 -0.788988,-0.12253 -0.223837,-0.0767 -0.430742,-0.19553 -0.609335,-0.3501 -0.165629,-0.1547 -0.300302,-0.33946 -0.396082,-0.54435 -0.09155,-0.21661 -0.137583,-0.4495 -0.135731,-0.68442 0,-0.66398 0.221986,-1.16401 0.665692,-1.50009 0.443971,-0.3361 1.123685,-0.51112 2.039408,-0.52514 0.211931,4.2e-4 0.423598,0.0192 0.632354,0.056 0.210079,0.0303 0.356129,0.0531 0.438415,0.0683 0.02064,-0.13385 0.03175,-0.26895 0.03334,-0.40436 0.01005,-0.1134 -0.004,-0.2276 -0.04048,-0.33544 -0.03678,-0.10784 -0.09551,-0.20698 -0.172508,-0.2912 -0.142611,-0.13478 -0.410369,-0.2013 -0.799571,-0.2013 -0.356658,-7.1e-4 -0.711729,0.0446 -1.056746,0.13478 -0.310621,0.075 -0.612246,0.18299 -0.899848,0.32208 z m 2.062162,4.31299 c 0.301625,0.0156 0.599546,-0.0708 0.845344,-0.24505 0.188912,-0.13817 0.347133,-0.3133 0.465137,-0.51462 v -0.67389 c -0.05741,-0.0195 -0.116416,-0.0341 -0.176212,-0.0438 -0.07408,-0.0158 -0.160338,-0.0298 -0.259027,-0.0455 -0.09313,-0.0159 -0.187325,-0.027 -0.281517,-0.0333 -0.08996,0 -0.176212,-0.0122 -0.248444,-0.0122 -0.31697,-0.0236 -0.633148,0.055 -0.9017,0.22405 -0.08996,0.0586 -0.163777,0.13856 -0.214841,0.2327 -0.05107,0.0941 -0.07779,0.19947 -0.07752,0.30641 -0.0082,0.11087 0.0077,0.22218 0.04657,0.32637 0.03889,0.10422 0.100013,0.19886 0.178859,0.27752 0.177006,0.14007 0.399256,0.21159 0.62521,0.20129 z m 4.526227,-6.67604 h 1.584854 v 2.46457 h 0.135732 c 0.189177,-0.20762 0.424127,-0.36878 0.686858,-0.47086 0.297391,-0.11983 0.61595,-0.17933 0.936889,-0.17504 0.76544,0 1.347788,0.25032 1.74678,0.75094 0.399256,0.50061 0.601927,1.2247 0.607747,2.17225 0.0034,0.46858 -0.07752,0.93398 -0.239447,1.37406 -0.124884,0.37981 -0.334434,0.72655 -0.613834,1.01399 -0.279135,0.28747 -0.620183,0.50816 -0.997744,0.6454 -0.423597,0.147 -0.870214,0.2187 -1.318947,0.2118 -0.505884,0.005 -1.010973,-0.0359 -1.509448,-0.12253 -0.347663,-0.0516 -0.68924,-0.13785 -1.01944,-0.25731 z m 1.584854,6.50801 c 0.148696,0.0746 0.308769,0.12427 0.473869,0.14703 0.175948,0.014 0.35216,0.021 0.552979,0.021 0.975519,0 1.46394,-0.63481 1.464998,-1.90444 0,-0.53679 -0.101335,-0.9452 -0.304535,-1.22526 -0.10213,-0.14068 -0.238125,-0.25342 -0.395817,-0.32779 -0.157692,-0.0743 -0.331788,-0.10792 -0.505883,-0.0976 -0.29263,-0.0141 -0.581819,0.0683 -0.822325,0.23455 -0.220398,0.18304 -0.381529,0.42659 -0.463286,0.70017 z"
       fill="#333333"
       id="path4"
       style="stroke-width:0.264583" /><path
       d="m 76.116868,125.49417 c 0.778139,0 1.408906,-0.62696 1.408906,-1.40034 0,-0.77337 -0.630767,-1.40033 -1.408906,-1.40033 -0.777875,0 -1.408642,0.62696 -1.408642,1.40033 0,0.77338 0.630767,1.40034 1.408642,1.40034 z"
       fill="#333333"
       id="path5"
       style="stroke-width:0.264583" /><path
       class="cls-2"
       d="m 167.02245,96.044592 c -1.15309,-0.246343 -0.46648,-0.610615 -0.64993,-1.595984 -0.15723,-0.851716 -0.92509,-1.682466 -0.90674,-2.314046 0.0655,-1.698189 2.2459,-1.593363 3.56672,-1.050885 0.23586,0.09696 0.51103,0.453374 0.75475,0.801922 0.60537,0.875302 1.31557,2.141082 0.38,3.102865 -0.81241,0.82813 -2.14109,1.273643 -3.14218,1.056128"
       id="path1-8"
       style="stroke-width:0.262066" /><path
       class="cls-2"
       d="m 153.89817,94.275644 c -0.0367,-0.01572 -0.076,-0.03145 -0.11269,-0.04717 0.008,-0.128412 0.0157,-0.256825 0.0262,-0.369513 0.36165,-0.136275 3.49858,-2.185633 3.49334,-2.269495 0.91461,-0.728544 1.73226,-1.538329 1.99433,-2.712386 -2.25115,0.739027 -4.38175,2.376942 -6.71152,2.549905 -1.07972,-0.267307 -1.81874,-0.851715 -2.57611,-1.181919 -0.005,-0.05503 -0.005,-0.09172 -0.008,-0.125791 -1.23171,-0.807165 -1.3444,-1.842327 0.0131,-2.287839 2.34549,0.518891 5.9358,-1.155713 8.1424,-1.996945 0.4953,-0.217516 1.92356,-0.725924 2.31142,-1.176678 0.51889,-3.095003 0.18083,-6.197868 0.36427,-9.156597 0.75738,-2.141081 2.08867,-0.686613 3.41211,0.385238 0.0891,0.178205 0.3931,0.374755 0.6604,0.775716 0.0367,-0.0026 0.0734,-0.0052 0.12842,-0.01048 0.56082,0.891026 0.71806,1.299849 -0.152,2.13322 -0.58703,1.451847 -0.87268,3.066176 -0.7993,4.7434 1.6117,-0.227998 2.58397,-1.637914 4.44988,-1.664121 0.44551,0.864819 0.39048,1.598605 -0.43241,2.319287 -1.36012,0.649924 -2.83555,1.236953 -4.3765,1.93667 -0.35904,1.564536 -0.98013,3.47762 -2.08081,4.74602 -0.16248,0.186068 -0.95654,0.925095 -1.14785,1.040404 -0.99847,0.579166 -1.89736,1.286745 -2.99018,1.593363 -3.02424,0.841233 -3.06093,0.702337 -3.60341,0.778337"
       id="path2-9"
       style="stroke-width:0.262066" /><path
       class="cls-2"
       d="m 124.98701,99.553659 c -1.11378,-0.51365 -2.12535,-1.852808 -2.72548,-2.691421 0.0996,-0.298755 0.20441,-0.597511 0.32234,-0.875301 2.62328,-1.965497 5.21774,-3.789479 7.59468,-6.129731 0.72068,-1.10592 1.65888,-2.264253 2.43197,-3.357069 0.0341,-0.02096 0.0839,-0.03931 0.13628,-0.04193 -0.003,-0.05241 -0.005,-0.08648 -0.008,-0.11793 0.67089,-0.524132 0.95392,-0.660407 1.5226,0.19655 0.0419,0.715441 -1.24743,1.483295 -1.65102,2.159427 -0.50316,1.281504 -1.07447,2.583973 -1.72963,3.894305 q -0.20966,0.235859 -1.04827,1.609087 c -0.70234,0.542477 -1.64315,1.970738 -2.03888,2.832937 -0.82812,0.482202 -1.18191,1.944531 -2.18039,2.450319 -0.22275,0.0131 -0.42716,0.04193 -0.62896,0.07338"
       id="path3-2"
       style="stroke-width:0.262066" /><path
       class="cls-2"
       d="m 140.46727,90.362994 c -1.61695,-0.07076 -2.07556,-1.103299 -2.95873,-2.044117 -0.0262,-0.427168 0.23324,-0.681372 0.26469,-0.974887 q 0.40358,-0.09434 0.65517,-0.246342 c 0.67875,-0.09696 0.92247,-0.05765 1.65625,-0.104826 0.93034,-0.209653 3.31514,-1.852809 4.11445,-1.147851 0.12055,1.962877 -2.01792,3.946719 -3.73183,4.515403"
       id="path4-7"
       style="stroke-width:0.262066" /><path
       class="cls-2"
       d="m 128.04533,87.26275 c -0.61848,-0.545098 -0.73903,-3.039969 -0.78882,-3.826168 0.46124,-1.399434 1.86591,-1.451847 3.03997,-0.547719 0.93295,1.22385 1.56453,1.734879 0.58965,3.165761 -1.10592,0.959163 -1.59861,1.0273 -2.83818,1.205505"
       id="path5-9"
       style="stroke-width:0.262066" /><path
       class="cls-2"
       d="m 140.02962,86.054624 c -0.16772,-0.759992 0.88054,-2.384803 0.57917,-2.777903 -0.39048,0.06028 -0.79144,0.204412 -1.20551,0.227998 -0.97226,-0.469099 -2.03887,-1.656259 -1.64839,-2.57087 0.72068,-0.817647 0.44027,-0.610615 1.56715,-0.681373 1.06923,-0.47696 2.13846,-0.940818 3.22342,-1.399434 1.81612,-0.338065 2.64949,0.657787 2.75956,2.431976 -0.32235,1.150471 -1.0902,2.05722 -1.83971,2.961349 -0.96178,0.524132 -1.83446,1.10854 -2.70715,1.677224 -0.2542,0.03407 -0.49268,0.08124 -0.72854,0.131033"
       id="path6-5"
       style="stroke-width:0.262066" /><path
       class="cls-2"
       d="m 130.10255,80.915504 c -0.38262,-0.338065 -0.22276,-0.518891 -0.021,-0.859577 -0.0472,-0.752131 -0.4953,-1.354883 -0.53985,-2.072945 0.24372,-1.315573 -0.0105,-1.797775 1.08495,-2.431975 0.84648,0.377375 3.8052,1.886877 3.10287,3.540516 -0.81241,1.02992 -2.45294,1.679845 -3.62438,1.823981"
       id="path7-4"
       style="stroke-width:0.262066" /><path
       class="cls-2"
       d="m 91.806801,100.78275 c -1.755845,-0.67613 -3.296794,-4.156371 -1.168816,-5.013328 0.05503,-0.303997 0.3171,-0.615856 0.571304,-0.707579 -0.0052,-0.05503 -0.0052,-0.09172 -0.0079,-0.128413 1.706051,-1.651017 2.827695,-3.957201 4.261198,-5.778561 0.369513,-0.694476 0.568683,-1.360125 1.357503,-1.556674 0.39572,0.348548 0.256825,1.139988 0.146757,1.742741 0.175585,0.154619 0.786199,0.04193 1.14785,-0.07338 1.18454,-1.022059 2.733353,-1.920946 3.915273,-2.998038 0.0629,-0.526754 0.12055,-1.056128 0.20179,-1.561916 -0.82813,0.199171 -3.545758,0.835992 -2.895834,-0.694475 1.019434,-0.400962 2.565624,-1.278884 3.113344,-2.376942 0.26469,-1.113781 0.11269,-2.353355 0.67875,-3.152657 1.13737,-0.594891 2.49488,0.849095 2.72025,2.083427 0.45862,0.809785 1.8895,-0.193929 0.10483,2.306183 -0.37476,0.280411 -0.35903,0.820268 -0.28565,1.394193 0.13103,0.01048 0.25944,0.02097 0.3931,0.02883 0.99847,-0.715441 2.08867,-1.488536 3.22079,-2.138461 0.30924,-1.603845 0.56344,-2.940384 1.33654,-4.295266 1.10592,-0.754751 2.6128,0.0629 3.69251,0.927714 0.836,-0.05241 1.35489,-0.403582 2.10178,-0.9513 q 0.29351,-0.09172 0.85171,-0.08648 c 0.228,0.39572 0.30924,0.799302 0.34593,1.391572 -0.532,1.635294 -5.21512,2.169909 -4.31361,4.06989 0.81764,-0.05241 1.09806,-0.943439 1.39943,-1.54095 0.91723,-0.484823 2.89321,0.09696 3.84976,0.801923 1.06923,1.294607 0.23848,1.737499 -0.94082,2.555146 -0.11793,0.175584 -0.23586,0.351169 -0.34069,0.524133 q -0.0812,2.615421 -0.0446,6.153316 c -0.4062,0.956542 -0.69448,1.4204 -1.42826,2.196116 0.005,0.03669 0.005,0.07338 0.008,0.110068 -0.0576,0.0026 -0.0917,0.0052 -0.13103,0.0079 -0.456,0.79144 -1.56192,1.569777 -2.22232,0.828129 -0.0131,-2.906315 0.15199,-5.917457 0.055,-8.687498 -0.055,0.0026 -0.11007,0.02359 -0.14414,0.04717 -0.20965,1.409917 -1.63005,4.067269 -2.8408,4.945191 -1.1164,0.06814 -2.05198,-0.581787 -2.3717,-1.527846 0.11531,-0.285652 0.33283,-0.35641 0.56345,-0.555581 0.62896,-1.286745 0.44289,-3.663687 0.43765,-4.929467 -0.90675,0.131033 -2.43722,2.183013 -3.11335,2.950867 -0.46124,0.364272 -0.92509,0.731165 -1.36799,1.092816 -0.32234,1.079713 -0.57654,2.141082 -0.85695,3.294174 -0.24897,0.51627 -0.49531,1.056127 -0.73903,1.593363 -0.0577,0.0052 -0.0943,0.0079 -0.13103,0.0079 -0.42193,0.715441 -1.79516,2.589215 -2.61543,1.409916 -0.0105,-0.167722 -0.0183,-0.314479 -0.0105,-0.466478 0.68137,-1.011576 1.21075,-2.424113 1.22909,-3.579825 -1.11378,0.369513 -1.850184,1.38371 -2.966586,1.451847 -0.642063,-0.128412 -1.286746,-0.330203 -1.711293,-0.545098 -0.0026,-0.05765 -0.0052,-0.09172 -0.0079,-0.128412 -0.272549,-0.170343 -0.547719,-0.414065 -0.712821,-0.348549 -0.204411,0.626339 -0.406203,1.273643 -0.589649,1.918326 -1.153092,2.400527 -1.994324,4.761744 -2.743834,7.400753 -0.421927,0.41669 -0.566063,0.4822 -1.008955,0.58703"
       id="path8-3"
       style="stroke-width:0.262066" /><path
       class="cls-2"
       d="m 94.002916,86.94827 c -0.348548,-0.500546 0.076,-1.160953 0.09696,-1.74012 -0.550339,-1.640535 -0.980128,-2.864385 0.06814,-4.253336 0.167722,-0.02621 0.335445,-0.03931 0.500547,-0.04979 0.759992,0.529374 1.842326,1.747983 2.494871,2.623284 0.794061,1.962877 -1.742741,2.84604 -3.16052,3.419965"
       id="path9-1"
       style="stroke-width:0.262066" /><path
       class="cls-2"
       d="m 95.583176,80.587921 c -0.419306,-0.138895 -0.406203,-0.235859 -0.490064,-0.379996 0.19917,-0.403582 0.390479,-0.636821 0.306618,-1.043024 -1.008956,-1.54095 -0.951301,-3.891684 0.79144,-4.670021 0.505788,0.0629 0.51627,0.492684 0.744268,1.184539 1.132127,1.1033 3.239142,2.466044 1.242194,3.954581 -0.843853,0.369513 -1.755844,0.660407 -2.597077,0.953921"
       id="path10-2"
       style="stroke-width:0.262066" /><path
       class="cls-2"
       d="m 179.5466,86.618067 c -1.57502,-0.490064 -1.27889,-3.079279 -1.01158,-4.122303 1.15047,-0.731165 2.65997,0.788819 2.74384,2.141082 -0.29352,1.485915 -0.27779,1.70343 -1.73226,1.981221"
       id="path11-3"
       style="stroke-width:0.262066" /><path
       class="cls-2"
       d="m 188.06113,98.547325 c -0.0576,-0.03407 -0.097,-0.07076 -0.13365,-0.08386 -2.01267,0.125791 -3.93624,-0.06814 -5.74187,-0.707579 q -0.0812,-0.15724 -0.097,-0.398341 c 1.06399,-0.618477 2.56039,-0.450754 3.37541,-1.567157 0.12842,-0.87006 0.228,-1.611707 0.14414,-2.355976 -1.99694,0.123171 -3.06355,1.530467 -4.64643,2.104393 -1.35227,0.08648 -3.76328,-1.139989 -4.159,-2.217081 0,-1.745362 0.36166,-0.959163 2.22757,-1.077093 2.2197,-0.393099 4.43416,-1.666741 6.5831,-2.607559 q 0.45338,-0.343307 0.70758,-0.450754 c 0.47958,-1.443986 0.81241,-1.700811 2.31929,-1.996946 q 0.58703,-0.293514 2.30356,-1.336538 c 0.0445,-0.167722 0.0891,-0.338065 0.152,-0.505788 -2.60756,0.309238 -4.71719,2.421493 -6.80062,3.818306 -1.02992,0.283032 -1.8135,0.112689 -2.52894,-0.209653 -0.456,0.0629 -3.05569,0.518891 -1.79778,-0.51365 0.7731,-0.301376 1.36275,-0.854336 2.18302,-1.215987 1.95763,-1.318194 4.22189,-2.4477 6.33152,-3.661067 -0.021,-0.330203 -0.14152,-0.505788 -0.20441,-0.59489 0.008,-0.440272 0.0891,-0.665649 0.21489,-1.003714 -0.39834,0.136274 -0.50841,0.107447 -0.58179,0.406203 -1.25267,0.55296 -1.78729,1.687707 -2.83555,0.487443 -0.28303,1.100678 -1.05875,1.863291 -2.15943,1.931429 -1.11902,-0.571305 -1.14523,-2.442458 -1.3444,-3.309898 -0.0786,-0.104826 -0.23586,-0.828129 -0.5451,-1.674603 -0.50579,-1.029921 -1.43874,-2.183013 -0.81764,-3.123831 0.79668,-0.490064 1.11116,-0.67351 1.78729,0.403582 0.57916,0.440272 1.31557,1.037783 1.89474,1.810879 0.0393,-0.0026 0.076,-0.0052 0.12841,-0.01048 0.35379,0.951301 1.22385,2.201357 1.13213,3.417344 0.58702,-0.348548 1.42564,-1.024679 0.99323,-1.768947 -0.96965,-0.526753 -0.41931,-1.42302 0.25944,-1.758465 q 0.47958,0.02621 1.10068,-0.03407 c -0.0157,-0.233239 -0.0341,-0.233239 -0.152,-0.377375 -0.80716,-0.27779 -0.65254,-0.471719 -0.43503,-1.126885 -0.94082,-0.345928 -1.29723,-1.331297 -0.93557,-2.033635 q 2.73073,-0.683993 4.00961,-1.092816 c 0.85172,-1.061369 1.77419,-3.962443 3.42521,-3.425207 0.51627,0.613236 0.87268,1.635294 0.77309,2.652111 -0.20965,0.43503 -0.50316,0.801923 -0.58178,1.284125 0.1651,-0.01048 0.3302,-0.0026 0.4953,0.0052 1.14261,-0.563443 1.66936,-1.239574 2.34549,0.458616 1.1033,0.592269 1.49902,0.440271 1.08496,2.044117 -0.80192,1.609087 -1.66674,3.333483 -2.55777,4.947811 -0.0157,0.076 -0.0288,0.149378 -0.0236,0.220136 0.20441,0.04193 0.40882,0.08648 0.61323,0.146757 0.11793,0.725924 0.1389,1.624811 0.11793,2.507975 -0.68923,1.014196 -1.55405,1.011576 -2.64949,1.155712 -1.38895,0.691855 -2.63901,1.26578 -3.94934,2.044117 -0.005,0.256825 -0.0419,0.516271 0.0891,0.854336 0.66041,-0.02097 1.33916,-0.02621 2.01791,-0.03407 0.74951,0.484822 0.68662,1.847567 0.22276,2.646869 -0.76523,0.102206 -1.21861,0.204412 -1.80564,0.516271 -0.0708,0.369514 -0.13889,0.741648 -0.20441,1.129506 0.0524,1.449226 0.80192,4.94257 -1.3444,5.278015 m 4.2743,-17.841474 c 0.67351,-0.686613 1.14523,-1.354882 1.08758,-2.290459 -0.56082,-0.492685 -1.54095,-0.563443 -2.12798,-0.529374 q -0.076,0.262066 -0.75213,1.517364 c 0.0576,0.03407 0.13365,0.0629 0.20965,0.09434 -0.0708,0.02359 -0.14675,0.04717 -0.19655,0.08648 0.003,0.03669 0.0236,0.07338 0.0445,0.123171 0.29614,0.03931 0.46648,-0.191309 0.59752,-0.400962 1.05612,-0.175584 1.07971,0.207033 1.00371,1.331297 0.0393,0.01572 0.076,0.03145 0.13365,0.06552"
       id="path12-3"
       style="stroke-width:0.262066" /><path
       class="cls-1"
       d="m 94.893942,107.47854 3.087141,-3.81568 h -2.84604 v -0.60013 h 3.697755 v 0.58965 l -3.087141,3.8183 h 3.08452 v 0.60013 h -3.933615 v -0.59227 z m 5.474568,0.58965 h 0.67613 v -2.35597 h 2.61542 v 2.35597 h 0.67613 v -5.00808 h -0.67613 v 2.0546 h -2.61542 v -2.0546 h -0.67613 z m 9.49728,0 v -0.60013 h -3.02163 v -1.67984 h 2.72549 v -0.59489 h -2.72549 v -1.53047 h 2.98232 v -0.60013 h -3.66107 v 5.00808 h 3.70038 z"
       id="path13"
       style="stroke-width:0.262066" /><path
       class="cls-1"
       d="m 113.36437,103.06273 h 0.67876 v 3.60079 c 0,0.49268 -0.1258,0.87268 -0.37738,1.13999 -0.24634,0.2673 -0.60013,0.40096 -1.05875,0.40096 -0.45861,0 -0.83075,-0.12317 -1.08233,-0.37214 -0.25421,-0.24896 -0.37214,-0.59227 -0.35117,-1.03254 v -0.34592 h 0.6342 v 0.34592 c 0,0.26469 0.0655,0.4691 0.19655,0.61324 0.13365,0.14675 0.31972,0.21751 0.56082,0.21751 0.2411,0 0.44027,-0.0891 0.58441,-0.25944 0.14152,-0.17297 0.21227,-0.41145 0.21227,-0.70758 v -3.60079 z"
       id="path14-4"
       style="stroke-width:0.262066" /><path
       class="cls-1"
       d="m 115.87497,103.06273 h 0.67875 v 5.00808 h -0.67875 z"
       id="path15-1"
       style="stroke-width:0.262066" /><path
       class="cls-1"
       d="m 119.86624,103.06273 h 0.77309 l 1.8004,5.00808 h -0.72854 l -0.50841,-1.45184 h -2.00219 l -0.52413,1.45184 h -0.6971 l 1.8895,-5.00808 z m -0.44813,2.9561 h 1.57239 l -0.77047,-2.22232 h 0.003 z"
       id="path16-1"
       style="stroke-width:0.262066" /><path
       class="cls-1"
       d="m 124.41047,108.06819 h -0.65255 v -5.00808 h 0.81241 l 2.50797,4.06989 v -4.06989 h 0.65255 v 5.00808 h -0.73903 l -2.58135,-4.08561 z"
       id="path17-3"
       style="stroke-width:0.262066" /><path
       class="cls-1"
       d="m 131.90294,108.20447 c -0.69447,0 -1.25791,-0.2411 -1.6877,-0.72593 -0.42717,-0.48482 -0.64206,-1.11902 -0.64206,-1.90784 0,-0.78882 0.22013,-1.4335 0.65778,-1.9157 0.43765,-0.48745 1.00896,-0.72855 1.71916,-0.72855 0.54772,0 1.01943,0.152 1.41253,0.45862 0.39572,0.30662 0.62372,0.69709 0.69186,1.17668 h -0.65255 c -0.0629,-0.33021 -0.22537,-0.58965 -0.4822,-0.77048 -0.25944,-0.1782 -0.59751,-0.26993 -1.01157,-0.26993 -0.48745,0 -0.88055,0.18869 -1.18454,0.56607 -0.30138,0.37737 -0.45338,0.8753 -0.45338,1.48591 0,0.65255 0.14676,1.15571 0.43765,1.51475 0.2909,0.35641 0.70496,0.53461 1.23433,0.53461 0.52938,0 0.93296,-0.18869 1.25006,-0.56606 0.0524,-0.0603 0.097,-0.12055 0.1389,-0.18869 0.055,-0.0891 0.0996,-0.20965 0.13889,-0.36951 0.0367,-0.15724 0.055,-0.30924 0.055,-0.45338 v -0.0603 h -1.56715 v -0.57393 h 2.19087 v 2.64949 h -0.42192 l -0.16249,-0.62896 -0.0367,0.0419 c -0.41145,0.48483 -0.95131,0.72593 -1.62219,0.72593"
       id="path18"
       style="stroke-width:0.262066" /><path
       class="cls-1"
       d="m 142.77083,106.23373 c 0,0.61848 -0.17296,1.10068 -0.51889,1.44923 -0.34855,0.34854 -0.83075,0.52151 -1.44922,0.52151 -0.61848,0 -1.13213,-0.16772 -1.46758,-0.50055 -0.33544,-0.33544 -0.50578,-0.82551 -0.50578,-1.47019 v -3.17362 h 0.67875 v 3.12121 c 0,0.46647 0.11007,0.81764 0.3302,1.06136 0.22014,0.24373 0.53986,0.36166 0.96441,0.36166 0.42454,0 0.74164,-0.12055 0.9644,-0.36166 0.21752,-0.24372 0.32758,-0.59489 0.32758,-1.06136 v -3.12121 h 0.67613 z"
       id="path19"
       style="stroke-width:0.262066" /><path
       class="cls-1"
       d="m 145.33908,108.06819 h -0.65516 v -5.00808 h 0.8124 l 2.50798,4.06989 v -4.06989 h 0.65254 v 5.00808 h -0.74164 l -2.57874,-4.08561 v 4.08561 z m 5.18368,0 h 0.67613 v -5.00808 h -0.67613 z m 3.82354,0 h 0.72855 l 1.82136,-5.00808 h -0.74951 l -1.43088,4.28216 h -0.003 l -1.43613,-4.28216 h -0.75213 z m 7.54751,0 v -0.60013 h -3.02162 v -1.67984 h 2.72287 v -0.59489 h -2.72287 v -1.53047 h 2.98231 v -0.60013 h -3.66106 v 5.00808 h 3.70037 z"
       id="path20-8"
       style="stroke-width:0.262066" /><path
       class="cls-1"
       d="m 163.69945,103.06273 h 2.32977 c 0.52937,0 0.93557,0.11793 1.21337,0.34592 0.27779,0.23062 0.41668,0.56869 0.41668,1.0142 0,0.44551 -0.14676,0.78096 -0.43241,1.02992 -0.0734,0.0629 -0.152,0.11531 -0.23586,0.16248 l 0.11269,0.0524 c 0.304,0.17558 0.46386,0.46909 0.47172,0.88316 l 0.0262,0.91199 c 0.005,0.14938 0.0236,0.25945 0.0603,0.32496 0.0341,0.0655 0.097,0.12055 0.19655,0.17035 v 0.10744 h -0.83337 c -0.0183,-0.0393 -0.0367,-0.14675 -0.055,-0.31972 -0.0183,-0.17296 -0.0341,-0.36427 -0.0419,-0.57392 l -0.0157,-0.39572 c -0.0105,-0.31186 -0.0839,-0.532 -0.228,-0.66565 -0.14413,-0.13366 -0.37999,-0.19917 -0.70233,-0.19917 h -1.60909 v 2.1568 h -0.67613 v -5.00808 z m 0.67613,2.26163 h 1.6746 c 0.31448,0 0.54248,-0.0708 0.68924,-0.20703 0.14413,-0.13628 0.21751,-0.35379 0.21751,-0.65255 0,-0.29875 -0.076,-0.50054 -0.23062,-0.63158 -0.15199,-0.13627 -0.39572,-0.20179 -0.72592,-0.20179 h -1.62481 v 1.69033 z"
       id="path21-7"
       style="stroke-width:0.262066" /><path
       class="cls-1"
       d="m 172.54157,104.51457 c -0.0288,-0.3171 -0.15462,-0.5582 -0.37214,-0.73116 -0.22013,-0.17034 -0.51365,-0.25683 -0.88316,-0.25683 -0.36952,0 -0.67351,0.0734 -0.87006,0.22276 -0.19655,0.14938 -0.29614,0.36165 -0.29614,0.64468 0,0.19393 0.0681,0.33807 0.19917,0.43503 0.13366,0.0944 0.39572,0.18869 0.79669,0.28041 l 0.87006,0.20966 c 0.46647,0.10745 0.7993,0.27517 0.99847,0.49268 0.20179,0.2149 0.30399,0.52414 0.30399,0.91723 0,0.45338 -0.17296,0.81503 -0.51627,1.07972 -0.3433,0.26731 -0.80978,0.39834 -1.39681,0.39834 -0.65517,0 -1.16619,-0.152 -1.53309,-0.45862 -0.35903,-0.30399 -0.53985,-0.71544 -0.53985,-1.23957 v -0.0367 h 0.62371 c 0.0105,0.36165 0.14414,0.64206 0.39572,0.83861 0.25421,0.19655 0.60276,0.29614 1.05351,0.29614 0.41669,0 0.73117,-0.0708 0.94868,-0.21228 0.2149,-0.14413 0.32496,-0.35379 0.32496,-0.63158 0,-0.23848 -0.0734,-0.4193 -0.21489,-0.53199 -0.14152,-0.11531 -0.42455,-0.22014 -0.85172,-0.32496 l -0.87268,-0.20704 c -0.44027,-0.10482 -0.75737,-0.24896 -0.94606,-0.43503 -0.18606,-0.18868 -0.28041,-0.44551 -0.28041,-0.77309 0,-0.47958 0.15986,-0.85696 0.48482,-1.13737 0.32759,-0.28303 0.76786,-0.42193 1.32082,-0.42193 0.55296,0 1.01157,0.14152 1.3444,0.42193 0.33544,0.28303 0.51103,0.66827 0.53461,1.1662 h -0.62371 z"
       id="path22"
       style="stroke-width:0.262066" /><path
       class="cls-1"
       d="m 174.94209,103.06273 h 0.67613 v 5.00808 h -0.67613 z m 3.79472,5.00808 h 0.67613 v -4.40795 h 1.69295 v -0.60013 h -4.06203 v 0.60013 h 1.69295 z m 5.43264,-0.003 h 0.67613 v -1.99432 l 1.88688,-3.01376 h -0.78358 l -1.43875,2.43197 v 0 c 0,0 -1.43874,-2.43197 -1.43874,-2.43197 h -0.78882 l 1.88688,3.0059 z"
       id="path23-4"
       style="stroke-width:0.262066" /><path
       class="cls-1"
       d="m 58.592518,68.582664 c 12.285668,0 22.304463,10.021415 22.304463,22.304463 0,12.283043 -10.018795,22.304463 -22.304463,22.304463 -12.285668,0 -22.304463,-10.0188 -22.304463,-22.304463 0,-12.285668 10.021415,-22.304463 22.304463,-22.304463 m 0,0.891025 c -11.795604,0 -21.413438,9.620454 -21.413438,21.413438 0,11.792983 9.620454,21.416053 21.413438,21.416053 11.792983,0 21.413437,-9.62045 21.413437,-21.416053 0,-11.795604 -9.617833,-21.413438 -21.413437,-21.413438"
       id="path24-2"
       style="stroke-width:0.262066" /><path
       class="cls-1"
       d="m 50.756735,100.39489 c -1.394192,-1.15571 -2.536801,-2.607558 -3.317759,-4.263817 -0.754751,-1.593363 -1.174057,-3.370172 -1.174057,-5.243946 0,-6.790138 5.540082,-12.327599 12.327599,-12.327599 6.787517,0 12.327599,5.537461 12.327599,12.327599 0,1.873774 -0.424548,3.650583 -1.176678,5.243946 -0.780958,1.656259 -1.923567,3.108107 -3.31776,4.263817 l -0.283031,-0.3433 c 1.347021,-1.113786 2.445078,-2.515841 3.199829,-4.111825 0.725924,-1.533088 1.132127,-3.247001 1.132127,-5.052638 0,-6.543796 -5.338291,-11.884707 -11.884707,-11.884707 -6.546416,0 -11.882086,5.338291 -11.882086,11.884707 0,1.805637 0.406203,3.51955 1.129506,5.052638 0.754751,1.595984 1.852809,2.998039 3.199829,4.111825 l -0.283031,0.3433 z"
       id="path25"
       style="stroke-width:0.262066" /><path
       class="cls-2"
       d="m 39.493126,98.335051 -0.841233,-2.256391 0.458616,-0.15986 3.854995,0.587028 -0.589649,-1.58288 0.458616,-0.159861 0.770475,2.067703 -0.461237,0.159861 -3.852374,-0.587029 0.657786,1.771569 -0.458616,0.15986 z"
       id="path26"
       style="stroke-width:0.262066" /><path
       class="cls-2"
       d="m 40.960697,101.40909 -0.230618,-0.44813 1.810878,-0.93296 -0.576546,-1.119024 -1.813499,0.932956 -0.230618,-0.450754 3.87596,-1.994324 0.230619,0.450754 -1.632673,0.838612 0.573925,1.116402 1.632673,-0.838612 0.233239,0.450754 -3.875961,1.994326 z"
       id="path27-7"
       style="stroke-width:0.262066" /><path
       class="cls-2"
       d="m 42.797782,103.86727 -1.375848,-1.92357 3.634859,-2.256387 1.312953,1.829227 -0.403583,0.24896 -0.998472,-1.39419 -1.126885,0.69971 0.919852,1.28151 -0.403582,0.25158 -0.917232,-1.2815 -1.297228,0.80716 1.06661,1.48854 -0.403582,0.25158 z"
       id="path28-7"
       style="stroke-width:0.262066" /><path
       class="cls-2"
       d="m 45.887544,106.8889 -0.461237,-0.39048 2.675697,-3.28632 0.461236,0.38786 z"
       id="path29-9"
       style="stroke-width:0.262066" /><path
       class="cls-2"
       d="m 47.960488,108.3355 0.547719,-1.16619 -0.665649,-0.47959 -0.98799,0.96179 -0.453374,-0.34855 3.136933,-3.09762 0.63158,0.38261 -1.669362,4.04893 z m 0.801923,-1.73226 0.655166,-1.50426 -0.06028,-0.0498 -1.129505,1.15047 0.537236,0.40358 z"
       id="path30"
       style="stroke-width:0.262066" /><path
       class="cls-2"
       d="m 51.102663,109.85549 -0.566063,-0.26469 0.330203,-3.02163 -1.239573,2.54205 -0.563443,-0.25945 1.965497,-3.89168 0.51103,0.23586 -0.238481,2.87224 1.278884,-2.3717 0.47434,0.19655 z"
       id="path31"
       style="stroke-width:0.262066" /><path
       class="cls-2"
       d="m 54.029944,110.73079 -0.364273,-0.12055 0.03407,-0.34331 c -0.08386,0.0734 -0.19917,0.12055 -0.338066,0.14152 -0.141515,0.0236 -0.283031,0.0105 -0.427168,-0.0367 -0.301376,-0.0996 -0.524132,-0.33283 -0.668269,-0.7102 -0.146757,-0.37738 -0.115309,-0.89627 0.08648,-1.55144 0.222757,-0.71806 0.495305,-1.22122 0.817647,-1.50164 0.322342,-0.28041 0.815026,-0.43765 1.250056,-0.29875 0.469099,0.14938 0.770475,0.72592 0.639442,1.52522 l -0.560822,-0.0472 c 0.09434,-0.34068 0.04455,-0.87268 -0.288273,-0.98275 -0.269928,-0.0865 -0.571304,-0.005 -0.765233,0.21228 -0.191309,0.21489 -0.379996,0.61847 -0.563443,1.21861 -0.172964,0.56606 -0.222756,0.98012 -0.146757,1.23957 0.076,0.26207 0.209653,0.42193 0.39572,0.4822 0.186067,0.0603 0.35641,0.0367 0.508409,-0.076 0.151998,-0.10744 0.275169,-0.31972 0.369513,-0.62372 l 0.07862,-0.25158 -0.67089,-0.21489 0.136275,-0.43503 1.098058,0.35641 -0.623718,2.02315 z"
       id="path32-3"
       style="stroke-width:0.262066" /><path
       class="cls-2"
       d="m 59.829471,109.769 c -0.0131,0.39048 -0.11793,0.69972 -0.31448,0.92248 -0.19655,0.22013 -0.500546,0.32496 -0.90937,0.30924 -0.408823,-0.0157 -0.704958,-0.14152 -0.888405,-0.37738 -0.180825,-0.23586 -0.267307,-0.55034 -0.254204,-0.94344 l 0.09697,-2.96921 0.521512,0.021 -0.09696,2.96921 c -0.01048,0.28041 0.04717,0.48482 0.162481,0.61847 0.11793,0.13628 0.27517,0.20704 0.471719,0.2149 0.19655,0.008 0.359031,-0.0524 0.484823,-0.18083 0.125792,-0.12841 0.193929,-0.32758 0.201791,-0.60537 l 0.09697,-2.96921 0.521512,0.021 -0.09696,2.96921 z"
       id="path33-1"
       style="stroke-width:0.262066" /><path
       class="cls-2"
       d="m 62.806544,110.56044 -0.466478,0.0734 -1.470192,-2.83555 0.225377,3.04258 -0.555581,0.0786 -0.324962,-4.26643 0.636821,-0.0603 1.213367,1.98646 -0.227997,-2.13846 0.463857,-0.0786 0.503167,4.19568 z"
       id="path34"
       style="stroke-width:0.262066" /><path
       class="cls-2"
       d="m 64.397286,110.11493 -0.545098,0.1651 -1.137367,-4.03582 0.547718,-0.16772 1.137368,4.03844 z"
       id="path35-9"
       style="stroke-width:0.262066" /><path
       class="cls-2"
       d="m 65.87534,104.99678 0.691855,4.45774 -0.537236,0.26469 -2.363838,-3.78424 0.518892,-0.21751 1.643155,2.58135 -0.455995,-3.08452 z"
       id="path36-8"
       style="stroke-width:0.262066" /><path
       class="cls-2"
       d="m 70.259709,107.28986 -2.122737,1.00895 -2.311424,-3.4881 2.01791,-0.95916 0.256825,0.38785 -1.54095,0.73117 0.715441,1.08233 1.415158,-0.67351 0.256825,0.38786 -1.415158,0.67089 0.825509,1.24482 1.643156,-0.78096 0.256825,0.38786 z"
       id="path37-6"
       style="stroke-width:0.262066" /><path
       class="cls-2"
       d="m 72.529204,105.93235 -0.437651,0.37476 -1.543571,-1.27889 -0.400961,0.36166 1.043024,1.4204 -0.437651,0.45861 -2.555146,-3.58769 0.815026,-0.5844 c 0.259446,-0.18607 0.602752,-0.31973 0.911991,-0.28304 0.796681,0.0943 1.134747,0.63158 1.100678,1.25268 -0.01048,0.19917 -0.02359,0.39048 -0.09958,0.58703 l 1.606466,1.2815 z m -2.754317,-2.52632 c -0.322342,-0.0891 -0.581787,0.16249 -0.815026,0.34331 l 0.849094,1.12427 c 0.259446,-0.18607 0.379997,-0.228 0.576546,-0.56607 0.08386,-0.4062 -0.09696,-0.75999 -0.613235,-0.89889"
       id="path38-5"
       style="stroke-width:0.262066" /><path
       class="cls-2"
       d="m 73.907672,102.46522 c 0.891026,0.53723 0.681373,2.05722 -0.487443,2.2328 -0.3171,0.0498 -0.686614,-0.0472 -0.843853,-0.14676 l 0.19917,-0.45337 c 0.193929,0.0419 0.387858,0.11007 0.573925,0.076 0.759992,-0.14414 0.725924,-0.93296 0.285652,-1.25792 -0.154619,-0.11531 -0.374754,-0.12841 -0.558201,-0.10745 -0.511029,0.055 -0.841233,0.43765 -1.407296,0.47434 -0.623718,0.0367 -1.056127,-0.34068 -1.160954,-0.94868 -0.05241,-0.31972 0.02359,-0.63158 0.183447,-0.88316 0.330203,-0.51627 1.02992,-0.58703 1.538329,-0.28565 l -0.19917,0.4691 c -0.27517,-0.14676 -0.765234,-0.14676 -0.94868,0.14151 -0.09696,0.14938 -0.131033,0.304 -0.09959,0.46124 0.0629,0.34331 0.296135,0.54248 0.626339,0.50054 0.55296,-0.0681 0.925094,-0.52413 1.470192,-0.50316 0.256825,0.008 0.566063,0.0734 0.828129,0.228"
       id="path39-0"
       style="stroke-width:0.262066" /><path
       class="cls-2"
       d="m 75.789308,101.91488 -0.31972,0.3931 -3.67417,-2.30357 0.319721,-0.393096 z"
       id="path40-2"
       style="stroke-width:0.262066" /><path
       class="cls-2"
       d="m 73.933879,97.268441 -0.406203,0.754751 3.467137,2.038878 -0.230618,0.43503 -3.472378,-2.038878 -0.406203,0.75213 -0.43241,-0.254204 1.045645,-1.93929 0.432409,0.254204 z"
       id="path41-8"
       style="stroke-width:0.262066" /><path
       class="cls-2"
       d="m 74.5707,94.401436 2.117496,1.892119 1.412537,0.605373 -0.170343,0.47696 -1.310331,-0.508408 -3.016384,-0.06814 0.146758,-0.484823 2.104392,0.03407 -1.491157,-1.367986 z"
       id="path42-6"
       style="stroke-width:0.262066" /><path
       class="cls-2"
       d="m 45.562581,104.99154 c -0.374754,0.37213 -0.723303,0.56606 -1.048265,0.57654 -0.324962,0.0105 -0.615856,-0.11793 -0.883163,-0.38786 -0.238481,-0.24372 -0.359031,-0.52937 -0.35641,-0.85433 0,-0.16511 0.04979,-0.33545 0.144136,-0.51103 l 0.476961,0.29089 c -0.04193,0.0812 -0.0629,0.15986 -0.06552,0.23586 -0.0052,0.17559 0.04979,0.32496 0.162481,0.44027 0.162481,0.16248 0.330204,0.23848 0.508409,0.22538 0.178205,-0.0157 0.393099,-0.14676 0.644683,-0.40096 l 2.120116,-2.09653 0.39572,0.40096 -2.101771,2.08081 z"
       id="path43-0"
       style="stroke-width:0.262066" /><path
       class="cls-2"
       d="m 52.772025,104.25513 -1.485916,-0.91985 0.133654,-0.23324 0.55296,0.34068 0.883163,-1.53833 -0.550339,-0.34068 0.120551,-0.20703 c 0.209653,0.12841 0.374755,0.20179 0.497926,0.21489 0.123171,0.0183 0.227997,-0.0314 0.311859,-0.14676 l 0.3171,0.19393 -1.18454,2.0677 0.537236,0.33283 -0.133654,0.23324 z m 4.428921,-0.9382 c 0.02359,-0.11793 -0.01572,-0.22538 -0.123171,-0.32234 -0.107448,-0.0943 -0.269929,-0.15724 -0.487444,-0.18607 -0.196549,-0.0288 -0.369513,-0.0157 -0.511029,0.0367 -0.141516,0.0524 -0.222756,0.1389 -0.246342,0.25945 -0.01834,0.0865 0,0.1651 0.05241,0.23324 0.04979,0.0681 0.136274,0.13889 0.256825,0.20441 0.04979,0.0288 0.131033,0.0708 0.23848,0.12055 0.110068,0.0524 0.209653,0.0917 0.303997,0.12841 0.175585,-0.0576 0.296135,-0.12317 0.372134,-0.19917 0.07338,-0.0734 0.120551,-0.1651 0.144137,-0.27255 m -0.193929,1.32606 c 0.02097,-0.10745 0.0079,-0.19917 -0.04455,-0.26993 -0.05503,-0.0734 -0.167722,-0.15724 -0.343306,-0.24896 -0.05766,-0.0288 -0.133654,-0.0655 -0.230619,-0.10745 -0.09696,-0.0393 -0.209653,-0.0865 -0.330203,-0.14152 -0.165102,0.0446 -0.296135,0.10745 -0.39572,0.19393 -0.09959,0.0812 -0.162482,0.18345 -0.188688,0.30662 -0.03407,0.15986 0.01572,0.30138 0.144136,0.42455 0.125792,0.12317 0.303997,0.20179 0.529374,0.23586 0.230619,0.0314 0.424548,0.0105 0.579167,-0.0577 0.15724,-0.0708 0.251583,-0.18082 0.283031,-0.33544 m -0.922473,0.65516 c -0.19917,-0.0288 -0.382617,-0.0734 -0.539857,-0.13627 -0.15986,-0.0629 -0.288273,-0.13628 -0.390478,-0.22538 -0.09959,-0.0865 -0.167723,-0.18344 -0.209653,-0.28827 -0.03931,-0.10483 -0.04455,-0.21227 -0.02621,-0.32234 0.02883,-0.14152 0.11793,-0.26469 0.256825,-0.36952 0.141516,-0.1022 0.330203,-0.17296 0.571304,-0.21227 v -0.0105 c -0.183446,-0.10221 -0.314479,-0.20703 -0.393099,-0.30924 -0.07862,-0.10221 -0.102206,-0.22014 -0.076,-0.35641 0.03931,-0.19917 0.188687,-0.34593 0.450754,-0.44813 0.256825,-0.0996 0.563442,-0.1258 0.919853,-0.076 0.372134,0.0524 0.655165,0.15462 0.854336,0.31186 0.19917,0.15724 0.275169,0.33282 0.23848,0.52937 -0.02359,0.12055 -0.09958,0.228 -0.233239,0.3302 -0.131033,0.0996 -0.301376,0.16773 -0.516271,0.20441 v 0.0105 c 0.220136,0.10744 0.382617,0.21751 0.484823,0.33806 0.102206,0.12055 0.136274,0.26207 0.102206,0.42193 -0.04717,0.22538 -0.209653,0.39572 -0.495305,0.51365 -0.285653,0.11793 -0.615856,0.14938 -0.995852,0.097 m 5.136499,-1.63005 c 0,-0.18082 -0.02359,-0.3302 -0.07338,-0.44289 -0.05241,-0.11269 -0.120551,-0.20179 -0.209653,-0.26469 -0.07862,-0.0577 -0.15724,-0.0943 -0.238481,-0.11793 -0.08124,-0.021 -0.167722,-0.0315 -0.264687,-0.0315 -0.222756,0 -0.39572,0.0524 -0.526753,0.15724 -0.133654,0.10483 -0.19917,0.25683 -0.19917,0.456 0,0.11269 0.02096,0.20703 0.06289,0.27779 0.04455,0.0734 0.11531,0.13627 0.209654,0.18607 0.06814,0.0367 0.144136,0.0629 0.233239,0.0734 0.08648,0.0131 0.178205,0.0183 0.275169,0.0183 0.115309,0 0.23848,-0.0131 0.369514,-0.0393 0.133653,-0.0262 0.248963,-0.0629 0.345927,-0.10745 0,-0.0157 0.0052,-0.0419 0.0079,-0.0708 0,-0.0288 0.0052,-0.0629 0.0052,-0.0996 m -2.054599,-0.22276 c 0,-0.13889 0.03407,-0.26468 0.102206,-0.37475 0.06814,-0.11531 0.15986,-0.21227 0.275169,-0.29614 0.110068,-0.0786 0.246342,-0.14151 0.406203,-0.18344 0.162481,-0.0446 0.322341,-0.0655 0.490064,-0.0655 0.183446,0 0.351169,0.021 0.500547,0.0629 0.149377,0.0419 0.27779,0.1022 0.387858,0.1782 0.138895,0.097 0.243721,0.22538 0.319721,0.38262 0.076,0.15986 0.115309,0.36165 0.115309,0.60537 0,0.22014 -0.03931,0.42979 -0.112689,0.62634 -0.076,0.19917 -0.183446,0.36165 -0.327583,0.49269 -0.154619,0.13889 -0.340686,0.24372 -0.55558,0.3171 -0.214895,0.0734 -0.482202,0.11006 -0.799302,0.11006 -0.07076,0 -0.146758,-0.003 -0.227998,-0.008 -0.08124,-0.008 -0.15724,-0.0183 -0.227998,-0.0288 v -0.3433 h 0.02883 c 0.04455,0.0157 0.11531,0.0341 0.209654,0.0498 0.09434,0.0157 0.191308,0.0236 0.288272,0.0236 0.351169,0 0.62896,-0.076 0.82813,-0.23062 0.19917,-0.15462 0.314479,-0.37214 0.340686,-0.66041 -0.141516,0.0655 -0.280411,0.11269 -0.408823,0.14152 -0.131033,0.0314 -0.272549,0.0446 -0.424548,0.0446 -0.151998,0 -0.283031,-0.0105 -0.406202,-0.0314 -0.120551,-0.021 -0.243722,-0.0629 -0.366893,-0.12579 -0.146757,-0.0708 -0.254205,-0.1651 -0.327583,-0.27517 -0.07338,-0.11269 -0.110068,-0.24634 -0.110068,-0.40358 m 5.825734,-2.29046 -0.09959,2.75431 -0.419306,0.26469 0.03669,-2.60232 -1.606467,0.78096 -0.141515,-0.30924 2.020531,-1.05088 0.209653,0.1651 z"
       id="path44-2"
       style="stroke-width:0.262066" /><path
       class="cls-2"
       d="m 65.870099,78.887111 c -0.322342,-0.15724 -0.09434,-0.212274 -0.07862,-0.516271 0.01572,-0.262066 -0.151998,-0.563442 -0.09958,-0.746889 0.141516,-0.495305 0.775716,-0.306617 1.126885,-0.05241 0.0629,0.04717 0.11793,0.167723 0.165102,0.290894 0.112688,0.301376 0.233239,0.725923 -0.115309,0.940818 -0.298756,0.186067 -0.720683,0.222756 -1.001094,0.08648"
       id="path45-4"
       style="stroke-width:0.262066" /><path
       class="cls-2"
       d="m 62.125172,77.41954 c 0,0 -0.02097,-0.0131 -0.02883,-0.02097 0.01048,-0.03931 0.02097,-0.07338 0.03407,-0.107447 0.115309,-0.01572 1.189781,-0.393099 1.192402,-0.419306 0.324962,-0.149378 0.621097,-0.330203 0.783578,-0.655166 -0.715441,0.05241 -1.46233,0.385238 -2.162047,0.267308 -0.301376,-0.15724 -0.476961,-0.382617 -0.676131,-0.534615 0,-0.01572 0.0052,-0.02621 0.0052,-0.03669 -0.303997,-0.327582 -0.262066,-0.639441 0.170343,-0.67351 0.652545,0.322342 1.831844,0.08648 2.544664,0 0.162481,-0.02883 0.618476,-0.076 0.767854,-0.180826 0.374755,-0.875301 0.500547,-1.813499 0.765234,-2.675697 0.377375,-0.576546 0.665648,-0.05241 0.980128,0.359031 0.0131,0.05765 0.0891,0.138895 0.138895,0.27517 0.0131,0 0.02097,0.0052 0.03669,0.0079 0.102206,0.301376 0.11793,0.432409 -0.19917,0.618476 -0.27517,0.385238 -0.476961,0.838612 -0.576546,1.34178 0.490064,0.04979 0.880543,-0.296135 1.430882,-0.172964 0.07076,0.288273 0,0.503167 -0.293514,0.655166 -0.450754,0.09434 -0.927715,0.162481 -1.433503,0.256825 -0.217515,0.43503 -0.539857,0.953921 -0.953921,1.250056 -0.06028,0.04455 -0.348549,0.204412 -0.414065,0.225377 -0.338066,0.09959 -0.652545,0.241101 -0.995852,0.254204 -0.953921,0.02883 -0.953921,-0.0131 -1.119023,-0.03145"
       id="path46-8"
       style="stroke-width:0.262066" /><path
       class="cls-2"
       d="m 51.259903,80.598404 c -0.3931,-0.02097 -0.856957,-0.309238 -1.137368,-0.490064 -0.0052,-0.102206 -0.0131,-0.204412 -0.0079,-0.303997 0.558201,-0.901508 1.121644,-1.758465 1.561915,-2.746455 0.08386,-0.419306 0.230618,-0.877922 0.335445,-1.299849 0.0079,-0.01048 0.02096,-0.02359 0.03407,-0.02883 -0.0052,-0.01572 -0.01048,-0.02359 -0.01572,-0.03407 0.141515,-0.235859 0.209653,-0.311859 0.482202,-0.12055 0.09696,0.212274 -0.199171,0.59489 -0.241101,0.846474 0,0.445513 -0.01834,0.906749 -0.05765,1.378469 q -0.03407,0.09434 -0.125792,0.607994 c -0.149378,0.246342 -0.262066,0.79144 -0.27779,1.095437 -0.191308,0.241101 -0.123171,0.725923 -0.364272,0.995852 -0.06552,0.03145 -0.123171,0.06552 -0.180826,0.09959"
       id="path47-6"
       style="stroke-width:0.262066" /><path
       class="cls-2"
       d="M 54.831866,75.991278 C 54.336561,76.161621 54.074495,75.904798 53.69974,75.726591 53.63947,75.6008 53.68926,75.490732 53.66567,75.399008 q 0.110068,-0.076 0.167723,-0.151998 c 0.193929,-0.107447 0.269928,-0.125792 0.487443,-0.225377 0.254204,-0.172964 0.778337,-0.951301 1.103299,-0.833371 0.267308,0.576546 -0.141516,1.428261 -0.589649,1.803016"
       id="path48-5"
       style="stroke-width:0.262066" /><path
       class="cls-2"
       d="m 50.722667,76.528514 c -0.248963,-0.0891 -0.581787,-0.825509 -0.689235,-1.058748 -0.02621,-0.47434 0.390479,-0.657786 0.849095,-0.524132 0.424548,0.259445 0.676131,0.338065 0.55296,0.885784 -0.217515,0.419306 -0.359031,0.497926 -0.71282,0.699717"
       id="path49-0"
       style="stroke-width:0.262066" /><path
       class="cls-2"
       d="m 54.189804,74.743843 c -0.141516,-0.209653 -0.01835,-0.820268 -0.154619,-0.90675 -0.112689,0.06552 -0.214895,0.15724 -0.335445,0.212274 -0.351169,-0.02621 -0.812406,-0.256825 -0.801923,-0.579167 0.120551,-0.330203 0.06027,-0.235859 0.390479,-0.390478 0.264687,-0.269929 0.531994,-0.534616 0.804543,-0.804544 0.508409,-0.314479 0.875302,-0.115309 1.119024,0.408824 0.03931,0.385237 -0.08386,0.746889 -0.201792,1.10854 -0.227997,0.272549 -0.421926,0.550339 -0.618476,0.82813 -0.07338,0.03931 -0.138895,0.08386 -0.201791,0.123171"
       id="path50-9"
       style="stroke-width:0.262066" /><path
       class="cls-2"
       d="m 50.589013,74.371709 c -0.154619,-0.05503 -0.128412,-0.131034 -0.107447,-0.256825 -0.102206,-0.220136 -0.309238,-0.348549 -0.408824,-0.560822 -0.08386,-0.427168 -0.217515,-0.539857 0.03669,-0.859578 0.301376,0.01048 1.370606,0.11793 1.352262,0.699717 -0.120551,0.406203 -0.537236,0.794061 -0.875302,0.974887"
       id="path51-0"
       style="stroke-width:0.262066" /><path
       class="cls-2"
       d="m 45.106586,89.073628 c -0.463857,0.319721 -1.577639,0.110068 -1.428261,-0.558201 -0.06552,-0.06552 -0.09959,-0.183447 -0.076,-0.259446 -0.0131,-0.01048 -0.02621,-0.01572 -0.03407,-0.01835 -0.11793,-0.699717 -0.495305,-1.362744 -0.699717,-2.023151 -0.110068,-0.207033 -0.238481,-0.366893 -0.154619,-0.59227 0.154619,-0.03931 0.324962,0.128412 0.453374,0.254204 0.06814,-0.01572 0.144137,-0.183446 0.178205,-0.293514 -0.04979,-0.461237 -0.0131,-0.993231 -0.076,-1.467571 -0.11793,-0.102206 -0.23848,-0.207033 -0.348548,-0.311859 -0.09172,0.23848 -0.393099,1.011576 -0.657786,0.59489 0.07076,-0.3171 0.117929,-0.846474 -0.06028,-1.166195 -0.227997,-0.251583 -0.558201,-0.424547 -0.660407,-0.697096 0.04717,-0.379996 0.628959,-0.469099 0.969646,-0.3171 0.27779,0.02097 0.272549,-0.495306 0.584407,0.364272 0.0079,0.141516 0.141516,0.227997 0.296135,0.306617 0.02621,-0.02883 0.04979,-0.06028 0.07338,-0.09172 -0.0052,-0.364272 -0.0131,-0.762613 0.01834,-1.153092 -0.340687,-0.343306 -0.62896,-0.631579 -0.830751,-1.050885 0,-0.400962 0.453375,-0.63158 0.849095,-0.752131 0.128413,-0.214894 0.131033,-0.400961 0.123171,-0.676131 q 0.02883,-0.08648 0.123172,-0.225377 c 0.133653,0.01048 0.248963,0.06027 0.400961,0.149378 0.311859,0.406203 -0.345928,1.645776 0.272549,1.745362 0.123171,-0.209654 -0.04717,-0.429789 -0.141516,-0.602753 0.03407,-0.309238 0.511029,-0.694476 0.846474,-0.812405 0.495306,-0.04193 0.466478,0.235859 0.469099,0.663027 0.02359,0.06028 0.04455,0.120551 0.07076,0.172964 q 0.628959,0.458616 1.50426,1.048265 c 0.165102,0.262067 0.230619,0.411444 0.298756,0.723303 0.01048,0.0052 0.01834,0.01048 0.02883,0.01572 -0.0079,0.0131 -0.0131,0.02359 -0.01834,0.03145 0.11793,0.243722 0.123171,0.647304 -0.170343,0.683993 -0.715441,-0.484822 -1.428262,-1.035162 -2.122737,-1.478054 -0.0079,0.01572 -0.0131,0.03145 -0.0131,0.04455 0.311859,0.290893 0.725924,1.087575 0.736407,1.533087 -0.170344,0.285653 -0.487444,0.403582 -0.775717,0.324963 -0.05241,-0.076 -0.03145,-0.141516 -0.04193,-0.230619 -0.212274,-0.372134 -0.825509,-0.728544 -1.137368,-0.940818 -0.120551,0.246343 0.123171,0.967025 0.19917,1.26316 0.0131,0.175584 0.02097,0.351169 0.03669,0.518891 0.212273,0.262066 0.429788,0.500547 0.665648,0.765234 0.08386,0.146757 0.175584,0.298755 0.264687,0.448133 -0.0079,0.0131 -0.0131,0.02359 -0.01834,0.03407 0.102206,0.225377 0.330204,0.877922 -0.09434,0.880542 -0.04193,-0.02359 -0.07862,-0.04717 -0.115309,-0.076 -0.133654,-0.338065 -0.393099,-0.704958 -0.670889,-0.904129 -0.09959,0.332825 0.02621,0.686614 -0.144137,0.969646 -0.141516,0.136274 -0.298755,0.262066 -0.421927,0.327583 -0.01572,-0.0079 -0.02096,-0.01572 -0.03407,-0.01835 -0.08648,0.03669 -0.193929,0.0629 -0.204412,0.115309 0.120551,0.154619 0.246342,0.31448 0.372134,0.469099 0.39572,0.689234 0.833371,1.291987 1.354883,1.920946 0.03145,0.172964 0.02359,0.220136 -0.02621,0.345927"
       id="path52-0"
       style="stroke-width:0.262066" /><path
       class="cls-2"
       d="m 42.07972,86.204002 c -0.183446,0 -0.272549,-0.212274 -0.411444,-0.31448 -0.495305,-0.141515 -0.87006,-0.241101 -1.032541,-0.733785 0.02097,-0.04455 0.04455,-0.0891 0.07076,-0.131033 0.259445,-0.09434 0.739027,-0.154619 1.063989,-0.167723 0.615856,0.136275 0.406203,0.90675 0.306618,1.352262"
       id="path53"
       style="stroke-width:0.262066" /><path
       class="cls-2"
       d="m 40.782492,84.744293 c -0.107447,0.07862 -0.125792,0.06028 -0.175584,0.05503 -0.06552,-0.11531 -0.09172,-0.201791 -0.207033,-0.248963 -0.547718,-0.01572 -1.113782,-0.424548 -1.014196,-0.982749 0.09958,-0.115309 0.207032,-0.04455 0.416685,0.01572 0.461237,-0.09172 1.150471,-0.379996 1.179298,0.361652 -0.04979,0.269928 -0.133653,0.542477 -0.201791,0.799302"
       id="path54"
       style="stroke-width:0.262066" /><path
       class="cls-1"
       d="m 69.062066,85.449251 h -5.422151 c -1.582881,-0.0026 -2.395286,1.546191 -2.992797,2.950867 l -0.914612,-2.057221 1.535709,-0.566063 c -0.898888,-0.851716 -3.697756,-1.315573 -4.067269,-0.03407 l -0.660407,2.654732 C 56.019027,87.202475 55.28262,85.449251 53.626361,85.449251 h -5.503392 c 0.715441,1.26578 1.399434,1.721776 3.930995,1.614328 l 0.330203,0.872681 -2.775282,0.0131 c 0.820268,1.512122 1.291987,1.575018 3.527412,1.512122 l 0.47434,1.043024 -2.183012,0.07862 c 0.469099,1.06661 0.961783,1.525226 2.835558,1.441365 l 0.364272,0.925094 -1.7375,0.01048 c 0.652545,1.077093 0.972266,1.569777 2.350735,1.449227 l 0.369513,1.006334 h -1.202884 c 0.521512,1.163575 1.124264,1.210747 1.863291,1.326056 0.665649,0.102206 0.759993,1.347021 -0.0131,1.747982 l 2.335011,3.789476 2.337631,-3.792097 c -0.775716,-0.39834 -0.681372,-1.645776 -0.01572,-1.747982 0.741648,-0.115309 1.3444,-0.162481 1.863292,-1.326055 H 61.57746 l 0.369513,-1.006335 c 1.375849,0.120551 1.695569,-0.372134 2.348114,-1.446606 l -1.734878,-0.01048 0.364272,-0.925094 c 1.873774,0.08648 2.366458,-0.372135 2.835557,-1.438744 l -2.183012,-0.076 0.47434,-1.043024 c 2.232805,0.0629 2.707145,0 3.527412,-1.512122 L 64.800875,87.944121 65.1337,87.06882 c 2.528939,0.110068 3.215553,-0.345928 3.930994,-1.609087"
       id="path55"
       style="stroke-width:0.262066" /><path
       class="cls-1"
       d="m 77.325017,82.852174 0.01834,-0.04717 c 0.07862,-0.19655 0.07338,-0.27517 0.05503,-0.306617 -0.02358,-0.04717 -0.110067,-0.07076 -0.243721,-0.104827 -0.03669,-0.01048 -0.07862,-0.01572 -0.125792,-0.02097 l -0.076,-0.0131 -0.02359,-0.05241 c -0.02621,-0.02883 -0.05241,-0.05765 -0.08648,-0.08124 l -0.104827,-0.03407 -0.02359,-0.0131 0.136275,-0.102206 c 0.09696,-0.07338 0.204412,-0.107447 0.324962,-0.146757 l 0.0131,-0.03145 0.05241,0.02097 c 0.191308,-0.167722 0.319721,-0.408823 0.335445,-0.663028 -0.05765,-0.08124 -0.15724,-0.11793 -0.303997,-0.11793 -0.191309,0.0026 -0.421927,0.076 -0.628959,0.138896 -0.125792,0.03931 -0.283032,0.09172 -0.419307,0.117929 l -0.04979,-0.02359 c -0.345928,-0.167722 -0.361652,-0.172963 -1.084955,-0.552959 -0.05241,0.03407 -0.09172,0.08386 -0.115309,0.144136 -0.04455,0.104827 -0.03669,0.220136 0.01834,0.332824 l 0.06814,0.05241 0.0052,0.0052 v 0 c 0,0 -0.170343,0.09434 -0.170343,0.09434 -0.04193,0.02097 -0.04979,0.02621 -0.04455,0.02621 h 0.0026 l -0.04979,0.04455 c 0.0052,0.01834 0.01572,0.05241 0.04193,0.09958 l 0.0131,0.07862 c -0.0026,0.06552 -0.01572,0.09434 -0.07076,0.157239 l -0.02096,0.08124 -0.0052,0.01048 v 0 l -0.104827,-0.08386 c -0.138895,-0.110067 -0.151998,-0.12055 -0.254204,-0.217515 -0.02621,-0.0026 -0.05503,-0.0079 -0.08648,-0.0079 -0.07862,0.0026 -0.141516,0.02621 -0.170343,0.06552 -0.03145,0.04193 -0.02621,0.09697 0.0052,0.172964 l -0.01048,0.04193 c -0.02359,0.104827 -0.110067,0.280411 -0.432409,0.285653 H 73.5434 c -0.03145,-0.0026 -0.0629,0 -0.115309,0.02096 0,0.217515 0.09434,0.23586 0.324962,0.272549 0.08648,0.0131 0.180826,0.02883 0.303997,0.05765 0.02096,-0.0079 0.04193,-0.0131 0.0629,-0.0131 0.04979,0 0.0891,0.02096 0.133654,0.04193 l 0.172964,0.06814 0.06028,0.01572 0.02883,0.0131 -0.209653,0.102206 c -0.07862,0.03931 -0.133654,0.06814 -0.212274,0.151999 -0.01572,0.06028 -0.04455,0.117929 -0.09434,0.175584 l -0.0079,0.04717 -0.08648,-0.02097 c -0.154619,-0.03931 -0.309239,-0.07862 -0.466478,-0.11793 l -0.238481,-0.0629 c -0.427168,-0.110068 -0.953921,-0.251584 -1.451847,-0.338066 -0.11793,-0.04193 -0.233239,-0.06552 -0.348548,-0.08648 l -0.23586,-0.02621 -0.01048,0.06552 c 0.05765,0.04717 0.133653,0.102206 0.254204,0.178206 l 0.01572,0.03931 c 0.06552,0.162482 0.178205,0.366893 0.437651,0.51103 0.170343,0.02883 0.348548,0.04979 0.560821,0.076 0.621098,0.07076 1.26316,0.144136 1.766327,0.521512 l 0.131033,0.06814 h 0.03145 c 0,0 0.0079,0 0.0079,0 v 0 l -0.186067,0.09434 c -0.04717,0.02621 -0.0891,0.04979 -0.146757,0.102206 l -0.05765,-0.0131 q -0.600132,-0.131034 -0.812406,-0.201791 c -0.214894,-0.138896 -0.322341,-0.180826 -0.43503,-0.180826 -0.08648,0 -0.188688,0.03931 -0.359031,0.138895 -0.01048,0.0052 -0.01834,0.0079 -0.02883,0.0131 l -0.0079,0.0079 c 0,0 -0.01048,0.0052 -0.01572,0.01048 l -0.06027,-0.02359 c -0.06552,-0.02359 -0.07076,-0.02359 -0.248963,-0.04979 -0.165102,-0.05765 -0.335445,-0.112688 -0.518892,-0.175584 -0.51627,-0.167723 -1.050885,-0.343307 -1.496398,-0.636821 -0.131033,-0.110068 -0.217515,-0.212274 -0.290894,-0.296135 -0.02359,-0.02883 -0.03931,-0.04455 -0.05241,-0.04455 0,0 -0.0052,0 -0.0052,0 l -0.04455,-0.05503 c -0.03407,0.01048 -0.0891,0.06028 -0.178205,0.157239 -0.09434,0.293515 0.170343,0.993232 0.408824,1.200264 0.167722,0.07338 0.345927,0.107447 0.534615,0.141516 0.31448,0.06028 0.639442,0.12055 0.94868,0.379996 l 0.08386,0.02096 h 0.0052 c 0,0 0,0.0052 0,0.0052 l -0.08124,0.107447 c -0.102206,0.133654 -0.220136,0.243721 -0.35379,0.364272 l -0.06027,0.05241 c -0.04193,0.03145 -0.07862,0.0629 -0.107447,0.09959 l -0.06027,0.0052 c -0.04455,0.0079 -0.08386,0.0131 -0.136275,0.01572 -0.230618,0 -0.429788,-0.112689 -0.605373,-0.209653 -0.05765,-0.03145 -0.112688,-0.0629 -0.193929,-0.08124 l -0.03145,0.06028 c 0.241101,0.414065 0.571305,0.791441 1.006335,1.153092 l 0.03669,0.06028 c 0.05241,0.02883 0.107447,0.04193 0.162481,0.04193 h 0.0079 c 0.31448,-0.0052 0.655166,-0.43503 0.904129,-0.75213 0.05241,-0.06814 0.102206,-0.131033 0.15986,-0.193929 l 0.06028,-0.04717 c 0.23848,-0.172964 0.254204,-0.188688 0.246342,-0.191309 l 0.05765,0.01572 c 0.199171,0.05503 0.327583,0.131033 0.516271,0.238481 0.186067,-0.08124 0.377376,-0.269929 0.359031,-0.47434 l -0.076,-0.07076 C 73.092685,84.6498 72.982617,84.544973 72.867308,84.442767 l -0.06027,-0.01048 0.03931,-0.09696 c 0.04193,-0.09959 0.104826,-0.15986 0.183446,-0.241101 l 0.0079,-0.03931 0.07862,0.01834 c 0.335445,0.076 0.636821,0.170343 1.003714,0.283032 l 0.322342,0.104826 0.08124,0.06028 c 0.183447,0.138896 0.3171,0.238481 0.526753,0.238481 0.03407,0 0.0629,-0.0026 0.11793,-0.02097 0.199171,-0.204411 0.311859,-0.340686 0.390479,-0.497926 v 0 c 0,0 0.0052,-0.0079 0.0079,-0.0131 -0.06028,-0.09172 -0.0891,-0.11793 -0.09959,-0.11793 l 0.06028,-0.06814 c 0.01834,-0.02359 0.03669,-0.03931 0.09434,-0.07338 0.545098,-0.172963 1.137368,-0.387858 1.572398,-0.542477 0.262066,-0.165102 0.288273,-0.180826 0.196549,-0.424547 -0.01572,-0.04193 -0.03407,-0.0891 -0.06814,-0.154619 m -2.120116,0.327583 0.0891,-0.08124 c 0.120551,-0.112688 0.175585,-0.165102 0.186068,-0.220136 -0.0052,-0.02096 -0.02883,-0.04979 -0.08648,-0.0891 l -0.02621,-0.0052 c -0.01834,0 -0.03407,0.0052 -0.06028,0.0052 -0.09696,0 -0.15724,-0.04717 -0.191309,-0.08648 l -0.03931,-0.03145 v -0.04455 c 0,0 0.03669,-0.110068 0.03669,-0.110068 l -0.02097,-0.0079 0.11793,-0.03931 q 0.400962,-0.131033 0.466478,-0.170343 l 0.02883,-0.05241 0.07862,0.06552 c 0.08386,0.07076 0.364273,0.327583 0.406203,0.649925 l -0.03931,0.04717 c -0.212273,0.254205 -0.500546,0.298756 -0.780957,0.309239 l -0.076,0.01834 -0.03931,-0.117929 -0.05241,-0.03407 h -0.0026 z"
       id="path56"
       style="stroke-width:0.262066" /><path
       class="cls-1"
       d="m 72.885614,82.217974 c -0.120551,0 -0.233239,-0.03669 -0.338066,-0.110068 -0.06552,-0.259446 0.128413,-0.534616 0.267308,-0.741648 0.04717,-0.06814 0.08648,-0.123171 0.115309,-0.170343 l 0.02097,-0.06028 0.04717,-0.0891 c 0.05766,-0.110068 0.112689,-0.220135 0.165102,-0.340686 0.02097,-0.0629 0.03669,-0.123171 0.04979,-0.180826 0.08648,-0.338065 0.151998,-0.550339 0.319721,-0.610614 0.131033,0.02097 0.196549,0.03931 0.227997,0.08648 0.03145,0.04979 0.02097,0.11793 -0.0052,0.246342 l -0.02359,0.04717 c 0.01834,0.04455 0.02621,0.102206 0.03407,0.15986 0.03669,0.199171 0.04717,0.406203 0.02621,0.594891 l -0.01048,0.076 c -0.01048,0.07338 -0.03145,0.136275 -0.05241,0.199171 -0.07862,0.241101 -0.165101,0.513649 -0.340686,0.670889 l -0.07338,0.06552 -0.04717,0.02883 c -0.120551,0.07862 -0.251584,0.120551 -0.374755,0.123171 h -0.0131 z"
       id="path57"
       style="stroke-width:0.262066" /><path
       class="cls-1"
       d="m 72.885614,82.207491 h 0.0131 c 0.123171,0 0.251584,-0.04455 0.369514,-0.120551 l 0.04717,-0.02883 0.07338,-0.06552 c 0.172964,-0.15724 0.259446,-0.427168 0.335445,-0.668269 0.02097,-0.0629 0.04193,-0.125792 0.05241,-0.199171 l 0.01048,-0.076 c 0.02359,-0.207032 0.0079,-0.411444 -0.02621,-0.59227 -0.0079,-0.05766 -0.01572,-0.115309 -0.02359,-0.167722 h -0.01048 c 0,0 0.02359,-0.04193 0.02359,-0.04193 0.02359,-0.12055 0.03669,-0.193929 0.0052,-0.23848 -0.02883,-0.04193 -0.09172,-0.0629 -0.214894,-0.08648 -0.162482,0.06027 -0.225377,0.264687 -0.306618,0.581787 -0.01834,0.06552 -0.03407,0.131033 -0.05765,0.201791 -0.05241,0.123171 -0.110067,0.230618 -0.165101,0.340686 l -0.04717,0.0891 -0.02359,0.06028 c -0.02621,0.04717 -0.06552,0.102206 -0.115309,0.167722 -0.138896,0.204412 -0.330204,0.479582 -0.269929,0.725924 0.09959,0.07076 0.209653,0.107447 0.330204,0.107447"
       id="path58"
       style="stroke-width:0.262066" /><path
       class="cls-1"
       d="m 71.690591,81.911356 c -0.06028,0 -0.136274,-0.03407 -0.272548,-0.12055 -0.183447,-0.414065 0.471719,-0.880543 0.547718,-0.932957 0.107447,0.02621 0.167723,0.08124 0.204412,0.183447 0.076,0.209653 0.02096,0.503167 -0.120551,0.676131 -0.19917,0.138895 -0.280411,0.193929 -0.35641,0.19655 v 0 z"
       id="path59"
       style="stroke-width:0.262066" /><path
       class="cls-1"
       d="m 71.690591,81.900873 v 0 c 0.07076,0 0.15462,-0.05765 0.348549,-0.191308 0.138895,-0.167722 0.191308,-0.458616 0.117929,-0.663028 -0.03407,-0.09959 -0.09172,-0.154619 -0.186067,-0.180826 -0.07338,0.05241 -0.723303,0.516271 -0.547718,0.914612 0.133654,0.08648 0.209653,0.11793 0.267307,0.11793"
       id="path60"
       style="stroke-width:0.262066" /></g></svg>
