<?xml version="1.0" encoding="UTF-8" standalone="no"?>
<!-- Created with Inkscape (http://www.inkscape.org/) -->

<svg
   width="105.9339mm"
   height="29.146519mm"
   viewBox="0 0 105.9339 29.146519"
   version="1.1"
   id="svg1"
   inkscape:export-filename="text.svg"
   inkscape:export-xdpi="96"
   inkscape:export-ydpi="96"
   xmlns:inkscape="http://www.inkscape.org/namespaces/inkscape"
   xmlns:sodipodi="http://sodipodi.sourceforge.net/DTD/sodipodi-0.dtd"
   xmlns="http://www.w3.org/2000/svg"
   xmlns:svg="http://www.w3.org/2000/svg">
  <sodipodi:namedview
     id="namedview1"
     pagecolor="#ffffff"
     bordercolor="#000000"
     borderopacity="0.25"
     inkscape:showpageshadow="2"
     inkscape:pageopacity="0.0"
     inkscape:pagecheckerboard="0"
     inkscape:deskcolor="#d1d1d1"
     inkscape:document-units="mm">
    <inkscape:page
       x="0"
       y="0"
       width="105.9339"
       height="29.146519"
       id="page2"
       margin="0"
       bleed="0" />
  </sodipodi:namedview>
  <defs
     id="defs1" />
  <g
     inkscape:label="图层 1"
     inkscape:groupmode="layer"
     id="layer1"
     transform="translate(-53.025337,-64.101563)">
    <g
       id="text1"
       style="font-size:12.7px;stroke-width:0.5"
       aria-label="做想做的事，&#10;    过想要的生活。">
      <path
         style="font-size:medium;font-family:YouYuan;-inkscape-font-specification:YouYuan;baseline-shift:baseline;display:inline;overflow:visible;opacity:1;vector-effect:none;stroke-linejoin:round;paint-order:stroke fill markers;enable-background:accumulate;stop-color:#000000;stop-opacity:1"
         d="m 110.14453,64.101562 c -0.23811,10e-7 -0.39358,0.172251 -0.51172,0.369141 a 0.250025,0.250025 0 0 0 -0.0352,0.128906 v 0.345703 h -4.91016 a 0.250025,0.250025 0 0 0 -0.15039,0.05078 c -0.16429,0.123218 -0.29883,0.285762 -0.29883,0.496093 0,0.210332 0.13454,0.374829 0.29883,0.498047 a 0.250025,0.250025 0 0 0 0.15039,0.05078 h 4.91016 v 0.292968 h -2.92578 c -0.3724,0 -0.69564,0.09798 -0.91993,0.322266 -0.22429,0.22429 -0.32226,0.547526 -0.32226,0.919922 v 0.595703 c 0,0.401681 0.0921,0.740521 0.32226,0.970703 0.23019,0.230183 0.56943,0.30712 0.94532,0.269531 l -0.0254,0.002 h 2.92578 v 0.292969 h -4.11719 a 0.250025,0.250025 0 0 0 -0.17578,0.07422 c -0.12869,0.128681 -0.22266,0.292056 -0.22266,0.474609 0,0.182554 0.094,0.345928 0.22266,0.47461 a 0.250025,0.250025 0 0 0 0.17578,0.07227 h 4.11719 v 0.691407 h -5.30664 a 0.250025,0.250025 0 0 0 -0.15039,0.04883 c -0.16429,0.123219 -0.29883,0.287718 -0.29883,0.498047 0,0.210328 0.13454,0.374828 0.29883,0.498046 a 0.250025,0.250025 0 0 0 0.15039,0.05078 h 5.30664 v 0.689453 h -4.11719 a 0.250025,0.250025 0 0 0 -0.14844,0.05078 c -0.16429,0.123219 -0.29883,0.287716 -0.29883,0.498047 0,0.210331 0.13454,0.372875 0.29883,0.496094 a 0.250025,0.250025 0 0 0 0.14844,0.05078 h 4.11719 v 0.445312 a 0.250025,0.250025 0 0 0 0.002,0.03125 c 0.0281,0.224511 -0.0127,0.321335 -0.0527,0.361329 -0.0398,0.03978 -0.13933,0.07993 -0.36133,0.05273 -0.36801,-0.06198 -0.91798,-0.221771 -1.63477,-0.482422 a 0.250025,0.250025 0 0 0 -0.13476,-0.0098 c -0.20937,0.04187 -0.41441,0.153385 -0.48438,0.363282 -0.07,0.209897 0.004,0.41068 0.12109,0.605468 a 0.250025,0.250025 0 0 0 0.1211,0.103516 c 0.68147,0.272587 1.36664,0.443109 2.05273,0.511719 a 0.250025,0.250025 0 0 0 0.006,0.002 c 0.47417,0.03647 0.88073,-0.06772 1.14453,-0.353516 0.26381,-0.285792 0.35025,-0.701919 0.31446,-1.203125 V 74.375 h 2.61132 c 0.4953,0.03538 0.89544,-0.02684 1.18555,-0.25 0.29011,-0.223162 0.40694,-0.599784 0.36914,-1.015625 l 0.002,0.02344 v -0.542968 h 0.9414 a 0.250025,0.250025 0 0 0 0.14844,-0.05078 c 0.16429,-0.123218 0.29883,-0.287718 0.29883,-0.498046 0,-0.210329 -0.13454,-0.374828 -0.29883,-0.498047 a 0.250025,0.250025 0 0 0 -0.14844,-0.04883 h -0.9414 v -0.544922 l -0.002,0.02539 c 0.038,-0.379988 -0.0539,-0.726885 -0.30273,-0.953125 -0.24887,-0.22624 -0.60551,-0.314453 -1.03711,-0.314453 h -2.82617 v -0.292969 h 2.90234 c 0.40461,0.03678 0.75807,-0.03541 0.99414,-0.271484 0.23608,-0.236074 0.30631,-0.589524 0.26953,-0.994141 l 0.002,0.02344 v -0.595703 l -0.002,0.02539 c 0.0376,-0.375883 -0.0393,-0.715129 -0.26953,-0.945312 -0.23018,-0.230183 -0.56902,-0.322266 -0.9707,-0.322266 h -2.92578 v -0.292968 h 4.71093 a 0.250025,0.250025 0 0 0 0.15039,-0.05078 c 0.1643,-0.123218 0.29883,-0.287715 0.29883,-0.498047 0,-0.210331 -0.13453,-0.372875 -0.29883,-0.496093 a 0.250025,0.250025 0 0 0 -0.15039,-0.05078 h -4.71093 v -0.345703 a 0.250025,0.250025 0 0 0 -0.0352,-0.128906 c -0.11813,-0.19689 -0.27361,-0.369141 -0.51172,-0.369141 z m -41.374999,0.05078 c -0.21033,0 -0.372875,0.132583 -0.496094,0.296875 a 0.250025,0.250025 0 0 0 -0.05078,0.15039 V 65.9375 H 66.388672 A 0.250025,0.250025 0 0 0 66.25,65.980469 c -0.147222,0.09815 -0.259766,0.272526 -0.259766,0.455078 0,0.182552 0.082,0.341755 0.199219,0.498047 a 0.250025,0.250025 0 0 0 0.199219,0.09961 h 1.52539 c -0.649604,1.230969 -1.315553,2.304903 -2.005859,3.052734 a 0.250025,0.250025 0 0 0 -0.04687,0.07031 c -0.05569,0.129952 -0.09309,0.247632 -0.105469,0.365234 -0.01238,0.117602 0.0022,0.251741 0.08984,0.361328 0.08767,0.109588 0.225301,0.155529 0.34375,0.16211 0.118449,0.0066 0.23518,-0.01502 0.367188,-0.05273 a 0.250025,0.250025 0 0 0 0.115234,-0.07031 c 0.619991,-0.671657 1.089057,-1.457776 1.550781,-2.248047 v 2.673828 a 0.250025,0.250025 0 0 0 0.05078,0.148438 c 0.123219,0.164291 0.285764,0.298828 0.496094,0.298828 0.21033,0 0.374828,-0.134537 0.498047,-0.298828 a 0.250025,0.250025 0 0 0 0.05078,-0.148438 v -2.902344 c 0.415599,0.535919 0.844854,1.079313 1.123047,1.542969 a 0.250025,0.250025 0 0 0 0.08594,0.08398 c 0.09844,0.05907 0.192958,0.104216 0.296875,0.125 0.103917,0.02078 0.227639,0.01381 0.332031,-0.04883 0.104392,-0.06264 0.167852,-0.165665 0.201172,-0.265625 0.03332,-0.09996 0.04492,-0.205685 0.04492,-0.322265 a 0.250025,0.250025 0 0 0 -0.03516,-0.125 C 70.963204,68.74301 70.34317,67.91134 69.65234,67.033202 h 1.5 a 0.250025,0.250025 0 0 0 0.148437,-0.05078 c 0.164292,-0.123219 0.298828,-0.287717 0.298828,-0.498047 0,-0.21033 -0.134536,-0.372875 -0.298828,-0.496094 A 0.250025,0.250025 0 0 0 71.152344,65.9375 h -1.833985 v -1.337891 a 0.250025,0.250025 0 0 0 -0.05078,-0.15039 C 69.14436,64.284927 68.979862,64.152344 68.769532,64.152344 Z m 29.765625,0 c -0.21033,0 -0.372876,0.132584 -0.496094,0.296875 a 0.250025,0.250025 0 0 0 -0.05078,0.15039 c 0,1.10361 -0.357791,2.172656 -0.789062,3.236328 v -0.55664 l -0.002,0.02539 c 0.03759,-0.375883 -0.03935,-0.717082 -0.269532,-0.947265 -0.230182,-0.230183 -0.569022,-0.320313 -0.970703,-0.320313 h -1.089844 c 0.09907,-0.405676 0.191887,-0.822687 0.246094,-1.310547 a 0.250025,0.250025 0 0 0 -0.01563,-0.11914 c -0.08109,-0.202718 -0.215824,-0.390463 -0.439453,-0.427735 -0.223629,-0.03727 -0.406381,0.08607 -0.564453,0.244141 a 0.250025,0.250025 0 0 0 -0.07227,0.152344 c -0.05789,0.578868 -0.150902,1.045883 -0.257812,1.460937 h -0.585938 c -0.372395,0 -0.695631,0.09602 -0.919922,0.320313 -0.22429,0.22429 -0.322265,0.549479 -0.322265,0.921875 v 7.142578 c 0,0.401681 0.09208,0.74052 0.322265,0.970703 0.230183,0.230183 0.56943,0.309073 0.945313,0.271484 h 2.730469 c 0.404618,0.03678 0.758065,-0.03541 0.99414,-0.271484 0.236076,-0.236075 0.306315,-0.58757 0.269532,-0.992187 l 0.002,0.02148 V 69.19726 c 0.01863,0.01655 0.02077,0.04332 0.04297,0.05664 0.104392,0.06264 0.228115,0.07156 0.332032,0.05078 0.103917,-0.02078 0.19843,-0.06593 0.296875,-0.125 a 0.250025,0.250025 0 0 0 0.08984,-0.09375 c 0.378157,-0.693286 0.645912,-1.492139 0.847657,-2.351562 h 2.902345 c 0.19579,0 0.28984,0.0457 0.32031,0.07617 0.0305,0.03047 0.0546,0.07673 0.0293,0.228515 a 0.250025,0.250025 0 0 0 -0.004,0.03711 l -0.0996,6.349609 a 0.250025,0.250025 0 0 0 0,0.01367 c 0.0154,0.399997 -0.0467,0.70106 -0.16211,0.912109 -0.11542,0.21105 -0.27831,0.347019 -0.5332,0.429688 -0.50979,0.165337 -1.405123,0.05993 -2.638672,-0.394531 a 0.250025,0.250025 0 0 0 -0.08789,-0.01563 c -0.107682,0 -0.209294,0.0148 -0.308594,0.06445 -0.0993,0.04965 -0.188308,0.146957 -0.224609,0.255859 -0.0726,0.217804 -3.13e-4,0.413436 0.111328,0.636719 a 0.250025,0.250025 0 0 0 0.146485,0.126953 c 1.545225,0.50388 2.719262,0.642872 3.560542,0.34375 0.42064,-0.149561 0.7526,-0.422493 0.95899,-0.796875 0.20639,-0.374382 0.29095,-0.837688 0.27343,-1.380859 l 0.0996,-6.734375 -0.002,0.01953 c 0.0376,-0.375884 -0.0393,-0.71513 -0.26953,-0.945313 -0.23018,-0.230182 -0.56902,-0.320312 -0.9707,-0.320312 h -2.906252 c 0.04169,-0.389187 0.08008,-0.76751 0.08008,-1.041016 a 0.250025,0.250025 0 0 0 -0.05078,-0.15039 c -0.123218,-0.16429 -0.287717,-0.296875 -0.498047,-0.296875 z m -42.771484,0.02734 c -0.223629,-0.03727 -0.406382,0.08607 -0.564453,0.244141 a 0.250025,0.250025 0 0 0 -0.07227,0.148438 c -0.260964,2.348676 -0.943317,4.289003 -2.039062,5.835937 a 0.250025,0.250025 0 0 0 -0.04102,0.0957 c -0.04062,0.20308 -0.03539,0.419685 0.119141,0.574219 0.154534,0.154534 0.369186,0.157804 0.572265,0.117187 a 0.250025,0.250025 0 0 0 0.138672,-0.08008 c 0.277489,-0.31713 0.445177,-0.707228 0.654297,-1.070312 v 5.964844 a 0.250025,0.250025 0 0 0 0.04883,0.15039 c 0.123219,0.164292 0.287717,0.298828 0.498047,0.298828 0.21033,0 0.374828,-0.134536 0.498047,-0.298828 a 0.250025,0.250025 0 0 0 0.04883,-0.15039 v -8.210938 c 0.26234,-0.991174 0.461869,-2.013308 0.59375,-3.068359 a 0.250025,0.250025 0 0 0 -0.01563,-0.123047 c -0.08109,-0.202718 -0.215824,-0.390464 -0.439453,-0.427735 z m 25.40039,0 c -0.223629,-0.03727 -0.406381,0.08607 -0.564453,0.244141 a 0.250025,0.250025 0 0 0 -0.07227,0.148438 c -0.260964,2.348676 -0.943318,4.289003 -2.039063,5.835937 a 0.250025,0.250025 0 0 0 -0.04102,0.0957 c -0.04062,0.20308 -0.03735,0.419685 0.117187,0.574219 0.154535,0.154534 0.37114,0.157804 0.574219,0.117187 a 0.250025,0.250025 0 0 0 0.138672,-0.08008 c 0.276895,-0.316452 0.443524,-0.706148 0.652343,-1.068359 v 5.962891 a 0.250025,0.250025 0 0 0 0.05078,0.15039 c 0.123218,0.164292 0.287717,0.298828 0.498047,0.298828 0.210329,0 0.374828,-0.134536 0.498046,-0.298828 a 0.250025,0.250025 0 0 0 0.04883,-0.15039 v -8.210938 c 0.26234,-0.991174 0.461868,-2.013308 0.59375,-3.068359 A 0.250025,0.250025 0 0 0 81.6035,64.607412 C 81.52241,64.404694 81.387676,64.216948 81.164046,64.179677 Z M 61.716797,64.32812 c -0.125144,-0.02086 -0.245597,0.02075 -0.337891,0.08008 -0.09229,0.05933 -0.169155,0.138202 -0.246094,0.234375 a 0.250025,0.250025 0 0 0 -0.05273,0.138672 c -0.130792,1.896486 -0.490713,3.489343 -1.070312,4.777344 a 0.250025,0.250025 0 0 0 -0.02148,0.101562 c 0,0.11658 0.0097,0.220354 0.04297,0.320313 0.03332,0.09996 0.09678,0.202989 0.201172,0.265625 0.104392,0.06264 0.230067,0.07156 0.333984,0.05078 0.103917,-0.02078 0.196477,-0.06593 0.294922,-0.125 a 0.250025,0.250025 0 0 0 0.0957,-0.101563 c 0.06537,-0.130731 0.158495,-0.383173 0.236328,-0.568359 0.235598,0.960575 0.496153,1.904764 0.851563,2.787109 -0.587956,1.03874 -1.362392,1.953015 -2.263672,2.785157 0.08128,-0.189316 0.230398,-0.338672 0.208984,-0.574219 l 0.002,0.02148 v -4.265625 l -0.002,0.02148 C 60.027051,69.872373 59.955271,69.51894 59.728523,69.269518 59.501768,69.020109 59.155469,68.914063 58.75,68.914062 h -0.148438 v -1.880859 h 1.337891 a 0.250025,0.250025 0 0 0 0.150391,-0.05078 c 0.164291,-0.123219 0.298828,-0.287717 0.298828,-0.498047 0,-0.21033 -0.134537,-0.372875 -0.298828,-0.496094 A 0.250025,0.250025 0 0 0 59.939453,65.9375 h -1.337891 v -1.039063 a 0.250025,0.250025 0 0 0 -0.02539,-0.113281 c -0.05706,-0.114126 -0.116241,-0.208037 -0.195313,-0.287109 -0.07907,-0.07907 -0.193229,-0.148438 -0.326172,-0.148438 -0.132942,0 -0.247099,0.06937 -0.326171,0.148438 -0.07907,0.07907 -0.13825,0.172983 -0.195313,0.287109 a 0.250025,0.250025 0 0 0 -0.02539,0.113281 V 65.9375 h -1.140625 a 0.250025,0.250025 0 0 0 -0.148437,0.05078 c -0.164292,0.123219 -0.298828,0.285764 -0.298828,0.496094 0,0.21033 0.134536,0.374828 0.298828,0.498047 a 0.250025,0.250025 0 0 0 0.148437,0.05078 h 1.140625 v 1.898438 c -0.379216,0.01026 -0.716759,0.09957 -0.945312,0.328125 -0.240827,0.240826 -0.345703,0.590625 -0.345703,0.996093 v 4.265625 c 0,0.405469 0.106047,0.751769 0.355469,0.978516 0.249422,0.226747 0.604808,0.300487 1.009765,0.263672 h 0.851563 c 0.432607,0.0309 0.759274,-0.0586 1.037109,-0.21875 -0.02377,0.06402 -0.05671,0.127506 -0.06445,0.193359 -0.01345,0.114345 0.0073,0.250277 0.08984,0.353516 0.08259,0.103239 0.203484,0.153055 0.316406,0.171875 0.112922,0.01882 0.229486,0.01297 0.361328,-0.0059 a 0.250025,0.250025 0 0 0 0.128906,-0.05859 c 0.982638,-0.859808 1.751386,-1.833063 2.400391,-2.865235 0.669155,1.161255 1.340629,2.135658 2.029297,2.761719 a 0.250025,0.250025 0 0 0 0.05664,0.03906 c 0.115369,0.05768 0.221593,0.09788 0.335938,0.111328 0.114345,0.01345 0.250276,-0.0073 0.353516,-0.08984 0.103239,-0.08259 0.153054,-0.203484 0.171875,-0.316406 0.01882,-0.112922 0.01297,-0.229487 -0.0059,-0.361328 a 0.250025,0.250025 0 0 0 -0.07031,-0.140625 c -0.818977,-0.818977 -1.543391,-1.840855 -2.183594,-3.039063 0.788219,-1.918779 1.1612,-3.669215 1.140625,-5.265625 h 0.369141 a 0.250025,0.250025 0 0 0 0.15039,-0.05078 c 0.164292,-0.123219 0.298828,-0.287717 0.298828,-0.498047 0,-0.21033 -0.134536,-0.372875 -0.298828,-0.496094 A 0.250025,0.250025 0 0 0 64.900391,65.9375 H 62.09375 c 0.0417,-0.360504 0.08008,-0.716743 0.08008,-1.039063 a 0.250025,0.250025 0 0 0 -0.01172,-0.08008 c -0.03867,-0.116018 -0.08336,-0.215596 -0.15039,-0.302734 -0.06703,-0.08714 -0.169778,-0.166642 -0.294922,-0.1875 z m 25.40039,0 c -0.125144,-0.02086 -0.245596,0.02075 -0.33789,0.08008 -0.09229,0.05933 -0.169156,0.138202 -0.246094,0.234375 a 0.250025,0.250025 0 0 0 -0.05273,0.138672 c -0.130792,1.896486 -0.490712,3.489343 -1.070313,4.777344 a 0.250025,0.250025 0 0 0 -0.02344,0.101562 c 0,0.11658 0.0116,0.220354 0.04492,0.320313 0.03332,0.09996 0.09678,0.202989 0.201171,0.265625 0.104392,0.06264 0.228115,0.07156 0.332032,0.05078 0.103917,-0.02078 0.19843,-0.06593 0.296875,-0.125 a 0.250025,0.250025 0 0 0 0.0957,-0.101563 c 0.06536,-0.13073 0.158495,-0.383173 0.236328,-0.568359 0.235446,0.959959 0.496458,1.903326 0.851562,2.785156 -0.58815,1.039657 -1.361742,1.954354 -2.263671,2.78711 0.08128,-0.189316 0.230398,-0.338672 0.208984,-0.574219 V 70.27734 c 0.03681,-0.404958 -0.03497,-0.758391 -0.261719,-1.007813 -0.226747,-0.249422 -0.575,-0.355468 -0.980469,-0.355469 h -0.146484 v -1.880859 h 1.337891 a 0.250025,0.250025 0 0 0 0.15039,-0.05078 c 0.164292,-0.123219 0.298828,-0.287717 0.298828,-0.498047 0,-0.21033 -0.134536,-0.372875 -0.298828,-0.496094 a 0.250025,0.250025 0 0 0 -0.15039,-0.05078 h -1.337891 v -1.039063 a 0.250025,0.250025 0 0 0 -0.02539,-0.113281 c -0.05706,-0.114126 -0.11624,-0.208037 -0.195312,-0.287109 -0.07907,-0.07907 -0.193229,-0.148438 -0.326172,-0.148438 -0.132943,0 -0.2471,0.06937 -0.326172,0.148438 -0.07907,0.07907 -0.138249,0.172983 -0.195312,0.287109 a 0.250025,0.250025 0 0 0 -0.02734,0.113281 V 65.9375 h -1.138672 a 0.250025,0.250025 0 0 0 -0.150391,0.05078 c -0.164291,0.123219 -0.296874,0.285764 -0.296875,0.496094 0,0.21033 0.132584,0.374828 0.296875,0.498047 a 0.250025,0.250025 0 0 0 0.150391,0.05078 h 1.138672 v 1.898438 c -0.378321,0.01059 -0.715228,0.09999 -0.943359,0.328125 -0.240827,0.240826 -0.345704,0.590625 -0.345704,0.996093 v 4.265625 c 0,0.405469 0.106047,0.751769 0.355469,0.978516 0.249422,0.226747 0.602855,0.300487 1.007813,0.263672 h 0.853515 c 0.432607,0.0309 0.759275,-0.0586 1.03711,-0.21875 -0.02377,0.06402 -0.05671,0.127506 -0.06445,0.193359 -0.01345,0.114345 0.0073,0.250277 0.08984,0.353516 0.08259,0.103239 0.203485,0.153055 0.316407,0.171875 0.112922,0.01882 0.229486,0.01297 0.361328,-0.0059 a 0.250025,0.250025 0 0 0 0.128906,-0.05859 c 0.982637,-0.859808 1.751385,-1.833063 2.400391,-2.865235 0.669154,1.161255 1.34063,2.135658 2.029296,2.761719 a 0.250025,0.250025 0 0 0 0.05664,0.03906 c 0.115368,0.05768 0.221593,0.09788 0.335938,0.111328 0.114344,0.01345 0.250276,-0.0073 0.353515,-0.08984 0.10324,-0.08259 0.151102,-0.203484 0.169922,-0.316406 0.01882,-0.112922 0.01493,-0.229487 -0.0039,-0.361328 a 0.250025,0.250025 0 0 0 -0.07031,-0.140625 c -0.818977,-0.818977 -1.543391,-1.840855 -2.183593,-3.039063 0.788219,-1.918779 1.161199,-3.669215 1.140625,-5.265625 h 0.36914 a 0.250025,0.250025 0 0 0 0.150391,-0.05078 C 90.615464,66.859203 90.75,66.694705 90.75,66.484375 c 0,-0.21033 -0.134536,-0.372875 -0.298828,-0.496094 A 0.250025,0.250025 0 0 0 90.300781,65.9375 h -2.80664 c 0.0417,-0.360504 0.08008,-0.716743 0.08008,-1.039063 a 0.250025,0.250025 0 0 0 -0.01367,-0.08008 c -0.03867,-0.116018 -0.08336,-0.215596 -0.150391,-0.302734 -0.06703,-0.08714 -0.167824,-0.166642 -0.292969,-0.1875 z m 23.027343,0.273437 c -0.022,0 0.0258,0.04938 0.0469,0.07031 v 0.523437 a 0.250025,0.250025 0 0 0 0.25,0.25 h 4.86328 c 0.0106,0.015 0.0469,0.05258 0.0469,0.04687 0,-0.0059 -0.0368,0.03233 -0.0488,0.04883 h -4.86132 a 0.250025,0.250025 0 0 0 -0.25,0.25 v 0.792968 a 0.250025,0.250025 0 0 0 0.25,0.25 h 3.17578 c 0.32592,0 0.51664,0.07523 0.61719,0.175782 0.10054,0.100546 0.15551,0.257394 0.12695,0.542968 a 0.250025,0.250025 0 0 0 -0.002,0.02344 v 0.595703 a 0.250025,0.250025 0 0 0 0.002,0.02344 c 0.0294,0.322988 -0.0323,0.499095 -0.12695,0.59375 -0.0947,0.09466 -0.27077,0.156316 -0.59375,0.126954 a 0.250025,0.250025 0 0 0 -0.0234,-0.002 h -3.17578 a 0.250025,0.250025 0 0 0 -0.25,0.25 v 0.792969 a 0.250025,0.250025 0 0 0 0.25,0.25 h 3.07617 c 0.36215,0 0.58623,0.0791 0.70117,0.183594 0.11494,0.104489 0.17073,0.253686 0.14258,0.535156 a 0.250025,0.250025 0 0 0 -0.002,0.02344 v 0.794922 a 0.250025,0.250025 0 0 0 0.25,0.25 h 1.09179 c 0.0106,0.015 0.0469,0.05258 0.0469,0.04687 0,-0.0059 -0.0368,0.03233 -0.0488,0.04883 h -1.08984 a 0.250025,0.250025 0 0 0 -0.25,0.25 v 0.792968 a 0.250025,0.250025 0 0 0 0.002,0.02344 c 0.0283,0.311763 -0.0379,0.464698 -0.17774,0.572266 -0.13983,0.107567 -0.41496,0.177251 -0.8457,0.146484 a 0.250025,0.250025 0 0 0 -0.0176,0 h -2.8789 a 0.250025,0.250025 0 0 0 -0.25,0.25 v 0.695312 a 0.250025,0.250025 0 0 0 0.002,0.01758 c 0.0303,0.424836 -0.0505,0.685923 -0.18359,0.830078 -0.13307,0.144155 -0.35258,0.221076 -0.73829,0.191406 -0.6051,-0.06108 -1.21307,-0.22188 -1.82226,-0.457031 -0.0129,-0.04176 -0.0427,-0.113933 -0.0449,-0.107422 -0.002,0.0061 0.0432,-0.01018 0.0586,-0.01758 0.68546,0.245826 1.24282,0.416772 1.64844,0.484375 a 0.250025,0.250025 0 0 0 0.01,0 c 0.30466,0.03808 0.58778,-0.0038 0.7793,-0.195313 0.19152,-0.191517 0.2334,-0.472687 0.19531,-0.777344 l 0.002,0.03125 V 74.125 a 0.250025,0.250025 0 0 0 -0.25,-0.25 h -4.26758 c -0.0106,-0.015 -0.0469,-0.05258 -0.0469,-0.04687 0,0.0059 0.0368,-0.03233 0.0488,-0.04883 h 4.26563 a 0.250025,0.250025 0 0 0 0.25,-0.25 v -1.189453 a 0.250025,0.250025 0 0 0 -0.25,-0.25 h -5.45703 c -0.0117,-0.01612 -0.0488,-0.05471 -0.0488,-0.04883 0,0.0057 0.0365,-0.03222 0.0469,-0.04687 h 5.45899 a 0.250025,0.250025 0 0 0 0.25,-0.25 V 70.55274 a 0.250025,0.250025 0 0 0 -0.25,-0.25 h -4.23633 c -0.005,-0.01279 -0.0293,-0.04074 -0.0293,-0.04687 0,-0.0064 0.0255,-0.03503 0.0312,-0.04883 h 4.23438 a 0.250025,0.250025 0 0 0 0.25,-0.25 v -0.792969 a 0.250025,0.250025 0 0 0 -0.25,-0.25 h -3.17578 a 0.250025,0.250025 0 0 0 -0.0254,0.002 c -0.28557,0.02856 -0.44046,-0.02641 -0.54101,-0.126954 -0.10055,-0.100546 -0.17578,-0.291264 -0.17578,-0.617187 v -0.595703 c 0,-0.289062 0.0693,-0.459967 0.17578,-0.566406 0.10644,-0.106439 0.27734,-0.175782 0.56641,-0.175782 h 3.17578 a 0.250025,0.250025 0 0 0 0.25,-0.25 v -0.792968 a 0.250025,0.250025 0 0 0 -0.25,-0.25 h -5.0586 c -0.0125,-0.01688 -0.0508,-0.05483 -0.0508,-0.04883 0,0.0057 0.0365,-0.03222 0.0469,-0.04687 h 5.0625 a 0.250025,0.250025 0 0 0 0.25,-0.25 v -0.523437 c 0.0211,-0.02093 0.0689,-0.07031 0.0469,-0.07031 z m -37.107421,0.04687 c -0.372395,0 -0.697585,0.09602 -0.921875,0.320313 -0.22429,0.22429 -0.320312,0.549479 -0.320312,0.921875 v 4.5625 c 0,0.431597 0.08424,0.785409 0.320312,1.021484 0.236076,0.236076 0.592831,0.292372 0.970703,0.216797 l -0.04883,0.0039 h 2.953125 c 0.404618,0.03678 0.758066,-0.03541 0.994141,-0.271484 0.236075,-0.236075 0.306315,-0.58757 0.269531,-0.992187 l 0.002,0.02148 v -4.5625 l -0.002,0.02344 c 0.03759,-0.375883 -0.03935,-0.715129 -0.269531,-0.945312 C 76.75419,64.73855 76.415351,64.64842 76.01367,64.64842 Z m -4.267578,0.0039 c -0.0059,0 0.03233,0.03675 0.04883,0.04883 V 66.1875 a 0.250025,0.250025 0 0 0 0.25,0.25 h 1.984375 c 0.01065,0.015 0.04687,0.05258 0.04687,0.04687 0,-0.0059 -0.03675,0.03233 -0.04883,0.04883 h -1.882812 a 0.250025,0.250025 0 0 0 -0.195313,0.408203 c 0.836352,1.029356 1.469694,1.920821 1.921875,2.6875 -0.0024,0.02276 -0.0046,0.04839 -0.0078,0.0625 -0.01708,-0.0058 -0.03985,-0.01667 -0.06836,-0.03125 -0.400876,-0.658482 -0.912161,-1.368813 -1.558593,-2.144531 a 0.250025,0.250025 0 0 0 -0.441407,0.160156 v 3.570313 c -0.0165,0.01207 -0.05477,0.04883 -0.04883,0.04883 0.0057,0 -0.03187,-0.03623 -0.04687,-0.04687 V 67.875 A 0.250025,0.250025 0 0 0 68.25,67.761719 c -0.508253,1.016507 -1.149617,1.932476 -1.90625,2.761718 -0.02979,0.0055 -0.05891,0.01237 -0.07813,0.01367 0.0078,-0.04148 0.01936,-0.09623 0.05273,-0.175781 0.799061,-0.877923 1.557712,-2.023625 2.279297,-3.466797 a 0.250025,0.250025 0 0 0 -0.224609,-0.361328 h -1.833985 c -0.0138,-0.03233 -0.04667,-0.08739 -0.04687,-0.0957 h 1.980469 a 0.250025,0.250025 0 0 0 0.25,-0.25 V 64.69922 c 0.015,-0.01065 0.05258,-0.04687 0.04687,-0.04687 z m 29.765625,0 c -0.005,0 0.0301,0.03396 0.04102,0.04102 -0.0044,0.305515 -0.02936,0.682134 -0.08984,1.166016 a 0.250025,0.250025 0 0 0 0.248047,0.28125 h 3.175787 c 0.32592,0 0.51664,0.07328 0.61718,0.173828 0.10055,0.100547 0.15356,0.257394 0.125,0.542969 a 0.250025,0.250025 0 0 0 0,0.02148 l -0.0996,6.746094 a 0.250025,0.250025 0 0 0 0,0.01172 c 0.0156,0.482089 -0.0618,0.85446 -0.21093,1.125 -0.14915,0.27054 -0.36596,0.451384 -0.68946,0.566406 -0.6259,0.222545 -1.707788,0.109525 -3.130858,-0.337891 -0.01032,-0.04288 -0.03508,-0.108009 -0.03711,-0.111328 0.01397,-0.0031 0.01662,-0.0078 0.05078,-0.0078 l -0.05664,-0.0098 c -3.7e-5,5.8e-5 3.8e-5,-0.002 0,-0.002 1.261347,0.460822 2.230648,0.625736 2.937508,0.396484 0.35695,-0.115768 0.64438,-0.345945 0.81836,-0.664062 0.17397,-0.318117 0.24034,-0.710023 0.22265,-1.169922 l 0.0996,-6.337891 -0.004,0.03711 c 0.0409,-0.245091 0,-0.496099 -0.16796,-0.664063 -0.16797,-0.167963 -0.40661,-0.222656 -0.67383,-0.222656 h -3.076178 a 0.250025,0.250025 0 0 0 -0.244141,0.199219 c -0.189039,0.882184 -0.474599,1.659038 -0.84375,2.349609 -0.01272,0.0055 -0.02799,0.01258 -0.03711,0.01563 -0.005,-0.02193 -0.0076,-0.05475 -0.0098,-0.09766 0.633987,-1.293849 0.957194,-2.626493 0.974609,-3.988281 0.02689,-0.02336 0.06792,-0.06055 0.06055,-0.06055 z m -42.853515,0.02148 c -0.01284,-0.0021 0.01769,0.04529 0.0293,0.06055 -0.130873,1.023306 -0.320307,2.017072 -0.576171,2.976562 a 0.250025,0.250025 0 0 0 -0.0098,0.06445 v 8.136718 c -0.01465,0.01032 -0.05253,0.04687 -0.04687,0.04687 0.0057,0 -0.03222,-0.03655 -0.04687,-0.04687 V 69.16404 a 0.250025,0.250025 0 0 0 -0.482422,-0.0918 c -0.244897,0.612243 -0.588822,1.154949 -1.009766,1.648437 0.0013,0.0014 -0.02314,2.97e-4 -0.01953,0.0039 0.01834,0.01834 0.0057,-0.02676 0.01367,-0.101562 1.106665,-1.589308 1.792072,-3.55645 2.066406,-5.884766 0.03872,-0.02509 0.09793,-0.0618 0.08203,-0.06445 z m 25.40039,0 c -0.01284,-0.0021 0.01769,0.04529 0.0293,0.06055 -0.130874,1.023306 -0.320308,2.017072 -0.576172,2.976562 a 0.250025,0.250025 0 0 0 -0.0098,0.06445 v 8.136718 c -0.01465,0.01032 -0.05253,0.04687 -0.04687,0.04687 0.0059,0 -0.03271,-0.03712 -0.04883,-0.04883 v -6.746094 a 0.250025,0.250025 0 0 0 -0.480468,-0.0918 c -0.244897,0.612243 -0.588822,1.154949 -1.009766,1.648437 0.0012,0.0013 -0.02538,9e-6 -0.02148,0.0039 0.01834,0.01835 0.0077,-0.02668 0.01563,-0.101562 1.106342,-1.588846 1.789958,-3.555384 2.064453,-5.882813 0.04111,-0.02723 0.100298,-0.06369 0.08398,-0.06641 z m 13.494141,0 c -0.01284,-0.0021 0.01769,0.04529 0.0293,0.06055 -0.06478,0.555298 -0.15691,1.056018 -0.279297,1.484375 a 0.250025,0.250025 0 0 0 0.240234,0.318359 h 1.390625 c 0.325923,0 0.516641,0.07328 0.617188,0.173828 0.100546,0.100547 0.153557,0.257394 0.125,0.542969 a 0.250025,0.250025 0 0 0 0,0.02539 v 7.142578 a 0.250025,0.250025 0 0 0 0,0.02344 c 0.02936,0.322987 -0.03035,0.499097 -0.125,0.59375 -0.09465,0.09465 -0.272716,0.156316 -0.595703,0.126954 a 0.250025,0.250025 0 0 0 -0.02148,-0.002 h -2.779297 a 0.250025,0.250025 0 0 0 -0.02539,0.002 C 92.866777,75.19456 92.711882,75.13959 92.611336,75.039046 92.51079,74.9385 92.435555,74.747783 92.435555,74.421859 v -7.142578 c 0,-0.289063 0.06934,-0.46192 0.175781,-0.56836 0.106439,-0.106439 0.277344,-0.173828 0.566406,-0.173828 h 0.794922 a 0.250025,0.250025 0 0 0 0.240235,-0.18164 c 0.129036,-0.451626 0.218197,-1.001839 0.285156,-1.619141 0.03513,-0.02201 0.09337,-0.05996 0.07813,-0.0625 z m -32.947266,0.175781 c 0.01164,0.0187 0.02522,0.05065 0.04102,0.08984 -0.002,0.372682 -0.02918,0.774612 -0.0918,1.212891 a 0.250025,0.250025 0 0 0 0.246094,0.285156 h 2.978515 c 0.01032,0.01465 0.04687,0.05253 0.04687,0.04687 0,-0.0059 -0.03712,0.03271 -0.04883,0.04883 h -0.496094 a 0.250025,0.250025 0 0 0 -0.248046,0.259766 c 0.06425,1.606293 -0.322132,3.422909 -1.171875,5.449218 a 0.250025,0.250025 0 0 0 0.0098,0.212891 c 0.6515,1.237849 1.409532,2.274898 2.257813,3.140625 0.0054,0.06034 0.0074,0.115415 0.0039,0.144531 -0.02294,-0.0049 -0.06063,-0.0199 -0.105469,-0.03906 -0.691272,-0.633861 -1.400308,-1.590405 -2.113281,-2.886719 a 0.250025,0.250025 0 0 0 -0.435547,-0.0059 c -0.635024,1.079541 -1.467165,2.060567 -2.480469,2.957031 -0.04043,0.002 -0.08734,0.0066 -0.109375,0.0039 0.0063,-0.02976 0.01942,-0.07017 0.05078,-0.134765 1.047625,-0.929671 1.914947,-1.983623 2.576171,-3.173829 a 0.250025,0.250025 0 0 0 0.01367,-0.216796 c -0.456938,-1.109588 -0.81652,-2.28456 -1.078144,-3.527271 a 0.250025,0.250025 0 0 0 -0.478515,-0.03711 c -0.184686,0.492496 -0.335391,0.84303 -0.457032,1.09375 -0.01296,0.0056 -0.02778,0.01444 -0.03711,0.01758 -0.0068,-0.0294 -0.01367,-0.06481 -0.01367,-0.13086 0.575253,-1.311654 0.928588,-2.891088 1.066406,-4.736328 0.02946,-0.03251 0.05607,-0.06016 0.07422,-0.07422 z m 25.398438,0.002 c 0.0118,0.01911 0.0271,0.05012 0.04297,0.08984 -0.0021,0.372192 -0.02929,0.773361 -0.0918,1.210938 a 0.250025,0.250025 0 0 0 0.246093,0.285156 h 2.978516 c 0.01032,0.01465 0.04687,0.05253 0.04687,0.04687 0,-0.006 -0.03833,0.03194 -0.05078,0.04883 h -0.494141 a 0.250025,0.250025 0 0 0 -0.25,0.259766 c 0.06425,1.606293 -0.320178,3.422909 -1.169922,5.449218 a 0.250025,0.250025 0 0 0 0.0078,0.212891 c 0.651045,1.236987 1.410259,2.273286 2.257812,3.138672 0.0057,0.06154 0.0094,0.116973 0.0059,0.146484 -0.02294,-0.0049 -0.06063,-0.0199 -0.105469,-0.03906 -0.691271,-0.633861 -1.400309,-1.590405 -2.113281,-2.886719 a 0.250025,0.250025 0 0 0 -0.435547,-0.0059 c -0.635029,1.079548 -1.46911,2.060562 -2.482422,2.957031 -0.03942,0.0018 -0.08578,0.0065 -0.107422,0.0039 0.0063,-0.02976 0.01942,-0.07017 0.05078,-0.134765 1.047626,-0.929671 1.914946,-1.983623 2.576172,-3.173829 a 0.250025,0.250025 0 0 0 0.01367,-0.216796 C 87.496206,71.13448 87.136623,69.959508 86.875,68.716797 a 0.250025,0.250025 0 0 0 -0.478516,-0.03711 c -0.184686,0.492496 -0.335391,0.84303 -0.457031,1.09375 -0.01296,0.0056 -0.02778,0.01444 -0.03711,0.01758 -0.0065,-0.0281 -0.01508,-0.06323 -0.01563,-0.125 0.576545,-1.312638 0.930367,-2.894612 1.068359,-4.742188 0.02868,-0.03166 0.05423,-0.05811 0.07227,-0.07227 z m -28.972657,0.04297 c 0.01351,0.01748 0.02875,0.04131 0.04687,0.07227 V 66.1875 a 0.250025,0.250025 0 0 0 0.25,0.25 h 1.490235 c 0.01032,0.01465 0.04687,0.05253 0.04687,0.04687 0,-0.0059 -0.03712,0.03271 -0.04883,0.04883 H 58.35155 a 0.250025,0.250025 0 0 0 -0.25,0.25 v 2.380859 a 0.250025,0.250025 0 0 0 0.25,0.25 H 58.75 c 0.322136,0 0.50344,0.07703 0.607422,0.191407 0.103982,0.11438 0.164097,0.304306 0.134765,0.626953 a 0.250025,0.250025 0 0 0 0,0.02344 v 4.265625 a 0.250025,0.250025 0 0 0 0,0.02344 c 0.02834,0.311762 -0.03594,0.464699 -0.175781,0.572265 -0.139836,0.107567 -0.416913,0.179205 -0.847656,0.148438 a 0.250025,0.250025 0 0 0 -0.01758,-0.002 h -0.892578 a 0.250025,0.250025 0 0 0 -0.02344,0.002 c -0.322646,0.02933 -0.512573,-0.03078 -0.626953,-0.134766 -0.11438,-0.103981 -0.191406,-0.287239 -0.191406,-0.609375 v -4.265625 c 0,-0.322135 0.07624,-0.519602 0.199219,-0.642578 0.122975,-0.122975 0.320442,-0.199218 0.642578,-0.199219 h 0.199218 a 0.250025,0.250025 0 0 0 0.25,-0.25 v -2.380859 a 0.250025,0.250025 0 0 0 -0.25,-0.25 H 56.46875 c -0.01207,-0.0165 -0.04883,-0.05477 -0.04883,-0.04883 0,0.0057 0.03623,-0.03187 0.04687,-0.04687 h 1.291015 a 0.250025,0.250025 0 0 0 0.25,-0.25 v -1.220703 c 0.01813,-0.03095 0.03337,-0.05478 0.04687,-0.07227 z m 25.400391,0 c 0.01351,0.01748 0.02875,0.04131 0.04687,0.07227 V 66.1875 a 0.250025,0.250025 0 0 0 0.25,0.25 h 1.490234 c 0.01032,0.01465 0.04687,0.05253 0.04687,0.04687 0,-0.006 -0.03833,0.03194 -0.05078,0.04883 h -1.486328 a 0.250025,0.250025 0 0 0 -0.25,0.25 v 2.380859 a 0.250025,0.250025 0 0 0 0.25,0.25 h 0.396484 c 0.322136,0 0.505394,0.07703 0.609375,0.191407 0.103982,0.11438 0.164098,0.304306 0.134766,0.626953 a 0.250025,0.250025 0 0 0 -0.002,0.02344 v 4.265625 a 0.250025,0.250025 0 0 0 0.002,0.02344 c 0.02834,0.311762 -0.03594,0.464699 -0.175781,0.572265 -0.139837,0.107567 -0.416914,0.179205 -0.847656,0.148438 a 0.250025,0.250025 0 0 0 -0.01758,-0.002 h -0.892578 a 0.250025,0.250025 0 0 0 -0.02344,0.002 c -0.322647,0.02933 -0.512573,-0.03078 -0.626953,-0.134766 -0.11438,-0.103981 -0.191407,-0.287239 -0.191407,-0.609375 v -4.265625 c 0,-0.322135 0.07624,-0.519602 0.199219,-0.642578 0.122976,-0.122975 0.320443,-0.199218 0.642578,-0.199219 h 0.197266 a 0.250025,0.250025 0 0 0 0.25,-0.25 v -2.380859 a 0.250025,0.250025 0 0 0 -0.25,-0.25 h -1.287109 c -0.01207,-0.0165 -0.04883,-0.05477 -0.04883,-0.04883 0,0.0057 0.03623,-0.03187 0.04687,-0.04687 h 1.289063 a 0.250025,0.250025 0 0 0 0.25,-0.25 v -1.216797 c 0.0192,-0.03321 0.03464,-0.05781 0.04883,-0.07617 z m -10.417969,0.253906 h 2.976563 c 0.325923,0 0.516641,0.07328 0.617187,0.173829 0.100547,0.100546 0.153558,0.257394 0.125,0.542968 a 0.250025,0.250025 0 0 0 0,0.02539 v 4.5625 a 0.250025,0.250025 0 0 0 0,0.02344 c 0.02936,0.322987 -0.03035,0.499097 -0.125,0.59375 -0.09465,0.09465 -0.272716,0.156316 -0.595703,0.126954 a 0.250025,0.250025 0 0 0 -0.02148,-0.002 h -2.976563 a 0.250025,0.250025 0 0 0 -0.04883,0.0059 c -0.283585,0.05672 -0.424877,0.01458 -0.519531,-0.08008 -0.09465,-0.09465 -0.173828,-0.305816 -0.173828,-0.667969 v -4.5625 c 0,-0.289062 0.06739,-0.46192 0.173828,-0.568359 0.106439,-0.106439 0.279297,-0.173829 0.568359,-0.173829 z m 0.197266,0.09375 c -0.240104,0 -0.464902,0.06451 -0.623047,0.222657 -0.158144,0.158144 -0.220703,0.382942 -0.220703,0.623047 v 0.794921 a 0.250025,0.250025 0 0 0 0.25,0.25 h 3.769531 a 0.250025,0.250025 0 0 0 0.25,-0.25 v -0.794921 l -0.0039,0.04102 c 0.04085,-0.245091 -3e-6,-0.496097 -0.167969,-0.664062 -0.167965,-0.167966 -0.406603,-0.222657 -0.673828,-0.222657 z m 0,0.5 h 2.580078 c 0.195797,0 0.28984,0.0457 0.320313,0.07617 0.03047,0.03047 0.05459,0.07673 0.0293,0.228516 a 0.250025,0.250025 0 0 0 -0.0039,0.04102 v 0.544921 H 72.890635 V 66.08792 c 0,-0.156771 0.03392,-0.229238 0.07422,-0.269532 0.04029,-0.04029 0.11276,-0.07617 0.269531,-0.07617 z M 61.726562,66.53323 a 0.250025,0.250025 0 0 0 -0.246093,0.201172 l -0.09961,0.496094 a 0.250025,0.250025 0 0 0 0,0.0918 c 0.332348,1.927617 0.696855,3.39448 1.105469,4.416015 a 0.250025,0.250025 0 0 0 0.462891,0 c 0.737554,-1.81036 1.078009,-3.465416 1.009765,-4.966797 a 0.250025,0.250025 0 0 0 -0.248047,-0.238281 z m 25.398438,0 a 0.250025,0.250025 0 0 0 -0.244141,0.201172 l -0.09961,0.496094 a 0.250025,0.250025 0 0 0 -0.002,0.0918 c 0.332347,1.927617 0.698807,3.394479 1.107422,4.416015 a 0.250025,0.250025 0 0 0 0.46289,0 c 0.737555,-1.810361 1.078011,-3.465416 1.009766,-4.966797 a 0.250025,0.250025 0 0 0 -0.25,-0.238281 z m 6.251953,0.09961 c -0.240104,0 -0.464902,0.06256 -0.623047,0.220704 -0.158144,0.158144 -0.222656,0.382942 -0.222656,0.623046 v 2.976563 a 0.250025,0.250025 0 0 0 0.25,0.25 h 3.572266 a 0.250025,0.250025 0 0 0 0.25,-0.25 V 67.47659 l -0.0039,0.04297 c 0.04085,-0.245091 -3e-6,-0.49805 -0.167968,-0.666015 -0.167966,-0.167966 -0.406604,-0.220704 -0.673829,-0.220704 z m 13.494137,0.296875 c -0.2401,0 -0.4649,0.06451 -0.62304,0.222657 -0.15815,0.158144 -0.22266,0.382943 -0.22266,0.623047 v 0.197265 c 0,0.267225 0.0547,0.505863 0.22266,0.673828 0.16796,0.167966 0.41897,0.210771 0.66406,0.169922 l -0.041,0.002 h 2.97657 a 0.250025,0.250025 0 0 0 0.25,-0.25 v -1.388672 a 0.250025,0.250025 0 0 0 -0.25,-0.25 z m 3.57032,0 a 0.250025,0.250025 0 0 0 -0.25,0.25 v 1.388672 a 0.250025,0.250025 0 0 0 0.25,0.25 h 2.97656 l -0.0352,-0.002 c 0.27111,0.03873 0.5312,0.0079 0.70899,-0.169922 0.17778,-0.177786 0.20865,-0.437875 0.16992,-0.708984 l 0.002,0.03516 v -0.296875 l -0.004,0.04883 c 0.0441,-0.220364 -0.0129,-0.46938 -0.18555,-0.613281 -0.17268,-0.143901 -0.39499,-0.18164 -0.65625,-0.181641 z m -48.509769,0.103516 h 1.507812 c 0.01817,1.117617 -0.237337,2.359737 -0.697266,3.693359 -0.300929,-0.916986 -0.595648,-1.932635 -0.859375,-3.453125 z m 25.398437,0 h 1.509766 c 0.01817,1.117063 -0.237807,2.358551 -0.697266,3.691406 -0.300753,-0.916823 -0.595789,-1.931492 -0.859375,-3.451172 z m 6.046875,0.09961 h 2.380859 c 0.195797,0 0.289841,0.04375 0.320313,0.07422 0.03047,0.03047 0.05459,0.07673 0.0293,0.228516 a 0.250025,0.250025 0 0 0 -0.0039,0.04102 V 70.20316 H 93.03125 v -2.726563 c 0,-0.15677 0.03588,-0.229238 0.07617,-0.269531 0.04029,-0.04029 0.11276,-0.07422 0.269531,-0.07422 z m -20.736328,0.09375 a 0.250025,0.250025 0 0 0 -0.25,0.25 v 1.390625 a 0.250025,0.250025 0 0 0 0.25,0.25 h 3.769531 a 0.250025,0.250025 0 0 0 0.25,-0.25 v -1.390625 a 0.250025,0.250025 0 0 0 -0.25,-0.25 z m 34.230465,0.203125 h 2.72657 v 0.888672 h -2.72657 a 0.250025,0.250025 0 0 0 -0.041,0.0039 c -0.15178,0.0253 -0.19805,0.0012 -0.22852,-0.0293 -0.0305,-0.03047 -0.0762,-0.124517 -0.0762,-0.320313 V 67.77541 c 0,-0.156772 0.0359,-0.229239 0.0762,-0.269532 0.0403,-0.04029 0.11276,-0.07617 0.26953,-0.07617 z m 3.82032,0 h 2.72656 c 0.20174,0 0.31018,0.04494 0.33594,0.06641 0.0258,0.02146 0.0377,0.02049 0.0156,0.130859 a 0.250025,0.250025 0 0 0 -0.006,0.04883 v 0.296875 a 0.250025,0.250025 0 0 0 0.004,0.03711 c 0.0274,0.191913 -0.009,0.262552 -0.0293,0.283203 -0.0207,0.02065 -0.0913,0.05671 -0.2832,0.0293 a 0.250025,0.250025 0 0 0 -0.0371,-0.0039 h -2.72656 z m -37.800785,0.296875 h 3.269531 v 0.890625 h -3.269531 z m 25.832031,0.701172 c -0.106631,-0.01882 -0.229146,-0.01564 -0.339844,0.05078 -0.110697,0.06642 -0.175644,0.186814 -0.197265,0.294921 -0.02162,0.108108 -0.01569,0.214485 0.0039,0.332032 a 0.250025,0.250025 0 0 0 0.03711,0.09375 c 0.585064,0.910099 1.174275,2.057681 1.765625,3.4375 a 0.250025,0.250025 0 0 0 0.03906,0.06055 c 0.0927,0.111287 0.17858,0.199504 0.28125,0.263671 0.10267,0.06417 0.24619,0.109343 0.38672,0.0625 0.14052,-0.04684 0.22432,-0.162909 0.27344,-0.273437 0.0491,-0.110528 0.0754,-0.231985 0.0937,-0.378906 a 0.250025,0.250025 0 0 0 -0.0137,-0.119141 c -0.47067,-1.277559 -1.110157,-2.487289 -1.916003,-3.628906 a 0.250025,0.250025 0 0 0 -0.0918,-0.08008 c -0.112884,-0.05644 -0.215635,-0.09642 -0.322266,-0.115235 z m -0.04297,0.509766 c 0.02058,0.0059 0.0482,0.01702 0.07813,0.0293 0.752803,1.07542 1.352674,2.209931 1.798824,3.40625 -0.009,0.0477 -0.0181,0.08621 -0.0273,0.115234 -0.0288,-0.02418 -0.0582,-0.04762 -0.10157,-0.09766 C 99.848713,71.045833 99.266511,69.918833 98.681641,69 c -0.0037,-0.03008 -0.0019,-0.043 -0.002,-0.0625 z m -26.039062,0.273437 a 0.250025,0.250025 0 0 0 -0.25,0.25 v 0.794922 c 0,0.267225 0.05274,0.50391 0.220703,0.671875 0.167965,0.167966 0.418971,0.210771 0.664063,0.169922 l -0.04102,0.0039 h 2.580078 l -0.03516,-0.0039 c 0.271108,0.03873 0.531198,0.0079 0.708984,-0.169922 0.177787,-0.177786 0.208652,-0.435922 0.169922,-0.707031 l 0.002,0.03516 V 69.46097 a 0.250025,0.250025 0 0 0 -0.25,-0.25 z m -14.982422,0.298829 c -0.240104,0 -0.464903,0.06451 -0.623047,0.222656 -0.158144,0.158144 -0.222656,0.382943 -0.222656,0.623047 v 3.96875 c 0,0.267224 0.05469,0.503909 0.222656,0.671875 0.167965,0.167965 0.418972,0.21077 0.664063,0.169922 l -0.04102,0.002 h 0.792969 l -0.03125,-0.002 c 0.299567,0.03745 0.567989,0.01315 0.765625,-0.15625 0.197636,-0.169403 0.248539,-0.44382 0.208984,-0.720704 l 0.002,0.03516 v -3.96875 l -0.0039,0.04102 c 0.04196,-0.251756 -0.01982,-0.517264 -0.207031,-0.677734 -0.187215,-0.16047 -0.438542,-0.208984 -0.734375,-0.208984 z m 25.400391,0 c -0.240105,0 -0.464903,0.06451 -0.623047,0.222656 -0.158145,0.158144 -0.222656,0.382943 -0.222656,0.623047 v 3.96875 c 0,0.267224 0.05469,0.50391 0.222656,0.671875 0.167965,0.167965 0.418971,0.21077 0.664062,0.169922 l -0.04102,0.002 h 0.792968 l -0.03125,-0.002 c 0.299568,0.03745 0.566036,0.01315 0.763672,-0.15625 0.197636,-0.169403 0.24854,-0.44382 0.208985,-0.720704 l 0.0039,0.03516 v -3.96875 l -0.0039,0.04102 c 0.04196,-0.251756 -0.02177,-0.517264 -0.208985,-0.677734 -0.187214,-0.16047 -0.436588,-0.208984 -0.732422,-0.208984 z m -10.167969,0.201171 h 3.269531 v 0.544922 a 0.250025,0.250025 0 0 0 0.002,0.03516 c 0.02742,0.191913 -0.0067,0.262551 -0.02734,0.283203 -0.02065,0.02065 -0.09324,0.05671 -0.285157,0.0293 a 0.250025,0.250025 0 0 0 -0.03516,-0.002 H 73.23442 a 0.250025,0.250025 0 0 0 -0.04102,0.002 c -0.151784,0.0253 -0.198043,0.0012 -0.228515,-0.0293 -0.03047,-0.03047 -0.07422,-0.122563 -0.07422,-0.31836 z m -15.232422,0.298829 h 0.792969 c 0.233334,0 0.363907,0.04992 0.408203,0.08789 0.0443,0.03797 0.0652,0.07168 0.04102,0.216797 a 0.250025,0.250025 0 0 0 -0.0039,0.04102 v 3.96875 a 0.250025,0.250025 0 0 0 0.002,0.03516 c 0.02659,0.186138 -0.0052,0.240496 -0.03906,0.269531 -0.03387,0.02904 -0.147354,0.06972 -0.376953,0.04102 a 0.250025,0.250025 0 0 0 -0.03125,-0.002 h -0.792969 a 0.250025,0.250025 0 0 0 -0.04102,0.0039 c -0.151783,0.0253 -0.198043,0.0012 -0.228515,-0.0293 -0.03047,-0.03047 -0.07617,-0.122563 -0.07617,-0.318359 v -3.96875 c 0,-0.156771 0.03588,-0.229238 0.07617,-0.269532 0.04029,-0.04029 0.11276,-0.07617 0.269531,-0.07617 z m 25.400391,0 h 0.792968 c 0.233334,0 0.363908,0.04992 0.408204,0.08789 0.0443,0.03797 0.06325,0.07168 0.03906,0.216797 a 0.250025,0.250025 0 0 0 -0.002,0.04102 v 3.96875 a 0.250025,0.250025 0 0 0 0.002,0.03516 c 0.02659,0.186138 -0.0052,0.240496 -0.03906,0.269531 -0.03387,0.02904 -0.147354,0.06972 -0.376954,0.04102 a 0.250025,0.250025 0 0 0 -0.03125,-0.002 h -0.792968 a 0.250025,0.250025 0 0 0 -0.04102,0.0039 c -0.151784,0.0253 -0.198043,0.0012 -0.228516,-0.0293 -0.03047,-0.03047 -0.07617,-0.122563 -0.07617,-0.318359 v -3.96875 c 0,-0.156771 0.03588,-0.229238 0.07617,-0.269532 0.04029,-0.04029 0.112761,-0.07617 0.269532,-0.07617 z m 27.382817,0.292968 a 0.250025,0.250025 0 0 0 -0.25,0.25 v 1.191407 a 0.250025,0.250025 0 0 0 0.25,0.25 h 3.57226 a 0.250025,0.250025 0 0 0 0.25,-0.25 v -0.595704 l -0.004,0.04102 c 0.0408,-0.24509 -1e-5,-0.496099 -0.16797,-0.664062 -0.16797,-0.167964 -0.40661,-0.222657 -0.67383,-0.222657 z m -17.660161,0.496094 a 0.250025,0.250025 0 0 0 -0.25,0.25 v 3.175781 c 0,0.267225 0.05469,0.50391 0.222656,0.671875 0.167966,0.167966 0.418971,0.210771 0.664063,0.169922 l -0.04102,0.0039 h 2.380859 l -0.03516,-0.0039 c 0.271109,0.03873 0.531198,0.0079 0.708985,-0.169922 0.177786,-0.177786 0.208651,-0.435922 0.169921,-0.707031 l 0.002,0.03516 v -3.175781 a 0.250025,0.250025 0 0 0 -0.25,-0.25 z m 17.910161,0.0039 h 2.72656 c 0.19579,0 0.28984,0.0457 0.32031,0.07617 0.0305,0.03047 0.0546,0.07673 0.0293,0.228516 a 0.250025,0.250025 0 0 0 -0.004,0.04102 v 0.345704 h -3.07226 z m -17.660161,0.496094 h 3.072266 v 2.925781 a 0.250025,0.250025 0 0 0 0.002,0.03516 c 0.02742,0.191913 -0.0067,0.262552 -0.02734,0.283203 -0.02065,0.02065 -0.09324,0.05671 -0.285156,0.0293 a 0.250025,0.250025 0 0 0 -0.03516,-0.002 H 93.377 a 0.250025,0.250025 0 0 0 -0.04102,0.002 c -0.151783,0.0253 -0.198043,0.0012 -0.228515,-0.0293 -0.03047,-0.03047 -0.07617,-0.122563 -0.07617,-0.31836 z M 71.939453,71.3125 c -0.205385,-0.08215 -0.443183,-0.105219 -0.621094,0.03711 -0.17791,0.142328 -0.21875,0.358638 -0.21875,0.591797 a 0.250025,0.250025 0 0 0 0.05664,0.160156 c 0.583035,0.712598 1.137367,1.558833 1.660156,2.539063 a 0.250025,0.250025 0 0 0 0.109375,0.105469 c 0.228252,0.114126 0.451446,0.183457 0.669922,0.07422 0.109238,-0.05462 0.188589,-0.157018 0.230469,-0.261718 0.04188,-0.104701 0.05664,-0.213932 0.05664,-0.333985 a 0.250025,0.250025 0 0 0 -0.03711,-0.128906 C 73.246607,73.097211 72.648188,72.196281 72.046875,71.394531 A 0.250025,0.250025 0 0 0 71.939453,71.3125 Z m -2.177734,0.378906 c -0.21033,10e-7 -0.372875,0.134537 -0.496094,0.298828 a 0.250025,0.250025 0 0 0 -0.05078,0.150391 v 2.777344 c 0,0.401681 0.09208,0.740521 0.322265,0.970703 0.230183,0.230182 0.569429,0.309073 0.945313,0.271484 h 3.84375 l -0.03516,-0.002 c 0.531905,0.07599 1.009236,-0.129212 1.267578,-0.566406 0.258342,-0.437194 0.342671,-1.055199 0.308593,-1.873047 a 0.250025,0.250025 0 0 0 -0.05078,-0.140625 c -0.123219,-0.164292 -0.287717,-0.298828 -0.498047,-0.298828 -0.210329,0 -0.374828,0.134536 -0.498047,0.298828 a 0.250025,0.250025 0 0 0 -0.04883,0.164062 c 0.03206,0.577136 -0.01886,0.982288 -0.103515,1.175782 -0.04233,0.09675 -0.0825,0.133314 -0.115235,0.15039 -0.03273,0.01708 -0.07593,0.02643 -0.166015,0.0039 a 0.250025,0.250025 0 0 0 -0.06055,-0.0059 H 70.65625 a 0.250025,0.250025 0 0 0 -0.04102,0.002 c -0.151783,0.0253 -0.198043,0.0012 -0.228515,-0.0293 -0.03047,-0.03047 -0.07617,-0.122563 -0.07617,-0.318359 v -2.580078 a 0.250025,0.250025 0 0 0 -0.05078,-0.150391 c -0.12322,-0.164291 -0.287717,-0.298829 -0.498047,-0.298828 z m 1.86914,0.04883 c -0.0058,0.0046 0.04365,0.01665 0.05664,0.01758 0.561294,0.752772 1.124195,1.596965 1.6875,2.53125 -0.004,0.02987 -0.0074,0.07088 -0.01172,0.08203 0.01001,-0.006 -0.07164,-0.02255 -0.164062,-0.05469 -0.499218,-0.923733 -1.02858,-1.735117 -1.589844,-2.433594 0.01175,-0.0716 0.03037,-0.149686 0.02148,-0.142578 z m -3.853515,0.150391 c -0.21033,0 -0.372875,0.134536 -0.496094,0.298828 a 0.250025,0.250025 0 0 0 -0.04883,0.121094 c -0.128337,1.090866 -0.481681,2.184364 -1.064453,3.285156 a 0.250025,0.250025 0 0 0 -0.02344,0.166016 c 0.04156,0.207793 0.14337,0.401763 0.332031,0.496093 0.188662,0.09433 0.40018,0.06493 0.601563,-0.01563 a 0.250025,0.250025 0 0 0 0.126953,-0.115234 c 0.610698,-1.153541 0.983852,-2.410789 1.119141,-3.763672 a 0.250025,0.250025 0 0 0 -0.04883,-0.173828 c -0.123219,-0.164291 -0.287717,-0.298828 -0.498047,-0.298828 z m 7.833984,0.01172 c -0.187767,0.11266 -0.244141,0.328125 -0.244141,0.535156 a 0.250025,0.250025 0 0 0 0.03906,0.136719 c 0.581972,0.90529 1.104506,2.01176 1.5625,3.320312 a 0.250025,0.250025 0 0 0 0.08594,0.117188 c 0.162958,0.122219 0.359042,0.213024 0.564454,0.130859 0.205412,-0.08217 0.285869,-0.278961 0.326171,-0.480469 a 0.250025,0.250025 0 0 0 -0.002,-0.109375 c -0.337577,-1.350502 -0.880602,-2.5402 -1.628859,-3.56055 a 0.250025,0.250025 0 0 0 -0.109375,-0.08398 c -0.198715,-0.07949 -0.405983,-0.11852 -0.59375,-0.0059 z m 34.830082,0.1875 a 0.250025,0.250025 0 0 0 -0.25,0.25 V 73.5293 a 0.250025,0.250025 0 0 0 0.25,0.25 h 2.8789 l -0.0312,-0.002 c 0.29957,0.03745 0.56604,0.01315 0.76367,-0.15625 0.19764,-0.169403 0.24854,-0.445773 0.20899,-0.722657 l 0.002,0.03516 v -0.59375 a 0.250025,0.250025 0 0 0 -0.25,-0.25 z m -40.679691,0.101562 c -0.006,0 0.03195,0.03833 0.04883,0.05078 v 2.478516 c 0,0.267225 0.05469,0.50391 0.222656,0.671875 0.167965,0.167965 0.418971,0.21077 0.664063,0.169922 l -0.04102,0.0039 h 3.669922 l -0.06055,-0.0078 c 0.147483,0.03687 0.297904,0.01123 0.4375,-0.03906 -0.113248,0.0381 -0.166422,0.169585 -0.341797,0.144531 a 0.250025,0.250025 0 0 0 -0.03516,-0.0039 h -3.869141 a 0.250025,0.250025 0 0 0 -0.02539,0.002 c -0.285575,0.02856 -0.44047,-0.02641 -0.541016,-0.126953 -0.100546,-0.100546 -0.175781,-0.291264 -0.175781,-0.617187 v -2.679688 c 0.01465,-0.01032 0.05253,-0.04687 0.04687,-0.04687 z m 6.107422,0.138672 c -0.01018,0.0061 0.04975,0.0181 0.06836,0.01953 0.680391,0.942476 1.185345,2.033642 1.503906,3.289063 -0.0011,0.0037 -0.02208,0.04672 -0.0078,0.04102 0.01475,-0.0059 -0.02702,-0.02354 -0.0293,-0.02539 -0.448519,-1.265335 -0.961114,-2.350459 -1.53711,-3.261719 0.0048,-0.0224 0.01499,-0.07032 0.002,-0.0625 z m -8.091797,0.06055 c -0.0024,0 0.01825,0.01885 0.01953,0.01953 -0.133714,1.217779 -0.467025,2.343717 -1.003906,3.384766 -0.02938,0.0021 -0.08897,0.01802 -0.09375,0.01563 -0.0073,-0.0037 -0.0294,-0.05195 -0.04883,-0.109375 0.550891,-1.071617 0.904525,-2.148282 1.044921,-3.228516 0.05208,-0.05902 0.09202,-0.08203 0.08203,-0.08203 z m 42.914066,0.199219 h 3.07226 v 0.34375 a 0.250025,0.250025 0 0 0 0.004,0.03711 c 0.0266,0.186138 -0.007,0.240496 -0.041,0.269531 -0.0339,0.02903 -0.14735,0.06972 -0.37695,0.04102 a 0.250025,0.250025 0 0 0 -0.0293,-0.002 h -2.6289 z m 7.98632,0.492187 c -0.36748,0 -0.64602,0.184572 -0.88867,0.402344 -0.0561,0.05034 -0.15881,0.03206 -0.20508,0.09375 a 0.250025,0.250025 0 0 0 0.20118,0.400391 l -0.22461,-0.361329 c -0.11413,0.228251 -0.17088,0.457165 -0.14844,0.681641 0.0199,0.19947 0.12651,0.37602 0.26172,0.53125 0.0151,0.03306 0.0213,0.07935 0.0391,0.101563 0.0369,0.04606 0.0754,0.08048 0.11914,0.113281 0.0743,0.05574 0.1742,0.110456 0.28516,0.167969 -0.005,0.05443 -0.0232,0.153473 -0.0703,0.300781 -0.11856,0.233906 -0.33288,0.548286 -0.65235,0.93164 a 0.250025,0.250025 0 0 0 0.28711,0.390625 c 0.0382,-0.01593 0.0542,-0.05934 0.0918,-0.07617 l 0.004,0.0059 c 0.008,-0.0099 0.009,-0.01561 0.0176,-0.02539 0.77272,-0.352605 1.42589,-0.863719 1.88672,-1.58789 a 0.250025,0.250025 0 0 0 0.006,-0.0098 c 0.2932,-0.513112 0.34313,-1.053982 0.10742,-1.525391 a 0.250025,0.250025 0 0 0 -0.0254,-0.03906 c -0.24644,-0.328582 -0.63937,-0.496094 -1.0918,-0.496094 z m 0,0.5 c 0.32867,0 0.51937,0.09944 0.66797,0.285156 0.14711,0.312103 0.13442,0.622524 -0.0918,1.021485 -0.17098,0.267667 -0.47289,0.373043 -0.68946,0.582031 0.0254,-0.10175 0.0645,-0.215256 0.0645,-0.304687 0,-0.07739 -0.007,-0.161192 -0.0664,-0.25 -0.0592,-0.08881 -0.18568,-0.148438 -0.28125,-0.148438 l 0.11133,0.02734 c -0.12484,-0.06242 -0.21495,-0.116781 -0.25977,-0.150391 -0.0224,-0.0168 -0.0331,-0.03011 -0.0293,-0.02539 0.004,0.0047 0.0293,0.03476 0.0293,0.101562 a 0.250025,0.250025 0 0 0 -0.0723,-0.177734 c -0.0992,-0.09914 -0.14172,-0.186716 -0.15235,-0.292969 -0.01,-0.09767 0.0229,-0.227039 0.0918,-0.376953 0.14935,-0.191647 0.34396,-0.291016 0.67773,-0.291016 z m -43.359371,0.197266 c -0.0045,0 0.02878,0.0321 0.03711,0.03711 0.01848,0.710554 -0.06334,1.24526 -0.226563,1.521485 -0.06897,0.116718 -0.219563,0.07497 -0.308594,0.130859 0.131566,-0.08485 0.241202,-0.200034 0.306641,-0.349609 0.133776,-0.305775 0.150856,-0.745924 0.130859,-1.279297 0.0263,-0.02265 0.06785,-0.06055 0.06055,-0.06055 z m 23.13086,1.076172 c 0.0084,0.0031 0.01117,-0.0011 0.01953,0.002 -6.6e-4,9.17e-4 -0.0012,0.001 -0.002,0.002 z"
         id="path2" />
      <path
         style="font-size:medium;font-family:YouYuan;-inkscape-font-specification:YouYuan;baseline-shift:baseline;display:inline;overflow:visible;opacity:1;vector-effect:none;stroke-linejoin:round;paint-order:stroke fill markers;enable-background:accumulate;stop-color:#000000;stop-opacity:1"
         d="m 94.169922,80.941406 c -0.21033,0 -0.374828,0.134537 -0.498047,0.298828 a 0.250025,0.250025 0 0 0 -0.04883,0.150391 v 1.337891 H 91.78906 a 0.250025,0.250025 0 0 0 -0.138671,0.04102 c -0.147222,0.09815 -0.259766,0.274479 -0.259766,0.457031 0,0.182553 0.082,0.339803 0.199219,0.496094 a 0.250025,0.250025 0 0 0 0.199218,0.09961 h 1.525391 c -0.649633,1.231049 -1.315521,2.30682 -2.005859,3.054687 a 0.250025,0.250025 0 0 0 -0.04687,0.07031 c -0.05569,0.129951 -0.09309,0.245679 -0.105469,0.363281 -0.01238,0.117602 0.0022,0.253693 0.08984,0.363281 0.08767,0.109588 0.225301,0.153576 0.34375,0.160156 0.118448,0.0066 0.23518,-0.01502 0.367187,-0.05273 a 0.250025,0.250025 0 0 0 0.115235,-0.07031 c 0.620548,-0.67226 1.088784,-1.458912 1.550781,-2.25 v 2.675782 a 0.250025,0.250025 0 0 0 0.04883,0.15039 c 0.123219,0.164292 0.287717,0.298828 0.498047,0.298828 0.21033,0 0.374828,-0.134536 0.498047,-0.298828 a 0.250025,0.250025 0 0 0 0.05078,-0.15039 v -2.902344 c 0.415598,0.535918 0.844853,1.079312 1.123047,1.542969 a 0.250025,0.250025 0 0 0 0.08594,0.08594 c 0.09844,0.05907 0.191005,0.102264 0.294922,0.123047 0.103917,0.02078 0.229593,0.01381 0.333985,-0.04883 0.104392,-0.06264 0.167852,-0.165666 0.201171,-0.265625 0.03332,-0.09996 0.04297,-0.203733 0.04297,-0.320313 a 0.250025,0.250025 0 0 0 -0.0332,-0.126953 c -0.404166,-0.692854 -1.023563,-1.523714 -1.714844,-2.402343 h 1.498047 a 0.250025,0.250025 0 0 0 0.150391,-0.04883 C 96.865464,83.650219 97,83.48572 97,83.275391 c 0,-0.21033 -0.134536,-0.374829 -0.298828,-0.498047 a 0.250025,0.250025 0 0 0 -0.150391,-0.04883 H 94.71875 v -1.337891 a 0.250025,0.250025 0 0 0 -0.05078,-0.150391 c -0.12322,-0.164289 -0.287718,-0.298826 -0.498048,-0.298826 z m 29.765628,0 c -0.21033,0 -0.37483,0.134536 -0.49805,0.298828 a 0.250025,0.250025 0 0 0 -0.0488,0.150391 c 0,1.104153 -0.35932,2.17215 -0.79101,3.236328 V 84.09375 c 0.0376,-0.375883 -0.0413,-0.71513 -0.27149,-0.945313 -0.23018,-0.230182 -0.56902,-0.322265 -0.9707,-0.322265 h -1.08789 c 0.0989,-0.405214 0.19197,-0.821434 0.24609,-1.308594 a 0.250025,0.250025 0 0 0 -0.0176,-0.121094 c -0.0811,-0.202717 -0.21387,-0.388509 -0.4375,-0.425781 -0.22363,-0.03727 -0.40833,0.08412 -0.5664,0.242188 a 0.250025,0.250025 0 0 0 -0.0723,0.152343 c -0.0579,0.578868 -0.1509,1.045883 -0.25781,1.460938 h -0.58398 c -0.3724,0 -0.69564,0.09798 -0.91993,0.322265 -0.22429,0.22429 -0.32226,0.547527 -0.32226,0.919922 v 7.144532 c 0,0.401681 0.0921,0.74052 0.32226,0.970703 0.23019,0.230182 0.56943,0.30712 0.94532,0.269531 l -0.0254,0.002 h 2.77734 l -0.0215,-0.002 c 0.40461,0.03678 0.75612,-0.03346 0.99219,-0.269531 0.23607,-0.236075 0.30826,-0.589524 0.27149,-0.994141 v -5.201172 c 0.0187,0.01661 0.0207,0.04328 0.043,0.05664 0.10439,0.06264 0.23006,0.06961 0.33398,0.04883 0.10392,-0.02078 0.19843,-0.06398 0.29687,-0.123047 a 0.250025,0.250025 0 0 0 0.0898,-0.0957 c 0.37814,-0.693247 0.64591,-1.490243 0.84765,-2.349609 h 2.90235 c 0.19579,0 0.28788,0.0457 0.31836,0.07617 0.0305,0.03047 0.0546,0.07673 0.0293,0.228516 a 0.250025,0.250025 0 0 0 -0.002,0.03711 l -0.0996,6.34961 a 0.250025,0.250025 0 0 0 0,0.01367 c 0.0154,0.399997 -0.0467,0.70106 -0.16211,0.912109 -0.11542,0.21105 -0.27831,0.345066 -0.5332,0.427734 -0.50979,0.165338 -1.40707,0.05993 -2.64063,-0.394531 a 0.250025,0.250025 0 0 0 -0.0859,-0.01367 c -0.10768,0 -0.21125,0.01285 -0.31055,0.0625 -0.0993,0.04965 -0.18831,0.146957 -0.22461,0.25586 -0.0726,0.217804 0.002,0.415389 0.11328,0.638672 a 0.250025,0.250025 0 0 0 0.14649,0.125 c 1.54522,0.503879 2.71731,0.644825 3.55859,0.345703 0.42064,-0.149561 0.75455,-0.422494 0.96094,-0.796875 0.20639,-0.374382 0.29095,-0.839642 0.27343,-1.382813 l 0.0977,-6.71289 v -0.002 c 0.0371,-0.375028 -0.0417,-0.713616 -0.27148,-0.943359 -0.23019,-0.230182 -0.56902,-0.322266 -0.97071,-0.322266 h -2.90429 c 0.0416,-0.388984 0.0801,-0.765667 0.0801,-1.039062 l -0.25,0.25 a 0.250025,0.250025 0 0 0 0.19921,-0.400391 c -0.12322,-0.164291 -0.28771,-0.298828 -0.49804,-0.298828 z m 29.46875,0.09961 a 0.250025,0.250025 0 0 0 -0.041,0.0039 c -1.96971,0.328285 -4.44232,0.559416 -7.41211,0.691406 a 0.250025,0.250025 0 0 0 -0.13867,0.04883 c -0.16429,0.123219 -0.29883,0.287716 -0.29883,0.498047 0,0.210331 0.13454,0.374829 0.29883,0.498047 a 0.250025,0.250025 0 0 0 0.15039,0.04883 c 0.80491,0 1.91893,-0.07066 3.22266,-0.183594 v 1.470703 h -3.32227 a 0.250025,0.250025 0 0 0 -0.15039,0.04883 c -0.16429,0.123218 -0.29883,0.287715 -0.29883,0.498046 0,0.210332 0.13454,0.374829 0.29883,0.498047 a 0.250025,0.250025 0 0 0 0.15039,0.05078 h 3.32227 v 1.484375 h -1.63477 c -0.40547,0 -0.75527,0.104876 -0.99609,0.345703 -0.24083,0.240826 -0.34571,0.588672 -0.34571,0.99414 v 3.671875 c 0,0.401682 0.0901,0.740521 0.32032,0.970703 0.23018,0.230183 0.57138,0.307121 0.94726,0.269532 l -0.0254,0.002 h 4.54492 c 0.46465,0.03574 0.84815,-0.0284 1.1211,-0.25586 0.27295,-0.227457 0.37534,-0.597665 0.33789,-1.009765 v -3.722656 c 0.038,-0.379989 -0.0558,-0.726886 -0.30469,-0.953125 -0.24886,-0.22624 -0.60551,-0.3125 -1.03711,-0.3125 h -1.83203 V 85.212891 H 154 a 0.250025,0.250025 0 0 0 0.14844,-0.05078 c 0.16429,-0.123219 0.29883,-0.287718 0.29883,-0.498047 0,-0.210328 -0.13454,-0.374827 -0.29883,-0.498046 A 0.250025,0.250025 0 0 0 154,84.117187 h -3.71875 v -1.611328 c 1.11498,-0.07057 2.20754,-0.186326 3.26562,-0.373047 a 0.250025,0.250025 0 0 0 0.11329,-0.05078 c 0.0962,-0.07694 0.17308,-0.153801 0.23242,-0.246094 0.0593,-0.09229 0.10093,-0.212743 0.0801,-0.33789 -0.0209,-0.125147 -0.10037,-0.225939 -0.1875,-0.292969 -0.0871,-0.06703 -0.18672,-0.111718 -0.30274,-0.150391 a 0.250025,0.250025 0 0 0 -0.0781,-0.01367 z m -48.41992,0.09961 v 0.5 l -0.17579,-0.427734 c -0.15438,0.154388 -0.27148,0.315062 -0.27148,0.52539 0,0.210329 0.15893,0.382197 0.33594,0.470703 a 0.250025,0.250025 0 0 0 0.11133,0.02734 h 2.92578 v 0.689453 H 106.375 c -0.43854,0 -0.81295,0.113731 -1.07031,0.371094 -0.25736,0.257363 -0.3711,0.631771 -0.3711,1.070312 v 0.992188 c 0,0.46841 0.10882,0.856867 0.3711,1.119141 0.26227,0.262273 0.64829,0.357108 1.08984,0.320312 h 2.25977 c -0.16634,0.230376 -0.33001,0.460448 -0.51953,0.691406 h -3.54688 a 0.250025,0.250025 0 0 0 -0.15039,0.05078 c -0.16429,0.123218 -0.29688,0.285762 -0.29687,0.496093 0,0.210332 0.13258,0.374829 0.29687,0.498047 a 0.250025,0.250025 0 0 0 0.15039,0.05078 h 2.70508 c -0.22674,0.254291 -0.44437,0.50882 -0.69922,0.763672 -0.15808,0.15807 -0.27945,0.340819 -0.24219,0.564453 0.0373,0.223635 0.22306,0.358367 0.42578,0.439454 a 0.250025,0.250025 0 0 0 0.0332,0.0098 c 0.82468,0.206171 1.72356,0.487798 2.63086,0.775391 -1.13688,0.470148 -2.51364,0.806028 -4.27344,0.916015 a 0.250025,0.250025 0 0 0 -0.14063,0.05469 c -0.0962,0.07694 -0.17504,0.153801 -0.23437,0.246094 -0.0593,0.09229 -0.10093,0.212745 -0.0801,0.33789 0.0208,0.125146 0.10036,0.225939 0.1875,0.292969 0.0871,0.06703 0.18672,0.111718 0.30274,0.150391 a 0.250025,0.250025 0 0 0 0.0937,0.01172 c 2.46923,-0.12996 4.36652,-0.618865 5.73828,-1.46875 1.41762,0.516961 2.7462,1.032425 3.97265,1.548829 a 0.250025,0.250025 0 0 0 0.0977,0.01953 c 0.13361,0 0.25043,-0.01164 0.36133,-0.05078 0.1109,-0.03914 0.22361,-0.117152 0.2832,-0.236329 0.0596,-0.119176 0.0549,-0.250215 0.0234,-0.363281 -0.0314,-0.113065 -0.0866,-0.218811 -0.16211,-0.332031 a 0.250025,0.250025 0 0 0 -0.10742,-0.0918 c -0.97652,-0.427225 -2.1993,-0.886358 -3.56055,-1.367187 0.71891,-0.570732 1.36137,-1.283383 1.88086,-2.220704 h 1.87695 a 0.250025,0.250025 0 0 0 0.15039,-0.05078 c 0.16429,-0.123219 0.29688,-0.287718 0.29688,-0.498047 0,-0.210328 -0.13259,-0.372874 -0.29688,-0.496093 a 0.250025,0.250025 0 0 0 -0.15039,-0.05078 h -6.14844 c 0.1788,-0.230113 0.36026,-0.460727 0.51758,-0.691406 h 3.82617 c 0.471,0.03623 0.87149,-0.05313 1.13868,-0.320312 0.26718,-0.267184 0.35653,-0.66767 0.32031,-1.138672 v -0.953125 c 0.0368,-0.441548 -0.058,-0.82757 -0.32031,-1.089844 -0.26228,-0.262274 -0.65269,-0.371094 -1.1211,-0.371094 h -1.73437 v -0.689453 h 3.125 a 0.250025,0.250025 0 0 0 0.14844,-0.05078 c 0.16429,-0.123218 0.29882,-0.287716 0.29882,-0.498047 0,-0.210331 -0.13453,-0.374829 -0.29882,-0.498047 a 0.250025,0.250025 0 0 0 -0.14844,-0.04883 z m 30.75781,0 c -0.21033,0 -0.37288,0.134536 -0.4961,0.298828 a 0.250025,0.250025 0 0 0 -0.0508,0.148438 v 2.132812 h -3.01172 c 0.14629,-0.60376 0.27738,-1.156355 0.33399,-1.496094 a 0.250025,0.250025 0 0 0 -0.01,-0.11914 c -0.0387,-0.116019 -0.0834,-0.215597 -0.15039,-0.302735 -0.067,-0.08714 -0.16978,-0.166642 -0.29492,-0.1875 -0.12514,-0.02086 -0.24364,0.02075 -0.33594,0.08008 -0.0923,0.05933 -0.16915,0.136249 -0.24609,0.232422 a 0.250025,0.250025 0 0 0 -0.0527,0.126953 c -0.19364,1.613712 -0.77433,3.163224 -1.74804,4.65625 a 0.250025,0.250025 0 0 0 -0.0371,0.101563 c -0.0188,0.131842 -0.0247,0.248406 -0.006,0.361328 0.0188,0.112922 0.0667,0.231861 0.16992,0.314453 0.10324,0.08259 0.23917,0.105249 0.35352,0.0918 0.11434,-0.01345 0.22057,-0.0556 0.33593,-0.113281 a 0.250025,0.250025 0 0 0 0.10157,-0.0918 c 0.5052,-0.820963 0.90469,-1.679112 1.23242,-2.560547 h 3.36523 v 2.875 h -4.21484 a 0.250025,0.250025 0 0 0 -0.15039,0.04883 c -0.16429,0.12322 -0.29883,0.287719 -0.29883,0.498047 0,0.210329 0.13454,0.374828 0.29883,0.498047 a 0.250025,0.250025 0 0 0 0.15039,0.04883 h 4.21484 v 3.072266 h -5.30664 a 0.250025,0.250025 0 0 0 -0.17578,0.07422 c -0.12868,0.128682 -0.22266,0.292057 -0.22266,0.47461 0,0.182553 0.094,0.343975 0.22266,0.472656 a 0.250025,0.250025 0 0 0 0.17578,0.07422 h 11.31055 a 0.250025,0.250025 0 0 0 0.15039,-0.05078 c 0.16429,-0.123219 0.29883,-0.285763 0.29883,-0.496094 0,-0.210331 -0.13454,-0.374829 -0.29883,-0.498047 a 0.250025,0.250025 0 0 0 -0.15039,-0.05078 h -4.9082 v -3.072266 h 3.91601 a 0.250025,0.250025 0 0 0 0.15039,-0.04883 c 0.16429,-0.123219 0.29883,-0.287718 0.29883,-0.498047 0,-0.210328 -0.13454,-0.374827 -0.29883,-0.498047 a 0.250025,0.250025 0 0 0 -0.15039,-0.04883 h -3.91601 v -2.875 h 4.11523 a 0.250025,0.250025 0 0 0 0.15039,-0.04883 c 0.16429,-0.123218 0.29883,-0.287716 0.29883,-0.498047 0,-0.210331 -0.13454,-0.374828 -0.29883,-0.498047 a 0.250025,0.250025 0 0 0 -0.15039,-0.04883 h -4.11523 v -2.132812 a 0.250025,0.250025 0 0 0 -0.0508,-0.148438 c -0.12322,-0.164291 -0.28771,-0.298828 -0.49804,-0.298828 z m 7.54101,0 c -0.23316,0 -0.44947,0.03889 -0.59179,0.216797 -0.14233,0.177911 -0.11927,0.415709 -0.0371,0.621094 a 0.250025,0.250025 0 0 0 0.0644,0.09375 c 0.66145,0.595312 1.32291,1.189843 1.98437,1.785156 a 0.250025,0.250025 0 0 0 0.11915,0.06055 c 0.20307,0.04062 0.41773,0.03539 0.57226,-0.119141 0.15453,-0.154531 0.15975,-0.369186 0.11914,-0.572266 a 0.250025,0.250025 0 0 0 -0.0586,-0.117187 c -0.53986,-0.60734 -1.21062,-1.244529 -2.01172,-1.912109 a 0.250025,0.250025 0 0 0 -0.16016,-0.05664 z m -54.669919,0.04883 c -0.238107,0 -0.393584,0.172251 -0.511719,0.369141 a 0.250025,0.250025 0 0 0 -0.03516,0.128906 v 1.138672 h -5.30664 a 0.250025,0.250025 0 0 0 -0.128907,0.03711 c -0.196889,0.118134 -0.36914,0.273612 -0.36914,0.511719 0,0.238107 0.172251,0.393585 0.36914,0.511719 a 0.250025,0.250025 0 0 0 0.128907,0.03516 h 5.30664 v 6.199219 a 0.250025,0.250025 0 0 0 0.002,0.03516 c 0.02739,0.191706 -0.0021,0.300219 -0.04883,0.365234 -0.04673,0.06502 -0.130015,0.119739 -0.310547,0.146485 -0.361063,0.05349 -1.047277,-0.06156 -1.990234,-0.386719 a 0.250025,0.250025 0 0 0 -0.130859,-0.0078 c -0.209365,0.04187 -0.414409,0.153383 -0.484375,0.363282 -0.06997,0.209898 0.0042,0.41068 0.121093,0.605468 a 0.250025,0.250025 0 0 0 0.142578,0.111329 c 1.243936,0.369818 2.17366,0.490282 2.84375,0.298828 0.335046,-0.09573 0.610118,-0.286591 0.773438,-0.560547 0.16332,-0.273956 0.212205,-0.611688 0.175781,-0.994141 l 0.002,0.02344 v -6.199219 h 1.138672 a 0.250025,0.250025 0 0 0 0.128906,-0.03516 c 0.196891,-0.118134 0.369141,-0.273611 0.369141,-0.511719 0,-0.238108 -0.17225,-0.393585 -0.369141,-0.511719 a 0.250025,0.250025 0 0 0 -0.128906,-0.03711 h -1.13876 V 81.6875 a 0.250025,0.250025 0 0 0 -0.03516,-0.128906 c -0.118134,-0.19689 -0.275564,-0.369141 -0.513672,-0.369141 z m -8.042969,0.166016 c -0.205385,-0.08215 -0.443183,-0.105219 -0.621093,0.03711 -0.17791,0.142328 -0.216797,0.360591 -0.216797,0.59375 a 0.250025,0.250025 0 0 0 0.04102,0.138672 c 0.250361,0.375541 0.648478,1.09969 1.175782,2.154297 a 0.250025,0.250025 0 0 0 0.130859,0.121094 c 0.205385,0.08215 0.443184,0.105218 0.621094,-0.03711 0.17791,-0.142328 0.216797,-0.358637 0.216797,-0.591797 a 0.250025,0.250025 0 0 0 -0.02539,-0.111328 c -0.46515,-0.930301 -0.865448,-1.664795 -1.203125,-2.205078 a 0.250025,0.250025 0 0 0 -0.119141,-0.09961 z M 98.4375,81.4375 c -0.372396,0 -0.697585,0.09798 -0.921875,0.322266 -0.22429,0.22429 -0.320313,0.547526 -0.320313,0.919921 v 4.564454 c 0,0.431597 0.08424,0.783456 0.320313,1.019531 0.236075,0.236075 0.59283,0.292371 0.970703,0.216797 l -0.04883,0.0059 h 2.976562 l -0.0234,-0.002 c 0.4046,0.03678 0.75806,-0.03346 0.99414,-0.269531 0.23607,-0.236075 0.3063,-0.589524 0.26953,-0.994141 l 0.002,0.02344 v -4.564454 l -0.002,0.02539 c 0.0376,-0.375883 -0.0394,-0.715129 -0.26953,-0.945312 -0.23019,-0.230184 -0.56903,-0.322266 -0.97071,-0.322266 z m -4.267578,0.0039 c -0.006,0 0.03194,0.03833 0.04883,0.05078 v 1.486329 a 0.250025,0.250025 0 0 0 0.25,0.25 h 1.984375 c 0.01065,0.015 0.04687,0.05258 0.04687,0.04687 0,-0.0057 -0.03623,0.03187 -0.04687,0.04687 h -1.886719 a 0.250025,0.250025 0 0 0 -0.193359,0.408203 c 0.836063,1.029001 1.467763,1.920992 1.919922,2.6875 -0.0024,0.02312 -0.0026,0.04819 -0.0059,0.0625 -0.01708,-0.0058 -0.03985,-0.01668 -0.06836,-0.03125 -0.400874,-0.658473 -0.912175,-1.366875 -1.558594,-2.142578 a 0.250025,0.250025 0 0 0 -0.441406,0.160156 v 3.568359 c -0.01688,0.01245 -0.05483,0.05078 -0.04883,0.05078 0.0057,0 -0.03222,-0.03655 -0.04687,-0.04687 v -3.375 a 0.250025,0.250025 0 0 0 -0.47461,-0.111328 c -0.508082,1.016164 -1.14605,1.932694 -1.902343,2.761719 -0.03141,0.0059 -0.06222,0.0124 -0.08203,0.01367 0.0078,-0.04227 0.01973,-0.09719 0.05469,-0.179688 8.02e-4,-0.0019 0.0011,-0.002 0.002,-0.0039 0.797782,-0.877469 1.556801,-2.0179 2.277344,-3.458984 a 0.250025,0.250025 0 0 0 -0.22461,-0.363281 H 91.9375 c -0.01325,-0.03148 -0.04674,-0.08575 -0.04687,-0.09375 h 1.982422 a 0.250025,0.250025 0 0 0 0.25,-0.25 v -1.490235 c 0.01465,-0.01032 0.05253,-0.04687 0.04687,-0.04687 z m 29.765628,0 c -0.005,0 0.0297,0.03561 0.041,0.04297 -0.004,0.305503 -0.0294,0.68024 -0.0898,1.164062 a 0.250025,0.250025 0 0 0 0.24805,0.28125 h 3.17382 c 0.32593,0 0.51664,0.07523 0.61719,0.175782 0.10055,0.100546 0.15551,0.255441 0.12695,0.541015 a 0.250025,0.250025 0 0 0 -0.002,0.02148 l -0.0977,6.748047 a 0.250025,0.250025 0 0 0 0,0.01172 c 0.0155,0.482089 -0.0618,0.852507 -0.21094,1.123047 -0.14915,0.27054 -0.36596,0.453337 -0.68946,0.56836 -0.62514,0.222275 -1.70848,0.108088 -3.1289,-0.337891 -0.0109,-0.04455 -0.037,-0.109893 -0.0391,-0.113281 0.014,-0.0031 0.0167,-0.0059 0.0508,-0.0059 l -0.0566,-0.0098 c -4e-5,4.6e-5 3e-5,-0.002 0,-0.002 1.26135,0.46082 2.23064,0.623782 2.9375,0.394531 0.35695,-0.115769 0.64439,-0.343992 0.81836,-0.66211 0.17397,-0.318117 0.24034,-0.711976 0.22265,-1.171875 l 0.0996,-6.335937 -0.004,0.03711 c 0.0408,-0.245091 -0.002,-0.496099 -0.16993,-0.664062 -0.16796,-0.167963 -0.40465,-0.222656 -0.67187,-0.222656 H 124.035 a 0.250025,0.250025 0 0 0 -0.24414,0.197265 c -0.18891,0.881559 -0.47694,1.659396 -0.84571,2.34961 -0.012,0.0051 -0.0264,0.01272 -0.0352,0.01563 -0.005,-0.02282 -0.008,-0.05508 -0.01,-0.09961 0.63271,-1.292585 0.9572,-2.623999 0.97461,-3.984375 0.0273,-0.0238 0.068,-0.0625 0.0606,-0.0625 z m -3.95899,0.02148 c -0.0124,-0.0021 0.0169,0.04521 0.0273,0.05859 -0.0648,0.556154 -0.15479,1.057435 -0.27735,1.486328 a 0.250025,0.250025 0 0 0 0.24024,0.31836 h 1.38867 c 0.32592,0 0.51664,0.07524 0.61719,0.175781 0.10054,0.100546 0.15551,0.257394 0.12695,0.542969 a 0.250025,0.250025 0 0 0 -0.002,0.02344 v 7.144532 a 0.250025,0.250025 0 0 0 0.002,0.02344 c 0.0294,0.322988 -0.0323,0.499096 -0.12695,0.59375 -0.0947,0.09466 -0.27078,0.154362 -0.59375,0.125 a 0.250025,0.250025 0 0 0 -0.0234,0 h -2.77734 a 0.250025,0.250025 0 0 0 -0.0254,0.002 c -0.28557,0.02856 -0.44046,-0.02641 -0.54101,-0.126953 -0.10055,-0.100546 -0.17578,-0.291264 -0.17578,-0.617187 v -7.144532 c 0,-0.289062 0.0693,-0.459967 0.17578,-0.566406 0.10644,-0.106439 0.27734,-0.175781 0.56641,-0.175781 h 0.79296 a 0.250025,0.250025 0 0 0 0.24024,-0.179688 c 0.12905,-0.451666 0.22015,-1.003722 0.28711,-1.621093 0.0344,-0.02138 0.0932,-0.05998 0.0781,-0.0625 z m 33.38477,0.08203 c 0.0394,0.01585 0.0711,0.0313 0.0898,0.04297 -0.0118,0.01511 -0.0363,0.03749 -0.0605,0.06055 -1.09345,0.190185 -2.21536,0.32045 -3.37304,0.384766 a 0.250025,0.250025 0 0 0 -0.23633,0.25 v 2.083984 a 0.250025,0.250025 0 0 0 0.25,0.25 h 3.86914 c 0.0107,0.015 0.0469,0.05258 0.0469,0.04687 0,-0.0059 -0.0368,0.03233 -0.0488,0.04883 h -3.86719 a 0.250025,0.250025 0 0 0 -0.25,0.25 v 1.984375 a 0.250025,0.250025 0 0 0 0.25,0.25 h 2.08203 c 0.36216,0 0.58623,0.07715 0.70117,0.18164 0.11494,0.104489 0.17073,0.253687 0.14258,0.535156 a 0.250025,0.250025 0 0 0 -0.002,0.02539 v 3.769531 a 0.250025,0.250025 0 0 0 0.002,0.02344 c 0.0287,0.315504 -0.0362,0.474854 -0.16016,0.578125 -0.12392,0.103271 -0.36843,0.171028 -0.76367,0.140625 a 0.250025,0.250025 0 0 0 -0.0176,0 h -4.56445 a 0.250025,0.250025 0 0 0 -0.0254,0.002 c -0.28557,0.02856 -0.44242,-0.02641 -0.54297,-0.126953 -0.10054,-0.100547 -0.17383,-0.291264 -0.17383,-0.617188 v -3.671875 c 0,-0.322135 0.0763,-0.517649 0.19922,-0.640625 0.12298,-0.122975 0.32044,-0.199218 0.64258,-0.199218 h 1.88477 a 0.250025,0.250025 0 0 0 0.25,-0.25 v -1.984375 a 0.250025,0.250025 0 0 0 -0.25,-0.25 h -3.47071 c -0.0124,-0.01688 -0.0508,-0.05483 -0.0508,-0.04883 0,0.0057 0.0366,-0.03222 0.0469,-0.04687 h 3.47461 a 0.250025,0.250025 0 0 0 0.25,-0.25 v -1.984375 a 0.250025,0.250025 0 0 0 -0.27344,-0.25 c -1.41134,0.128305 -2.51529,0.18794 -3.35547,0.191407 -0.007,-0.01129 -0.043,-0.04608 -0.043,-0.04102 0,0.0071 0.0381,-0.03416 0.0586,-0.05859 2.89715,-0.131918 5.3284,-0.356921 7.28906,-0.679687 z m -48.25391,0.0957 h 10.09766 c 0.0106,0.015 0.0469,0.05258 0.0469,0.04687 0,-0.0059 -0.0367,0.03233 -0.0488,0.04883 h -3.27344 a 0.250025,0.250025 0 0 0 -0.25,0.25 v 1.189453 a 0.250025,0.250025 0 0 0 0.25,0.25 h 1.98437 c 0.39149,0 0.63298,0.09001 0.76758,0.22461 0.1346,0.134601 0.20318,0.34311 0.17383,0.695312 a 0.250025,0.250025 0 0 0 0,0.02148 v 0.992188 a 0.250025,0.250025 0 0 0 0,0.01953 c 0.0299,0.388894 -0.0441,0.616402 -0.17383,0.746094 -0.12969,0.129692 -0.35916,0.205696 -0.74805,0.175781 a 0.250025,0.250025 0 0 0 -0.0195,-0.002 h -3.96875 a 0.250025,0.250025 0 0 0 -0.20703,0.111328 c -0.25925,0.388875 -0.55147,0.779343 -0.87695,1.169922 a 0.250025,0.250025 0 0 0 0.1914,0.410156 h 6.54883 c 0.0106,0.015 0.0469,0.05258 0.0469,0.04687 0,-0.0059 -0.0368,0.03233 -0.0488,0.04883 h -1.88281 a 0.250025,0.250025 0 0 0 -0.22071,0.132813 c -0.58056,1.096612 -1.28394,1.921485 -2.10546,2.490234 a 0.250025,0.250025 0 0 0 0.0605,0.441407 c 1.48698,0.517209 2.737,1.001456 3.77539,1.453125 0.0269,0.04818 0.0575,0.100681 0.0645,0.125 -0.0255,0.0081 -0.0829,0.01242 -0.14844,0.01563 -1.24529,-0.523111 -2.58252,-1.04581 -4.01953,-1.56836 a 0.250025,0.250025 0 0 0 -0.22266,0.02539 c -1.25733,0.817259 -3.12137,1.305914 -5.58008,1.441406 -0.0359,-0.01476 -0.0661,-0.02803 -0.084,-0.03906 0.0125,-0.01607 0.0376,-0.03933 0.0645,-0.06445 2.08751,-0.140552 3.77954,-0.531891 5.0586,-1.205078 a 0.250025,0.250025 0 0 0 -0.0371,-0.457031 c -1.18483,-0.394939 -2.30259,-0.723167 -3.35938,-0.988281 l -0.004,-0.002 c -0.11542,-0.04818 -0.11929,-0.07905 -0.11523,-0.05469 0.004,0.0252 -0.003,-0.02239 0.10352,-0.128906 0.40178,-0.401785 0.77144,-0.80386 1.10742,-1.207031 a 0.250025,0.250025 0 0 0 -0.19141,-0.410157 h -3.17383 c -0.0121,-0.0165 -0.0488,-0.05478 -0.0488,-0.04883 0,0.0057 0.0362,-0.03187 0.0469,-0.04687 h 3.57227 a 0.250025,0.250025 0 0 0 0.1914,-0.08984 c 0.33598,-0.403172 0.64024,-0.808017 0.91016,-1.212891 a 0.250025,0.250025 0 0 0 -0.20899,-0.388672 H 106.375 a 0.250025,0.250025 0 0 0 -0.0215,0.002 c -0.3522,0.02935 -0.56072,-0.04118 -0.69532,-0.175781 -0.1346,-0.134601 -0.22461,-0.374138 -0.22461,-0.765625 v -0.992188 c 0,-0.355208 0.0851,-0.577285 0.22461,-0.716796 0.13951,-0.139512 0.36159,-0.22461 0.7168,-0.22461 h 1.78516 a 0.250025,0.250025 0 0 0 0.25,-0.25 v -1.189453 a 0.250025,0.250025 0 0 0 -0.25,-0.25 h -3.1211 c 2.2e-4,0.0054 0.0447,-0.05777 0.0684,-0.0957 z m 30.63477,0 c -0.006,0 0.0323,0.03675 0.0488,0.04883 v 2.28125 a 0.250025,0.250025 0 0 0 0.25,0.25 h 4.26757 c 0.0103,0.01465 0.0469,0.05253 0.0469,0.04687 0,-0.0057 -0.0366,0.03222 -0.0469,0.04687 h -4.26757 a 0.250025,0.250025 0 0 0 -0.25,0.25 v 3.375 a 0.250025,0.250025 0 0 0 0.25,0.25 h 4.06835 c 0.0106,0.015 0.0469,0.05258 0.0469,0.04687 0,-0.0057 -0.0362,0.03187 -0.0469,0.04687 h -4.06835 a 0.250025,0.250025 0 0 0 -0.25,0.25 v 3.572266 a 0.250025,0.250025 0 0 0 0.25,0.25 h 5.05859 c 0.0121,0.0165 0.0488,0.05478 0.0488,0.04883 0,-0.0057 -0.0362,0.03187 -0.0469,0.04687 h -11.08203 c -0.005,-0.01303 -0.0293,-0.04067 -0.0293,-0.04687 0,-0.0064 0.0255,-0.03503 0.0312,-0.04883 h 5.42383 a 0.250025,0.250025 0 0 0 0.25,-0.25 V 88.53317 a 0.250025,0.250025 0 0 0 -0.25,-0.25 h -4.36719 c -0.0103,-0.01465 -0.0469,-0.05253 -0.0469,-0.04687 0,0.0057 0.0366,-0.03222 0.0469,-0.04687 h 4.36719 a 0.250025,0.250025 0 0 0 0.25,-0.25 v -3.375 a 0.250025,0.250025 0 0 0 -0.25,-0.25 h -3.76953 a 0.250025,0.250025 0 0 0 -0.23633,0.166016 c -0.31632,0.885701 -0.73252,1.739271 -1.23437,2.564453 -0.0284,0.01058 -0.0597,0.02384 -0.0762,0.02734 -0.004,-0.03318 -0.002,-0.09032 0.006,-0.16211 0.96356,-1.498119 1.55433,-3.066997 1.76562,-4.699219 0.0301,-0.0334 0.0557,-0.05986 0.0742,-0.07422 0.01,0.01539 0.0204,0.04485 0.0332,0.07422 -0.0665,0.38421 -0.18695,0.937337 -0.37695,1.697266 a 0.250025,0.250025 0 0 0 0.24219,0.3125 h 3.57226 a 0.250025,0.250025 0 0 0 0.25,-0.25 V 81.6875 c 0.015,-0.01065 0.0526,-0.04687 0.0469,-0.04687 z m 7.45508,0.01172 c 0.72783,0.611962 1.34364,1.195545 1.83593,1.74414 -7.7e-4,0.0084 -0.001,0.05782 0.008,0.04883 0.0104,-0.01039 -0.0428,-0.009 -0.0566,-0.0078 -0.62649,-0.56384 -1.25242,-1.127566 -1.8789,-1.691406 -0.006,-0.03176 -0.0172,-0.08395 -0.0234,-0.07617 -0.006,0.0072 0.072,-0.0069 0.11524,-0.01758 z m -54.583989,0.03711 c -0.02315,0 0.02478,0.04964 0.04883,0.07422 v 1.3125 a 0.250025,0.250025 0 0 0 0.25,0.25 h 1.3125 c 0.02457,0.02405 0.07422,0.07198 0.07422,0.04883 0,-0.02261 -0.0495,0.02428 -0.07227,0.04687 h -1.314453 a 0.250025,0.250025 0 0 0 -0.25,0.25 v 6.449219 a 0.250025,0.250025 0 0 0 0,0.02344 c 0.02972,0.312079 -0.01443,0.535414 -0.107422,0.691406 -0.093,0.155993 -0.236738,0.264348 -0.480468,0.333985 -0.04789,0.01368 -0.196669,-0.03872 -0.251953,-0.0293 0.245933,-0.0452 0.468818,-0.140719 0.603515,-0.328125 0.143439,-0.199567 0.177431,-0.455248 0.138672,-0.726563 l 0.002,0.03516 v -6.449219 a 0.250025,0.250025 0 0 0 -0.25,-0.25 H 82.83403 c -0.02277,-0.02259 -0.07227,-0.06948 -0.07227,-0.04687 0,0.02315 0.04964,-0.02478 0.07422,-0.04883 h 5.480469 a 0.250025,0.250025 0 0 0 0.25,-0.25 V 81.76171 c 0.02259,-0.02277 0.06948,-0.07227 0.04687,-0.07227 z m 20.142579,0.04687 a 0.250025,0.250025 0 0 0 -0.25,0.25 v 1.189453 a 0.250025,0.250025 0 0 0 0.25,0.25 h 2.58008 a 0.250025,0.250025 0 0 0 0.25,-0.25 V 81.98631 a 0.250025,0.250025 0 0 0 -0.25,-0.25 z m -28.494141,0.04687 c -0.0046,0.0037 0.03892,0.01369 0.04492,0.01367 0.307617,0.498193 0.675859,1.17174 1.103515,2.023437 -0.01135,0.08388 -0.03098,0.15994 -0.02148,0.152344 0.0046,-0.0037 -0.03892,-0.01369 -0.04492,-0.01367 -0.474662,-0.944195 -0.839634,-1.61344 -1.103516,-2.019531 0.01117,-0.08701 0.03113,-0.163963 0.02148,-0.15625 z M 98.4375,81.9375 h 2.97656 c 0.32592,0 0.51664,0.07524 0.61719,0.175781 0.10055,0.100546 0.15356,0.255441 0.125,0.541016 a 0.250025,0.250025 0 0 0 0,0.02539 v 4.564454 a 0.250025,0.250025 0 0 0 0,0.02344 c 0.0294,0.322988 -0.0303,0.499095 -0.125,0.59375 -0.0947,0.09466 -0.27273,0.154362 -0.5957,0.125 a 0.250025,0.250025 0 0 0 -0.0215,0 H 98.4375 a 0.250025,0.250025 0 0 0 -0.04883,0.0039 c -0.283586,0.05672 -0.424877,0.01458 -0.519531,-0.08008 -0.09465,-0.09465 -0.173828,-0.303863 -0.173829,-0.666015 v -4.564454 c 0,-0.289062 0.06739,-0.459967 0.173829,-0.566406 C 97.97558,82.006842 98.148437,81.9375 98.4375,81.9375 Z m 0.197266,0.0957 c -0.240104,0 -0.464903,0.06451 -0.623047,0.222656 -0.158144,0.158145 -0.222657,0.382943 -0.222657,0.623047 v 0.792969 a 0.250025,0.250025 0 0 0 0.25,0.25 h 3.771488 a 0.250025,0.250025 0 0 0 0.25,-0.25 v -0.792969 l -0.004,0.04102 c 0.0408,-0.245091 -1e-5,-0.496099 -0.16797,-0.664063 -0.16796,-0.167963 -0.40661,-0.222656 -0.67383,-0.222656 z m 10.371094,0.203125 h 2.08008 v 0.689453 h -2.08008 z M 98.634766,82.5332 h 2.580074 c 0.19579,0 0.28984,0.0457 0.32032,0.07617 0.0305,0.03047 0.0546,0.07673 0.0293,0.228516 a 0.250025,0.250025 0 0 0 -0.004,0.04102 v 0.542969 h -3.271488 v -0.542969 c 0,-0.15677 0.03588,-0.229238 0.07617,-0.269531 0.04029,-0.04029 0.112761,-0.07617 0.269532,-0.07617 z m 20.142574,0.888672 c -0.2401,0 -0.4649,0.06451 -0.62304,0.222656 -0.15815,0.158145 -0.22266,0.382943 -0.22266,0.623047 v 2.976563 a 0.250025,0.250025 0 0 0 0.25,0.25 h 3.57227 a 0.250025,0.250025 0 0 0 0.25,-0.25 v -2.97656 L 122,84.308594 c 0.0408,-0.245091 -0.002,-0.496099 -0.16992,-0.664063 -0.16796,-0.167963 -0.40466,-0.222656 -0.67188,-0.222656 z m -12.20507,0.09961 c -0.30625,0 -0.58027,0.08027 -0.77149,0.271485 -0.19122,0.191217 -0.27148,0.465234 -0.27148,0.771484 v 0.595703 c 0,0.30625 0.0803,0.580267 0.27148,0.771485 0.19122,0.191217 0.46524,0.273437 0.77149,0.273437 h 1.58789 a 0.250025,0.250025 0 0 0 0.25,-0.25 v -2.183594 a 0.250025,0.250025 0 0 0 -0.25,-0.25 z m 2.18359,0 a 0.250025,0.250025 0 0 0 -0.25,0.25 v 2.183594 a 0.250025,0.250025 0 0 0 0.25,0.25 h 2.58008 a 0.250025,0.250025 0 0 0 0.25,-0.25 v -2.183594 a 0.250025,0.250025 0 0 0 -0.25,-0.25 z m 3.17383,0 a 0.250025,0.250025 0 0 0 -0.25,0.25 v 2.183594 a 0.250025,0.250025 0 0 0 0.25,0.25 h 1.78711 l -0.0274,-0.002 c 0.33806,0.03756 0.64366,-0.01475 0.84961,-0.220703 0.20595,-0.205949 0.25631,-0.511551 0.21875,-0.84961 l 0.002,0.02734 V 84.5644 l -0.002,0.03125 c 0.0388,-0.31038 -0.0202,-0.604153 -0.21875,-0.802734 -0.19858,-0.198582 -0.48758,-0.271485 -0.82226,-0.271485 z m 6.84765,0.400391 h 2.38086 c 0.19579,0 0.28789,0.0457 0.31836,0.07617 0.0305,0.03047 0.0546,0.07673 0.0293,0.228515 a 0.250025,0.250025 0 0 0 -0.002,0.04102 v 2.726563 h -3.07227 v -2.726563 c 0,-0.156771 0.0359,-0.229238 0.0762,-0.269531 0.0403,-0.04029 0.11276,-0.07617 0.26953,-0.07617 z m -20.738278,0.0957 a 0.250025,0.250025 0 0 0 -0.25,0.25 v 1.388672 a 0.250025,0.250025 0 0 0 0.25,0.25 h 3.771488 a 0.250025,0.250025 0 0 0 0.25,-0.25 v -1.388672 a 0.250025,0.250025 0 0 0 -0.25,-0.25 z m 8.533208,0.0039 h 1.33789 v 1.683594 h -1.33789 c -0.22292,0 -0.34461,-0.05359 -0.41797,-0.126953 -0.0734,-0.07337 -0.125,-0.195052 -0.125,-0.417969 v -0.595703 c 0,-0.222917 0.0516,-0.344603 0.125,-0.417969 0.0734,-0.07337 0.19505,-0.125 0.41797,-0.125 z m 2.43359,0 h 2.08008 v 1.683594 h -2.08008 z m 3.17383,0 h 1.53711 c 0.26061,0 0.40275,0.059 0.46875,0.125 0.066,0.066 0.10351,0.167933 0.0762,0.386719 a 0.250025,0.250025 0 0 0 -0.002,0.03125 v 0.595703 a 0.250025,0.250025 0 0 0 0.002,0.02734 c 0.0286,0.257255 -0.0175,0.382772 -0.0762,0.441406 -0.0586,0.05863 -0.18415,0.104756 -0.44141,0.07617 a 0.250025,0.250025 0 0 0 -0.0273,0 h -1.53711 z m -13.890628,0.496094 h 3.271488 v 0.888672 h -3.271488 z m 44.349608,0 c -0.21093,-0.04219 -0.45201,-0.01067 -0.5918,0.164063 -0.13978,0.174733 -0.13999,0.38849 -0.10156,0.61914 a 0.250025,0.250025 0 0 0 0.10742,0.166016 c 0.78442,0.522944 1.50242,1.079326 2.1543,1.666015 a 0.250025,0.250025 0 0 0 0.16797,0.06445 c 0.20703,0 0.41334,-0.05671 0.54297,-0.21875 0.12963,-0.162037 0.14053,-0.373476 0.0996,-0.578125 a 0.250025,0.250025 0 0 0 -0.0684,-0.126954 c -0.67619,-0.676189 -1.42197,-1.252663 -2.23438,-1.726562 a 0.250025,0.250025 0 0 0 -0.0762,-0.0293 z m -58.558592,0.304688 c -0.103917,-0.02078 -0.227639,-0.01381 -0.332031,0.04883 -0.104392,0.06264 -0.167852,0.165666 -0.201172,0.265625 -0.03332,0.09996 -0.04492,0.205685 -0.04492,0.322265 a 0.250025,0.250025 0 0 0 0.05078,0.148438 c 0.79025,1.053667 1.546972,2.140065 2.271485,3.259765 a 0.250025,0.250025 0 0 0 0.130859,0.101563 c 0.232037,0.07735 0.465643,0.11147 0.65625,-0.04102 0.0953,-0.07624 0.151591,-0.190647 0.171875,-0.298828 0.02028,-0.108181 0.01382,-0.215882 -0.0059,-0.333984 a 0.250025,0.250025 0 0 0 -0.03711,-0.09375 c -0.600843,-0.934646 -1.365535,-1.998433 -2.294922,-3.19336 a 0.250025,0.250025 0 0 0 -0.06836,-0.0625 c -0.09844,-0.05907 -0.192958,-0.102263 -0.296875,-0.123046 z M 142.4375,84.99413 c -0.004,0.0048 0.0401,0.0083 0.0527,0.0078 0.73867,0.4342 1.41558,0.960608 2.03711,1.572266 -0.002,0.03193 0.001,0.08996 0,0.0918 -0.001,0.0018 -0.0559,0.0099 -0.084,0.01758 -0.61323,-0.544274 -1.28233,-1.0608 -2.00391,-1.548828 0.002,-0.05978 0.003,-0.146491 -0.002,-0.140625 z m -18.31641,0.224609 c -0.10663,-0.01882 -0.22719,-0.01759 -0.33789,0.04883 -0.11069,0.06642 -0.17564,0.188769 -0.19726,0.296875 -0.0216,0.108106 -0.0157,0.214484 0.004,0.332031 a 0.250025,0.250025 0 0 0 0.0371,0.09375 c 0.58506,0.910099 1.17428,2.055729 1.76563,3.435547 a 0.250025,0.250025 0 0 0 0.0371,0.0625 c 0.0927,0.111287 0.18053,0.197552 0.2832,0.261719 0.10267,0.06417 0.24619,0.109341 0.38672,0.0625 0.14052,-0.04684 0.22236,-0.160956 0.27148,-0.271484 0.0491,-0.110529 0.0774,-0.233938 0.0957,-0.38086 a 0.250025,0.250025 0 0 0 -0.0137,-0.117187 c -0.47069,-1.277559 -1.11018,-2.487289 -1.91602,-3.628907 a 0.250025,0.250025 0 0 0 -0.0918,-0.08008 c -0.11288,-0.05644 -0.21759,-0.09642 -0.32422,-0.115234 z m -40.103512,0.109375 c 0.01635,0.0055 0.03767,0.01578 0.06445,0.0293 0.891397,1.14821 1.625519,2.169682 2.203125,3.064453 0.0041,0.04688 0.009,0.09567 0.0059,0.113281 0.0099,-0.0085 -0.06001,-0.01891 -0.105469,-0.02344 -0.695457,-1.070693 -1.420315,-2.110143 -2.175781,-3.121094 0.0024,-0.02276 0.0046,-0.04839 0.0078,-0.0625 z M 79.1875,85.40625 a 0.250025,0.250025 0 0 0 -0.126953,0.03516 c -0.19689,0.118134 -0.371094,0.275565 -0.371094,0.513672 0,0.238108 0.174204,0.393585 0.371094,0.511719 a 0.250025,0.250025 0 0 0 0.126953,0.03516 h 1.191406 c 0.163716,0 0.232169,0.03881 0.244141,0.05078 0.01197,0.01197 0.03146,0.02826 0.0078,0.146485 a 0.250025,0.250025 0 0 0 -0.0059,0.04883 v 3.373047 c 0,0.218952 -0.102461,0.466997 -0.357422,0.751953 -0.254961,0.284956 -0.656964,0.595549 -1.205078,0.917969 a 0.250025,0.250025 0 0 0 -0.111328,0.136718 c -0.07603,0.228084 -0.111019,0.43812 -0.01172,0.636719 0.0993,0.1986 0.331511,0.28711 0.546875,0.287109 a 0.250025,0.250025 0 0 0 0.119141,-0.0293 c 0.791204,-0.426033 1.303256,-0.979004 1.677734,-1.591797 1.014096,1.104451 2.310291,1.686046 3.869141,1.621093 h 5.048828 a 0.250025,0.250025 0 0 0 0.15039,-0.04883 c 0.164292,-0.123218 0.298829,-0.287717 0.298829,-0.498047 0,-0.210329 -0.134537,-0.374828 -0.298829,-0.498046 a 0.250025,0.250025 0 0 0 -0.15039,-0.05078 h -5.060547 a 0.250025,0.250025 0 0 0 -0.0098,0 c -1.495042,0.06229 -2.592985,-0.506906 -3.410156,-1.732422 v -3.27539 l -0.002,0.02344 c 0.03681,-0.404957 -0.03497,-0.760343 -0.261719,-1.009765 -0.226747,-0.249422 -0.573047,-0.355469 -0.978515,-0.355469 z m 44.89258,0.322266 c 0.0206,0.0059 0.0482,0.01702 0.0781,0.0293 0.75233,1.074992 1.35287,2.208514 1.79883,3.404297 -0.009,0.04817 -0.018,0.08801 -0.0273,0.117188 -0.0294,-0.02462 -0.0588,-0.04779 -0.10352,-0.09961 -0.57901,-1.344756 -1.15929,-2.469855 -1.74414,-3.388671 -0.004,-0.02974 -0.002,-0.04305 -0.002,-0.0625 z M 79.263672,85.90625 h 1.214844 c 0.322135,0 0.505393,0.07703 0.609375,0.191406 0.103982,0.11438 0.162143,0.304307 0.132812,0.626953 a 0.250025,0.250025 0 0 0 0,0.02344 v 3.373047 a 0.250025,0.250025 0 0 0 0.03906,0.136718 c 0.899245,1.383455 2.233938,2.067158 3.892578,1.998047 h 4.949218 c 0.01171,0.01612 0.04883,0.05472 0.04883,0.04883 0,-0.0057 -0.03655,0.03222 -0.04687,0.04687 h -4.962891 a 0.250025,0.250025 0 0 0 -0.0098,0 c -1.522997,0.06346 -2.717265,-0.457202 -3.666015,-1.595703 a 0.250025,0.250025 0 0 0 -0.416016,0.04687 c -0.07066,0.141324 -0.294448,0.236292 -0.392578,0.369141 0.290001,-0.334081 0.46875,-0.686051 0.46875,-1.050781 v -3.373047 l -0.0039,0.04883 c 0.0425,-0.212508 0.0089,-0.444263 -0.144532,-0.597656 -0.153393,-0.153393 -0.364496,-0.197266 -0.597656,-0.197266 h -1.117187 c -0.02277,-0.02259 -0.07227,-0.06948 -0.07227,-0.04687 0,0.02315 0.04964,-0.02478 0.07422,-0.04883 z m 18.77539,0.0957 a 0.250025,0.250025 0 0 0 -0.25,0.25 v 0.792969 c 0,0.267224 0.05469,0.505863 0.222657,0.673828 0.167965,0.167965 0.418971,0.208817 0.664062,0.167969 l -0.04102,0.0039 h 2.580069 l -0.0352,-0.002 c 0.27111,0.03873 0.5312,0.0079 0.70898,-0.169922 0.17779,-0.177787 0.20865,-0.437876 0.16992,-0.708984 l 0.002,0.03516 v -0.792969 a 0.250025,0.250025 0 0 0 -0.25,-0.25 z m 0.25,0.5 h 3.271488 v 0.542969 a 0.250025,0.250025 0 0 0 0.002,0.03516 c 0.0274,0.191913 -0.007,0.264506 -0.0273,0.285156 -0.0207,0.02065 -0.0933,0.05476 -0.28516,0.02734 a 0.250025,0.250025 0 0 0 -0.0352,-0.002 h -2.580074 a 0.250025,0.250025 0 0 0 -0.04102,0.0039 c -0.151784,0.0253 -0.198043,0.0012 -0.228516,-0.0293 -0.03047,-0.03047 -0.07617,-0.124516 -0.07617,-0.320312 z m 49.359378,0.789063 c -0.24011,0 -0.4649,0.06451 -0.62305,0.222656 -0.15815,0.158144 -0.2207,0.382942 -0.2207,0.623047 v 3.373047 c 0,0.267225 0.0527,0.505863 0.2207,0.673828 0.16797,0.167965 0.41897,0.208817 0.66406,0.167968 l -0.041,0.0039 h 4.26758 l -0.0312,-0.002 c 0.29447,0.03681 0.5442,0.02507 0.74609,-0.119141 0.20189,-0.14421 0.26834,-0.41537 0.22656,-0.666016 l 0.002,0.04102 v -3.572266 l -0.004,0.04883 c 0.0441,-0.220364 -0.0109,-0.467427 -0.1836,-0.611328 -0.17268,-0.1439 -0.39498,-0.183593 -0.65625,-0.183593 z m -2.38867,0.128906 c -0.22363,-0.03727 -0.40638,0.08412 -0.56446,0.242187 a 0.250025,0.250025 0 0 0 -0.0684,0.119141 c -0.32306,1.356879 -0.97339,2.890732 -1.95703,4.595703 a 0.250025,0.250025 0 0 0 -0.0273,0.07617 c -0.0209,0.104682 -0.0301,0.205712 -0.006,0.310547 0.0242,0.104835 0.0951,0.215277 0.19531,0.27539 0.20038,0.120228 0.4028,0.07342 0.62891,-0.002 a 0.250025,0.250025 0 0 0 0.13281,-0.103515 c 0.94078,-1.478368 1.64619,-3.122478 2.11523,-4.931641 a 0.250025,0.250025 0 0 0 -0.01,-0.15625 c -0.0811,-0.202718 -0.21583,-0.388509 -0.43945,-0.425781 z m -27.07813,0.169922 a 0.250025,0.250025 0 0 0 -0.25,0.25 v 3.173828 c 0,0.267224 0.0547,0.505863 0.22266,0.673828 0.16796,0.167965 0.41897,0.208817 0.66406,0.167969 l -0.041,0.0039 h 2.38086 l -0.0351,-0.002 c 0.2711,0.03873 0.52924,0.0079 0.70703,-0.169922 0.17778,-0.177787 0.20865,-0.437876 0.16992,-0.708984 l 0.004,0.03516 v -3.173828 a 0.250025,0.250025 0 0 0 -0.25,-0.25 z m 29.4668,0.201172 h 4.36718 c 0.20175,0 0.31019,0.04494 0.33594,0.06641 0.0258,0.02146 0.0357,0.02049 0.0137,0.130859 a 0.250025,0.250025 0 0 0 -0.006,0.04883 v 3.572266 a 0.250025,0.250025 0 0 0 0.004,0.04102 c 0.0244,0.14623 0.008,0.156579 -0.0215,0.177734 -0.0296,0.02115 -0.15985,0.05863 -0.39453,0.0293 a 0.250025,0.250025 0 0 0 -0.0312,-0.002 h -4.26758 a 0.250025,0.250025 0 0 0 -0.041,0.0039 c -0.15178,0.0253 -0.19804,0.0012 -0.22851,-0.0293 -0.0305,-0.03047 -0.0742,-0.124517 -0.0742,-0.320312 v -3.373047 c 0,-0.156771 0.0339,-0.229238 0.0742,-0.269532 0.0403,-0.04029 0.11275,-0.07617 0.26953,-0.07617 z m -2.47071,0.121093 c -0.007,-0.0012 0.0143,0.03317 0.0156,0.03516 -0.44891,1.701015 -1.11192,3.245404 -1.98633,4.636718 -0.03,0.0023 -0.0761,0.01508 -0.0781,0.01758 3.6e-4,-0.01373 1e-4,-0.01801 0.004,-0.04102 0.95653,-1.669155 1.59941,-3.187025 1.93946,-4.564453 0.0689,-0.05619 0.12601,-0.08056 0.10546,-0.08398 z m -36.52148,0.173828 a 0.250025,0.250025 0 0 0 -0.18945,0.08594 c -0.39816,0.464511 -0.73093,0.863362 -0.99805,1.197266 l 0.0195,-0.01953 c -0.0625,0.06254 -0.12305,0.159001 -0.12305,0.275391 0,0.11639 0.0605,0.212852 0.12305,0.275391 a 0.250025,0.250025 0 0 0 0.11524,0.06641 c 1.05357,0.263394 2.10635,0.559358 3.16015,0.888672 a 0.250025,0.250025 0 0 0 0.22852,-0.03906 c 0.88174,-0.678269 1.59673,-1.462604 2.14258,-2.349609 a 0.250025,0.250025 0 0 0 -0.21289,-0.38086 z m 9.77539,0.0039 h 3.07227 v 2.923828 a 0.250025,0.250025 0 0 0 0.002,0.03516 c 0.0274,0.191913 -0.009,0.264506 -0.0293,0.285156 -0.0207,0.02065 -0.0913,0.05476 -0.2832,0.02734 a 0.250025,0.250025 0 0 0 -0.0352,-0.002 h -2.38086 a 0.250025,0.250025 0 0 0 -0.041,0.0039 c -0.15178,0.0253 -0.19805,0.0012 -0.22852,-0.0293 -0.0305,-0.03047 -0.0762,-0.124516 -0.0762,-0.320312 z m -21.091796,0.01367 C 97.134459,88.021362 96.89666,87.998297 96.71875,88.140625 96.54084,88.282953 96.5,88.499262 96.5,88.732422 a 0.250025,0.250025 0 0 0 0.05664,0.158203 c 0.583034,0.712598 1.137367,1.558833 1.660156,2.539062 a 0.250025,0.250025 0 0 0 0.107422,0.105469 c 0.228251,0.114126 0.451446,0.183457 0.669922,0.07422 0.109237,-0.05462 0.190541,-0.155065 0.232421,-0.259766 0.04188,-0.1047 0.05469,-0.215885 0.05469,-0.335937 a 0.250025,0.250025 0 0 0 -0.03516,-0.128906 c -0.599096,-0.998493 -1.19947,-1.897469 -1.800782,-2.699219 a 0.250025,0.250025 0 0 0 -0.105468,-0.08203 z m -2.177735,0.378906 c -0.210329,0 -0.374828,0.134536 -0.498047,0.298828 a 0.250025,0.250025 0 0 0 -0.04883,0.150391 v 2.777343 c 0,0.401681 0.09013,0.740521 0.320313,0.970703 0.230183,0.230183 0.571382,0.307121 0.947265,0.269532 l -0.02539,0.002 h 3.86914 l -0.03516,-0.002 c 0.5319,0.07599 1.00923,-0.131167 1.26757,-0.56836 0.25835,-0.437193 0.34072,-1.055199 0.30665,-1.873047 a 0.250025,0.250025 0 0 0 -0.0488,-0.138671 C 101.0936,90.204838 100.9291,90.0703 100.71877,90.0703 c -0.21033,0 -0.37483,0.134536 -0.49805,0.298829 a 0.250025,0.250025 0 0 0 -0.0488,0.162109 c 0.0321,0.577135 -0.0189,0.982288 -0.10352,1.175781 -0.0423,0.09675 -0.08446,0.135268 -0.117184,0.152344 -0.03273,0.01708 -0.07398,0.02643 -0.164063,0.0039 a 0.250025,0.250025 0 0 0 -0.06055,-0.0078 h -3.671875 a 0.250025,0.250025 0 0 0 -0.04102,0.0039 c -0.151784,0.0253 -0.198043,0.0012 -0.228516,-0.0293 -0.03047,-0.03047 -0.07422,-0.124516 -0.07422,-0.320312 v -2.578125 a 0.250025,0.250025 0 0 0 -0.05078,-0.150391 c -0.123218,-0.164292 -0.287717,-0.298828 -0.498047,-0.298828 z m 1.867188,0.04883 c -0.006,0.0048 0.04428,0.01638 0.05859,0.01758 0.560778,0.752084 1.122759,1.594078 1.685546,2.527344 -0.0039,0.03071 -0.0053,0.07228 -0.0098,0.08398 0.01001,-0.006 -0.07164,-0.02255 -0.164063,-0.05469 -0.499154,-0.923427 -1.030619,-1.733382 -1.591797,-2.431641 0.01175,-0.07184 0.03038,-0.149696 0.02148,-0.142578 z m 11.744143,0.05469 h 3.58789 c -0.44861,0.632238 -0.9453,1.235037 -1.59766,1.75 -0.93136,-0.288302 -1.86339,-0.547817 -2.79492,-0.785156 0.22579,-0.279273 0.4901,-0.596502 0.80469,-0.964844 z m -15.595706,0.0957 c -0.210329,0 -0.374828,0.132583 -0.498047,0.296875 a 0.250025,0.250025 0 0 0 -0.04687,0.121093 c -0.128337,1.090866 -0.481681,2.184364 -1.064453,3.285157 a 0.250025,0.250025 0 0 0 -0.02344,0.166015 c 0.04156,0.207794 0.141417,0.403716 0.330078,0.498047 0.188661,0.09433 0.400179,0.06493 0.601562,-0.01563 a 0.250025,0.250025 0 0 0 0.128907,-0.115234 c 0.610698,-1.153541 0.983852,-2.410789 1.11914,-3.763672 A 0.250025,0.250025 0 0 0 93.675781,88.9785 c -0.123218,-0.164292 -0.287717,-0.296875 -0.498047,-0.296875 z m 63.148436,0.0059 a 0.250025,0.250025 0 0 0 -0.0351,0.0098 c -0.47105,0.18117 -0.83338,0.469231 -1.04688,0.857421 -0.2135,0.388191 -0.2742,0.859512 -0.20312,1.392579 a 0.250025,0.250025 0 0 0 0.01,0.04297 c 0.17735,0.567522 0.46478,0.999959 0.875,1.253907 0.41022,0.253947 0.92114,0.314102 1.49219,0.207031 a 0.250025,0.250025 0 0 0 0.0293,-0.0078 c 0.56978,-0.178057 1.00557,-0.47743 1.25781,-0.904297 0.25224,-0.426866 0.30931,-0.958789 0.20312,-1.560546 a 0.250025,0.250025 0 0 0 -0.008,-0.03516 c -0.18065,-0.541946 -0.5018,-0.950079 -0.94922,-1.164062 -0.44742,-0.213983 -0.99499,-0.231798 -1.625,-0.0918 z m -55.31445,0.0039 c -0.18777,0.112661 -0.2461,0.330079 -0.24609,0.53711 a 0.250025,0.250025 0 0 0 0.041,0.134765 c 0.58197,0.905291 1.10256,2.011761 1.56055,3.320313 a 0.250025,0.250025 0 0 0 0.0859,0.11914 c 0.16296,0.122218 0.36099,0.213026 0.5664,0.13086 0.20542,-0.08217 0.28588,-0.27896 0.32617,-0.480469 a 0.250025,0.250025 0 0 0 -0.004,-0.111328 c -0.33763,-1.3505 -0.8787,-2.538244 -1.62696,-3.558594 a 0.250025,0.250025 0 0 0 -0.10937,-0.08398 c -0.19872,-0.07949 -0.40598,-0.120474 -0.59375,-0.0078 z m -5.849611,0.291016 c -0.0059,0 0.03233,0.03675 0.04883,0.04883 v 2.478516 c 10e-7,0.267224 0.05274,0.505863 0.220704,0.673828 0.167965,0.167965 0.418971,0.208817 0.664062,0.167968 l -0.04102,0.0039 h 3.671875 l -0.06055,-0.0078 c 0.145514,0.03638 0.293499,0.01118 0.43164,-0.03711 -0.112148,0.03637 -0.163475,0.167216 -0.335937,0.142578 a 0.250025,0.250025 0 0 0 -0.03516,-0.002 h -3.86914 a 0.250025,0.250025 0 0 0 -0.02539,0.002 c -0.285574,0.02856 -0.442422,-0.02641 -0.542969,-0.126953 -0.100546,-0.100546 -0.173828,-0.291264 -0.173828,-0.617188 v -2.679687 c 0.015,-0.01065 0.05258,-0.04687 0.04687,-0.04687 z m 6.107421,0.138672 c -0.0102,0.0061 0.0496,0.01807 0.0684,0.01953 0.67989,0.942174 1.1855,2.03424 1.50391,3.289062 -5e-4,0.0029 -0.0214,0.04451 -0.008,0.03906 0.0149,-0.006 -0.0268,-0.02348 -0.0293,-0.02539 -0.4488,-1.26578 -0.96071,-2.352311 -1.53711,-3.263672 0.004,-0.01797 0.0142,-0.06593 0.002,-0.05859 z m 55.1875,0.05273 c 0.20047,-0.04306 0.3019,0.02606 0.46875,0.02148 -0.23395,0.02252 -0.46829,0.05066 -0.71484,0.175782 0.0941,-0.05898 0.12614,-0.149963 0.24609,-0.197266 z m -63.279296,0.0078 c -0.0024,0 0.01825,0.01885 0.01953,0.01953 -0.133854,1.217074 -0.467289,2.344241 -1.003907,3.384765 -0.02938,0.0021 -0.08897,0.01802 -0.09375,0.01563 -0.0073,-0.0037 -0.02932,-0.05335 -0.04883,-0.111328 0.55019,-1.070253 0.902223,-2.145757 1.042969,-3.224609 0.05475,-0.06341 0.09421,-0.08398 0.08398,-0.08398 z m 64.273436,0.03711 c 0.0798,0.02101 0.21649,-0.02112 0.28516,0.01172 0.14312,0.06845 0.20669,0.273977 0.31445,0.398437 -0.17794,-0.18886 -0.37369,-0.336675 -0.59961,-0.410157 z m -1.51953,0.376953 c -0.15892,0.212091 -0.26057,0.438171 -0.3125,0.671875 0.0278,-0.15126 -0.003,-0.353939 0.0625,-0.472656 0.0476,-0.08647 0.18133,-0.125541 0.25,-0.199219 z m 1.27734,0.0039 c 0.2311,0.03649 0.43482,0.178649 0.63282,0.451172 0.10614,0.280832 0.14042,0.521932 0.10351,0.71875 -0.0379,0.201979 -0.14179,0.373955 -0.33008,0.539063 -0.29136,0.200833 -0.53924,0.276455 -0.75976,0.251953 -0.21559,-0.02395 -0.43319,-0.152294 -0.66016,-0.398438 -0.26356,-0.493391 -0.21679,-0.887649 0.1543,-1.332031 0.34272,-0.190658 0.63131,-0.266479 0.85937,-0.230469 z m 1.10743,0.365235 c 0.0244,0.05532 0.0763,0.05893 0.0977,0.121093 0.023,0.136507 -0.04,0.200821 -0.0371,0.320313 -0.0152,-0.146611 -0.009,-0.288113 -0.0605,-0.441406 z m -2.73633,0.597656 c -0.004,0.172683 0.0553,0.344569 0.10937,0.517578 -0.0422,-0.09127 -0.11326,-0.111836 -0.14843,-0.220703 -0.0153,-0.124034 0.0375,-0.187885 0.0391,-0.296875 z m -54.86133,0.0078 c -0.005,0 0.0286,0.03194 0.0371,0.03711 0.0185,0.710485 -0.0633,1.243323 -0.22656,1.519531 -0.0686,0.116093 -0.21826,0.07497 -0.30664,0.130859 0.13037,-0.08489 0.23768,-0.200913 0.30273,-0.349609 0.13337,-0.30485 0.15044,-0.744405 0.13086,-1.275391 0.0289,-0.02574 0.0701,-0.0625 0.0625,-0.0625 z m -15.0625,0.201172 c 0.746198,0.250364 1.275376,0.321318 1.744141,0.320313 -0.478214,0.01437 -0.967094,0.02666 -1.78711,-0.207031 -0.0071,-0.02831 -0.0353,-0.09528 -0.03711,-0.08984 -0.0028,0.0083 0.03703,-0.0093 0.08008,-0.02344 z m 72.63867,0.326172 c -0.0214,0.05035 0.006,0.139696 -0.0215,0.185547 -0.0285,0.04818 -0.12083,0.0649 -0.15625,0.109375 0.0693,-0.09428 0.1341,-0.189261 0.17773,-0.294922 z m -77.767576,0.19336 c -0.306049,0.371184 -0.577619,0.752893 -1.121094,1.052734 1.56e-4,-6.47e-4 -0.01955,-0.002 -0.01953,-0.002 6.2e-5,1.25e-4 0.0085,-0.09635 0.0293,-0.197266 0.465763,-0.283598 0.834667,-0.56692 1.111328,-0.853515 z m 75.537106,0.341796 c 0.11841,0.09781 0.24536,0.158743 0.375,0.216797 -0.0708,-0.0268 -0.18746,0.0075 -0.25,-0.03125 -0.0538,-0.03333 -0.0755,-0.14221 -0.125,-0.185547 z m -32.21484,0.01367 c 0.008,0.0028 0.01,-8.1e-4 0.0176,0.002 -4.2e-4,5.38e-4 4.3e-4,0.0014 0,0.002 z m 33.61133,0.207032 c -0.0654,0.02704 -0.0749,0.07998 -0.14844,0.103515 -0.0574,0.0104 -0.0807,-0.02195 -0.13477,-0.01563 0.0951,-0.01752 0.18848,-0.05099 0.28321,-0.08789 z"
         id="path3" />
    </g>
  </g>
</svg>
