<?xml version="1.0" standalone="no"?><!DOCTYPE svg PUBLIC "-//W3C//DTD SVG 1.1//EN" "http://www.w3.org/Graphics/SVG/1.1/DTD/svg11.dtd"><svg width="412.5" height="200" viewBox="0 0 412.5 200" version="1.1" xmlns="http://www.w3.org/2000/svg" xmlns:xlink="http://www.w3.org/1999/xlink"><defs><style type="text/css"><![CDATA[
@font-face { font-family: ifont; src: url(http://at.alicdn.com/t/font_1442373896_4754455.eot?#iefix) format(embedded-opentype), url(http://at.alicdn.com/t/font_1442373896_4754455.woff) format(woff), url(http://at.alicdn.com/t/font_1442373896_4754455.ttf) format(truetype), url(http://at.alicdn.com/t/font_1442373896_4754455.svg#ifont) format(svg); }

]]></style></defs><g class="transform-group"><g transform="scale(0.1953125, 0.1953125)"><path d="M9.061947 616.212389c81.557522-90.619469 144.99115-199.362832 199.362832-326.230088L271.858407 326.230088C253.734513 380.60177 226.548673 425.911504 199.362832 471.221239l0 543.716814L126.867257 1014.938053 126.867257 579.964602c-27.185841 45.309735-63.433628 81.557522-90.619469 108.743363C27.185841 670.584071 18.123894 643.39823 9.061947 616.212389zM18.123894 280.920354c90.619469-90.619469 154.053097-181.238938 199.362832-271.858407L271.858407 45.309735C217.486726 163.115044 135.929204 262.79646 36.247788 362.477876 27.185841 335.292035 27.185841 308.106195 18.123894 280.920354zM534.654867 679.646018 398.725664 679.646018l0 45.309735c0 126.867257-36.247788 208.424779-108.743363 262.79646-9.061947-18.123894-27.185841-45.309735-45.309735-63.433628C299.044248 897.132743 326.230088 824.637168 326.230088 724.955752L326.230088 616.212389l271.858407 0 0 181.238938C634.336283 761.20354 670.584071 734.017699 715.893805 697.769912 715.893805 724.955752 724.955752 752.141593 734.017699 770.265487 688.707965 806.513274 652.460177 842.761062 598.088496 888.070796c-18.123894 18.123894-27.185841 27.185841-45.309735 45.309735L507.469027 860.884956C525.59292 842.761062 534.654867 815.575221 534.654867 788.389381L534.654867 679.646018zM299.044248 353.415929 299.044248 99.681416 362.477876 99.681416l0 181.238938 81.557522 0L444.035398 18.123894l72.495575 0 0 262.79646 81.557522 0 0-181.238938 63.433628 0 0 289.982301L598.088496 389.663717 598.088496 353.415929 299.044248 353.415929zM317.168142 444.035398l326.230088 0 0 72.495575L317.168142 516.530973 317.168142 444.035398zM788.389381 0l72.495575 9.061947C842.761062 81.557522 833.699115 144.99115 815.575221 199.362832l226.548673 0L1042.123894 271.858407l-45.309735 0c-18.123894 199.362832-45.309735 353.415929-99.681416 471.221239 36.247788 72.495575 90.619469 144.99115 154.053097 199.362832-18.123894 27.185841-27.185841 54.371681-45.309735 81.557522C942.442478 960.566372 897.132743 897.132743 851.823009 815.575221c-45.309735 72.495575-90.619469 144.99115-163.115044 208.424779-18.123894-18.123894-27.185841-45.309735-54.371681-63.433628C715.893805 888.070796 779.327434 815.575221 815.575221 743.079646 779.327434 643.39823 752.141593 534.654867 743.079646 416.849558 734.017699 444.035398 724.955752 471.221239 706.831858 489.345133 697.769912 471.221239 679.646018 462.159292 661.522124 444.035398 724.955752 317.168142 761.20354 172.176991 788.389381 0zM924.318584 271.858407 797.451327 271.858407l0 9.061947c0 144.99115 18.123894 262.79646 63.433628 371.539823C888.070796 570.902655 906.19469 444.035398 924.318584 271.858407zM1069.309735 299.044248 1178.053097 299.044248 1178.053097 0l72.495575 0 0 289.982301 99.681416 0 0 72.495575-99.681416 0 0 652.460177L1178.053097 1014.938053 1178.053097 371.539823l-108.743363 0L1069.309735 299.044248zM1323.044248 706.831858l534.654867 0L1857.699115 643.39823l72.495575 0 0 63.433628 163.115044 0 0 63.433628-163.115044 0 0 117.80531c0 81.557522-45.309735 117.80531-126.867257 117.80531-36.247788 0-90.619469 0-144.99115 0 0-18.123894-9.061947-45.309735-9.061947-72.495575 54.371681 9.061947 108.743363 9.061947 144.99115 9.061947 36.247788 0 54.371681-18.123894 54.371681-54.371681L1848.637168 770.265487l-534.654867 0L1313.982301 706.831858zM1939.256637 643.39823 1939.256637 589.026549l-190.300885 0 0 63.433628-72.495575 0L1676.460177 589.026549l-190.300885 0 0 81.557522-72.495575 0L1413.663717 253.734513l262.79646 0L1676.460177 190.300885l-317.168142 0L1359.292035 126.867257l317.168142 0L1676.460177 0l72.495575 0 0 117.80531 335.292035 0 0 63.433628-335.292035 0 0 72.495575 271.858407 0 0 389.663717L1939.256637 643.39823zM1449.911504 833.699115l45.309735-54.371681C1540.530973 806.513274 1594.902655 842.761062 1631.150442 879.00885l-45.309735 54.371681C1540.530973 897.132743 1495.221239 869.946903 1449.911504 833.699115zM1477.097345 389.663717l190.300885 0L1667.39823 317.168142l-190.300885 0L1477.097345 389.663717zM1477.097345 525.59292l190.300885 0L1667.39823 453.097345l-190.300885 0L1477.097345 525.59292zM1939.256637 317.168142l-190.300885 0 0 72.495575 190.300885 0L1939.256637 317.168142zM1739.893805 525.59292l190.300885 0L1930.19469 453.097345l-190.300885 0L1739.893805 525.59292zM1948.318584 117.80531c-45.309735-27.185841-81.557522-45.309735-126.867257-63.433628L1848.637168 0c54.371681 18.123894 90.619469 45.309735 126.867257 63.433628L1948.318584 117.80531z" fill="#272636"></path></g></g></svg>