<?xml version="1.0" standalone="no"?><!DOCTYPE svg PUBLIC "-//W3C//DTD SVG 1.1//EN" "http://www.w3.org/Graphics/SVG/1.1/DTD/svg11.dtd"><svg width="378.90625" height="200" viewBox="0 0 378.90625 200" version="1.1" xmlns="http://www.w3.org/2000/svg" xmlns:xlink="http://www.w3.org/1999/xlink"><defs><style type="text/css"><![CDATA[
@font-face { font-family: ifont; src: url(http://at.alicdn.com/t/font_1442373896_4754455.eot?#iefix) format(embedded-opentype), url(http://at.alicdn.com/t/font_1442373896_4754455.woff) format(woff), url(http://at.alicdn.com/t/font_1442373896_4754455.ttf) format(truetype), url(http://at.alicdn.com/t/font_1442373896_4754455.svg#ifont) format(svg); }

]]></style></defs><g class="transform-group"><g transform="scale(0.1953125, 0.1953125)"><path d="M2218.666667 1838.545455M77.575758 620.606061c69.818182-77.575758 124.121212-170.666667 170.666667-279.272727L310.30303 364.606061C287.030303 411.151515 263.757576 457.69697 240.484848 496.484848l0 465.454545L178.424242 961.939394 178.424242 589.575758C155.151515 628.363636 124.121212 659.393939 100.848485 690.424242 93.090909 667.151515 85.333333 643.878788 77.575758 620.606061zM85.333333 325.818182c77.575758-77.575758 131.878788-155.151515 170.666667-232.727273l54.30303 31.030303C256 224.969697 186.181818 318.060606 100.848485 395.636364 100.848485 372.363636 93.090909 349.090909 85.333333 325.818182zM527.515152 674.909091 411.151515 674.909091l0 38.787879c0 108.606061-31.030303 186.181818-93.090909 224.969697C310.30303 930.909091 302.545455 907.636364 279.272727 892.121212c46.545455-31.030303 69.818182-93.090909 69.818182-178.424242L349.090909 612.848485l232.727273 0 0 155.151515c31.030303-23.272727 62.060606-54.30303 93.090909-85.333333C690.424242 713.69697 690.424242 736.969697 698.181818 760.242424c-31.030303 23.272727-69.818182 62.060606-108.606061 93.090909-15.515152 15.515152-23.272727 23.272727-38.787879 38.787879l-46.545455-54.30303c15.515152-15.515152 23.272727-38.787879 23.272727-62.060606L527.515152 674.909091zM325.818182 387.878788 325.818182 170.666667l54.30303 0 0 155.151515 69.818182 0L449.939394 100.848485l62.060606 0 0 224.969697 69.818182 0L581.818182 170.666667l54.30303 0 0 248.242424L581.818182 418.909091 581.818182 387.878788 325.818182 387.878788zM341.333333 473.212121 620.606061 473.212121l0 62.060606L341.333333 535.272727 341.333333 473.212121zM744.727273 93.090909l62.060606 7.757576c-7.757576 54.30303-23.272727 108.606061-31.030303 155.151515l193.939394 0 0 62.060606-38.787879 0c-15.515152 170.666667-38.787879 302.545455-85.333333 403.393939 31.030303 69.818182 77.575758 124.121212 131.878788 170.666667-15.515152 23.272727-23.272727 46.545455-38.787879 69.818182-54.30303-54.30303-93.090909-108.606061-131.878788-170.666667-38.787879 62.060606-77.575758 124.121212-139.636364 178.424242-15.515152-15.515152-23.272727-38.787879-46.545455-54.30303 62.060606-62.060606 116.363636-124.121212 147.393939-193.939394C736.969697 643.878788 713.69697 550.787879 705.939394 449.939394 698.181818 473.212121 690.424242 496.484848 682.666667 512 667.151515 496.484848 651.636364 480.969697 636.121212 465.454545 690.424242 364.606061 721.454545 240.484848 744.727273 93.090909zM861.090909 325.818182 752.484848 325.818182l0 7.757576c0 124.121212 15.515152 232.727273 54.30303 318.060606C830.060606 581.818182 845.575758 473.212121 861.090909 325.818182zM985.212121 519.757576c85.333333-131.878788 155.151515-271.515152 193.939394-434.424242l69.818182 23.272727c-23.272727 77.575758-54.30303 155.151515-85.333333 224.969697l0 643.878788-62.060606 0L1101.575758 465.454545c-31.030303 46.545455-54.30303 93.090909-85.333333 131.878788C1008.484848 566.30303 1000.727273 543.030303 985.212121 519.757576zM1241.212121 209.454545l287.030303 0c-15.515152-31.030303-38.787879-62.060606-54.30303-93.090909l62.060606-31.030303c23.272727 31.030303 38.787879 69.818182 62.060606 100.848485l-38.787879 23.272727 310.30303 0 0 62.060606L1241.212121 271.515152 1241.212121 209.454545zM1295.515152 356.848485l527.515152 0 0 62.060606-527.515152 0L1295.515152 356.848485zM1295.515152 496.484848l527.515152 0 0 62.060606-527.515152 0L1295.515152 496.484848zM1303.272727 643.878788l504.242424 0 0 325.818182-69.818182 0 0-54.30303-364.606061 0 0 54.30303-69.818182 0L1303.272727 643.878788zM1737.69697 705.939394l-364.606061 0 0 155.151515 364.606061 0L1737.69697 705.939394z" fill="#272636"></path></g></g></svg>