<svg width="746" height="92" viewBox="0 0 746 92" fill="none" xmlns="http://www.w3.org/2000/svg">
<path d="M85.6482 67.7881C87.5743 70.6642 88.3147 74.1735 87.7148 77.5829C87.1149 80.9922 85.221 84.0378 82.4289 86.0834C79.6368 88.129 76.1624 89.0164 72.7315 88.5601C69.3006 88.1038 66.1787 86.3393 64.018 83.635C63.6061 83.1566 63.1974 82.6777 62.7954 82.1873C56.6505 74.7471 51.8771 66.2736 48.698 57.1621C47.3836 53.4016 45.2384 49.9856 42.422 47.1687C39.6057 44.3518 36.1906 42.2064 32.4309 40.8916C23.325 37.7161 14.8556 32.9475 7.41775 26.8082C6.93895 26.404 6.44658 25.9945 5.98241 25.5831C3.27714 23.4225 1.51145 20.2997 1.05447 16.8674C0.597488 13.435 1.48456 9.95891 3.53025 7.16549C5.57593 4.37207 8.62194 2.47748 12.0316 1.8779C15.4412 1.27832 18.9506 2.0202 21.8262 3.94821C24.4312 5.73343 26.7673 7.88239 28.7636 10.3297L29.8785 11.6957C34.2776 17.0916 37.2534 23.6811 42.2667 28.5139L43.2692 29.4712C44.2238 30.3896 45.4012 31.0433 46.6854 31.3677C47.9695 31.6921 49.3161 31.6761 50.5922 31.3212C51.8683 30.9664 53.0299 30.2852 53.9624 29.3444C54.8949 28.4036 55.5661 27.2359 55.9098 25.9566L56.1968 24.8747C57.4121 20.3288 57.4596 15.4333 59.2395 11.0725L59.5437 10.3286C60.4896 8.02147 61.9909 5.9838 63.9139 4.39674C65.8369 2.80967 68.1222 1.72239 70.5665 1.23153C73.0109 0.740676 75.5386 0.861384 77.9251 1.58305C80.3115 2.30472 82.4828 3.60489 84.2458 5.36807C86.0088 7.13125 87.309 9.30268 88.0308 11.6895C88.7525 14.0764 88.8736 16.6048 88.3831 19.0497C87.8926 21.4946 86.8058 23.7805 85.2192 25.7041C83.6327 27.6277 81.5956 29.1293 79.289 30.0757L78.5472 30.3795C74.1862 32.1623 69.2989 32.2092 64.7477 33.4232L63.6689 33.7124C62.3895 34.0555 61.2218 34.7263 60.2808 35.6587C59.3398 36.591 58.6581 37.7526 58.3031 39.0289C57.948 40.3052 57.9318 41.652 58.2561 42.9364C58.5803 44.2209 59.2338 45.3986 60.1521 46.3533L61.1092 47.3556C65.9416 52.3683 72.5298 55.3452 77.9241 59.7463L79.29 60.8613C81.7361 62.8541 83.8846 65.1866 85.6702 67.7881" fill="url(#paint0_linear_170_62)"/>
<path d="M18.2719 51.6087C19.5578 50.3002 21.0892 49.2584 22.7784 48.5431C24.4676 47.8277 26.2814 47.4526 28.1157 47.4397C29.95 47.4269 31.7688 47.7764 33.4679 48.468C35.167 49.1596 36.7128 50.1797 38.0169 51.4701C39.321 52.7604 40.3576 54.2954 41.0674 55.9872C41.7771 57.6791 42.146 59.4945 42.1529 61.3292C42.1599 63.1639 41.8047 64.9819 41.1077 66.6791C40.4108 68.3762 39.3858 69.9191 38.0915 71.2192C38.0559 71.2553 38.0198 71.2914 37.9838 71.327L24.3484 84.6947C21.7574 87.2085 18.2818 88.6021 14.6722 88.5746C11.0626 88.5472 7.6086 87.101 5.05611 84.5481C2.50362 81.9952 1.05749 78.5406 1.02994 74.9302C1.0024 71.3199 2.39567 67.8434 4.90891 65.2518L18.2719 51.6087Z" fill="url(#paint1_linear_170_62)"/>
<path d="M121.98 22.324C120.612 21.244 117.876 19.732 115.968 18.796L113.484 21.928C115.428 23.044 118.128 24.7 119.352 25.816L121.98 22.324ZM120.576 31.72C119.136 30.712 116.4 29.308 114.492 28.408L112.08 31.504C114.024 32.512 116.724 34.132 118.02 35.176L120.576 31.72ZM117.372 37.984C115.932 42.196 114.06 46.768 112.692 49.54L116.58 51.772C118.056 48.244 119.604 44.104 120.828 40.252L117.372 37.984ZM131.448 33.448L128.424 34.348V29.092H131.7V25.096H128.424V18.652H124.464V25.096H120.792V29.092H124.464V35.536C122.736 36.004 121.152 36.436 119.856 36.76L121.44 40.972C122.412 40.684 123.384 40.36 124.464 40V46.768C124.464 47.272 124.284 47.38 123.852 47.38C123.348 47.416 121.944 47.416 120.468 47.344C121.008 48.568 121.548 50.476 121.656 51.628C124.068 51.628 125.796 51.448 126.912 50.728C128.064 50.008 128.424 48.856 128.424 46.768V38.632C129.684 38.2 130.872 37.768 132.096 37.336L131.448 33.448ZM145.812 29.92H136.848V24.556C139.692 23.836 142.716 22.9 145.164 21.82L142.068 18.508C139.8 19.768 136.164 21.028 132.924 21.82V33.988C132.924 38.812 132.636 45.04 129.468 49.324C130.368 49.72 131.988 51.088 132.636 51.808C136.236 47.092 136.848 39.424 136.848 33.988V33.88H139.26V52.132H143.184V33.88H145.812V29.92ZM159.42 22.9C157.944 21.82 154.92 20.092 152.94 19.048L150.456 22.072C152.508 23.332 155.424 25.132 156.828 26.284L159.42 22.9ZM157.404 32.296C155.82 31.288 152.688 29.74 150.636 28.804L148.332 31.972C150.492 33.088 153.588 34.78 155.028 35.86L157.404 32.296ZM156.36 37.48C154.236 41.656 151.5 46.12 149.592 48.82L153.192 51.736C155.352 48.208 157.656 44.104 159.528 40.396L156.36 37.48ZM172.2 45.688V25.816H180.156V21.532H160.212V25.816H167.52V45.688H158.268V49.972H181.776V45.688H172.2ZM216.984 32.584V28.156H202.836C203.196 24.808 203.232 21.496 203.268 18.544H198.588C198.552 21.496 198.588 24.772 198.228 28.156H185.124V32.584H197.508C196.104 38.776 192.684 44.752 184.44 48.424C185.7 49.324 186.96 50.872 187.644 52.06C195.276 48.388 199.164 42.772 201.108 36.76C203.916 43.708 208.092 48.964 214.608 52.024C215.292 50.8 216.696 48.892 217.776 47.992C211.044 45.256 206.688 39.604 204.312 32.584H216.984ZM225.516 27.976H248.484V32.08H252.696V24.196H247.44C248.448 22.9 249.528 21.496 250.5 20.092L246.036 18.76C245.316 20.38 244.092 22.504 242.94 24.196H238.26L240.384 23.368C239.916 21.928 238.728 19.732 237.54 18.184L233.76 19.588C234.66 20.992 235.596 22.756 236.1 24.196H230.052L231.42 23.548C230.808 22.18 229.368 20.236 228.108 18.832L224.472 20.452C225.336 21.568 226.344 22.972 226.992 24.196H221.484V32.08H225.516V27.976ZM253.092 38.776H239.124V38.092C242.184 36.616 245.1 34.672 247.296 32.656L244.56 30.532L243.696 30.748H227.46V34.456H238.8C237.504 35.248 236.1 36.004 234.732 36.544V38.776H221.016V42.736H234.732V47.236C234.732 47.704 234.552 47.884 233.796 47.884C233.076 47.92 230.412 47.92 228.108 47.812C228.756 48.928 229.584 50.728 229.872 51.952C232.932 51.952 235.2 51.916 236.892 51.268C238.584 50.656 239.124 49.576 239.124 47.344V42.736H253.092V38.776ZM282.576 27.364V30.784H264.72V27.364H282.576ZM286.896 34.744V23.404H276.492C275.988 22.036 275.124 19.984 274.296 18.436L270.048 19.48C270.588 20.668 271.236 22.144 271.668 23.404H260.292V32.656C260.292 37.66 259.968 44.572 256.08 49.324C257.088 49.828 258.888 51.448 259.608 52.24C263.46 47.632 264.504 40.324 264.684 34.744H286.896ZM269.616 46.228V41.296H283.368V46.228H269.616ZM265.44 37.372V51.88H269.616V50.116H283.368V51.844H287.76V37.372H265.44ZM301.944 40.324H316.056V41.98H301.944V40.324ZM316.056 28.804V30.352H301.944V28.804H316.056ZM316.056 36.508V37.912H301.944V36.508H316.056ZM316.056 34.132H301.944V32.764H316.056V34.132ZM325.02 45.508V41.98H320.376V26.14H310.584C310.692 25.636 310.764 25.096 310.908 24.52H324.156V20.956H311.592L311.952 18.868L307.452 18.436C307.416 19.192 307.308 20.056 307.236 20.956H293.988V24.52H306.732C306.624 25.096 306.516 25.636 306.408 26.14H297.804V41.98H293.016V45.508H302.844C300.54 46.912 296.328 48.46 292.836 49.252C293.772 50.044 295.068 51.34 295.752 52.168C299.316 51.304 303.78 49.576 306.624 47.848L303.276 45.508H313.788L311.484 47.884C315.444 49.072 319.476 50.836 321.852 52.132L325.416 49.252C323.04 48.1 319.152 46.624 315.48 45.508H325.02ZM360.768 23.044H348.024L348.132 23.008C347.664 21.64 346.476 19.588 345.504 18.04L341.4 19.48C342.048 20.56 342.732 21.856 343.236 23.044H329.196V27.22H360.768V23.044ZM348.42 29.74C351.624 32.08 355.62 35.464 357.384 37.696L361.056 34.924C359.076 32.62 354.9 29.452 351.804 27.328L348.42 29.74ZM337.728 27.544C335.64 30.136 332.148 32.764 328.944 34.384C329.916 35.104 331.536 36.652 332.328 37.516C335.532 35.572 339.42 32.296 341.868 29.128L337.728 27.544ZM349.716 33.736C348.672 36.544 347.088 38.884 345.036 40.828C343.056 38.884 341.508 36.544 340.428 33.916L336.576 35.104C337.944 38.308 339.708 41.08 341.832 43.384C338.304 45.724 333.876 47.272 328.656 48.28C329.484 49.216 330.744 51.124 331.248 52.096C336.54 50.8 341.184 48.964 345 46.264C348.636 49 353.136 50.836 358.824 51.916C359.364 50.764 360.48 49 361.416 48.064C356.124 47.272 351.804 45.724 348.348 43.456C350.688 41.152 352.596 38.344 354.036 34.996L349.716 33.736ZM376.86 29.308C378.66 30.856 380.82 33.052 381.756 34.564L384.96 31.684C383.916 30.244 381.648 28.192 379.848 26.788L376.86 29.308ZM389.496 25.744C387.696 31.36 384.852 35.788 381.18 39.244C377.364 35.644 374.7 31.072 372.9 25.744H389.496ZM391.944 21.316L391.332 21.496H366.276V25.744H369.516L368.544 26.032C370.668 32.512 373.584 37.912 377.652 42.088C373.692 44.86 369.12 46.768 364.008 48.064C364.944 48.928 366.204 50.98 366.672 52.096C371.964 50.584 376.824 48.316 381.036 45.112C384.852 48.028 389.496 50.152 395.256 51.484C395.832 50.332 397.092 48.424 398.064 47.524C392.7 46.408 388.236 44.572 384.564 41.98C389.352 37.264 392.952 31 394.932 22.756L391.944 21.316ZM405.516 27.976H428.484V32.08H432.696V24.196H427.44C428.448 22.9 429.528 21.496 430.5 20.092L426.036 18.76C425.316 20.38 424.092 22.504 422.94 24.196H418.26L420.384 23.368C419.916 21.928 418.728 19.732 417.54 18.184L413.76 19.588C414.66 20.992 415.596 22.756 416.1 24.196H410.052L411.42 23.548C410.808 22.18 409.368 20.236 408.108 18.832L404.472 20.452C405.336 21.568 406.344 22.972 406.992 24.196H401.484V32.08H405.516V27.976ZM433.092 38.776H419.124V38.092C422.184 36.616 425.1 34.672 427.296 32.656L424.56 30.532L423.696 30.748H407.46V34.456H418.8C417.504 35.248 416.1 36.004 414.732 36.544V38.776H401.016V42.736H414.732V47.236C414.732 47.704 414.552 47.884 413.796 47.884C413.076 47.92 410.412 47.92 408.108 47.812C408.756 48.928 409.584 50.728 409.872 51.952C412.932 51.952 415.2 51.916 416.892 51.268C418.584 50.656 419.124 49.576 419.124 47.344V42.736H433.092V38.776ZM460.668 25.852C459.588 24.268 457.068 22.144 455.124 20.668L452.316 23.116C454.332 24.664 456.672 26.968 457.68 28.516L460.668 25.852ZM459.66 35.284C458.472 33.736 455.808 31.504 453.756 30.064L451.02 32.512C453.108 34.132 455.628 36.436 456.744 38.02L459.66 35.284ZM450.552 38.092C449.868 37.264 446.916 33.88 445.872 32.872V32.584H450.624V28.588H445.872V23.656C447.528 23.296 449.112 22.864 450.516 22.324L448.104 18.832C445.116 20.056 440.616 21.172 436.512 21.784C436.98 22.72 437.52 24.124 437.664 25.096C438.996 24.952 440.328 24.736 441.732 24.52V28.588H436.296V32.584H441.156C439.86 36.076 437.844 39.928 435.828 42.232C436.476 43.312 437.412 45.076 437.808 46.3C439.212 44.5 440.544 41.944 441.732 39.172V52.132H445.872V37.516C446.736 38.956 447.6 40.468 448.032 41.476L450.552 38.092ZM470.028 42.268L469.344 38.272L465.78 38.884V18.508H461.568V39.604L450.012 41.584L450.696 45.652L461.568 43.78V52.096H465.78V43.024L470.028 42.268ZM477.624 31.54C479.676 29.56 481.512 27.256 483.024 24.772C484.968 26.968 487.02 29.488 488.46 31.54H477.624ZM489.936 32.836L492.672 30.244C491.088 27.832 487.74 24.124 484.968 21.208C485.184 20.704 485.436 20.164 485.652 19.66L481.728 18.472C479.856 23.008 476.076 27.832 471.72 30.784C472.656 31.504 474.096 33.052 474.78 33.952C475.14 33.664 475.536 33.376 475.896 33.088V46.228C475.896 50.368 477.228 51.52 481.44 51.52H487.2C490.872 51.52 491.988 50.008 492.456 44.932C491.34 44.716 489.648 44.068 488.748 43.384C488.532 47.164 488.28 47.884 486.84 47.884H481.944C480.324 47.884 480.036 47.668 480.036 46.192V35.212H485.76C485.544 38.308 485.292 39.64 484.968 40.036C484.716 40.36 484.428 40.432 483.96 40.432C483.42 40.432 482.34 40.432 481.188 40.288C481.728 41.26 482.16 42.772 482.196 43.888C483.78 43.924 485.184 43.888 486.048 43.78C487.02 43.636 487.812 43.348 488.46 42.556C489.288 41.584 489.648 38.956 489.936 32.98V32.836ZM497.28 22.612H493.176V42.952H497.28V22.612ZM500.052 19.192V47.092C500.052 47.776 499.764 47.992 499.08 48.028C498.36 48.028 495.948 48.028 493.68 47.92C494.292 49.072 494.94 50.872 495.12 52.06C498.504 52.06 500.808 51.952 502.284 51.268C503.796 50.62 504.3 49.54 504.3 47.092V19.192H500.052ZM511.14 40.9C510.492 42.808 509.412 44.86 508.044 46.228C508.836 46.696 510.168 47.704 510.816 48.244C512.22 46.66 513.588 44.104 514.452 41.728L511.14 40.9ZM519.672 25.564C519.312 26.896 518.664 28.732 518.124 30.028H513.876L515.604 29.56C515.46 28.48 514.992 26.788 514.38 25.564H519.672ZM525.108 39.928V36.328H519.168V33.556H525.684V30.028H521.94C522.48 28.912 522.984 27.508 523.56 26.14L520.608 25.564H525.144V22.072H519.456C519.06 20.884 518.448 19.48 517.908 18.328L514.092 19.228C514.452 20.092 514.848 21.1 515.172 22.072H509.016V25.564H513.876L510.924 26.284C511.428 27.4 511.824 28.912 512.004 30.028H508.476V33.556H515.316V36.328H508.692V39.928H515.316V47.524C515.316 47.92 515.208 48.028 514.812 48.028C514.416 48.028 513.3 48.028 512.22 47.992C512.724 49 513.228 50.476 513.372 51.484C515.28 51.484 516.72 51.448 517.8 50.872C518.88 50.26 519.168 49.36 519.168 47.632V39.928H525.108ZM541.74 30.352H530.688V24.7C534.216 24.052 537.924 23.152 540.912 22L537.6 18.868C535.008 20.092 530.652 21.208 526.692 21.928V34.564C526.692 38.02 526.584 42.088 525.468 45.616C524.856 44.284 523.668 42.16 522.588 40.54L519.78 42.088C520.788 43.744 522.012 46.012 522.588 47.488L525.432 45.688C525.072 46.948 524.532 48.136 523.848 49.144C524.748 49.612 526.44 50.944 527.124 51.7C530.22 47.2 530.688 39.856 530.688 34.564V34.312H534.216V51.988H538.392V34.312H541.74V30.352ZM549.624 31.54C551.676 29.56 553.512 27.256 555.024 24.772C556.968 26.968 559.02 29.488 560.46 31.54H549.624ZM561.936 32.836L564.672 30.244C563.088 27.832 559.74 24.124 556.968 21.208C557.184 20.704 557.436 20.164 557.652 19.66L553.728 18.472C551.856 23.008 548.076 27.832 543.72 30.784C544.656 31.504 546.096 33.052 546.78 33.952C547.14 33.664 547.536 33.376 547.896 33.088V46.228C547.896 50.368 549.228 51.52 553.44 51.52H559.2C562.872 51.52 563.988 50.008 564.456 44.932C563.34 44.716 561.648 44.068 560.748 43.384C560.532 47.164 560.28 47.884 558.84 47.884H553.944C552.324 47.884 552.036 47.668 552.036 46.192V35.212H557.76C557.544 38.308 557.292 39.64 556.968 40.036C556.716 40.36 556.428 40.432 555.96 40.432C555.42 40.432 554.34 40.432 553.188 40.288C553.728 41.26 554.16 42.772 554.196 43.888C555.78 43.924 557.184 43.888 558.048 43.78C559.02 43.636 559.812 43.348 560.46 42.556C561.288 41.584 561.648 38.956 561.936 32.98V32.836ZM569.28 22.612H565.176V42.952H569.28V22.612ZM572.052 19.192V47.092C572.052 47.776 571.764 47.992 571.08 48.028C570.36 48.028 567.948 48.028 565.68 47.92C566.292 49.072 566.94 50.872 567.12 52.06C570.504 52.06 572.808 51.952 574.284 51.268C575.796 50.62 576.3 49.54 576.3 47.092V19.192H572.052ZM589.98 39.352C589.08 35.932 586.992 30.28 585.3 26.068L581.376 27.22C583.032 31.648 584.904 37.408 585.696 40.864L589.98 39.352ZM603.804 46.192V39.424L607.08 41.08C608.952 37.624 611.22 32.548 612.804 28.012L608.952 26.176C607.764 30.28 605.604 35.392 603.804 38.812V18.976H599.376V46.192H594.66V18.976H590.232V46.192H580.944V50.476H613.128V46.192H603.804ZM622.128 25.888H643.764V30.1H648.264V21.892H636.132C635.592 20.632 634.8 19.228 634.08 18.076L629.796 19.408C630.228 20.128 630.66 21.028 631.02 21.892H617.844V30.1H622.128V25.888ZM631.236 30.352C630.12 29.092 627.744 27.544 625.908 26.644L623.424 29.416C625.26 30.496 627.528 32.188 628.536 33.412L631.236 30.352ZM619.752 34.78C621.66 35.824 624 37.444 625.08 38.632L627.636 35.464C626.484 34.276 624.072 32.8 622.2 31.9L619.752 34.78ZM648.696 42.7V39.1H635.664C636.564 35.752 636.78 31.864 636.924 27.436H632.388C632.244 32.08 632.136 35.968 631.056 39.1H617.52V42.7H629.148C627.096 45.256 623.64 47.128 617.808 48.388C618.744 49.324 619.824 50.98 620.184 52.06C628.104 50.152 632.208 47.02 634.368 42.7H648.696ZM634.08 46.552C638.652 47.956 643.368 50.08 646.104 51.952L648.732 48.532C645.816 46.84 640.74 44.716 636.06 43.42L634.08 46.552ZM661.08 41.008C657.624 41.764 654.24 42.52 651.828 42.952L652.512 46.264C655.176 45.652 658.344 44.896 661.404 44.176L661.08 41.008ZM670.62 29.488C672.204 27.94 673.752 26.248 675.084 24.376C676.596 26.14 678.324 27.868 680.16 29.488H670.62ZM670.044 33.088H681.132V30.316C682.248 31.252 683.328 32.044 684.408 32.764C684.804 31.576 685.632 29.596 686.352 28.516C683.148 26.788 679.62 23.836 677.208 21.1C677.532 20.524 677.856 19.948 678.144 19.372L674.436 18.076C672.204 22.648 668.208 26.824 663.996 29.38C664.248 26.212 664.464 22.756 664.608 19.804H652.728V23.404H660.864C660.648 27.508 660.324 31.936 659.928 35.14H657.12C657.372 32.26 657.624 28.876 657.768 26.032L654.132 25.816C653.988 29.884 653.628 35.212 653.196 38.452H662.484C662.16 44.752 661.728 47.344 661.08 48.064C660.72 48.424 660.432 48.496 659.82 48.496C659.172 48.496 657.66 48.46 656.076 48.316C656.688 49.288 657.084 50.692 657.12 51.736C658.848 51.808 660.576 51.808 661.512 51.7C662.664 51.556 663.492 51.268 664.248 50.332C665.328 49.108 665.796 45.58 666.228 36.652C666.264 36.184 666.3 35.104 666.3 35.104H663.528C663.708 33.484 663.888 31.468 664.032 29.38C664.752 30.208 666.012 32.008 666.48 32.836C667.704 32.008 668.856 31.072 670.044 30.028V33.088ZM678.576 43.42C678.36 41.08 677.712 37.66 677.064 34.96L673.824 35.428C674.364 38.092 674.976 41.62 675.156 43.924L678.576 43.42ZM672.96 43.96C672.6 41.692 671.772 38.236 670.872 35.572L667.632 36.436C668.388 39.1 669.252 42.628 669.504 44.932L672.96 43.96ZM681.564 35.176C680.736 38.812 679.008 43.672 677.496 46.948H666.732V50.548H685.38V46.948H681.096C682.572 43.852 684.156 39.64 685.452 36.004L681.564 35.176ZM716.376 25.276V27.472H693.444V25.276H716.376ZM699.852 34.6C701.292 33.52 702.732 32.368 704.028 31.144H710.256L708.492 32.332C709.068 32.836 709.716 33.34 710.364 33.916L699.852 34.6ZM693.264 31.144H698.556C697.116 32.44 695.82 33.412 695.244 33.808C694.272 34.528 693.48 34.996 692.688 35.104C693.12 36.112 693.696 38.02 693.912 38.812C695.352 38.236 697.296 38.092 713.388 36.796C714.18 37.624 714.828 38.416 715.296 39.064L718.68 36.76C717.348 35.14 714.864 32.908 712.668 31.144H716.916V28.264H720.732V21.388H707.916C707.52 20.308 706.908 19.048 706.296 18.004L702.12 19.228C702.48 19.84 702.804 20.632 703.092 21.388H689.268V28.264H693.264V31.144ZM707.16 47.38V44.284H718.176V40.612H707.16V37.876H702.768V40.612H692.292V44.284H702.768V47.38H689.16V51.16H721.056V47.38H707.16Z" fill="#333333"/>
<path d="M112.624 80.592L118.656 72.848L119.44 72.208H112.624V70.8H120.912V72.208L114.832 80L114.08 80.592H120.912V82H112.624V80.592ZM123.851 70.8H125.451V79.44C125.451 80.272 125.233 80.9333 124.795 81.424C124.369 81.9147 123.734 82.16 122.891 82.16C122.785 82.16 122.657 82.1547 122.507 82.144C122.369 82.1333 122.225 82.112 122.075 82.08C121.926 82.0587 121.782 82.032 121.643 82C121.505 81.968 121.387 81.9307 121.291 81.888L121.595 80.56C121.894 80.688 122.251 80.752 122.667 80.752C123.147 80.752 123.462 80.5973 123.611 80.288C123.771 79.9787 123.851 79.552 123.851 79.008V70.8ZM135.806 70.8H137.31V78.112C137.31 78.8053 137.209 79.4027 137.006 79.904C136.814 80.4053 136.537 80.8267 136.174 81.168C135.812 81.4987 135.38 81.744 134.878 81.904C134.388 82.064 133.838 82.144 133.23 82.144C131.79 82.144 130.692 81.8347 129.934 81.216C129.177 80.5867 128.798 79.6587 128.798 78.432V70.8H130.398V77.824C130.398 78.912 130.633 79.6693 131.102 80.096C131.582 80.5227 132.286 80.736 133.214 80.736C134.11 80.736 134.766 80.5013 135.182 80.032C135.598 79.5627 135.806 78.8107 135.806 77.776V70.8ZM146.414 71.856H145.134V70.8H149.294V71.856H148.014V80.944H149.294V82H145.134V80.944H146.414V71.856ZM158.101 82V77.36C158.101 76.464 157.957 75.792 157.669 75.344C157.381 74.896 156.869 74.672 156.133 74.672C155.482 74.672 154.938 74.8427 154.501 75.184C154.074 75.5147 153.776 75.9413 153.605 76.464V82H152.133V73.6H153.157L153.445 74.72H153.589C153.898 74.336 154.298 74.016 154.789 73.76C155.29 73.4933 155.888 73.36 156.581 73.36C157.072 73.36 157.504 73.4187 157.877 73.536C158.25 73.6427 158.56 73.84 158.805 74.128C159.061 74.4053 159.253 74.784 159.381 75.264C159.509 75.7333 159.573 76.3307 159.573 77.056V82H158.101ZM166.943 79.648C166.943 79.4347 166.89 79.2587 166.783 79.12C166.687 78.9707 166.554 78.848 166.383 78.752C166.212 78.6453 166.015 78.5547 165.791 78.48C165.567 78.4053 165.332 78.3307 165.087 78.256C164.778 78.1707 164.463 78.08 164.143 77.984C163.834 77.8773 163.551 77.7387 163.295 77.568C163.05 77.3867 162.847 77.1573 162.687 76.88C162.527 76.6027 162.447 76.2507 162.447 75.824C162.447 74.992 162.692 74.3733 163.183 73.968C163.684 73.5627 164.383 73.36 165.279 73.36C165.951 73.36 166.516 73.424 166.975 73.552C167.434 73.68 167.834 73.8187 168.175 73.968L167.823 75.216C167.535 75.0773 167.188 74.944 166.783 74.816C166.388 74.6773 165.951 74.608 165.471 74.608C164.948 74.608 164.559 74.6933 164.303 74.864C164.047 75.0347 163.919 75.344 163.919 75.792C163.919 75.9733 163.967 76.128 164.063 76.256C164.159 76.3733 164.287 76.48 164.447 76.576C164.607 76.6613 164.794 76.7413 165.007 76.816C165.22 76.88 165.444 76.944 165.679 77.008C165.999 77.0933 166.319 77.1947 166.639 77.312C166.959 77.4187 167.252 77.568 167.519 77.76C167.786 77.9413 167.999 78.176 168.159 78.464C168.33 78.752 168.415 79.1147 168.415 79.552C168.415 80.3413 168.148 80.9867 167.615 81.488C167.082 81.9787 166.282 82.224 165.215 82.224C164.532 82.224 163.935 82.1547 163.423 82.016C162.922 81.8773 162.5 81.7173 162.159 81.536L162.575 80.256C162.874 80.416 163.258 80.576 163.727 80.736C164.196 80.896 164.671 80.976 165.151 80.976C165.674 80.976 166.1 80.8853 166.431 80.704C166.772 80.512 166.943 80.16 166.943 79.648ZM171.007 73.6H171.999L172.287 74.672H172.431C172.719 74.256 173.093 73.936 173.551 73.712C174.01 73.4773 174.527 73.36 175.103 73.36C176.319 73.36 177.226 73.7013 177.823 74.384C178.421 75.056 178.719 76.1333 178.719 77.616C178.719 78.32 178.618 78.96 178.415 79.536C178.223 80.1013 177.941 80.5867 177.567 80.992C177.205 81.3867 176.757 81.6907 176.223 81.904C175.701 82.1173 175.114 82.224 174.463 82.224C174.25 82.224 174.053 82.2133 173.871 82.192C173.701 82.1813 173.541 82.1547 173.391 82.112C173.242 82.08 173.093 82.0427 172.943 82C172.794 81.9467 172.639 81.888 172.479 81.824V85.2H171.007V73.6ZM174.767 74.608C174.127 74.608 173.626 74.768 173.263 75.088C172.901 75.408 172.639 75.8987 172.479 76.56V80.432C172.725 80.6027 172.991 80.736 173.279 80.832C173.567 80.928 173.935 80.976 174.383 80.976C175.247 80.976 175.925 80.6933 176.415 80.128C176.906 79.5627 177.151 78.72 177.151 77.6C177.151 76.6933 176.97 75.968 176.607 75.424C176.245 74.88 175.631 74.608 174.767 74.608ZM181.821 73.6H183.293V82H181.821V73.6ZM181.517 71.6C181.517 71.3547 181.613 71.136 181.805 70.944C181.997 70.7413 182.248 70.64 182.557 70.64C182.867 70.64 183.123 70.7413 183.325 70.944C183.528 71.136 183.629 71.3547 183.629 71.6C183.629 71.8453 183.528 72.064 183.325 72.256C183.123 72.4373 182.867 72.528 182.557 72.528C182.248 72.528 181.997 72.4373 181.805 72.256C181.613 72.064 181.517 71.8453 181.517 71.6ZM191.188 74.992C191.006 74.9387 190.83 74.8907 190.66 74.848C190.489 74.8053 190.329 74.784 190.18 74.784C189.614 74.784 189.172 74.928 188.852 75.216C188.542 75.504 188.35 75.8667 188.276 76.304V82H186.804V73.6H187.828L188.116 74.72H188.26C188.505 74.304 188.788 73.984 189.108 73.76C189.438 73.5253 189.849 73.408 190.34 73.408C190.489 73.408 190.665 73.424 190.868 73.456C191.07 73.4773 191.273 73.52 191.476 73.584L191.188 74.992ZM193.106 74.128C194.066 73.6693 195.255 73.44 196.674 73.44C197.314 73.44 197.826 73.5253 198.21 73.696C198.604 73.856 198.908 74.064 199.122 74.32C199.335 74.576 199.474 74.864 199.538 75.184C199.612 75.4933 199.65 75.8027 199.65 76.112C199.65 76.6987 199.628 77.2907 199.586 77.888C199.543 78.4747 199.522 79.1147 199.522 79.808C199.522 80.2133 199.538 80.608 199.57 80.992C199.612 81.3653 199.676 81.712 199.762 82.032H198.69L198.29 80.752H198.13C198.012 80.912 197.868 81.0773 197.698 81.248C197.527 81.408 197.324 81.552 197.09 81.68C196.855 81.808 196.583 81.9147 196.274 82C195.975 82.0853 195.628 82.128 195.234 82.128C194.839 82.128 194.476 82.0747 194.146 81.968C193.815 81.8507 193.527 81.6907 193.282 81.488C193.047 81.2853 192.86 81.04 192.722 80.752C192.583 80.4533 192.514 80.1227 192.514 79.76C192.514 79.28 192.615 78.864 192.818 78.512C193.031 78.16 193.303 77.872 193.634 77.648C193.964 77.424 194.338 77.2587 194.754 77.152C195.18 77.0453 195.602 76.992 196.018 76.992C196.348 76.992 196.626 76.9973 196.85 77.008C197.084 77.0187 197.276 77.0347 197.426 77.056C197.586 77.0667 197.719 77.0827 197.826 77.104C197.932 77.1147 198.028 77.1253 198.114 77.136C198.135 76.976 198.151 76.8373 198.162 76.72C198.172 76.6027 198.178 76.4533 198.178 76.272C198.178 75.9733 198.146 75.7227 198.082 75.52C198.018 75.3173 197.911 75.1573 197.762 75.04C197.623 74.912 197.431 74.8213 197.186 74.768C196.94 74.7147 196.642 74.688 196.29 74.688C196.087 74.688 195.863 74.704 195.618 74.736C195.372 74.768 195.127 74.816 194.882 74.88C194.636 74.9333 194.391 75.0027 194.146 75.088C193.911 75.1733 193.698 75.264 193.506 75.36L193.106 74.128ZM198.114 78.192C198.028 78.1813 197.938 78.1653 197.842 78.144C197.746 78.1227 197.623 78.1067 197.474 78.096C197.335 78.0853 197.164 78.0747 196.962 78.064C196.77 78.0533 196.53 78.048 196.242 78.048C195.58 78.048 195.052 78.1653 194.658 78.4C194.274 78.6347 194.082 79.0347 194.082 79.6C194.082 80.0267 194.231 80.3467 194.53 80.56C194.839 80.7733 195.234 80.88 195.714 80.88C196.066 80.88 196.375 80.8373 196.642 80.752C196.919 80.656 197.154 80.544 197.346 80.416C197.548 80.2773 197.708 80.128 197.826 79.968C197.954 79.7973 198.05 79.632 198.114 79.472V78.192ZM201.81 73.6H203.234V71.904L204.706 71.52V73.6H207.234V74.848H204.706V79.136C204.706 79.808 204.792 80.2827 204.962 80.56C205.133 80.8373 205.426 80.976 205.842 80.976C206.109 80.976 206.349 80.9493 206.562 80.896C206.786 80.832 207.037 80.752 207.314 80.656L207.65 81.696C207.309 81.8453 206.941 81.968 206.546 82.064C206.162 82.1707 205.746 82.224 205.298 82.224C204.552 82.224 204.018 82.0213 203.698 81.616C203.389 81.2107 203.234 80.5493 203.234 79.632V74.848H201.81V73.6ZM210.055 73.6H211.527V82H210.055V73.6ZM209.751 71.6C209.751 71.3547 209.847 71.136 210.039 70.944C210.231 70.7413 210.481 70.64 210.791 70.64C211.1 70.64 211.356 70.7413 211.559 70.944C211.761 71.136 211.863 71.3547 211.863 71.6C211.863 71.8453 211.761 72.064 211.559 72.256C211.356 72.4373 211.1 72.528 210.791 72.528C210.481 72.528 210.231 72.4373 210.039 72.256C209.847 72.064 209.751 71.8453 209.751 71.6ZM214.589 77.808C214.589 77.1147 214.679 76.496 214.861 75.952C215.042 75.3973 215.309 74.928 215.661 74.544C216.013 74.16 216.439 73.8667 216.941 73.664C217.453 73.4613 218.034 73.36 218.685 73.36C219.367 73.36 219.965 73.472 220.477 73.696C220.989 73.92 221.415 74.2347 221.757 74.64C222.098 75.0347 222.349 75.504 222.509 76.048C222.679 76.5813 222.765 77.168 222.765 77.808C222.765 78.4907 222.669 79.104 222.477 79.648C222.295 80.192 222.029 80.656 221.677 81.04C221.335 81.424 220.909 81.7173 220.397 81.92C219.895 82.1227 219.325 82.224 218.685 82.224C217.981 82.224 217.373 82.112 216.861 81.888C216.349 81.664 215.922 81.3547 215.581 80.96C215.25 80.5653 214.999 80.1013 214.829 79.568C214.669 79.024 214.589 78.4373 214.589 77.808ZM216.157 77.808C216.157 78.2027 216.199 78.592 216.285 78.976C216.381 79.3493 216.53 79.6853 216.733 79.984C216.935 80.2827 217.197 80.5227 217.517 80.704C217.837 80.8853 218.231 80.976 218.701 80.976C220.365 80.976 221.197 79.92 221.197 77.808C221.197 77.392 221.149 76.992 221.053 76.608C220.967 76.224 220.823 75.888 220.621 75.6C220.429 75.3013 220.173 75.0613 219.853 74.88C219.533 74.6987 219.149 74.608 218.701 74.608C217.869 74.608 217.234 74.8747 216.797 75.408C216.37 75.9307 216.157 76.7307 216.157 77.808ZM231.419 82V77.36C231.419 76.464 231.275 75.792 230.987 75.344C230.699 74.896 230.187 74.672 229.451 74.672C228.8 74.672 228.256 74.8427 227.819 75.184C227.392 75.5147 227.093 75.9413 226.923 76.464V82H225.451V73.6H226.475L226.763 74.72H226.907C227.216 74.336 227.616 74.016 228.107 73.76C228.608 73.4933 229.205 73.36 229.899 73.36C230.389 73.36 230.821 73.4187 231.195 73.536C231.568 73.6427 231.877 73.84 232.123 74.128C232.379 74.4053 232.571 74.784 232.699 75.264C232.827 75.7333 232.891 76.3307 232.891 77.056V82H231.419ZM241.973 71.856H240.693V70.8H244.853V71.856H243.573V80.944H244.853V82H240.693V80.944H241.973V71.856ZM253.66 82V77.36C253.66 76.464 253.516 75.792 253.228 75.344C252.94 74.896 252.428 74.672 251.692 74.672C251.041 74.672 250.497 74.8427 250.06 75.184C249.633 75.5147 249.334 75.9413 249.164 76.464V82H247.692V73.6H248.716L249.004 74.72H249.148C249.457 74.336 249.857 74.016 250.348 73.76C250.849 73.4933 251.446 73.36 252.14 73.36C252.63 73.36 253.062 73.4187 253.436 73.536C253.809 73.6427 254.118 73.84 254.364 74.128C254.62 74.4053 254.812 74.784 254.94 75.264C255.068 75.7333 255.132 76.3307 255.132 77.056V82H253.66ZM257.238 73.6H258.662V71.904L260.134 71.52V73.6H262.662V74.848H260.134V79.136C260.134 79.808 260.219 80.2827 260.39 80.56C260.56 80.8373 260.854 80.976 261.27 80.976C261.536 80.976 261.776 80.9493 261.99 80.896C262.214 80.832 262.464 80.752 262.742 80.656L263.078 81.696C262.736 81.8453 262.368 81.968 261.974 82.064C261.59 82.1707 261.174 82.224 260.726 82.224C259.979 82.224 259.446 82.0213 259.126 81.616C258.816 81.2107 258.662 80.5493 258.662 79.632V74.848H257.238V73.6ZM271.726 81.312C271.353 81.5893 270.889 81.8133 270.334 81.984C269.78 82.144 269.177 82.224 268.526 82.224C267.822 82.224 267.209 82.1227 266.686 81.92C266.174 81.7067 265.753 81.408 265.422 81.024C265.092 80.64 264.846 80.176 264.686 79.632C264.526 79.088 264.446 78.48 264.446 77.808C264.446 76.368 264.798 75.2693 265.502 74.512C266.217 73.744 267.23 73.36 268.542 73.36C268.958 73.36 269.374 73.408 269.79 73.504C270.206 73.5893 270.58 73.76 270.91 74.016C271.241 74.2613 271.508 74.6027 271.71 75.04C271.924 75.4773 272.03 76.048 272.03 76.752C272.03 76.9227 272.025 77.12 272.014 77.344C272.004 77.568 271.982 77.7867 271.95 78H265.95C265.972 78.9813 266.206 79.7227 266.654 80.224C267.102 80.7253 267.865 80.976 268.942 80.976C269.39 80.976 269.817 80.9013 270.222 80.752C270.628 80.592 270.942 80.4053 271.166 80.192L271.726 81.312ZM270.622 76.944C270.644 76.0907 270.468 75.488 270.094 75.136C269.732 74.784 269.22 74.608 268.558 74.608C267.812 74.608 267.22 74.784 266.782 75.136C266.345 75.488 266.089 76.0907 266.014 76.944H270.622ZM279.161 74.992C278.979 74.9387 278.803 74.8907 278.633 74.848C278.462 74.8053 278.302 74.784 278.153 74.784C277.587 74.784 277.145 74.928 276.825 75.216C276.515 75.504 276.323 75.8667 276.249 76.304V82H274.777V73.6H275.801L276.089 74.72H276.233C276.478 74.304 276.761 73.984 277.081 73.76C277.411 73.5253 277.822 73.408 278.313 73.408C278.462 73.408 278.638 73.424 278.841 73.456C279.043 73.4773 279.246 73.52 279.449 73.584L279.161 74.992ZM288.375 79.104C288.375 79.648 288.38 80.16 288.391 80.64C288.412 81.1093 288.466 81.5733 288.551 82.032H287.575L287.207 80.752H287.047C286.802 81.1787 286.439 81.5307 285.959 81.808C285.49 82.0853 284.94 82.224 284.311 82.224C283.106 82.224 282.204 81.8667 281.607 81.152C281.02 80.4373 280.727 79.3387 280.727 77.856C280.727 76.4267 281.09 75.3333 281.815 74.576C282.551 73.808 283.58 73.424 284.903 73.424C285.127 73.424 285.324 73.4347 285.495 73.456C285.676 73.4667 285.842 73.4827 285.991 73.504C286.151 73.5253 286.3 73.5573 286.439 73.6C286.588 73.6427 286.743 73.6853 286.903 73.728V70.8H288.375V79.104ZM286.903 75.152C286.658 74.9707 286.391 74.848 286.103 74.784C285.826 74.7093 285.452 74.672 284.983 74.672C284.119 74.672 283.447 74.9227 282.967 75.424C282.498 75.9253 282.263 76.7413 282.263 77.872C282.263 78.32 282.306 78.736 282.391 79.12C282.476 79.4933 282.61 79.8187 282.791 80.096C282.972 80.3733 283.212 80.592 283.511 80.752C283.81 80.9013 284.178 80.976 284.615 80.976C285.266 80.976 285.772 80.816 286.135 80.496C286.498 80.1653 286.754 79.68 286.903 79.04V75.152ZM291.973 73.6H293.445V82H291.973V73.6ZM291.669 71.6C291.669 71.3547 291.765 71.136 291.957 70.944C292.149 70.7413 292.4 70.64 292.709 70.64C293.019 70.64 293.275 70.7413 293.477 70.944C293.68 71.136 293.781 71.3547 293.781 71.6C293.781 71.8453 293.68 72.064 293.477 72.256C293.275 72.4373 293.019 72.528 292.709 72.528C292.4 72.528 292.149 72.4373 291.957 72.256C291.765 72.064 291.669 71.8453 291.669 71.6ZM301.196 79.648C301.196 79.4347 301.142 79.2587 301.036 79.12C300.94 78.9707 300.806 78.848 300.636 78.752C300.465 78.6453 300.268 78.5547 300.044 78.48C299.82 78.4053 299.585 78.3307 299.34 78.256C299.03 78.1707 298.716 78.08 298.396 77.984C298.086 77.8773 297.804 77.7387 297.548 77.568C297.302 77.3867 297.1 77.1573 296.94 76.88C296.78 76.6027 296.7 76.2507 296.7 75.824C296.7 74.992 296.945 74.3733 297.436 73.968C297.937 73.5627 298.636 73.36 299.532 73.36C300.204 73.36 300.769 73.424 301.228 73.552C301.686 73.68 302.086 73.8187 302.428 73.968L302.076 75.216C301.788 75.0773 301.441 74.944 301.036 74.816C300.641 74.6773 300.204 74.608 299.724 74.608C299.201 74.608 298.812 74.6933 298.556 74.864C298.3 75.0347 298.172 75.344 298.172 75.792C298.172 75.9733 298.22 76.128 298.316 76.256C298.412 76.3733 298.54 76.48 298.7 76.576C298.86 76.6613 299.046 76.7413 299.26 76.816C299.473 76.88 299.697 76.944 299.932 77.008C300.252 77.0933 300.572 77.1947 300.892 77.312C301.212 77.4187 301.505 77.568 301.772 77.76C302.038 77.9413 302.252 78.176 302.412 78.464C302.582 78.752 302.668 79.1147 302.668 79.552C302.668 80.3413 302.401 80.9867 301.868 81.488C301.334 81.9787 300.534 82.224 299.468 82.224C298.785 82.224 298.188 82.1547 297.676 82.016C297.174 81.8773 296.753 81.7173 296.412 81.536L296.828 80.256C297.126 80.416 297.51 80.576 297.98 80.736C298.449 80.896 298.924 80.976 299.404 80.976C299.926 80.976 300.353 80.8853 300.684 80.704C301.025 80.512 301.196 80.16 301.196 79.648ZM311.596 81.424C311.223 81.6907 310.785 81.888 310.284 82.016C309.783 82.1547 309.255 82.224 308.7 82.224C307.996 82.224 307.393 82.1173 306.892 81.904C306.401 81.6907 306.001 81.392 305.692 81.008C305.383 80.624 305.159 80.16 305.02 79.616C304.881 79.072 304.812 78.4693 304.812 77.808C304.812 76.3893 305.153 75.296 305.836 74.528C306.529 73.7493 307.521 73.36 308.812 73.36C309.377 73.36 309.868 73.4133 310.284 73.52C310.7 73.616 311.073 73.7387 311.404 73.888L311.02 75.088C310.732 74.9387 310.417 74.8213 310.076 74.736C309.745 74.6507 309.383 74.608 308.988 74.608C307.249 74.608 306.38 75.6747 306.38 77.808C306.38 78.2133 306.428 78.608 306.524 78.992C306.62 79.3653 306.775 79.7013 306.988 80C307.201 80.288 307.479 80.5227 307.82 80.704C308.172 80.8853 308.599 80.976 309.1 80.976C309.548 80.976 309.937 80.9173 310.268 80.8C310.609 80.672 310.892 80.5227 311.116 80.352L311.596 81.424ZM314.465 73.6H315.937V82H314.465V73.6ZM314.161 71.6C314.161 71.3547 314.257 71.136 314.449 70.944C314.641 70.7413 314.891 70.64 315.201 70.64C315.51 70.64 315.766 70.7413 315.969 70.944C316.171 71.136 316.273 71.3547 316.273 71.6C316.273 71.8453 316.171 72.064 315.969 72.256C315.766 72.4373 315.51 72.528 315.201 72.528C314.891 72.528 314.641 72.4373 314.449 72.256C314.257 72.064 314.161 71.8453 314.161 71.6ZM319.447 73.6H320.439L320.727 74.672H320.871C321.159 74.256 321.532 73.936 321.991 73.712C322.449 73.4773 322.967 73.36 323.543 73.36C324.759 73.36 325.665 73.7013 326.263 74.384C326.86 75.056 327.159 76.1333 327.159 77.616C327.159 78.32 327.057 78.96 326.855 79.536C326.663 80.1013 326.38 80.5867 326.007 80.992C325.644 81.3867 325.196 81.6907 324.663 81.904C324.14 82.1173 323.553 82.224 322.903 82.224C322.689 82.224 322.492 82.2133 322.311 82.192C322.14 82.1813 321.98 82.1547 321.831 82.112C321.681 82.08 321.532 82.0427 321.383 82C321.233 81.9467 321.079 81.888 320.919 81.824V85.2H319.447V73.6ZM323.207 74.608C322.567 74.608 322.065 74.768 321.703 75.088C321.34 75.408 321.079 75.8987 320.919 76.56V80.432C321.164 80.6027 321.431 80.736 321.719 80.832C322.007 80.928 322.375 80.976 322.823 80.976C323.687 80.976 324.364 80.6933 324.855 80.128C325.345 79.5627 325.591 78.72 325.591 77.6C325.591 76.6933 325.409 75.968 325.047 75.424C324.684 74.88 324.071 74.608 323.207 74.608ZM331.509 79.776C331.509 80.2133 331.589 80.5227 331.749 80.704C331.92 80.8853 332.144 80.976 332.421 80.976C332.592 80.976 332.757 80.9653 332.917 80.944C333.077 80.9227 333.269 80.88 333.493 80.816L333.685 81.904C333.578 81.9467 333.45 81.984 333.301 82.016C333.152 82.0587 332.997 82.096 332.837 82.128C332.677 82.16 332.517 82.1813 332.357 82.192C332.197 82.2133 332.053 82.224 331.925 82.224C331.349 82.224 330.89 82.08 330.549 81.792C330.208 81.4933 330.037 81.0027 330.037 80.32V70.8H331.509V79.776ZM335.956 73.6H337.428V82H335.956V73.6ZM335.652 71.6C335.652 71.3547 335.748 71.136 335.94 70.944C336.132 70.7413 336.383 70.64 336.692 70.64C337.001 70.64 337.257 70.7413 337.46 70.944C337.663 71.136 337.764 71.3547 337.764 71.6C337.764 71.8453 337.663 72.064 337.46 72.256C337.257 72.4373 337.001 72.528 336.692 72.528C336.383 72.528 336.132 72.4373 335.94 72.256C335.748 72.064 335.652 71.8453 335.652 71.6ZM346.906 82V77.36C346.906 76.464 346.762 75.792 346.474 75.344C346.186 74.896 345.674 74.672 344.938 74.672C344.287 74.672 343.743 74.8427 343.306 75.184C342.879 75.5147 342.581 75.9413 342.41 76.464V82H340.938V73.6H341.962L342.25 74.72H342.394C342.703 74.336 343.103 74.016 343.594 73.76C344.095 73.4933 344.693 73.36 345.386 73.36C345.877 73.36 346.309 73.4187 346.682 73.536C347.055 73.6427 347.365 73.84 347.61 74.128C347.866 74.4053 348.058 74.784 348.186 75.264C348.314 75.7333 348.378 76.3307 348.378 77.056V82H346.906ZM351.412 74.128C352.372 73.6693 353.561 73.44 354.98 73.44C355.62 73.44 356.132 73.5253 356.516 73.696C356.911 73.856 357.215 74.064 357.428 74.32C357.641 74.576 357.78 74.864 357.844 75.184C357.919 75.4933 357.956 75.8027 357.956 76.112C357.956 76.6987 357.935 77.2907 357.892 77.888C357.849 78.4747 357.828 79.1147 357.828 79.808C357.828 80.2133 357.844 80.608 357.876 80.992C357.919 81.3653 357.983 81.712 358.068 82.032H356.996L356.596 80.752H356.436C356.319 80.912 356.175 81.0773 356.004 81.248C355.833 81.408 355.631 81.552 355.396 81.68C355.161 81.808 354.889 81.9147 354.58 82C354.281 82.0853 353.935 82.128 353.54 82.128C353.145 82.128 352.783 82.0747 352.452 81.968C352.121 81.8507 351.833 81.6907 351.588 81.488C351.353 81.2853 351.167 81.04 351.028 80.752C350.889 80.4533 350.82 80.1227 350.82 79.76C350.82 79.28 350.921 78.864 351.124 78.512C351.337 78.16 351.609 77.872 351.94 77.648C352.271 77.424 352.644 77.2587 353.06 77.152C353.487 77.0453 353.908 76.992 354.324 76.992C354.655 76.992 354.932 76.9973 355.156 77.008C355.391 77.0187 355.583 77.0347 355.732 77.056C355.892 77.0667 356.025 77.0827 356.132 77.104C356.239 77.1147 356.335 77.1253 356.42 77.136C356.441 76.976 356.457 76.8373 356.468 76.72C356.479 76.6027 356.484 76.4533 356.484 76.272C356.484 75.9733 356.452 75.7227 356.388 75.52C356.324 75.3173 356.217 75.1573 356.068 75.04C355.929 74.912 355.737 74.8213 355.492 74.768C355.247 74.7147 354.948 74.688 354.596 74.688C354.393 74.688 354.169 74.704 353.924 74.736C353.679 74.768 353.433 74.816 353.188 74.88C352.943 74.9333 352.697 75.0027 352.452 75.088C352.217 75.1733 352.004 75.264 351.812 75.36L351.412 74.128ZM356.42 78.192C356.335 78.1813 356.244 78.1653 356.148 78.144C356.052 78.1227 355.929 78.1067 355.78 78.096C355.641 78.0853 355.471 78.0747 355.268 78.064C355.076 78.0533 354.836 78.048 354.548 78.048C353.887 78.048 353.359 78.1653 352.964 78.4C352.58 78.6347 352.388 79.0347 352.388 79.6C352.388 80.0267 352.537 80.3467 352.836 80.56C353.145 80.7733 353.54 80.88 354.02 80.88C354.372 80.88 354.681 80.8373 354.948 80.752C355.225 80.656 355.46 80.544 355.652 80.416C355.855 80.2773 356.015 80.128 356.132 79.968C356.26 79.7973 356.356 79.632 356.42 79.472V78.192ZM365.524 74.992C365.343 74.9387 365.167 74.8907 364.996 74.848C364.826 74.8053 364.666 74.784 364.516 74.784C363.951 74.784 363.508 74.928 363.188 75.216C362.879 75.504 362.687 75.8667 362.612 76.304V82H361.14V73.6H362.164L362.452 74.72H362.596C362.842 74.304 363.124 73.984 363.444 73.76C363.775 73.5253 364.186 73.408 364.676 73.408C364.826 73.408 365.002 73.424 365.204 73.456C365.407 73.4773 365.61 73.52 365.812 73.584L365.524 74.992ZM370.147 78.912L370.643 80.528H370.851L371.251 78.896L372.995 73.6H374.499L371.747 81.2C371.544 81.7227 371.336 82.2293 371.123 82.72C370.92 83.2107 370.691 83.6427 370.435 84.016C370.189 84.4 369.912 84.704 369.603 84.928C369.304 85.1627 368.957 85.28 368.563 85.28C368.136 85.28 367.773 85.232 367.475 85.136L367.715 83.888C367.875 83.9413 368.035 83.968 368.195 83.968C368.408 83.968 368.6 83.9413 368.771 83.888C368.952 83.8347 369.117 83.7387 369.267 83.6C369.416 83.4613 369.549 83.264 369.667 83.008C369.795 82.7627 369.912 82.4427 370.019 82.048L366.259 73.6H368.003L370.147 78.912ZM381.733 71.856H380.453V70.8H384.613V71.856H383.333V80.944H384.613V82H380.453V80.944H381.733V71.856ZM393.42 82V77.36C393.42 76.464 393.276 75.792 392.988 75.344C392.7 74.896 392.188 74.672 391.452 74.672C390.801 74.672 390.257 74.8427 389.82 75.184C389.393 75.5147 389.094 75.9413 388.924 76.464V82H387.452V73.6H388.476L388.764 74.72H388.908C389.217 74.336 389.617 74.016 390.108 73.76C390.609 73.4933 391.206 73.36 391.9 73.36C392.39 73.36 392.822 73.4187 393.196 73.536C393.569 73.6427 393.878 73.84 394.124 74.128C394.38 74.4053 394.572 74.784 394.7 75.264C394.828 75.7333 394.892 76.3307 394.892 77.056V82H393.42ZM403.99 82V77.36C403.99 76.464 403.846 75.792 403.558 75.344C403.27 74.896 402.758 74.672 402.022 74.672C401.371 74.672 400.827 74.8427 400.39 75.184C399.963 75.5147 399.664 75.9413 399.494 76.464V82H398.022V73.6H399.046L399.334 74.72H399.478C399.787 74.336 400.187 74.016 400.678 73.76C401.179 73.4933 401.776 73.36 402.47 73.36C402.96 73.36 403.392 73.4187 403.766 73.536C404.139 73.6427 404.448 73.84 404.694 74.128C404.95 74.4053 405.142 74.784 405.27 75.264C405.398 75.7333 405.462 76.3307 405.462 77.056V82H403.99ZM408.144 77.808C408.144 77.1147 408.234 76.496 408.416 75.952C408.597 75.3973 408.864 74.928 409.216 74.544C409.568 74.16 409.994 73.8667 410.496 73.664C411.008 73.4613 411.589 73.36 412.24 73.36C412.922 73.36 413.52 73.472 414.032 73.696C414.544 73.92 414.97 74.2347 415.312 74.64C415.653 75.0347 415.904 75.504 416.064 76.048C416.234 76.5813 416.32 77.168 416.32 77.808C416.32 78.4907 416.224 79.104 416.032 79.648C415.85 80.192 415.584 80.656 415.232 81.04C414.89 81.424 414.464 81.7173 413.952 81.92C413.45 82.1227 412.88 82.224 412.24 82.224C411.536 82.224 410.928 82.112 410.416 81.888C409.904 81.664 409.477 81.3547 409.136 80.96C408.805 80.5653 408.554 80.1013 408.384 79.568C408.224 79.024 408.144 78.4373 408.144 77.808ZM409.712 77.808C409.712 78.2027 409.754 78.592 409.84 78.976C409.936 79.3493 410.085 79.6853 410.288 79.984C410.49 80.2827 410.752 80.5227 411.072 80.704C411.392 80.8853 411.786 80.976 412.256 80.976C413.92 80.976 414.752 79.92 414.752 77.808C414.752 77.392 414.704 76.992 414.608 76.608C414.522 76.224 414.378 75.888 414.176 75.6C413.984 75.3013 413.728 75.0613 413.408 74.88C413.088 74.6987 412.704 74.608 412.256 74.608C411.424 74.608 410.789 74.8747 410.352 75.408C409.925 75.9307 409.712 76.7307 409.712 77.808ZM421.282 78.432L421.842 80.16L422.37 78.4L424.37 73.6H425.97L422.05 82.176H421.41L417.41 73.6H419.138L421.282 78.432ZM427.605 74.128C428.565 73.6693 429.754 73.44 431.173 73.44C431.813 73.44 432.325 73.5253 432.709 73.696C433.103 73.856 433.407 74.064 433.621 74.32C433.834 74.576 433.973 74.864 434.037 75.184C434.111 75.4933 434.149 75.8027 434.149 76.112C434.149 76.6987 434.127 77.2907 434.085 77.888C434.042 78.4747 434.021 79.1147 434.021 79.808C434.021 80.2133 434.037 80.608 434.069 80.992C434.111 81.3653 434.175 81.712 434.261 82.032H433.189L432.789 80.752H432.629C432.511 80.912 432.367 81.0773 432.197 81.248C432.026 81.408 431.823 81.552 431.589 81.68C431.354 81.808 431.082 81.9147 430.773 82C430.474 82.0853 430.127 82.128 429.733 82.128C429.338 82.128 428.975 82.0747 428.645 81.968C428.314 81.8507 428.026 81.6907 427.781 81.488C427.546 81.2853 427.359 81.04 427.221 80.752C427.082 80.4533 427.013 80.1227 427.013 79.76C427.013 79.28 427.114 78.864 427.317 78.512C427.53 78.16 427.802 77.872 428.133 77.648C428.463 77.424 428.837 77.2587 429.253 77.152C429.679 77.0453 430.101 76.992 430.517 76.992C430.847 76.992 431.125 76.9973 431.349 77.008C431.583 77.0187 431.775 77.0347 431.925 77.056C432.085 77.0667 432.218 77.0827 432.325 77.104C432.431 77.1147 432.527 77.1253 432.613 77.136C432.634 76.976 432.65 76.8373 432.661 76.72C432.671 76.6027 432.677 76.4533 432.677 76.272C432.677 75.9733 432.645 75.7227 432.581 75.52C432.517 75.3173 432.41 75.1573 432.261 75.04C432.122 74.912 431.93 74.8213 431.685 74.768C431.439 74.7147 431.141 74.688 430.789 74.688C430.586 74.688 430.362 74.704 430.117 74.736C429.871 74.768 429.626 74.816 429.381 74.88C429.135 74.9333 428.89 75.0027 428.645 75.088C428.41 75.1733 428.197 75.264 428.005 75.36L427.605 74.128ZM432.613 78.192C432.527 78.1813 432.437 78.1653 432.341 78.144C432.245 78.1227 432.122 78.1067 431.973 78.096C431.834 78.0853 431.663 78.0747 431.461 78.064C431.269 78.0533 431.029 78.048 430.741 78.048C430.079 78.048 429.551 78.1653 429.157 78.4C428.773 78.6347 428.581 79.0347 428.581 79.6C428.581 80.0267 428.73 80.3467 429.029 80.56C429.338 80.7733 429.733 80.88 430.213 80.88C430.565 80.88 430.874 80.8373 431.141 80.752C431.418 80.656 431.653 80.544 431.845 80.416C432.047 80.2773 432.207 80.128 432.325 79.968C432.453 79.7973 432.549 79.632 432.613 79.472V78.192ZM436.309 73.6H437.733V71.904L439.205 71.52V73.6H441.733V74.848H439.205V79.136C439.205 79.808 439.29 80.2827 439.461 80.56C439.632 80.8373 439.925 80.976 440.341 80.976C440.608 80.976 440.848 80.9493 441.061 80.896C441.285 80.832 441.536 80.752 441.813 80.656L442.149 81.696C441.808 81.8453 441.44 81.968 441.045 82.064C440.661 82.1707 440.245 82.224 439.797 82.224C439.05 82.224 438.517 82.0213 438.197 81.616C437.888 81.2107 437.733 80.5493 437.733 79.632V74.848H436.309V73.6ZM444.553 73.6H446.025V82H444.553V73.6ZM444.249 71.6C444.249 71.3547 444.345 71.136 444.537 70.944C444.729 70.7413 444.98 70.64 445.289 70.64C445.599 70.64 445.855 70.7413 446.057 70.944C446.26 71.136 446.361 71.3547 446.361 71.6C446.361 71.8453 446.26 72.064 446.057 72.256C445.855 72.4373 445.599 72.528 445.289 72.528C444.98 72.528 444.729 72.4373 444.537 72.256C444.345 72.064 444.249 71.8453 444.249 71.6ZM449.088 77.808C449.088 77.1147 449.178 76.496 449.36 75.952C449.541 75.3973 449.808 74.928 450.16 74.544C450.512 74.16 450.938 73.8667 451.44 73.664C451.952 73.4613 452.533 73.36 453.184 73.36C453.866 73.36 454.464 73.472 454.976 73.696C455.488 73.92 455.914 74.2347 456.256 74.64C456.597 75.0347 456.848 75.504 457.008 76.048C457.178 76.5813 457.264 77.168 457.264 77.808C457.264 78.4907 457.168 79.104 456.976 79.648C456.794 80.192 456.528 80.656 456.176 81.04C455.834 81.424 455.408 81.7173 454.896 81.92C454.394 82.1227 453.824 82.224 453.184 82.224C452.48 82.224 451.872 82.112 451.36 81.888C450.848 81.664 450.421 81.3547 450.08 80.96C449.749 80.5653 449.498 80.1013 449.328 79.568C449.168 79.024 449.088 78.4373 449.088 77.808ZM450.656 77.808C450.656 78.2027 450.698 78.592 450.784 78.976C450.88 79.3493 451.029 79.6853 451.232 79.984C451.434 80.2827 451.696 80.5227 452.016 80.704C452.336 80.8853 452.73 80.976 453.2 80.976C454.864 80.976 455.696 79.92 455.696 77.808C455.696 77.392 455.648 76.992 455.552 76.608C455.466 76.224 455.322 75.888 455.12 75.6C454.928 75.3013 454.672 75.0613 454.352 74.88C454.032 74.6987 453.648 74.608 453.2 74.608C452.368 74.608 451.733 74.8747 451.296 75.408C450.869 75.9307 450.656 76.7307 450.656 77.808ZM465.917 82V77.36C465.917 76.464 465.773 75.792 465.485 75.344C465.197 74.896 464.685 74.672 463.949 74.672C463.299 74.672 462.755 74.8427 462.317 75.184C461.891 75.5147 461.592 75.9413 461.421 76.464V82H459.949V73.6H460.973L461.261 74.72H461.405C461.715 74.336 462.115 74.016 462.605 73.76C463.107 73.4933 463.704 73.36 464.397 73.36C464.888 73.36 465.32 73.4187 465.693 73.536C466.067 73.6427 466.376 73.84 466.621 74.128C466.877 74.4053 467.069 74.784 467.197 75.264C467.325 75.7333 467.389 76.3307 467.389 77.056V82H465.917ZM471.111 78.976C471.111 78.5493 471.191 78.1493 471.351 77.776C471.511 77.392 471.725 77.0347 471.991 76.704C472.269 76.3627 472.583 76.0533 472.935 75.776C473.298 75.4987 473.677 75.2533 474.071 75.04C473.794 74.6667 473.554 74.2933 473.351 73.92C473.159 73.536 473.063 73.1253 473.063 72.688C473.063 72.432 473.111 72.1813 473.207 71.936C473.303 71.68 473.453 71.456 473.655 71.264C473.869 71.0613 474.141 70.9013 474.471 70.784C474.802 70.656 475.202 70.592 475.671 70.592C476.162 70.592 476.573 70.6507 476.903 70.768C477.245 70.8853 477.517 71.04 477.719 71.232C477.922 71.4133 478.066 71.6213 478.151 71.856C478.237 72.0907 478.279 72.3253 478.279 72.56C478.279 72.9973 478.093 73.456 477.719 73.936C477.357 74.416 476.765 74.864 475.943 75.28C476.349 75.8987 476.823 76.5173 477.367 77.136C477.911 77.7547 478.466 78.3307 479.031 78.864C479.159 78.736 479.287 78.576 479.415 78.384C479.554 78.192 479.682 77.984 479.799 77.76C479.917 77.536 480.029 77.312 480.135 77.088C480.242 76.8533 480.333 76.6293 480.407 76.416L481.559 77.008C481.495 77.1893 481.399 77.4027 481.271 77.648C481.143 77.8933 480.999 78.144 480.839 78.4C480.69 78.6453 480.535 78.8853 480.375 79.12C480.215 79.344 480.066 79.536 479.927 79.696C480.162 79.8987 480.37 80.0747 480.551 80.224C480.743 80.3627 480.919 80.4853 481.079 80.592C481.25 80.6987 481.41 80.7947 481.559 80.88C481.709 80.9653 481.863 81.0453 482.023 81.12L481.127 82.208C480.829 82.0587 480.498 81.8613 480.135 81.616C479.783 81.3707 479.421 81.0773 479.047 80.736C478.834 80.928 478.599 81.1147 478.343 81.296C478.098 81.4667 477.815 81.6213 477.495 81.76C477.186 81.888 476.839 81.9947 476.455 82.08C476.071 82.1653 475.65 82.208 475.191 82.208C474.637 82.208 474.114 82.1387 473.623 82C473.133 81.8507 472.701 81.6373 472.327 81.36C471.954 81.0827 471.655 80.7467 471.431 80.352C471.218 79.9467 471.111 79.488 471.111 78.976ZM478.119 79.824C477.799 79.5253 477.474 79.2 477.143 78.848C476.823 78.496 476.519 78.1493 476.231 77.808C475.943 77.456 475.671 77.12 475.415 76.8C475.17 76.48 474.957 76.1973 474.775 75.952C474.146 76.3787 473.629 76.8267 473.223 77.296C472.829 77.7547 472.631 78.2933 472.631 78.912C472.631 79.2213 472.706 79.504 472.855 79.76C473.005 80.0053 473.202 80.2187 473.447 80.4C473.703 80.5707 473.997 80.704 474.327 80.8C474.669 80.8853 475.026 80.928 475.399 80.928C475.677 80.928 475.949 80.896 476.215 80.832C476.493 80.768 476.749 80.688 476.983 80.592C477.229 80.4853 477.447 80.368 477.639 80.24C477.831 80.1013 477.991 79.9627 478.119 79.824ZM474.583 72.72C474.583 73.0187 474.647 73.3173 474.775 73.616C474.914 73.904 475.095 74.2027 475.319 74.512C475.917 74.1707 476.333 73.8613 476.567 73.584C476.813 73.3067 476.935 73.0613 476.935 72.848C476.935 72.5067 476.845 72.24 476.663 72.048C476.493 71.8453 476.183 71.744 475.735 71.744C475.33 71.744 475.037 71.8347 474.855 72.016C474.674 72.1867 474.583 72.4213 474.583 72.72ZM490.082 70.8H496.85V72.176H491.682V75.584H496.402V76.96H491.682V80.624H496.93V82H490.082V70.8ZM505.713 82V77.36C505.713 76.464 505.569 75.792 505.281 75.344C504.993 74.896 504.481 74.672 503.745 74.672C503.094 74.672 502.55 74.8427 502.113 75.184C501.686 75.5147 501.388 75.9413 501.217 76.464V82H499.745V73.6H500.769L501.057 74.72H501.201C501.51 74.336 501.91 74.016 502.401 73.76C502.902 73.4933 503.5 73.36 504.193 73.36C504.684 73.36 505.116 73.4187 505.489 73.536C505.862 73.6427 506.172 73.84 506.417 74.128C506.673 74.4053 506.865 74.784 506.993 75.264C507.121 75.7333 507.185 76.3307 507.185 77.056V82H505.713ZM509.291 73.6H510.715V71.904L512.187 71.52V73.6H514.715V74.848H512.187V79.136C512.187 79.808 512.272 80.2827 512.443 80.56C512.614 80.8373 512.907 80.976 513.323 80.976C513.59 80.976 513.83 80.9493 514.043 80.896C514.267 80.832 514.518 80.752 514.795 80.656L515.131 81.696C514.79 81.8453 514.422 81.968 514.027 82.064C513.643 82.1707 513.227 82.224 512.779 82.224C512.032 82.224 511.499 82.0213 511.179 81.616C510.87 81.2107 510.715 80.5493 510.715 79.632V74.848H509.291V73.6ZM521.503 74.992C521.322 74.9387 521.146 74.8907 520.975 74.848C520.805 74.8053 520.645 74.784 520.495 74.784C519.93 74.784 519.487 74.928 519.167 75.216C518.858 75.504 518.666 75.8667 518.591 76.304V82H517.119V73.6H518.143L518.431 74.72H518.575C518.821 74.304 519.103 73.984 519.423 73.76C519.754 73.5253 520.165 73.408 520.655 73.408C520.805 73.408 520.981 73.424 521.183 73.456C521.386 73.4773 521.589 73.52 521.791 73.584L521.503 74.992ZM530.349 81.312C529.976 81.5893 529.512 81.8133 528.957 81.984C528.403 82.144 527.8 82.224 527.149 82.224C526.445 82.224 525.832 82.1227 525.309 81.92C524.797 81.7067 524.376 81.408 524.045 81.024C523.715 80.64 523.469 80.176 523.309 79.632C523.149 79.088 523.069 78.48 523.069 77.808C523.069 76.368 523.421 75.2693 524.125 74.512C524.84 73.744 525.853 73.36 527.165 73.36C527.581 73.36 527.997 73.408 528.413 73.504C528.829 73.5893 529.203 73.76 529.533 74.016C529.864 74.2613 530.131 74.6027 530.333 75.04C530.547 75.4773 530.653 76.048 530.653 76.752C530.653 76.9227 530.648 77.12 530.637 77.344C530.627 77.568 530.605 77.7867 530.573 78H524.573C524.595 78.9813 524.829 79.7227 525.277 80.224C525.725 80.7253 526.488 80.976 527.565 80.976C528.013 80.976 528.44 80.9013 528.845 80.752C529.251 80.592 529.565 80.4053 529.789 80.192L530.349 81.312ZM529.245 76.944C529.267 76.0907 529.091 75.488 528.717 75.136C528.355 74.784 527.843 74.608 527.181 74.608C526.435 74.608 525.843 74.784 525.405 75.136C524.968 75.488 524.712 76.0907 524.637 76.944H529.245ZM533.4 73.6H534.392L534.68 74.672H534.824C535.112 74.256 535.485 73.936 535.944 73.712C536.403 73.4773 536.92 73.36 537.496 73.36C538.712 73.36 539.619 73.7013 540.216 74.384C540.813 75.056 541.112 76.1333 541.112 77.616C541.112 78.32 541.011 78.96 540.808 79.536C540.616 80.1013 540.333 80.5867 539.96 80.992C539.597 81.3867 539.149 81.6907 538.616 81.904C538.093 82.1173 537.507 82.224 536.856 82.224C536.643 82.224 536.445 82.2133 536.264 82.192C536.093 82.1813 535.933 82.1547 535.784 82.112C535.635 82.08 535.485 82.0427 535.336 82C535.187 81.9467 535.032 81.888 534.872 81.824V85.2H533.4V73.6ZM537.16 74.608C536.52 74.608 536.019 74.768 535.656 75.088C535.293 75.408 535.032 75.8987 534.872 76.56V80.432C535.117 80.6027 535.384 80.736 535.672 80.832C535.96 80.928 536.328 80.976 536.776 80.976C537.64 80.976 538.317 80.6933 538.808 80.128C539.299 79.5627 539.544 78.72 539.544 77.6C539.544 76.6933 539.363 75.968 539 75.424C538.637 74.88 538.024 74.608 537.16 74.608ZM548.182 74.992C548.001 74.9387 547.825 74.8907 547.654 74.848C547.483 74.8053 547.323 74.784 547.174 74.784C546.609 74.784 546.166 74.928 545.846 75.216C545.537 75.504 545.345 75.8667 545.27 76.304V82H543.798V73.6H544.822L545.11 74.72H545.254C545.499 74.304 545.782 73.984 546.102 73.76C546.433 73.5253 546.843 73.408 547.334 73.408C547.483 73.408 547.659 73.424 547.862 73.456C548.065 73.4773 548.267 73.52 548.47 73.584L548.182 74.992ZM557.028 81.312C556.655 81.5893 556.191 81.8133 555.636 81.984C555.081 82.144 554.479 82.224 553.828 82.224C553.124 82.224 552.511 82.1227 551.988 81.92C551.476 81.7067 551.055 81.408 550.724 81.024C550.393 80.64 550.148 80.176 549.988 79.632C549.828 79.088 549.748 78.48 549.748 77.808C549.748 76.368 550.1 75.2693 550.804 74.512C551.519 73.744 552.532 73.36 553.844 73.36C554.26 73.36 554.676 73.408 555.092 73.504C555.508 73.5893 555.881 73.76 556.212 74.016C556.543 74.2613 556.809 74.6027 557.012 75.04C557.225 75.4773 557.332 76.048 557.332 76.752C557.332 76.9227 557.327 77.12 557.316 77.344C557.305 77.568 557.284 77.7867 557.252 78H551.252C551.273 78.9813 551.508 79.7227 551.956 80.224C552.404 80.7253 553.167 80.976 554.244 80.976C554.692 80.976 555.119 80.9013 555.524 80.752C555.929 80.592 556.244 80.4053 556.468 80.192L557.028 81.312ZM555.924 76.944C555.945 76.0907 555.769 75.488 555.396 75.136C555.033 74.784 554.521 74.608 553.86 74.608C553.113 74.608 552.521 74.784 552.084 75.136C551.647 75.488 551.391 76.0907 551.316 76.944H555.924ZM566.047 82V77.36C566.047 76.464 565.903 75.792 565.615 75.344C565.327 74.896 564.815 74.672 564.079 74.672C563.428 74.672 562.884 74.8427 562.447 75.184C562.02 75.5147 561.721 75.9413 561.551 76.464V82H560.079V73.6H561.103L561.391 74.72H561.535C561.844 74.336 562.244 74.016 562.735 73.76C563.236 73.4933 563.833 73.36 564.527 73.36C565.017 73.36 565.449 73.4187 565.823 73.536C566.196 73.6427 566.505 73.84 566.751 74.128C567.007 74.4053 567.199 74.784 567.327 75.264C567.455 75.7333 567.519 76.3307 567.519 77.056V82H566.047ZM577.481 81.312C577.107 81.5893 576.643 81.8133 576.089 81.984C575.534 82.144 574.931 82.224 574.281 82.224C573.577 82.224 572.963 82.1227 572.441 81.92C571.929 81.7067 571.507 81.408 571.177 81.024C570.846 80.64 570.601 80.176 570.441 79.632C570.281 79.088 570.201 78.48 570.201 77.808C570.201 76.368 570.553 75.2693 571.257 74.512C571.971 73.744 572.985 73.36 574.297 73.36C574.713 73.36 575.129 73.408 575.545 73.504C575.961 73.5893 576.334 73.76 576.665 74.016C576.995 74.2613 577.262 74.6027 577.465 75.04C577.678 75.4773 577.785 76.048 577.785 76.752C577.785 76.9227 577.779 77.12 577.769 77.344C577.758 77.568 577.737 77.7867 577.705 78H571.705C571.726 78.9813 571.961 79.7227 572.409 80.224C572.857 80.7253 573.619 80.976 574.697 80.976C575.145 80.976 575.571 80.9013 575.977 80.752C576.382 80.592 576.697 80.4053 576.921 80.192L577.481 81.312ZM576.377 76.944C576.398 76.0907 576.222 75.488 575.849 75.136C575.486 74.784 574.974 74.608 574.313 74.608C573.566 74.608 572.974 74.784 572.537 75.136C572.099 75.488 571.843 76.0907 571.769 76.944H576.377ZM582.003 73.6V78.224C582.003 78.672 582.03 79.0667 582.083 79.408C582.136 79.7493 582.232 80.0373 582.371 80.272C582.51 80.496 582.696 80.672 582.931 80.8C583.176 80.9173 583.486 80.976 583.859 80.976C584.499 80.976 585.022 80.7947 585.427 80.432C585.832 80.0693 586.142 79.6213 586.355 79.088V73.6H587.827V79.616C587.827 80.0213 587.843 80.4373 587.875 80.864C587.907 81.28 587.955 81.6587 588.019 82H587.027L586.643 80.608H586.483C586.206 81.088 585.822 81.4773 585.331 81.776C584.84 82.0747 584.227 82.224 583.491 82.224C583 82.224 582.568 82.1653 582.195 82.048C581.832 81.9307 581.523 81.7333 581.267 81.456C581.022 81.168 580.835 80.7893 580.707 80.32C580.59 79.8507 580.531 79.264 580.531 78.56V73.6H582.003ZM595.532 74.992C595.351 74.9387 595.175 74.8907 595.004 74.848C594.833 74.8053 594.673 74.784 594.524 74.784C593.959 74.784 593.516 74.928 593.196 75.216C592.887 75.504 592.695 75.8667 592.62 76.304V82H591.148V73.6H592.172L592.46 74.72H592.604C592.849 74.304 593.132 73.984 593.452 73.76C593.783 73.5253 594.193 73.408 594.684 73.408C594.833 73.408 595.009 73.424 595.212 73.456C595.415 73.4773 595.617 73.52 595.82 73.584L595.532 74.992ZM601.786 79.648C601.786 79.4347 601.733 79.2587 601.626 79.12C601.53 78.9707 601.397 78.848 601.226 78.752C601.055 78.6453 600.858 78.5547 600.634 78.48C600.41 78.4053 600.175 78.3307 599.93 78.256C599.621 78.1707 599.306 78.08 598.986 77.984C598.677 77.8773 598.394 77.7387 598.138 77.568C597.893 77.3867 597.69 77.1573 597.53 76.88C597.37 76.6027 597.29 76.2507 597.29 75.824C597.29 74.992 597.535 74.3733 598.026 73.968C598.527 73.5627 599.226 73.36 600.122 73.36C600.794 73.36 601.359 73.424 601.818 73.552C602.277 73.68 602.677 73.8187 603.018 73.968L602.666 75.216C602.378 75.0773 602.031 74.944 601.626 74.816C601.231 74.6773 600.794 74.608 600.314 74.608C599.791 74.608 599.402 74.6933 599.146 74.864C598.89 75.0347 598.762 75.344 598.762 75.792C598.762 75.9733 598.81 76.128 598.906 76.256C599.002 76.3733 599.13 76.48 599.29 76.576C599.45 76.6613 599.637 76.7413 599.85 76.816C600.063 76.88 600.287 76.944 600.522 77.008C600.842 77.0933 601.162 77.1947 601.482 77.312C601.802 77.4187 602.095 77.568 602.362 77.76C602.629 77.9413 602.842 78.176 603.002 78.464C603.173 78.752 603.258 79.1147 603.258 79.552C603.258 80.3413 602.991 80.9867 602.458 81.488C601.925 81.9787 601.125 82.224 600.058 82.224C599.375 82.224 598.778 82.1547 598.266 82.016C597.765 81.8773 597.343 81.7173 597.002 81.536L597.418 80.256C597.717 80.416 598.101 80.576 598.57 80.736C599.039 80.896 599.514 80.976 599.994 80.976C600.517 80.976 600.943 80.8853 601.274 80.704C601.615 80.512 601.786 80.16 601.786 79.648ZM611.819 82V77.36C611.819 76.9013 611.787 76.5067 611.723 76.176C611.669 75.8347 611.563 75.552 611.403 75.328C611.253 75.104 611.045 74.9387 610.779 74.832C610.523 74.7253 610.197 74.672 609.803 74.672C609.525 74.672 609.253 74.72 608.987 74.816C608.72 74.912 608.475 75.0453 608.251 75.216C608.027 75.3867 607.835 75.5947 607.675 75.84C607.515 76.0747 607.397 76.3413 607.323 76.64V82H605.851V70.8H607.323V74.64H607.499C607.819 74.256 608.203 73.9467 608.651 73.712C609.099 73.4773 609.653 73.36 610.315 73.36C610.827 73.36 611.269 73.4187 611.643 73.536C612.016 73.6427 612.325 73.84 612.571 74.128C612.816 74.4053 612.997 74.784 613.115 75.264C613.232 75.7333 613.291 76.3253 613.291 77.04V82H611.819ZM616.837 73.6H618.309V82H616.837V73.6ZM616.533 71.6C616.533 71.3547 616.629 71.136 616.821 70.944C617.013 70.7413 617.263 70.64 617.573 70.64C617.882 70.64 618.138 70.7413 618.341 70.944C618.543 71.136 618.645 71.3547 618.645 71.6C618.645 71.8453 618.543 72.064 618.341 72.256C618.138 72.4373 617.882 72.528 617.573 72.528C617.263 72.528 617.013 72.4373 616.821 72.256C616.629 72.064 616.533 71.8453 616.533 71.6ZM621.819 73.6H622.811L623.099 74.672H623.243C623.531 74.256 623.904 73.936 624.363 73.712C624.821 73.4773 625.339 73.36 625.915 73.36C627.131 73.36 628.037 73.7013 628.635 74.384C629.232 75.056 629.531 76.1333 629.531 77.616C629.531 78.32 629.429 78.96 629.227 79.536C629.035 80.1013 628.752 80.5867 628.379 80.992C628.016 81.3867 627.568 81.6907 627.035 81.904C626.512 82.1173 625.925 82.224 625.275 82.224C625.061 82.224 624.864 82.2133 624.683 82.192C624.512 82.1813 624.352 82.1547 624.203 82.112C624.053 82.08 623.904 82.0427 623.755 82C623.605 81.9467 623.451 81.888 623.291 81.824V85.2H621.819V73.6ZM625.579 74.608C624.939 74.608 624.437 74.768 624.075 75.088C623.712 75.408 623.451 75.8987 623.291 76.56V80.432C623.536 80.6027 623.803 80.736 624.091 80.832C624.379 80.928 624.747 80.976 625.195 80.976C626.059 80.976 626.736 80.6933 627.227 80.128C627.717 79.5627 627.963 78.72 627.963 77.6C627.963 76.6933 627.781 75.968 627.419 75.424C627.056 74.88 626.443 74.608 625.579 74.608ZM644.537 82H637.209V70.8H638.809V80.592H644.537V82ZM646.167 74.128C647.127 73.6693 648.316 73.44 649.735 73.44C650.375 73.44 650.887 73.5253 651.271 73.696C651.666 73.856 651.97 74.064 652.183 74.32C652.396 74.576 652.535 74.864 652.599 75.184C652.674 75.4933 652.711 75.8027 652.711 76.112C652.711 76.6987 652.69 77.2907 652.647 77.888C652.604 78.4747 652.583 79.1147 652.583 79.808C652.583 80.2133 652.599 80.608 652.631 80.992C652.674 81.3653 652.738 81.712 652.823 82.032H651.751L651.351 80.752H651.191C651.074 80.912 650.93 81.0773 650.759 81.248C650.588 81.408 650.386 81.552 650.151 81.68C649.916 81.808 649.644 81.9147 649.335 82C649.036 82.0853 648.69 82.128 648.295 82.128C647.9 82.128 647.538 82.0747 647.207 81.968C646.876 81.8507 646.588 81.6907 646.343 81.488C646.108 81.2853 645.922 81.04 645.783 80.752C645.644 80.4533 645.575 80.1227 645.575 79.76C645.575 79.28 645.676 78.864 645.879 78.512C646.092 78.16 646.364 77.872 646.695 77.648C647.026 77.424 647.399 77.2587 647.815 77.152C648.242 77.0453 648.663 76.992 649.079 76.992C649.41 76.992 649.687 76.9973 649.911 77.008C650.146 77.0187 650.338 77.0347 650.487 77.056C650.647 77.0667 650.78 77.0827 650.887 77.104C650.994 77.1147 651.09 77.1253 651.175 77.136C651.196 76.976 651.212 76.8373 651.223 76.72C651.234 76.6027 651.239 76.4533 651.239 76.272C651.239 75.9733 651.207 75.7227 651.143 75.52C651.079 75.3173 650.972 75.1573 650.823 75.04C650.684 74.912 650.492 74.8213 650.247 74.768C650.002 74.7147 649.703 74.688 649.351 74.688C649.148 74.688 648.924 74.704 648.679 74.736C648.434 74.768 648.188 74.816 647.943 74.88C647.698 74.9333 647.452 75.0027 647.207 75.088C646.972 75.1733 646.759 75.264 646.567 75.36L646.167 74.128ZM651.175 78.192C651.09 78.1813 650.999 78.1653 650.903 78.144C650.807 78.1227 650.684 78.1067 650.535 78.096C650.396 78.0853 650.226 78.0747 650.023 78.064C649.831 78.0533 649.591 78.048 649.303 78.048C648.642 78.048 648.114 78.1653 647.719 78.4C647.335 78.6347 647.143 79.0347 647.143 79.6C647.143 80.0267 647.292 80.3467 647.591 80.56C647.9 80.7733 648.295 80.88 648.775 80.88C649.127 80.88 649.436 80.8373 649.703 80.752C649.98 80.656 650.215 80.544 650.407 80.416C650.61 80.2773 650.77 80.128 650.887 79.968C651.015 79.7973 651.111 79.632 651.175 79.472V78.192ZM655.895 70.8H657.367V74.64H657.527C657.773 74.2133 658.125 73.8987 658.583 73.696C659.042 73.4827 659.527 73.376 660.039 73.376C661.202 73.376 662.082 73.7333 662.679 74.448C663.287 75.152 663.591 76.2187 663.591 77.648C663.591 79.1093 663.197 80.224 662.407 80.992C661.618 81.76 660.509 82.144 659.079 82.144C658.375 82.144 657.735 82.0853 657.159 81.968C656.594 81.8507 656.173 81.712 655.895 81.552V70.8ZM659.831 74.624C659.49 74.624 659.186 74.6773 658.919 74.784C658.663 74.8907 658.434 75.04 658.231 75.232C658.029 75.4133 657.853 75.6267 657.703 75.872C657.565 76.1067 657.453 76.352 657.367 76.608V80.592C657.89 80.7947 658.525 80.896 659.271 80.896C660.114 80.896 660.781 80.64 661.271 80.128C661.773 79.6053 662.023 78.7733 662.023 77.632C662.023 77.2053 661.981 76.8107 661.895 76.448C661.81 76.0747 661.677 75.7547 661.495 75.488C661.314 75.2213 661.085 75.0133 660.807 74.864C660.541 74.704 660.215 74.624 659.831 74.624ZM665.83 77.808C665.83 77.1147 665.921 76.496 666.102 75.952C666.283 75.3973 666.55 74.928 666.902 74.544C667.254 74.16 667.681 73.8667 668.182 73.664C668.694 73.4613 669.275 73.36 669.926 73.36C670.609 73.36 671.206 73.472 671.718 73.696C672.23 73.92 672.657 74.2347 672.998 74.64C673.339 75.0347 673.59 75.504 673.75 76.048C673.921 76.5813 674.006 77.168 674.006 77.808C674.006 78.4907 673.91 79.104 673.718 79.648C673.537 80.192 673.27 80.656 672.918 81.04C672.577 81.424 672.15 81.7173 671.638 81.92C671.137 82.1227 670.566 82.224 669.926 82.224C669.222 82.224 668.614 82.112 668.102 81.888C667.59 81.664 667.163 81.3547 666.822 80.96C666.491 80.5653 666.241 80.1013 666.07 79.568C665.91 79.024 665.83 78.4373 665.83 77.808ZM667.398 77.808C667.398 78.2027 667.441 78.592 667.526 78.976C667.622 79.3493 667.771 79.6853 667.974 79.984C668.177 80.2827 668.438 80.5227 668.758 80.704C669.078 80.8853 669.473 80.976 669.942 80.976C671.606 80.976 672.438 79.92 672.438 77.808C672.438 77.392 672.39 76.992 672.294 76.608C672.209 76.224 672.065 75.888 671.862 75.6C671.67 75.3013 671.414 75.0613 671.094 74.88C670.774 74.6987 670.39 74.608 669.942 74.608C669.11 74.608 668.475 74.8747 668.038 75.408C667.611 75.9307 667.398 76.7307 667.398 77.808ZM681.076 74.992C680.894 74.9387 680.718 74.8907 680.548 74.848C680.377 74.8053 680.217 74.784 680.068 74.784C679.502 74.784 679.06 74.928 678.74 75.216C678.43 75.504 678.238 75.8667 678.164 76.304V82H676.692V73.6H677.716L678.004 74.72H678.148C678.393 74.304 678.676 73.984 678.996 73.76C679.326 73.5253 679.737 73.408 680.228 73.408C680.377 73.408 680.553 73.424 680.756 73.456C680.958 73.4773 681.161 73.52 681.364 73.584L681.076 74.992ZM682.994 74.128C683.954 73.6693 685.143 73.44 686.562 73.44C687.202 73.44 687.714 73.5253 688.098 73.696C688.493 73.856 688.797 74.064 689.01 74.32C689.223 74.576 689.362 74.864 689.426 75.184C689.501 75.4933 689.538 75.8027 689.538 76.112C689.538 76.6987 689.517 77.2907 689.474 77.888C689.431 78.4747 689.41 79.1147 689.41 79.808C689.41 80.2133 689.426 80.608 689.458 80.992C689.501 81.3653 689.565 81.712 689.65 82.032H688.578L688.178 80.752H688.018C687.901 80.912 687.757 81.0773 687.586 81.248C687.415 81.408 687.213 81.552 686.978 81.68C686.743 81.808 686.471 81.9147 686.162 82C685.863 82.0853 685.517 82.128 685.122 82.128C684.727 82.128 684.365 82.0747 684.034 81.968C683.703 81.8507 683.415 81.6907 683.17 81.488C682.935 81.2853 682.749 81.04 682.61 80.752C682.471 80.4533 682.402 80.1227 682.402 79.76C682.402 79.28 682.503 78.864 682.706 78.512C682.919 78.16 683.191 77.872 683.522 77.648C683.853 77.424 684.226 77.2587 684.642 77.152C685.069 77.0453 685.49 76.992 685.906 76.992C686.237 76.992 686.514 76.9973 686.738 77.008C686.973 77.0187 687.165 77.0347 687.314 77.056C687.474 77.0667 687.607 77.0827 687.714 77.104C687.821 77.1147 687.917 77.1253 688.002 77.136C688.023 76.976 688.039 76.8373 688.05 76.72C688.061 76.6027 688.066 76.4533 688.066 76.272C688.066 75.9733 688.034 75.7227 687.97 75.52C687.906 75.3173 687.799 75.1573 687.65 75.04C687.511 74.912 687.319 74.8213 687.074 74.768C686.829 74.7147 686.53 74.688 686.178 74.688C685.975 74.688 685.751 74.704 685.506 74.736C685.261 74.768 685.015 74.816 684.77 74.88C684.525 74.9333 684.279 75.0027 684.034 75.088C683.799 75.1733 683.586 75.264 683.394 75.36L682.994 74.128ZM688.002 78.192C687.917 78.1813 687.826 78.1653 687.73 78.144C687.634 78.1227 687.511 78.1067 687.362 78.096C687.223 78.0853 687.053 78.0747 686.85 78.064C686.658 78.0533 686.418 78.048 686.13 78.048C685.469 78.048 684.941 78.1653 684.546 78.4C684.162 78.6347 683.97 79.0347 683.97 79.6C683.97 80.0267 684.119 80.3467 684.418 80.56C684.727 80.7733 685.122 80.88 685.602 80.88C685.954 80.88 686.263 80.8373 686.53 80.752C686.807 80.656 687.042 80.544 687.234 80.416C687.437 80.2773 687.597 80.128 687.714 79.968C687.842 79.7973 687.938 79.632 688.002 79.472V78.192ZM691.698 73.6H693.122V71.904L694.594 71.52V73.6H697.122V74.848H694.594V79.136C694.594 79.808 694.68 80.2827 694.85 80.56C695.021 80.8373 695.314 80.976 695.73 80.976C695.997 80.976 696.237 80.9493 696.45 80.896C696.674 80.832 696.925 80.752 697.202 80.656L697.538 81.696C697.197 81.8453 696.829 81.968 696.434 82.064C696.05 82.1707 695.634 82.224 695.186 82.224C694.44 82.224 693.906 82.0213 693.586 81.616C693.277 81.2107 693.122 80.5493 693.122 79.632V74.848H691.698V73.6ZM698.907 77.808C698.907 77.1147 698.998 76.496 699.179 75.952C699.36 75.3973 699.627 74.928 699.979 74.544C700.331 74.16 700.758 73.8667 701.259 73.664C701.771 73.4613 702.352 73.36 703.003 73.36C703.686 73.36 704.283 73.472 704.795 73.696C705.307 73.92 705.734 74.2347 706.075 74.64C706.416 75.0347 706.667 75.504 706.827 76.048C706.998 76.5813 707.083 77.168 707.083 77.808C707.083 78.4907 706.987 79.104 706.795 79.648C706.614 80.192 706.347 80.656 705.995 81.04C705.654 81.424 705.227 81.7173 704.715 81.92C704.214 82.1227 703.643 82.224 703.003 82.224C702.299 82.224 701.691 82.112 701.179 81.888C700.667 81.664 700.24 81.3547 699.899 80.96C699.568 80.5653 699.318 80.1013 699.147 79.568C698.987 79.024 698.907 78.4373 698.907 77.808ZM700.475 77.808C700.475 78.2027 700.518 78.592 700.603 78.976C700.699 79.3493 700.848 79.6853 701.051 79.984C701.254 80.2827 701.515 80.5227 701.835 80.704C702.155 80.8853 702.55 80.976 703.019 80.976C704.683 80.976 705.515 79.92 705.515 77.808C705.515 77.392 705.467 76.992 705.371 76.608C705.286 76.224 705.142 75.888 704.939 75.6C704.747 75.3013 704.491 75.0613 704.171 74.88C703.851 74.6987 703.467 74.608 703.019 74.608C702.187 74.608 701.552 74.8747 701.115 75.408C700.688 75.9307 700.475 76.7307 700.475 77.808ZM714.153 74.992C713.971 74.9387 713.795 74.8907 713.625 74.848C713.454 74.8053 713.294 74.784 713.145 74.784C712.579 74.784 712.137 74.928 711.817 75.216C711.507 75.504 711.315 75.8667 711.241 76.304V82H709.769V73.6H710.793L711.081 74.72H711.225C711.47 74.304 711.753 73.984 712.073 73.76C712.403 73.5253 712.814 73.408 713.305 73.408C713.454 73.408 713.63 73.424 713.833 73.456C714.035 73.4773 714.238 73.52 714.441 73.584L714.153 74.992ZM718.775 78.912L719.271 80.528H719.479L719.879 78.896L721.623 73.6H723.127L720.375 81.2C720.172 81.7227 719.964 82.2293 719.751 82.72C719.548 83.2107 719.319 83.6427 719.063 84.016C718.817 84.4 718.54 84.704 718.231 84.928C717.932 85.1627 717.585 85.28 717.191 85.28C716.764 85.28 716.401 85.232 716.103 85.136L716.343 83.888C716.503 83.9413 716.663 83.968 716.823 83.968C717.036 83.968 717.228 83.9413 717.399 83.888C717.58 83.8347 717.745 83.7387 717.895 83.6C718.044 83.4613 718.177 83.264 718.295 83.008C718.423 82.7627 718.54 82.4427 718.647 82.048L714.887 73.6H716.631L718.775 78.912Z" fill="#333333"/>
<defs>
<linearGradient id="paint0_linear_170_62" x1="0.937012" y1="88.6772" x2="88.6789" y2="88.6772" gradientUnits="userSpaceOnUse">
<stop stop-color="#0071EF"/>
<stop offset="1" stop-color="#149BFF"/>
</linearGradient>
<linearGradient id="paint1_linear_170_62" x1="1.02954" y1="88.575" x2="42.153" y2="88.575" gradientUnits="userSpaceOnUse">
<stop stop-color="#43C5AC"/>
<stop offset="1" stop-color="#8AD4C2"/>
</linearGradient>
</defs>
</svg>
