<?xml version="1.0" encoding="UTF-8" standalone="no"?>
<!-- Created with Inkscape (http://www.inkscape.org/) -->

<svg
   width="210mm"
   height="297mm"
   viewBox="0 0 210 297"
   version="1.1"
   id="svg1"
   xml:space="preserve"
   xmlns:inkscape="http://www.inkscape.org/namespaces/inkscape"
   xmlns:sodipodi="http://sodipodi.sourceforge.net/DTD/sodipodi-0.dtd"
   xmlns="http://www.w3.org/2000/svg"
   xmlns:svg="http://www.w3.org/2000/svg"><sodipodi:namedview
     id="namedview1"
     pagecolor="#ffffff"
     bordercolor="#000000"
     borderopacity="0.25"
     inkscape:showpageshadow="2"
     inkscape:pageopacity="0.0"
     inkscape:pagecheckerboard="0"
     inkscape:deskcolor="#d1d1d1"
     inkscape:document-units="mm"><inkscape:page
       x="0"
       y="0"
       width="210"
       height="297"
       id="page2"
       margin="0"
       bleed="0" /></sodipodi:namedview><defs
     id="defs1"><linearGradient
       id="paint0_linear_58_1385"
       x1="0.348268"
       y1="33.084202"
       x2="66.909401"
       y2="33.084202"
       gradientUnits="userSpaceOnUse"><stop
         stop-color="#0071EF"
         id="stop5" /><stop
         offset="1"
         stop-color="#149BFF"
         id="stop6" /></linearGradient><linearGradient
       id="paint1_linear_58_1385"
       x1="0.42147601"
       y1="50.576199"
       x2="31.6187"
       y2="50.576199"
       gradientUnits="userSpaceOnUse"><stop
         stop-color="#43C5AC"
         id="stop7" /><stop
         offset="1"
         stop-color="#8AD4C2"
         id="stop8" /></linearGradient></defs><g
     inkscape:label="图层 1"
     inkscape:groupmode="layer"
     id="layer1"><g
       style="fill:none"
       id="g1"
       transform="matrix(0.26458333,0,0,0.26458333,42.211837,115.34028)"><path
         d="m 64.613,50.4108 c 1.4455,2.1693 1.9949,4.8085 1.5344,7.3699 -0.4606,2.5613 -1.8959,4.848 -4.0079,6.3853 -2.112,1.5374 -4.7385,2.2073 -7.3343,1.8708 C 52.2094,65.7003 49.8436,64.3831 48.199,62.3587 47.8862,62.0015 47.58,61.6376 47.2738,61.2671 42.6133,55.6564 38.9917,49.268 36.5775,42.3991 35.5819,39.5634 33.9552,36.9875 31.8184,34.8638 29.6817,32.74 27.0901,31.1231 24.237,30.1336 17.3341,27.7471 10.9115,24.1633 5.26713,19.5485 4.90105,19.2442 4.52831,18.9332 4.17553,18.6223 1.99449,17.0379 0.536024,14.6572 0.120977,12.004 -0.294071,9.35081 0.3683,6.6424 1.96238,4.47459 3.55645,2.30679 5.95165,0.857178 8.62106,0.44465 11.2905,0.0321216 14.0154,0.690472 16.1965,2.27487 c 1.9751,1.34762 3.7459,2.9695 5.2583,4.81624 l 0.8586,1.02543 c 3.3281,4.06866 5.5978,9.03706 9.3985,12.68236 l 0.7654,0.7211 c 0.7237,0.692 1.6163,1.1846 2.5899,1.4292 0.9736,0.2446 1.9945,0.2327 2.9621,-0.0345 0.9676,-0.2671 1.8484,-0.7803 2.5556,-1.4889 0.7072,-0.7087 1.2163,-1.5883 1.4772,-2.5521 l 0.2197,-0.8204 c 0.9252,-3.4269 0.9584,-7.1185 2.3096,-10.40647 l 0.2263,-0.55572 c 0.7167,-1.74112 1.8552,-3.27916 3.3144,-4.47725 1.4591,-1.1981 3.1937,-2.019091 5.0492,-2.389926 1.8555,-0.370834 3.7745,-0.2800079 5.5862,0.264397 1.8116,0.544399 3.4598,1.525499 4.7978,2.855989 1.3381,1.33049 2.3244,2.9691 2.8713,4.77002 0.547,1.80092 0.6375,3.70826 0.2636,5.55236 -0.374,1.8441 -1.2007,3.5677 -2.4068,5.0175 -1.2061,1.4498 -2.754,2.5807 -4.5061,3.2922 l -0.5657,0.2316 c -3.3281,1.3231 -7.0156,1.3761 -10.4634,2.2956 l -0.8187,0.2184 c -1.4673,0.3888 -2.7212,1.3367 -3.49,2.6383 -0.7687,1.3016 -0.9904,2.8519 -0.6169,4.3148 0.2444,0.9681 0.7402,1.8555 1.4378,2.5735 l 0.7255,0.7608 c 3.6675,3.7776 8.6529,6.0203 12.7531,9.3414 l 1.0383,0.8402 c 1.856,1.5008 3.4856,3.2587 4.839,5.2198"
         fill="url(#paint0_linear_58_1385)"
         id="path1"
         style="fill:url(#paint0_linear_58_1385)" /><path
         d="m 13.5007,38.2114 c 0.9783,-0.9865 2.1426,-1.7718 3.4263,-2.311 1.2836,-0.5391 2.6616,-0.8217 4.0552,-0.8315 1.3911,-0.0057 2.77,0.2572 4.0602,0.7741 1.9413,0.7862 3.6039,2.1277 4.7771,3.8544 1.1731,1.7266 1.804,3.7607 1.8125,5.8442 0.0048,1.3843 -0.2663,2.7559 -0.7975,4.0356 -0.5312,1.2796 -1.3121,2.4421 -2.2976,3.4203 L 28.457,53.0835 18.1134,63.1592 C 16.152,65.0774 13.5075,66.1475 10.7559,66.1364 8.00435,66.1253 5.36864,65.034 3.42295,63.1001 1.47727,61.1662 0.379268,58.5465 0.368128,55.8116 0.356987,53.0768 1.43361,50.4483 3.36348,48.4988 Z"
         fill="url(#paint1_linear_58_1385)"
         id="path2"
         style="fill:url(#paint1_linear_58_1385)" /><path
         d="M 95.7103,33.8915 86.6779,19.337 h 7.6279 l 4.9855,8.4284 1.1517,2.9175 1.078,-2.9308 5.198,-8.4284 h 6.856 l -9.345,14.2701 9.844,15.3683 h -7.541 l -5.678,-9.0172 -1.3308,-3.0499 -1.2314,3.0499 -5.6909,9.0172 h -6.8558 z"
         fill="#333333"
         id="path3" /><path
         d="M 163.423,48.9621 H 142.896 V 19.3237 h 6.303 v 24.1341 h 14.224 z m 3.055,-20.7072 c 1.499,-0.6284 3.061,-1.0964 4.659,-1.3959 1.911,-0.3682 3.852,-0.5521 5.798,-0.5491 1.326,-0.033 2.648,0.1526 3.914,0.5491 0.952,0.2874 1.811,0.8181 2.492,1.539 0.681,0.721 1.16,1.6069 1.388,2.5694 0.294,1.0464 0.437,2.1289 0.426,3.2152 0,1.4422 -0.06,2.8646 -0.173,4.2804 -0.113,1.4157 -0.173,2.9043 -0.173,4.4854 -0.002,1.0492 0.072,2.0971 0.22,3.1359 0.13,0.991 0.352,1.9677 0.665,2.9175 h -4.859 l -0.978,-3.3079 h -0.459 c -0.765,1.0177 -1.718,1.8801 -2.809,2.5405 -1.333,0.756 -2.853,1.1229 -4.387,1.0585 -1.013,0.0123 -2.021,-0.1442 -2.982,-0.4631 -0.846,-0.2897 -1.628,-0.739 -2.303,-1.3232 -0.626,-0.5847 -1.135,-1.283 -1.497,-2.0574 -0.346,-0.8187 -0.52,-1.6989 -0.513,-2.5868 0,-2.5095 0.839,-4.3994 2.516,-5.6696 1.678,-1.2703 4.247,-1.9318 7.708,-1.9848 0.801,0.0016 1.601,0.0724 2.39,0.2117 0.794,0.1147 1.346,0.2007 1.657,0.2581 0.078,-0.5059 0.12,-1.0165 0.126,-1.5283 0.038,-0.4286 -0.015,-0.8602 -0.153,-1.2678 -0.139,-0.4076 -0.361,-0.7823 -0.652,-1.1006 -0.539,-0.5094 -1.551,-0.7608 -3.022,-0.7608 -1.348,-0.0027 -2.69,0.1685 -3.994,0.5094 -1.174,0.2835 -2.314,0.6916 -3.401,1.2173 z m 7.794,16.3011 c 1.14,0.0588 2.266,-0.2676 3.195,-0.9262 0.714,-0.5222 1.312,-1.1841 1.758,-1.945 v -2.547 c -0.217,-0.0735 -0.44,-0.1288 -0.666,-0.1654 -0.28,-0.0596 -0.606,-0.1125 -0.979,-0.172 -0.352,-0.0602 -0.708,-0.1021 -1.064,-0.1257 -0.34,0 -0.666,-0.0463 -0.939,-0.0463 -1.198,-0.089 -2.393,0.2079 -3.408,0.8468 -0.34,0.2214 -0.619,0.5237 -0.812,0.8795 -0.193,0.3558 -0.294,0.7539 -0.293,1.1581 -0.031,0.419 0.029,0.8397 0.176,1.2335 0.147,0.3939 0.378,0.7516 0.676,1.0489 0.669,0.5294 1.509,0.7997 2.363,0.7608 z m 17.107,-25.2323 h 5.99 v 9.3149 h 0.513 c 0.715,-0.7847 1.603,-1.3938 2.596,-1.7796 1.124,-0.4529 2.328,-0.6778 3.541,-0.6616 2.893,0 5.094,0.9461 6.602,2.8382 1.509,1.8921 2.275,4.6288 2.297,8.2101 0.013,1.771 -0.293,3.53 -0.905,5.1933 -0.472,1.4355 -1.264,2.746 -2.32,3.8324 -1.055,1.0865 -2.344,1.9206 -3.771,2.4393 -1.601,0.5556 -3.289,0.8266 -4.985,0.8005 -1.912,0.0195 -3.821,-0.1356 -5.705,-0.4631 -1.314,-0.1952 -2.605,-0.521 -3.853,-0.9725 z m 5.99,24.5972 c 0.562,0.282 1.167,0.4697 1.791,0.5557 0.665,0.053 1.331,0.0794 2.09,0.0794 3.687,0 5.533,-2.3993 5.537,-7.1979 0,-2.0288 -0.383,-3.5724 -1.151,-4.6309 -0.386,-0.5317 -0.9,-0.9578 -1.496,-1.2389 -0.596,-0.281 -1.254,-0.4079 -1.912,-0.3688 -1.106,-0.0534 -2.199,0.2582 -3.108,0.8865 -0.833,0.6918 -1.442,1.6123 -1.751,2.6463 z"
         fill="#333333"
         id="path4" /><path
         d="m 128.145,38.3769 c 2.941,0 5.325,-2.3696 5.325,-5.2926 0,-2.923 -2.384,-5.2926 -5.325,-5.2926 -2.94,0 -5.324,2.3696 -5.324,5.2926 0,2.923 2.384,5.2926 5.324,5.2926 z"
         fill="#333333"
         id="path5" /></g></g></svg>
