<?xml version="1.0" encoding="UTF-8" standalone="no"?>
<!-- Created with Inkscape (http://www.inkscape.org/) -->

<svg
   width="210mm"
   height="297mm"
   viewBox="0 0 210 297"
   version="1.1"
   id="svg1"
   inkscape:version="1.4.2 (f4327f4, 2025-05-13)"
   sodipodi:docname="zju.svg"
   xmlns:inkscape="http://www.inkscape.org/namespaces/inkscape"
   xmlns:sodipodi="http://sodipodi.sourceforge.net/DTD/sodipodi-0.dtd"
   xmlns="http://www.w3.org/2000/svg"
   xmlns:svg="http://www.w3.org/2000/svg"
   xmlns:rdf="http://www.w3.org/1999/02/22-rdf-syntax-ns#"
   xmlns:cc="http://creativecommons.org/ns#"
   xmlns:dc="http://purl.org/dc/elements/1.1/">
  <title
     id="title1">zju-logo</title>
  <sodipodi:namedview
     id="namedview1"
     pagecolor="#ffffff"
     bordercolor="#000000"
     borderopacity="0.25"
     inkscape:showpageshadow="2"
     inkscape:pageopacity="0.0"
     inkscape:pagecheckerboard="0"
     inkscape:deskcolor="#d1d1d1"
     inkscape:document-units="mm"
     inkscape:zoom="1.6239548"
     inkscape:cx="380.24456"
     inkscape:cy="305.7351"
     inkscape:window-width="2560"
     inkscape:window-height="1566"
     inkscape:window-x="-11"
     inkscape:window-y="-11"
     inkscape:window-maximized="1"
     inkscape:current-layer="layer1" />
  <defs
     id="defs1" />
  <g
     inkscape:label="图层 1"
     inkscape:groupmode="layer"
     id="layer1">
    <path
       class="cls-2"
       d="m 104.58714,98.935646 c -0.38893,-0.08202 -0.1561,-0.206375 -0.2196,-0.537104 -0.0529,-0.28575 -0.31221,-0.566209 -0.30427,-0.777875 0.0212,-0.5715 0.75671,-0.537105 1.20121,-0.354542 0.0794,0.03175 0.17198,0.153458 0.254,0.269875 0.20373,0.293687 0.44185,0.719667 0.127,1.045104 -0.27252,0.277813 -0.71967,0.428625 -1.05834,0.354542"
       id="path1"
       style="fill:#231815;fill-rule:evenodd;stroke-width:0.264583" />
    <path
       class="cls-2"
       d="m 100.1686,98.340333 c 0,0 -0.0264,-0.01058 -0.037,-0.01587 0.003,-0.04233 0.005,-0.08731 0.008,-0.124354 0.12171,-0.04498 1.17739,-0.735542 1.17475,-0.764646 0.30692,-0.246062 0.58208,-0.518583 0.67204,-0.912812 -0.75671,0.248708 -1.47373,0.799041 -2.259541,0.85725 -0.362479,-0.08996 -0.611187,-0.28575 -0.867833,-0.396875 0,-0.01852 0,-0.03175 -0.0026,-0.04233 -0.415396,-0.27252 -0.452437,-0.619125 0.0053,-0.769937 0.788458,0.174625 1.997604,-0.388938 2.741074,-0.672042 0.16669,-0.07408 0.64823,-0.243416 0.77788,-0.396875 0.17462,-1.042458 0.0609,-2.084916 0.12171,-3.082396 0.254,-0.719666 0.70379,-0.230187 1.14829,0.129646 0.0291,0.06085 0.13229,0.127 0.22225,0.261938 0.0132,0 0.0238,0 0.0423,-0.0026 0.18786,0.298979 0.24077,0.436562 -0.0503,0.717021 -0.19844,0.489479 -0.29369,1.031875 -0.26987,1.595437 0.54239,-0.07673 0.87048,-0.550333 1.49754,-0.560916 0.15081,0.291041 0.13229,0.537104 -0.14552,0.78052 -0.45773,0.219605 -0.95515,0.415396 -1.47373,0.650875 -0.12171,0.526521 -0.33073,1.169459 -0.70115,1.598084 -0.0556,0.0635 -0.32279,0.312208 -0.38629,0.34925 -0.33602,0.195791 -0.63764,0.433916 -1.00542,0.537104 -1.01864,0.283104 -1.02922,0.235479 -1.21179,0.261937"
       id="path2"
       style="fill:#231815;fill-rule:evenodd;stroke-width:0.264583" />
    <path
       class="cls-2"
       d="m 90.439874,100.11569 c -0.375708,-0.171982 -0.714375,-0.624419 -0.918104,-0.904878 0.0344,-0.100541 0.06879,-0.201083 0.108479,-0.293687 0.883709,-0.661458 1.756834,-1.275292 2.555875,-2.06375 0.243417,-0.373063 0.558271,-0.762 0.817563,-1.129771 0.01058,-0.0079 0.0291,-0.01323 0.04498,-0.01323 0,-0.01852 0,-0.0291 -0.0026,-0.03969 0.224896,-0.17727 0.320146,-0.22225 0.513292,0.06615 0.01323,0.240771 -0.420688,0.500063 -0.555625,0.727604 -0.169334,0.431271 -0.362479,0.87048 -0.582084,1.309688 q -0.07144,0.07937 -0.351895,0.542396 c -0.23548,0.182562 -0.55298,0.664104 -0.685271,0.9525 -0.277813,0.161396 -0.396875,0.653521 -0.732896,0.825498 -0.07408,0.005 -0.142875,0.0132 -0.211667,0.0238"
       id="path3"
       style="fill:#231815;fill-rule:evenodd;stroke-width:0.264583" />
    <path
       class="cls-2"
       d="m 95.64952,97.022708 c -0.545042,-0.02381 -0.6985,-0.370416 -0.994833,-0.687916 -0.0079,-0.142875 0.07937,-0.230188 0.08996,-0.328084 q 0.134938,-0.03175 0.219604,-0.08202 c 0.227542,-0.03175 0.309563,-0.01852 0.558271,-0.0344 0.312208,-0.07144 1.116542,-0.624417 1.383771,-0.386292 0.03969,0.661458 -0.679979,1.328208 -1.256771,1.518708"
       id="path4"
       style="fill:#231815;fill-rule:evenodd;stroke-width:0.264583" />
    <path
       class="cls-2"
       d="m 91.469103,95.98025 c -0.20902,-0.182563 -0.248708,-1.023938 -0.264583,-1.288521 0.156104,-0.470958 0.627063,-0.489479 1.023938,-0.185208 0.314854,0.41275 0.52652,0.584729 0.198437,1.066271 -0.373062,0.322791 -0.537104,0.346604 -0.955146,0.404812"
       id="path5"
       style="fill:#231815;fill-rule:evenodd;stroke-width:0.264583" />
    <path
       class="cls-2"
       d="m 95.501353,95.572792 c -0.05556,-0.256646 0.296334,-0.801688 0.195792,-0.93398 -0.132292,0.02117 -0.267229,0.06879 -0.404812,0.07673 -0.328084,-0.15875 -0.685271,-0.558271 -0.555625,-0.865188 0.243416,-0.275167 0.148166,-0.206375 0.52652,-0.230187 0.359834,-0.161396 0.719667,-0.3175 1.084792,-0.470959 0.611188,-0.113771 0.891646,0.22225 0.928688,0.817563 -0.10848,0.386291 -0.367771,0.693208 -0.619125,0.997479 -0.322792,0.177271 -0.61648,0.373062 -0.910167,0.563562 -0.08467,0.01058 -0.166688,0.02646 -0.246063,0.04498"
       id="path6"
       style="fill:#231815;fill-rule:evenodd;stroke-width:0.264583" />
    <path
       class="cls-2"
       d="m 92.162312,93.845062 c -0.129646,-0.11377 -0.07408,-0.174625 -0.0079,-0.288395 -0.01588,-0.254 -0.166687,-0.455084 -0.182562,-0.6985 0.08202,-0.441855 -0.0026,-0.605896 0.365125,-0.817563 0.28575,0.127 1.280583,0.635 1.045104,1.190625 -0.272521,0.346604 -0.8255,0.566208 -1.219729,0.613833"
       id="path7"
       style="fill:#231815;fill-rule:evenodd;stroke-width:0.264583" />
    <path
       class="cls-2"
       d="m 79.274458,100.53108 c -0.590021,-0.22754 -1.108604,-1.399643 -0.394229,-1.688038 0.01852,-0.103188 0.105833,-0.206375 0.193145,-0.238125 0,-0.01852 0,-0.03175 -0.0026,-0.04233 0.574145,-0.555625 0.9525,-1.330854 1.434041,-1.944687 0.124354,-0.232834 0.1905,-0.457729 0.457729,-0.523875 0.132292,0.116416 0.08731,0.383646 0.05027,0.587375 0.05821,0.05292 0.264584,0.01323 0.386292,-0.02381 0.399521,-0.343958 0.92075,-0.645583 1.317625,-1.008062 0.02117,-0.177271 0.03969,-0.354542 0.06879,-0.526521 -0.277813,0.06615 -1.193271,0.280458 -0.973667,-0.232833 0.343958,-0.134938 0.862542,-0.431271 1.04775,-0.799042 0.08996,-0.375708 0.03704,-0.791104 0.227542,-1.060979 0.383645,-0.201084 0.838729,0.28575 0.915458,0.701146 0.153458,0.27252 0.635,-0.06615 0.0344,0.775229 -0.127,0.09525 -0.121709,0.275166 -0.09525,0.468312 0.04498,0.0026 0.08731,0.0079 0.132291,0.01058 0.336021,-0.240771 0.703792,-0.500063 1.084792,-0.719667 0.103188,-0.53975 0.1905,-0.989542 0.449792,-1.444625 0.373062,-0.254 0.878416,0.02117 1.243541,0.312208 0.280459,-0.01852 0.455084,-0.134937 0.706438,-0.320146 q 0.0979,-0.03175 0.288396,-0.0291 c 0.07673,0.132292 0.103187,0.269875 0.116416,0.468313 -0.179916,0.550333 -1.754187,0.73025 -1.452562,1.370541 0.275167,-0.01852 0.370417,-0.3175 0.470958,-0.518583 0.309563,-0.164042 0.973667,0.03175 1.296458,0.269875 0.359834,0.436563 0.07937,0.584729 -0.3175,0.859896 -0.03969,0.05821 -0.07937,0.119062 -0.11377,0.177271 q -0.02646,0.881062 -0.01587,2.071687 c -0.137584,0.322792 -0.232834,0.478896 -0.481542,0.738188 0,0.01323 0,0.02381 0.0026,0.03704 -0.01852,0 -0.03175,0 -0.04498,0 -0.153459,0.26723 -0.526521,0.529167 -0.748771,0.277813 -0.0053,-0.978958 0.05027,-1.992313 0.01852,-2.923646 -0.01852,0 -0.03704,0.0079 -0.04763,0.01588 -0.07144,0.473604 -0.547688,1.367896 -0.955146,1.664229 -0.375708,0.02381 -0.690563,-0.195791 -0.799042,-0.513291 0.03969,-0.09525 0.111125,-0.119063 0.1905,-0.187855 0.211667,-0.433916 0.148167,-1.232958 0.148167,-1.658937 -0.304271,0.04498 -0.820208,0.735542 -1.04775,0.992187 -0.156104,0.121709 -0.312208,0.246063 -0.460375,0.367771 -0.108479,0.362479 -0.193146,0.719667 -0.288396,1.108604 -0.08467,0.174625 -0.166687,0.354542 -0.248708,0.537105 -0.01852,0 -0.03175,0 -0.04498,0.0026 -0.142875,0.240771 -0.60325,0.87048 -0.881063,0.473605 -0.0026,-0.05556 -0.0053,-0.105834 -0.0026,-0.156105 0.230188,-0.341312 0.407459,-0.814916 0.41275,-1.203854 -0.375708,0.124354 -0.621771,0.465667 -0.997479,0.489479 -0.216958,-0.04233 -0.433917,-0.111125 -0.576792,-0.182562 0,-0.01852 0,-0.03175 0,-0.04233 -0.0926,-0.05821 -0.185208,-0.14023 -0.24077,-0.116417 -0.06879,0.211667 -0.137584,0.428625 -0.198438,0.645583 -0.388937,0.806979 -0.672042,1.603375 -0.923396,2.489733 -0.142875,0.14023 -0.1905,0.16139 -0.338666,0.19843"
       id="path8"
       style="fill:#231815;fill-rule:evenodd;stroke-width:0.264583" />
    <path
       class="cls-2"
       d="m 80.012645,95.874417 c -0.116416,-0.169334 0.02646,-0.391584 0.03175,-0.58473 -0.185208,-0.552979 -0.330729,-0.963083 0.02381,-1.431395 0.05556,-0.0079 0.113771,-0.01323 0.169333,-0.01588 0.256646,0.17727 0.619125,0.587375 0.838729,0.883708 0.267229,0.661458 -0.587375,0.957792 -1.063625,1.150937"
       id="path9"
       style="fill:#231815;fill-rule:evenodd;stroke-width:0.264583" />
    <path
       class="cls-2"
       d="m 80.544458,93.733937 c -0.140229,-0.04762 -0.137584,-0.07937 -0.164042,-0.127 0.06615,-0.134937 0.132292,-0.214312 0.103188,-0.351895 -0.338667,-0.518584 -0.320146,-1.309688 0.267229,-1.571625 0.169333,0.02117 0.174625,0.164041 0.251354,0.39952 0.381,0.370417 1.090083,0.830792 0.418042,1.330855 -0.283105,0.124354 -0.590021,0.22225 -0.873125,0.320145"
       id="path10"
       style="fill:#231815;fill-rule:evenodd;stroke-width:0.264583" />
    <path
       class="cls-2"
       d="m 108.80196,95.763292 c -0.52917,-0.164042 -0.43127,-1.037167 -0.34132,-1.386417 0.3863,-0.246063 0.8943,0.264583 0.9234,0.719667 -0.0979,0.500062 -0.0926,0.574145 -0.58208,0.66675"
       id="path11"
       style="fill:#231815;fill-rule:evenodd;stroke-width:0.264583" />
    <path
       class="cls-2"
       d="m 111.66739,99.777021 c -0.0185,-0.01058 -0.0318,-0.02381 -0.045,-0.0291 -0.67734,0.04233 -1.32557,-0.02381 -1.93146,-0.238125 q -0.0265,-0.05292 -0.0318,-0.134938 c 0.35718,-0.209021 0.86254,-0.150812 1.13506,-0.526521 0.0423,-0.293687 0.0767,-0.542396 0.0476,-0.79375 -0.67204,0.04233 -1.03187,0.515938 -1.56368,0.709084 -0.45509,0.0291 -1.26736,-0.383646 -1.39965,-0.746125 0,-0.587375 0.12171,-0.322792 0.74877,-0.36248 0.74613,-0.132291 1.49225,-0.560916 2.21456,-0.878416 q 0.15346,-0.116417 0.23813,-0.150813 c 0.1614,-0.486833 0.27252,-0.5715 0.78052,-0.672041 q 0.19844,-0.0979 0.77523,-0.449792 c 0.0159,-0.05556 0.0291,-0.113771 0.0503,-0.169333 -0.87842,0.103187 -1.5875,0.814916 -2.28865,1.285875 -0.3466,0.09525 -0.61118,0.03704 -0.85195,-0.07144 -0.15346,0.02117 -1.02923,0.174625 -0.6059,-0.171979 0.25929,-0.100542 0.45773,-0.288396 0.73554,-0.410104 0.65881,-0.4445 1.42081,-0.822854 2.1299,-1.232959 -0.008,-0.111125 -0.0476,-0.169333 -0.0688,-0.201083 0.003,-0.148167 0.0291,-0.224896 0.0714,-0.338667 -0.13493,0.04498 -0.17198,0.03704 -0.19579,0.137584 -0.42069,0.185208 -0.6006,0.568854 -0.95514,0.164041 -0.0952,0.370417 -0.35719,0.627063 -0.72761,0.650875 -0.37571,-0.193145 -0.38629,-0.822854 -0.45244,-1.113895 -0.0264,-0.0344 -0.0794,-0.277813 -0.18256,-0.563563 -0.16933,-0.346604 -0.48419,-0.735542 -0.27516,-1.050396 0.26722,-0.164041 0.37306,-0.227541 0.6006,0.134938 0.19579,0.148166 0.44185,0.34925 0.63765,0.608541 0.0132,0 0.0264,0 0.0423,-0.0026 0.11906,0.320145 0.41275,0.740833 0.381,1.150937 0.19844,-0.116417 0.47889,-0.343958 0.33337,-0.595312 -0.32543,-0.177271 -0.14023,-0.478896 0.0873,-0.592667 q 0.16139,0.0079 0.37041,-0.01058 c -0.005,-0.07937 -0.0106,-0.07937 -0.0503,-0.127 -0.27252,-0.09261 -0.2196,-0.15875 -0.14552,-0.378355 -0.3175,-0.116416 -0.43656,-0.447145 -0.31485,-0.68527 q 0.9181,-0.230188 1.34937,-0.367771 c 0.28575,-0.357188 0.59796,-1.3335 1.15359,-1.153584 0.17462,0.206375 0.29368,0.550334 0.25929,0.891646 -0.0714,0.145521 -0.16934,0.269875 -0.19579,0.431271 0.0556,-0.0026 0.11112,0 0.16668,0 0.38365,-0.1905 0.56092,-0.418042 0.78846,0.153458 0.37042,0.198438 0.50536,0.148167 0.36513,0.687917 -0.26988,0.542396 -0.56092,1.121833 -0.8599,1.664229 -0.005,0.02646 -0.0106,0.05027 -0.008,0.07408 0.0688,0.01323 0.13759,0.0291 0.20638,0.05027 0.0397,0.243417 0.0476,0.547688 0.0397,0.844021 -0.23284,0.341313 -0.52388,0.341313 -0.89165,0.388938 -0.46831,0.232833 -0.889,0.425979 -1.32821,0.687916 0,0.08731 -0.0132,0.174625 0.0291,0.288396 0.22225,-0.0079 0.44979,-0.0079 0.67997,-0.01058 0.25136,0.164042 0.23019,0.621771 0.0741,0.891646 -0.25665,0.0344 -0.41011,0.06879 -0.60854,0.174625 -0.0238,0.124354 -0.0476,0.248708 -0.0688,0.381 0.0185,0.486833 0.26988,1.664229 -0.45243,1.775354 m 1.44462,-6.00075 c 0.22754,-0.230188 0.38629,-0.455083 0.36513,-0.769938 -0.18786,-0.166687 -0.51859,-0.1905 -0.71702,-0.17727 q -0.0265,0.08731 -0.254,0.510645 c 0.0185,0.01058 0.045,0.02117 0.0714,0.03175 -0.0238,0.0079 -0.0503,0.01587 -0.0661,0.02911 0,0.01323 0.008,0.02381 0.0159,0.04233 0.10054,0.01323 0.15611,-0.0635 0.20109,-0.134938 0.35454,-0.05821 0.36248,0.06879 0.33866,0.447146 0.0132,0.0053 0.0265,0.01058 0.045,0.02117"
       id="path12"
       style="fill:#231815;fill-rule:evenodd;stroke-width:0.264583" />
    <path
       id="polygon12"
       style="fill:#231815;stroke-width:0.264583"
       class="cls-1"
       d="m 81.637187,101.39627 v 0.0979 l -1.039813,1.28587 h 1.039813 v 0.10054 0.10054 h -1.325563 v -0.0979 -0.10054 l 1.039813,-1.28323 h -0.957792 v -0.10054 -0.10055 h 1.243542 z" />
    <path
       id="polygon13"
       style="fill:#231815;stroke-width:0.264583"
       class="cls-1"
       d="m 83.375499,101.29837 h 0.116417 v 1.68275 h -0.116417 -0.11377 v -0.7911 h -0.878417 v 0.7911 H 82.269541 82.15577 v -1.68275 h 0.113771 0.113771 v 0.69057 h 0.878417 v -0.69057 z" />
    <path
       id="polygon14"
       style="fill:#231815;stroke-width:0.264583"
       class="cls-1"
       d="m 84.333291,102.0154 h 0.918104 v 0.10054 0.10054 h -0.918104 v 0.56356 h 1.018646 v 0.10054 0.10054 h -1.246188 v -1.68275 h 1.232959 v 0.10055 0.10054 h -1.005417 z" />
    <path
       class="cls-1"
       d="m 86.529333,101.29837 h 0.227541 v 1.2118 c 0,0.16404 -0.04233,0.29368 -0.127,0.38364 -0.08202,0.09 -0.201083,0.13494 -0.357187,0.13494 -0.156104,0 -0.280458,-0.0423 -0.365125,-0.12435 -0.08467,-0.0847 -0.124354,-0.19844 -0.119063,-0.34661 v -0.11642 h 0.214313 v 0.11642 c 0,0.09 0.02117,0.15875 0.06615,0.20638 0.04498,0.0503 0.108479,0.0741 0.187854,0.0741 0.07937,0 0.148167,-0.0291 0.195792,-0.0873 0.04763,-0.0582 0.07144,-0.13759 0.07144,-0.23813 v -1.21179 z"
       id="path14"
       style="fill:#231815;stroke-width:0.264583" />
    <path
       id="polygon15"
       style="fill:#231815;stroke-width:0.264583"
       class="cls-1"
       d="m 87.373353,101.29837 h 0.113771 0.113771 v 1.68275 h -0.113771 -0.113771 z" />
    <path
       class="cls-1"
       d="m 88.717437,101.29837 h 0.259291 l 0.605896,1.6854 h -0.246062 l -0.171979,-0.48948 h -0.674688 l -0.177271,0.48948 h -0.235479 l 0.635,-1.6854 z m -0.150813,0.99484 h 0.529167 l -0.259292,-0.74877 v 0 z"
       id="path15"
       style="fill:#231815;stroke-width:0.264583" />
    <path
       id="polygon16"
       style="fill:#231815;stroke-width:0.264583"
       class="cls-1"
       d="m 91.143666,102.66627 v -1.3679 h 0.111125 0.108479 v 1.68275 h -0.124354 -0.124354 l -0.867834,-1.37318 v 1.37318 h -0.111125 -0.108479 v -1.68275 h 0.134938 0.137583 z" />
    <path
       class="cls-1"
       d="m 92.768208,103.02875 c -0.232834,0 -0.423334,-0.082 -0.566209,-0.24342 -0.142875,-0.16404 -0.216958,-0.37571 -0.216958,-0.64293 0,-0.26723 0.07408,-0.48155 0.22225,-0.64559 0.148167,-0.16404 0.338667,-0.24606 0.579437,-0.24606 0.185209,0 0.343959,0.0503 0.47625,0.15346 0.132292,0.10319 0.209021,0.23548 0.232834,0.39687 h -0.219604 c -0.02117,-0.11112 -0.07673,-0.19843 -0.161396,-0.25929 -0.08731,-0.0609 -0.201084,-0.09 -0.341313,-0.09 -0.164041,0 -0.296333,0.0635 -0.399521,0.1905 -0.100541,0.127 -0.153458,0.29369 -0.153458,0.50007 0,0.2196 0.05027,0.38893 0.148167,0.51064 0.0979,0.11906 0.238125,0.17992 0.415396,0.17992 0.17727,0 0.314854,-0.0635 0.420687,-0.1905 0.01852,-0.0212 0.03175,-0.0397 0.04763,-0.0635 0.01852,-0.0291 0.0344,-0.0714 0.04762,-0.12436 0.01323,-0.0529 0.01852,-0.10318 0.01852,-0.15345 v -0.0212 h -0.52652 v -0.19315 h 0.738188 v 0.89165 h -0.142875 l -0.05556,-0.21167 -0.01323,0.0132 c -0.137583,0.16404 -0.320146,0.24342 -0.545042,0.24342"
       id="path16"
       style="fill:#231815;stroke-width:0.264583" />
    <path
       class="cls-1"
       d="m 96.424749,102.36465 c 0,0.20902 -0.05821,0.37041 -0.174625,0.48683 -0.116416,0.11642 -0.280458,0.17462 -0.486833,0.17462 -0.206375,0 -0.381,-0.0556 -0.494771,-0.16933 -0.113771,-0.11377 -0.169333,-0.27781 -0.169333,-0.49477 v -1.06892 h 0.227541 v 1.0504 c 0,0.1561 0.03704,0.27517 0.111125,0.35719 0.07408,0.082 0.182563,0.1217 0.325438,0.1217 0.142875,0 0.248708,-0.0397 0.325437,-0.1217 0.07408,-0.082 0.111125,-0.20109 0.111125,-0.35719 v -1.0504 h 0.227542 v 1.06892 z"
       id="path17"
       style="fill:#231815;stroke-width:0.264583" />
    <path
       id="polygon17"
       style="fill:#231815;stroke-width:0.264583"
       class="cls-1"
       d="m 98.186874,102.66627 v -1.3679 h 0.108479 0.111125 v 1.68275 h -0.124354 -0.127 l -0.865187,-1.37318 v 1.37318 h -0.111125 -0.111125 v -1.68275 h 0.137583 0.137583 z" />
    <path
       id="polygon18"
       style="fill:#231815;stroke-width:0.264583"
       class="cls-1"
       d="m 99.033541,101.29837 h 0.113771 0.113771 v 1.68275 h -0.113771 -0.113771 z" />
    <path
       id="polygon19"
       style="fill:#231815;stroke-width:0.264583"
       class="cls-1"
       d="m 101.05231,101.29837 h 0.127 l -0.61383,1.68275 h -0.12171 -0.12435 l -0.611192,-1.68275 h 0.124355 0.127 l 0.484187,1.43934 0.48154,-1.43934 z" />
    <path
       id="polygon20"
       style="fill:#231815;stroke-width:0.264583"
       class="cls-1"
       d="m 101.84342,102.0154 h 0.91545 v 0.10054 0.10054 h -0.91545 v 0.56356 h 1.016 v 0.10054 0.10054 h -1.24355 v -1.68275 h 1.23032 v 0.10055 0.10054 h -1.00277 z" />
    <path
       class="cls-1"
       d="m 103.46796,101.29837 h 0.78316 c 0.17727,0 0.31486,0.0397 0.40746,0.11642 0.0926,0.0767 0.14023,0.1905 0.14023,0.34131 0,0.15082 -0.0503,0.26194 -0.14552,0.34661 -0.0238,0.0212 -0.0503,0.0397 -0.0794,0.0556 l 0.037,0.0185 c 0.10318,0.0582 0.1561,0.15875 0.15875,0.29633 l 0.008,0.30692 c 0,0.0503 0.008,0.0873 0.0212,0.10848 0.0106,0.0212 0.0318,0.0397 0.0661,0.0582 v 0.037 h -0.28046 c 0,0 -0.0132,-0.0503 -0.0185,-0.10848 -0.005,-0.0582 -0.0106,-0.12171 -0.0132,-0.19314 l -0.005,-0.1323 c -0.003,-0.10583 -0.0291,-0.17991 -0.0767,-0.22489 -0.0476,-0.045 -0.127,-0.0662 -0.23548,-0.0662 h -0.5424 v 0.72496 h -0.22754 v -1.6854 z m 0.22754,0.75936 h 0.56356 c 0.10583,0 0.18256,-0.0238 0.23283,-0.0688 0.0503,-0.045 0.0741,-0.11907 0.0741,-0.21961 0,-0.10054 -0.0265,-0.16933 -0.0767,-0.21166 -0.0503,-0.045 -0.13229,-0.0688 -0.24342,-0.0688 h -0.54769 v 0.56886 z"
       id="path20"
       style="fill:#231815;stroke-width:0.264583" />
    <path
       class="cls-1"
       d="m 106.44452,101.78521 c -0.0106,-0.10584 -0.0529,-0.18786 -0.12435,-0.24606 -0.0741,-0.0582 -0.17198,-0.0873 -0.29634,-0.0873 -0.12435,0 -0.22754,0.0238 -0.29369,0.0741 -0.0661,0.0503 -0.10054,0.1217 -0.10054,0.21695 0,0.0662 0.0238,0.11378 0.0662,0.14553 0.045,0.0318 0.13229,0.0635 0.26723,0.0952 l 0.29369,0.0714 c 0.1561,0.037 0.26987,0.0926 0.33602,0.16669 0.0688,0.0714 0.10318,0.17727 0.10318,0.30956 0,0.15346 -0.0582,0.27517 -0.17462,0.36248 -0.11642,0.09 -0.27252,0.13494 -0.47096,0.13494 -0.2196,0 -0.39158,-0.0503 -0.51594,-0.15346 -0.12171,-0.10319 -0.18256,-0.24077 -0.18256,-0.41804 v -0.0132 h 0.20902 c 0.003,0.12171 0.0476,0.21696 0.13229,0.2831 0.0847,0.0662 0.20373,0.10055 0.35454,0.10055 0.14023,0 0.24607,-0.0238 0.32015,-0.0714 0.0714,-0.0476 0.10848,-0.11906 0.10848,-0.21167 0,-0.0794 -0.0238,-0.14023 -0.0714,-0.17991 -0.0476,-0.0397 -0.14287,-0.0741 -0.28575,-0.10848 l -0.29369,-0.0688 c -0.14816,-0.0344 -0.254,-0.0847 -0.3175,-0.14552 -0.0635,-0.0635 -0.0953,-0.15081 -0.0953,-0.25929 0,-0.16139 0.0529,-0.28839 0.16405,-0.38364 0.11112,-0.0953 0.25929,-0.14288 0.4445,-0.14288 0.1852,0 0.34131,0.0476 0.45243,0.14288 0.11377,0.0952 0.17198,0.22489 0.17992,0.39158 h -0.20902 z"
       id="path21"
       style="fill:#231815;stroke-width:0.264583" />
    <path
       id="polygon21"
       style="fill:#231815;stroke-width:0.264583"
       class="cls-1"
       d="m 107.2515,101.29837 h 0.11377 0.11377 v 1.68275 h -0.11377 -0.11377 z" />
    <path
       id="polygon22"
       style="fill:#231815;stroke-width:0.264583"
       class="cls-1"
       d="m 109.32583,101.49946 h -0.56885 v 1.48431 h -0.11377 -0.11377 v -1.48431 h -0.5715 v -0.10054 -0.10055 h 1.36789 v 0.10055 z" />
    <path
       id="polygon23"
       style="fill:#231815;stroke-width:0.264583"
       class="cls-1"
       d="m 110.95567,101.29837 h 0.13229 0.13229 l -0.635,1.01336 v 0.66939 h -0.11377 -0.11377 v -0.67204 l -0.635,-1.01071 h 0.12964 0.13494 l 0.48419,0.81757 z" />
    <path
       class="cls-1"
       d="m 68.095812,89.69375 c 4.135438,0 7.506229,3.373437 7.506229,7.506229 0,4.132791 -3.370791,7.506231 -7.506229,7.506231 -4.135437,0 -7.506229,-3.37079 -7.506229,-7.506231 0,-4.135437 3.373437,-7.506229 7.506229,-7.506229 m 0,0.298979 c -3.96875,0 -7.20725,3.2385 -7.20725,7.20725 0,3.968751 3.2385,7.207251 7.20725,7.207251 3.96875,0 7.20725,-3.2385 7.20725,-7.207251 0,-3.96875 -3.2385,-7.20725 -7.20725,-7.20725"
       id="path23"
       style="fill:#231815;stroke-width:0.264583" />
    <path
       class="cls-1"
       d="m 65.457916,100.39879 c -0.468312,-0.38894 -0.854604,-0.878415 -1.116541,-1.43404 -0.254,-0.537104 -0.39423,-1.135063 -0.39423,-1.764771 0,-2.286 1.865313,-4.148667 4.148667,-4.148667 2.283354,0 4.148667,1.862667 4.148667,4.148667 0,0.629708 -0.142875,1.227667 -0.396875,1.764771 -0.261938,0.558271 -0.648229,1.0451 -1.116542,1.43404 l -0.09525,-0.11642 c 0.452438,-0.375703 0.822854,-0.846662 1.076854,-1.383766 0.243417,-0.515937 0.381,-1.092729 0.381,-1.701271 0,-2.201333 -1.796521,-4.0005 -4.0005,-4.0005 -2.203979,0 -3.997854,1.796521 -3.997854,4.0005 0,0.608542 0.137583,1.185334 0.381,1.701271 0.254,0.537104 0.624417,1.008063 1.076854,1.383766 z"
       id="path24"
       style="fill:#231815;stroke-width:0.264583" />
    <path
       id="polygon24"
       style="fill:#231815;fill-rule:evenodd;stroke-width:0.264583"
       class="cls-2"
       d="m 63.052854,99.200229 -0.156104,0.05292 -1.296459,-0.198438 0.22225,0.597959 -0.153458,0.05292 -0.283104,-0.759354 0.153458,-0.05292 1.299104,0.195792 -0.198437,-0.531812 0.153458,-0.05292 z" />
    <path
       id="polygon25"
       style="fill:#231815;fill-rule:evenodd;stroke-width:0.264583"
       class="cls-2"
       d="m 63.116354,99.390729 0.07937,0.150813 -0.550334,0.283104 0.193146,0.375704 0.550334,-0.280454 0.07673,0.150814 -1.304396,0.66939 -0.07673,-0.15081 0.608541,-0.31221 -0.193145,-0.378351 -0.608542,0.314851 -0.07938,-0.15081 z" />
    <path
       id="polygon26"
       style="fill:#231815;fill-rule:evenodd;stroke-width:0.264583"
       class="cls-2"
       d="m 63.129583,100.62633 0.309562,0.43127 -0.137583,0.0847 -0.306917,-0.43127 -0.436562,0.27252 0.357187,0.50006 -0.134937,0.0847 -0.463021,-0.64823 1.222375,-0.75935 0.441854,0.61648 -0.134937,0.0847 -0.336021,-0.47096 z" />
    <path
       id="polygon27"
       style="fill:#231815;fill-rule:evenodd;stroke-width:0.264583"
       class="cls-2"
       d="m 64.56627,101.34865 0.153459,0.12964 -0.899584,1.10596 -0.156104,-0.12965 z" />
    <path
       class="cls-2"
       d="m 64.518645,103.07108 0.185209,-0.39158 -0.224896,-0.1614 -0.333375,0.3228 -0.153458,-0.11642 1.055687,-1.04246 0.211667,0.12965 -0.560917,1.3626 -0.182562,-0.10054 z m 0.269875,-0.58208 0.219605,-0.50535 -0.02117,-0.0159 -0.381,0.38629 0.179917,0.13494 z"
       id="path27"
       style="fill:#231815;fill-rule:evenodd;stroke-width:0.264583" />
    <path
       id="polygon28"
       style="fill:#231815;fill-rule:evenodd;stroke-width:0.264583"
       class="cls-2"
       d="m 65.7225,102.0154 -0.07937,0.96572 0.428625,-0.79639 0.161395,0.0661 -0.658812,1.3335 -0.187854,-0.09 0.108479,-1.016 -0.415396,0.8546 -0.1905,-0.0873 0.661458,-1.30969 z" />
    <path
       class="cls-2"
       d="m 66.561229,103.87806 -0.121709,-0.0397 0.01058,-0.11641 c -0.0291,0.0238 -0.06615,0.0397 -0.113771,0.0476 -0.04762,0.008 -0.09525,0.003 -0.142875,-0.0132 -0.100542,-0.0318 -0.177271,-0.11112 -0.224896,-0.23812 -0.05027,-0.127 -0.03969,-0.30163 0.0291,-0.52123 0.07408,-0.24077 0.166688,-0.4101 0.275167,-0.50535 0.108479,-0.0953 0.275167,-0.14817 0.420687,-0.10055 0.15875,0.0503 0.259292,0.24342 0.214313,0.5133 l -0.187854,-0.0159 c 0.03175,-0.11377 0.01588,-0.29369 -0.0979,-0.33073 -0.08996,-0.0291 -0.193146,0 -0.256646,0.0714 -0.0635,0.0714 -0.127,0.20902 -0.1905,0.4101 -0.05821,0.1905 -0.07408,0.33073 -0.05027,0.41804 0.02646,0.0873 0.07144,0.14288 0.132292,0.1614 0.0635,0.0212 0.119062,0.0132 0.171979,-0.0265 0.05027,-0.037 0.0926,-0.10848 0.124354,-0.20902 l 0.02646,-0.0847 -0.224896,-0.0714 0.04498,-0.14552 0.370417,0.11906 -0.209021,0.67998 z"
       id="path28"
       style="fill:#231815;fill-rule:evenodd;stroke-width:0.264583" />
    <path
       class="cls-2"
       d="m 68.511208,103.55527 c -0.0053,0.13229 -0.03969,0.23548 -0.105833,0.30956 -0.06615,0.0741 -0.169334,0.10848 -0.306917,0.10319 -0.137583,-0.005 -0.238125,-0.0476 -0.298979,-0.127 -0.06085,-0.0794 -0.08996,-0.18521 -0.08467,-0.3175 l 0.03175,-1.00012 0.174625,0.008 -0.03175,1.00013 c -0.0026,0.0953 0.01587,0.16404 0.05556,0.20902 0.03969,0.045 0.0926,0.0688 0.15875,0.0714 0.06614,0 0.121708,-0.0185 0.164041,-0.0609 0.04233,-0.0423 0.06615,-0.11112 0.06879,-0.20373 l 0.03175,-1.00012 0.174625,0.008 z"
       id="path29"
       style="fill:#231815;fill-rule:evenodd;stroke-width:0.264583" />
    <path
       id="polygon29"
       style="fill:#231815;fill-rule:evenodd;stroke-width:0.264583"
       class="cls-2"
       d="m 68.855166,102.48635 0.410104,0.6694 -0.07673,-0.71967 0.156104,-0.0265 0.169334,1.41023 -0.15875,0.0265 -0.494771,-0.95514 0.07673,1.02393 -0.187854,0.0265 -0.108479,-1.43669 z" />
    <path
       id="polygon30"
       style="fill:#231815;fill-rule:evenodd;stroke-width:0.264583"
       class="cls-2"
       d="m 69.482229,102.36729 0.185208,-0.0556 0.381,1.35996 -0.182562,0.0556 z" />
    <path
       id="polygon31"
       style="fill:#231815;fill-rule:evenodd;stroke-width:0.264583"
       class="cls-2"
       d="m 70.37652,102.02333 0.169334,-0.0741 0.232833,1.50019 -0.179917,0.09 -0.796395,-1.2753 0.174625,-0.0741 0.552979,0.87048 z" />
    <path
       id="polygon32"
       style="fill:#231815;fill-rule:evenodd;stroke-width:0.264583"
       class="cls-2"
       d="m 71.080312,102.35406 0.447146,-0.24077 0.08202,0.13758 -0.447146,0.24342 0.259292,0.44715 0.518583,-0.28046 0.08202,0.13758 -0.669396,0.36248 -0.73025,-1.25412 0.637646,-0.34396 0.07937,0.14023 -0.486834,0.26193 z" />
    <path
       class="cls-2"
       d="m 72.786875,102.2641 -0.148167,0.127 -0.518583,-0.43127 -0.134938,0.12171 0.351896,0.4789 -0.148167,0.15346 -0.859896,-1.2065 0.275167,-0.1958 c 0.08731,-0.0635 0.203729,-0.10848 0.306917,-0.0952 0.267229,0.0317 0.381,0.21167 0.370416,0.42069 -0.0026,0.0662 -0.0079,0.13229 -0.0344,0.19844 l 0.53975,0.43127 z m -0.928688,-0.85195 c -0.108479,-0.0291 -0.195792,0.0556 -0.275167,0.11641 l 0.28575,0.37836 c 0.08731,-0.0635 0.127,-0.0767 0.193146,-0.1905 0.0291,-0.13759 -0.03175,-0.25665 -0.206375,-0.30163"
       id="path32"
       style="fill:#231815;fill-rule:evenodd;stroke-width:0.264583" />
    <path
       class="cls-2"
       d="m 73.249895,101.09729 c 0.29898,0.17992 0.230188,0.69321 -0.164041,0.75142 -0.105834,0.0159 -0.230188,-0.0159 -0.283104,-0.0503 l 0.06614,-0.15346 c 0.06615,0.0132 0.129646,0.037 0.193146,0.0265 0.256646,-0.0476 0.243417,-0.31486 0.09525,-0.42334 -0.05292,-0.0397 -0.127,-0.0423 -0.187854,-0.037 -0.171979,0.0185 -0.283104,0.14817 -0.473604,0.15875 -0.209021,0.0132 -0.354542,-0.11377 -0.391583,-0.32014 -0.01852,-0.10848 0.0079,-0.21167 0.06085,-0.29634 0.111125,-0.17462 0.346604,-0.19843 0.518583,-0.0953 l -0.06615,0.15875 c -0.0926,-0.0503 -0.256646,-0.0503 -0.320146,0.0476 -0.03175,0.0503 -0.04498,0.10319 -0.03439,0.1561 0.02117,0.11642 0.100541,0.18256 0.211666,0.16934 0.185209,-0.0238 0.312209,-0.17463 0.494771,-0.16934 0.08731,0 0.1905,0.0238 0.277813,0.0767"
       id="path33"
       style="fill:#231815;fill-rule:evenodd;stroke-width:0.264583" />
    <path
       id="polygon33"
       style="fill:#231815;fill-rule:evenodd;stroke-width:0.264583"
       class="cls-2"
       d="m 72.538166,100.26915 0.108479,-0.1323 1.235604,0.77523 -0.105833,0.13229 z" />
    <path
       id="polygon34"
       style="fill:#231815;fill-rule:evenodd;stroke-width:0.264583"
       class="cls-2"
       d="m 72.760416,99.914604 0.351896,-0.653521 0.145521,0.08731 -0.134938,0.251354 1.166813,0.687923 -0.07937,0.14552 -1.166813,-0.685276 -0.137583,0.251354 z" />
    <path
       id="polygon35"
       style="fill:#231815;fill-rule:evenodd;stroke-width:0.264583"
       class="cls-2"
       d="m 73.196979,99.025604 0.709083,0.01323 -0.502708,-0.463021 0.06879,-0.193145 0.714375,0.635 0.473604,0.206375 -0.05821,0.15875 -0.439208,-0.17198 -1.016,-0.02117 z" />
    <path
       class="cls-2"
       d="m 63.711666,101.9466 c -0.127,0.12436 -0.243416,0.1905 -0.351896,0.19315 -0.108479,0.003 -0.206375,-0.0397 -0.296333,-0.12965 -0.07937,-0.082 -0.121708,-0.17727 -0.119062,-0.28839 0,-0.0556 0.01588,-0.11377 0.04762,-0.17198 l 0.161395,0.0979 c -0.01323,0.0265 -0.02117,0.0529 -0.02117,0.0794 0,0.0582 0.01587,0.10848 0.05556,0.14817 0.05556,0.0556 0.111125,0.0794 0.171979,0.0767 0.06086,-0.005 0.132292,-0.0503 0.216959,-0.13494 l 0.714375,-0.70644 0.132291,0.13494 -0.706437,0.70114 z"
       id="path35"
       style="fill:#231815;fill-rule:evenodd;stroke-width:0.264583" />
    <path
       class="cls-2"
       d="m 66.137895,101.6979 -0.500062,-0.30957 0.04498,-0.0794 0.185208,0.11377 0.296334,-0.51858 -0.185209,-0.11378 0.03969,-0.0688 c 0.07144,0.0423 0.127,0.0688 0.166687,0.0714 0.04233,0.005 0.07673,-0.0106 0.105834,-0.0503 l 0.105833,0.0661 -0.399521,0.69585 0.179917,0.11112 -0.04498,0.0794 z m 1.489605,-0.31486 c 0.0079,-0.0397 -0.0053,-0.0767 -0.04233,-0.10848 -0.03704,-0.0317 -0.08996,-0.0529 -0.164041,-0.0635 -0.06615,-0.0106 -0.124355,-0.005 -0.17198,0.0132 -0.04762,0.0185 -0.07408,0.0476 -0.08202,0.0873 -0.0053,0.0291 0,0.0556 0.01852,0.0794 0.01588,0.0238 0.04498,0.0476 0.08731,0.0688 0.01587,0.0106 0.04498,0.0238 0.07937,0.0397 0.03704,0.0185 0.07144,0.0318 0.103187,0.0423 0.05821,-0.0185 0.100542,-0.0423 0.124355,-0.0661 0.02381,-0.0238 0.03969,-0.0556 0.04762,-0.0926 m -0.06615,0.44715 c 0.0079,-0.037 0,-0.0662 -0.01587,-0.09 -0.01852,-0.0238 -0.05556,-0.0529 -0.116417,-0.0847 -0.01852,-0.0106 -0.04498,-0.0212 -0.07673,-0.037 -0.03175,-0.0132 -0.07144,-0.0291 -0.111125,-0.0476 -0.05556,0.0159 -0.100542,0.037 -0.132292,0.0661 -0.0344,0.0265 -0.05556,0.0609 -0.0635,0.10319 -0.01058,0.0529 0.0053,0.10054 0.04762,0.14287 0.04233,0.0423 0.103188,0.0688 0.177271,0.0794 0.07673,0.0106 0.142875,0.003 0.195792,-0.0185 0.05292,-0.0238 0.08467,-0.0609 0.09525,-0.11377 m -0.309563,0.2196 c -0.06615,-0.0106 -0.129646,-0.0238 -0.182562,-0.045 -0.05292,-0.0212 -0.0979,-0.045 -0.132292,-0.0767 -0.0344,-0.0291 -0.05556,-0.0608 -0.07144,-0.0979 -0.01323,-0.0344 -0.01587,-0.0714 -0.0079,-0.10848 0.01058,-0.0476 0.03969,-0.09 0.08731,-0.12436 0.04763,-0.0344 0.111125,-0.0582 0.193145,-0.0714 v 0 c -0.06085,-0.037 -0.105833,-0.0741 -0.132291,-0.10848 -0.02646,-0.0344 -0.0344,-0.0741 -0.02646,-0.11907 0.01323,-0.0661 0.0635,-0.11641 0.150813,-0.15081 0.08731,-0.0344 0.1905,-0.0423 0.309562,-0.0265 0.124355,0.0185 0.219605,0.0529 0.288396,0.10584 0.06615,0.0529 0.0926,0.11112 0.07937,0.17727 -0.0079,0.0397 -0.0344,0.0767 -0.07937,0.11112 -0.04233,0.0344 -0.100541,0.0556 -0.174625,0.0688 v 0 c 0.07408,0.0397 0.129646,0.0767 0.164042,0.11642 0.0344,0.0397 0.04498,0.0873 0.0344,0.14288 -0.01587,0.0767 -0.07144,0.13229 -0.166688,0.17198 -0.09525,0.0397 -0.206375,0.0503 -0.336021,0.0318 m 1.733021,-0.54505 c 0,-0.0609 -0.0079,-0.11112 -0.02381,-0.14816 -0.01852,-0.037 -0.03969,-0.0688 -0.07144,-0.09 -0.02646,-0.0185 -0.05292,-0.0318 -0.07937,-0.0397 -0.02646,-0.008 -0.05556,-0.0106 -0.08996,-0.0106 -0.07408,0 -0.132292,0.0185 -0.177271,0.0529 -0.04498,0.0344 -0.06615,0.0873 -0.06615,0.15346 0,0.037 0.0079,0.0688 0.02117,0.0926 0.01587,0.0238 0.03969,0.045 0.07144,0.0635 0.02381,0.0132 0.04762,0.0212 0.07937,0.0238 0.02911,0.005 0.06085,0.005 0.0926,0.005 0.03969,0 0.07937,-0.005 0.124354,-0.0132 0.04498,-0.008 0.08467,-0.0212 0.116416,-0.037 0,-0.005 0,-0.0132 0,-0.0238 0,-0.0106 0,-0.0212 0,-0.0344 m -0.690562,-0.0714 c 0,-0.0476 0.01058,-0.09 0.0344,-0.127 0.02381,-0.0397 0.05292,-0.0714 0.0926,-0.10054 0.03704,-0.0265 0.08202,-0.0476 0.137583,-0.0609 0.05556,-0.0159 0.108479,-0.0212 0.164042,-0.0212 0.06085,0 0.119062,0.008 0.169333,0.0212 0.05027,0.0132 0.0926,0.0344 0.129646,0.0609 0.04763,0.0318 0.08202,0.0767 0.108479,0.12965 0.02646,0.0529 0.03969,0.12171 0.03969,0.20373 0,0.0741 -0.01323,0.14552 -0.03704,0.21166 -0.02646,0.0662 -0.06085,0.12171 -0.111125,0.16669 -0.05292,0.0476 -0.113771,0.082 -0.187854,0.10584 -0.07144,0.0238 -0.161396,0.037 -0.269875,0.037 -0.02381,0 -0.05027,0 -0.07673,0 -0.02646,0 -0.05292,-0.005 -0.07673,-0.0106 v -0.11641 h 0.01058 c 0.01587,0.005 0.03969,0.0106 0.07144,0.0159 0.03175,0.005 0.0635,0.008 0.0979,0.008 0.119063,0 0.211667,-0.0265 0.277813,-0.0767 0.06615,-0.0529 0.105833,-0.12435 0.113771,-0.22225 -0.04763,0.0212 -0.09525,0.037 -0.137584,0.0476 -0.04498,0.0106 -0.0926,0.0159 -0.142875,0.0159 -0.05027,0 -0.09525,-0.003 -0.137583,-0.0106 -0.03969,-0.008 -0.08202,-0.0212 -0.124354,-0.0423 -0.05027,-0.0238 -0.08467,-0.0556 -0.111125,-0.0926 -0.02381,-0.037 -0.03704,-0.082 -0.03704,-0.13494 m 1.963208,-0.77523 -0.0344,0.92604 -0.14023,0.09 0.01323,-0.87577 -0.53975,0.26194 -0.04762,-0.10319 0.679979,-0.35454 0.07144,0.0556 z"
       id="path36"
       style="fill:#231815;fill-rule:evenodd;stroke-width:0.264583" />
    <path
       class="cls-2"
       d="m 70.545854,93.162437 c -0.108479,-0.05292 -0.03175,-0.07144 -0.02646,-0.174625 0.0053,-0.08731 -0.05027,-0.1905 -0.0344,-0.251354 0.04762,-0.166687 0.261937,-0.103187 0.378354,-0.01852 0.02117,0.01587 0.03969,0.05556 0.05556,0.0979 0.03704,0.100542 0.07937,0.243417 -0.03969,0.3175 -0.100542,0.0635 -0.243417,0.07408 -0.336021,0.0291"
       id="path37"
       style="fill:#231815;fill-rule:evenodd;stroke-width:0.264583" />
    <path
       class="cls-2"
       d="m 69.283791,92.667667 c 0,0 -0.0079,-0.0053 -0.01058,-0.0079 0.0026,-0.01323 0.0079,-0.02381 0.01058,-0.03704 0.03969,-0.0053 0.399521,-0.132291 0.402167,-0.140229 0.108479,-0.05027 0.209021,-0.111125 0.264583,-0.219604 -0.240771,0.01852 -0.492125,0.129646 -0.727604,0.08996 -0.100542,-0.05292 -0.161396,-0.129645 -0.227542,-0.179916 0,-0.0053 0,-0.0079 0,-0.01323 -0.103187,-0.111125 -0.08731,-0.214313 0.05821,-0.227542 0.219604,0.108479 0.616479,0.0291 0.85725,0 0.05556,-0.01058 0.209021,-0.02646 0.259291,-0.06085 0.127,-0.293688 0.169334,-0.611188 0.256646,-0.899584 0.127,-0.193145 0.224896,-0.01852 0.330729,0.121709 0.0053,0.01852 0.02911,0.04762 0.04762,0.0926 0.0053,0 0.0079,0 0.01323,0 0.0344,0.100542 0.03969,0.145521 -0.06615,0.209021 -0.0926,0.129646 -0.161396,0.283104 -0.193146,0.449791 0.164042,0.01587 0.296333,-0.100541 0.481542,-0.05821 0.02381,0.0979 0,0.169333 -0.0979,0.219604 -0.150813,0.03175 -0.312209,0.05556 -0.481542,0.08731 -0.07408,0.145521 -0.179917,0.320146 -0.320146,0.420687 -0.02117,0.01588 -0.116416,0.06879 -0.140229,0.07673 -0.113771,0.03175 -0.219604,0.08202 -0.336021,0.08467 -0.320146,0.01058 -0.320146,-0.0053 -0.375708,-0.01058"
       id="path38"
       style="fill:#231815;fill-rule:evenodd;stroke-width:0.264583" />
    <path
       class="cls-2"
       d="m 65.62725,93.736583 c -0.132292,-0.0079 -0.288396,-0.103187 -0.383646,-0.164041 0,-0.0344 -0.0053,-0.06879 -0.0026,-0.103188 0.187854,-0.304271 0.378354,-0.592667 0.526521,-0.923396 0.0291,-0.140229 0.07673,-0.296333 0.113771,-0.436562 0,-0.0026 0.0079,-0.0079 0.01058,-0.01058 0,-0.0053 -0.0026,-0.0079 -0.0053,-0.01058 0.04763,-0.07937 0.07144,-0.105833 0.161396,-0.03969 0.03175,0.07144 -0.06615,0.201083 -0.08202,0.28575 0,0.150812 -0.0053,0.30427 -0.01852,0.46302 q -0.01323,0.03175 -0.04233,0.20373 c -0.05027,0.08202 -0.08731,0.267229 -0.0926,0.36777 -0.0635,0.08202 -0.04233,0.243417 -0.121708,0.336021 -0.02117,0.01058 -0.04233,0.02117 -0.06085,0.03175"
       id="path39"
       style="fill:#231815;fill-rule:evenodd;stroke-width:0.264583" />
    <path
       class="cls-2"
       d="m 66.831104,92.186125 c -0.166688,0.05821 -0.254,-0.0291 -0.381,-0.08996 -0.02117,-0.04233 -0.0026,-0.07937 -0.01058,-0.10848 q 0.03704,-0.02646 0.05556,-0.05027 c 0.06615,-0.03704 0.08996,-0.04233 0.164042,-0.07673 0.08467,-0.05821 0.261937,-0.320145 0.370416,-0.280458 0.08996,0.193146 -0.04762,0.481542 -0.198437,0.605896"
       id="path40"
       style="fill:#231815;fill-rule:evenodd;stroke-width:0.264583" />
    <path
       class="cls-2"
       d="m 65.447333,92.368687 c -0.08467,-0.0291 -0.195792,-0.277812 -0.232833,-0.357187 -0.0079,-0.15875 0.132291,-0.22225 0.28575,-0.177271 0.142875,0.08731 0.227541,0.113771 0.185208,0.296333 -0.07408,0.14023 -0.121708,0.166688 -0.240771,0.23548"
       id="path41"
       style="fill:#231815;fill-rule:evenodd;stroke-width:0.264583" />
    <path
       class="cls-2"
       d="m 66.614145,91.768083 c -0.04762,-0.07144 -0.0053,-0.275166 -0.05292,-0.304271 -0.03704,0.02117 -0.07144,0.05292 -0.113771,0.07144 -0.119063,-0.0079 -0.272521,-0.08731 -0.269875,-0.195792 0.03969,-0.111125 0.02117,-0.07937 0.132292,-0.132291 0.08996,-0.08996 0.179916,-0.179917 0.269875,-0.269875 0.171979,-0.105834 0.293687,-0.03969 0.375708,0.137583 0.01323,0.129646 -0.0291,0.251354 -0.06879,0.373062 -0.07673,0.09261 -0.142875,0.185209 -0.209021,0.277813 -0.02381,0.01323 -0.04762,0.0291 -0.06879,0.04233"
       id="path42"
       style="fill:#231815;fill-rule:evenodd;stroke-width:0.264583" />
    <path
       class="cls-2"
       d="m 65.402354,91.641083 c -0.05292,-0.01852 -0.04233,-0.04498 -0.03704,-0.08731 -0.0344,-0.07408 -0.103187,-0.116417 -0.137583,-0.187854 -0.0291,-0.142875 -0.07408,-0.182563 0.01323,-0.288396 0.100542,0.0026 0.460375,0.03969 0.455083,0.235479 -0.03969,0.137583 -0.179916,0.267229 -0.293687,0.328083"
       id="path43"
       style="fill:#231815;fill-rule:evenodd;stroke-width:0.264583" />
    <path
       class="cls-2"
       d="m 63.558208,96.588792 c -0.156104,0.108479 -0.531813,0.03704 -0.481542,-0.187855 -0.02117,-0.02117 -0.0344,-0.06085 -0.02646,-0.08731 -0.0053,-0.0026 -0.0079,-0.0053 -0.01058,-0.0053 -0.03969,-0.235479 -0.166688,-0.457729 -0.23548,-0.679979 -0.03704,-0.06879 -0.07937,-0.124354 -0.05292,-0.198437 0.05292,-0.01323 0.108479,0.04233 0.153458,0.08467 0.02381,-0.0053 0.04762,-0.06085 0.06085,-0.0979 -0.01588,-0.156104 -0.0053,-0.333375 -0.02646,-0.49477 -0.03969,-0.0344 -0.07937,-0.06879 -0.116417,-0.105834 -0.03175,0.07937 -0.132291,0.341313 -0.22225,0.201084 0.02381,-0.105834 0.03969,-0.28575 -0.02117,-0.391584 -0.07673,-0.08467 -0.187855,-0.142875 -0.22225,-0.235479 0.01588,-0.127 0.211666,-0.15875 0.325437,-0.105833 0.0926,0.0079 0.0926,-0.166688 0.195792,0.121708 0,0.04762 0.04763,0.07673 0.100541,0.103188 0.0079,-0.01058 0.01588,-0.02117 0.02381,-0.03175 0,-0.121709 -0.0053,-0.256646 0.0053,-0.388938 -0.113771,-0.116417 -0.211667,-0.211667 -0.280459,-0.354542 0,-0.134937 0.153459,-0.211666 0.28575,-0.254 0.04233,-0.07144 0.04498,-0.134937 0.04233,-0.227541 q 0.01058,-0.0291 0.04233,-0.07673 c 0.04498,0.0026 0.08467,0.02117 0.134937,0.05027 0.105834,0.137584 -0.116416,0.55298 0.0926,0.587375 0.04233,-0.07144 -0.01588,-0.14552 -0.04763,-0.203729 0.01058,-0.103187 0.171979,-0.232833 0.28575,-0.272521 0.166687,-0.01323 0.156104,0.07937 0.15875,0.22225 0.0079,0.02117 0.01587,0.03969 0.02381,0.05821 q 0.211667,0.153458 0.505354,0.351896 c 0.05556,0.08731 0.07673,0.137583 0.100542,0.243416 0.0026,0 0.0053,0.0026 0.01058,0.0053 0,0.0053 -0.0053,0.0079 -0.0053,0.01058 0.03969,0.08202 0.04233,0.216959 -0.05821,0.230188 -0.240771,-0.164042 -0.481541,-0.34925 -0.714375,-0.497417 -0.0026,0.0053 -0.0053,0.01058 -0.0053,0.01588 0.105833,0.0979 0.243416,0.365125 0.248708,0.515938 -0.05821,0.09525 -0.164042,0.134937 -0.261938,0.108479 -0.01852,-0.02646 -0.01058,-0.04762 -0.01323,-0.07673 -0.07144,-0.124355 -0.277812,-0.246063 -0.383646,-0.3175 -0.03969,0.08202 0.04233,0.325437 0.06615,0.425979 0.0053,0.05821 0.0079,0.119062 0.01323,0.174625 0.07144,0.08731 0.145521,0.169333 0.224896,0.256646 0.0291,0.05027 0.05821,0.100541 0.08996,0.150812 0,0.0053 -0.0053,0.0079 -0.0053,0.01058 0.0344,0.07673 0.111125,0.296334 -0.03175,0.296334 -0.01323,-0.0079 -0.02646,-0.01587 -0.03969,-0.02646 -0.04498,-0.11377 -0.132291,-0.238125 -0.224895,-0.30427 -0.0344,0.111125 0.0079,0.230187 -0.04763,0.325437 -0.04762,0.04498 -0.100542,0.08731 -0.142875,0.111125 -0.0053,-0.0026 -0.0079,-0.0053 -0.01058,-0.0053 -0.0291,0.01323 -0.06615,0.02117 -0.06879,0.03969 0.03969,0.05292 0.08202,0.105833 0.124354,0.15875 0.132291,0.232833 0.280458,0.433917 0.455083,0.645583 0.01058,0.05821 0.0079,0.07408 -0.0079,0.116417"
       id="path44"
       style="fill:#231815;fill-rule:evenodd;stroke-width:0.264583" />
    <path
       class="cls-2"
       d="m 62.539562,95.623062 c -0.06085,0 -0.0926,-0.07144 -0.137583,-0.105833 -0.166688,-0.04762 -0.293688,-0.08202 -0.346604,-0.246062 0.0079,-0.01588 0.01588,-0.02911 0.02381,-0.04498 0.08731,-0.03175 0.248708,-0.05292 0.357188,-0.05556 0.206375,0.04498 0.137583,0.304271 0.103187,0.455083"
       id="path45"
       style="fill:#231815;fill-rule:evenodd;stroke-width:0.264583" />
    <path
       class="cls-2"
       d="m 62.103,95.133583 c -0.03704,0.02646 -0.04233,0.02117 -0.05821,0.01852 -0.02117,-0.03969 -0.03175,-0.06879 -0.06879,-0.08467 -0.185209,-0.0053 -0.375709,-0.142875 -0.341313,-0.330729 0.0344,-0.03969 0.06879,-0.01587 0.140229,0.0053 0.156104,-0.03175 0.386292,-0.127 0.396875,0.121708 -0.01588,0.08996 -0.04498,0.182563 -0.06879,0.269875"
       id="path46"
       style="fill:#231815;fill-rule:evenodd;stroke-width:0.264583" />
    <path
       class="cls-1"
       d="m 71.620062,95.369062 h -1.825625 c -0.531812,0 -0.806979,0.52123 -1.008062,0.992188 l -0.306917,-0.693208 0.515937,-0.1905 C 68.69377,95.191792 67.751854,95.035687 67.6275,95.466958 l -0.22225,0.894292 c -0.174625,-0.402167 -0.423334,-0.992188 -0.981605,-0.992188 h -1.852083 c 0.240771,0.42598 0.470958,0.579438 1.322917,0.542396 l 0.111125,0.293688 -0.933979,0.0053 c 0.275166,0.508 0.433916,0.529167 1.187979,0.508 l 0.15875,0.351896 -0.735542,0.02646 c 0.15875,0.359833 0.322792,0.513291 0.955146,0.484187 l 0.121708,0.312208 h -0.584729 c 0.219604,0.365125 0.328083,0.531813 0.791104,0.48948 l 0.124354,0.338666 h -0.404812 c 0.174625,0.391584 0.378354,0.407459 0.627062,0.447146 0.224896,0.0344 0.256646,0.452438 -0.0053,0.587375 l 0.785812,1.275296 0.785813,-1.275296 c -0.261938,-0.134937 -0.230188,-0.552979 -0.0053,-0.587375 0.248708,-0.03969 0.452438,-0.05556 0.627063,-0.447146 H 69.09592 l 0.124354,-0.338666 c 0.463021,0.03969 0.5715,-0.124355 0.791104,-0.486834 h -0.584729 c 0,0 0.121709,-0.314854 0.121709,-0.314854 0.629708,0.0291 0.796395,-0.124354 0.955145,-0.484187 l -0.735541,-0.02646 0.15875,-0.351896 c 0.751416,0.02117 0.910166,0 1.187979,-0.508 h -0.933979 c 0,0 0.111125,-0.298979 0.111125,-0.298979 0.851958,0.03704 1.082146,-0.116416 1.322916,-0.542396"
       id="path47"
       style="fill:#231815;stroke-width:0.264583" />
    <path
       class="cls-1"
       d="m 74.400833,94.495937 0.0053,-0.01587 c 0.02646,-0.06615 0.02381,-0.0926 0.01852,-0.103187 -0.0079,-0.01587 -0.03704,-0.02381 -0.08202,-0.0344 -0.01323,-0.0026 -0.02646,-0.0053 -0.04233,-0.0079 l -0.02646,-0.0053 -0.0079,-0.01852 c 0,0 -0.01852,-0.01852 -0.0291,-0.02646 l -0.0344,-0.01058 -0.0079,-0.0053 0.04498,-0.0344 c 0.03175,-0.02381 0.06879,-0.03704 0.108479,-0.05027 l 0.0053,-0.01058 0.01852,0.0079 c 0.0635,-0.05556 0.108479,-0.137583 0.11377,-0.22225 -0.01852,-0.02646 -0.05292,-0.03969 -0.103187,-0.03969 -0.0635,0 -0.142875,0.02646 -0.211667,0.04762 -0.04233,0.01323 -0.09525,0.03175 -0.140229,0.03969 l -0.01588,-0.0079 c -0.116417,-0.05556 -0.121708,-0.05821 -0.365125,-0.185209 -0.01852,0.01058 -0.03175,0.02911 -0.03969,0.04763 -0.01588,0.0344 -0.01323,0.07408 0.0053,0.111125 l 0.02381,0.01852 v 0 c 0,0 0,0 0,0 l -0.05821,0.03175 c -0.01323,0.0079 -0.01587,0.0079 -0.01587,0.0079 v 0 l -0.01588,0.01587 c 0,0 0.0053,0.01852 0.01323,0.03175 l 0.0053,0.02646 c 0,0.02117 -0.0053,0.03175 -0.02381,0.05292 l -0.0079,0.02646 v 0 c 0,0 0,0.0026 0,0.0026 l -0.0344,-0.0291 c -0.04762,-0.03704 -0.05027,-0.03969 -0.08467,-0.07408 -0.0079,0 -0.01852,0 -0.0291,0 -0.02646,0 -0.04762,0.0079 -0.05821,0.02117 -0.01058,0.01323 -0.0079,0.03175 0,0.05821 v 0.01323 c -0.01058,0.0344 -0.04233,0.09525 -0.150812,0.09525 h -0.05556 c 0,0 -0.02117,0 -0.03969,0.0079 0,0.07408 0.03175,0.07937 0.108479,0.0926 0.0291,0.0053 0.06085,0.01058 0.103188,0.01852 0.0079,0 0.01323,-0.0053 0.02117,-0.0053 0.01588,0 0.0291,0.0079 0.04498,0.01323 l 0.05821,0.02381 0.02117,0.0053 0.01058,0.0053 -0.07144,0.0344 c -0.02646,0.01323 -0.04498,0.02381 -0.07144,0.05027 -0.0053,0.02117 -0.01587,0.03969 -0.03175,0.05821 v 0.01588 c 0,0 -0.03175,-0.0079 -0.03175,-0.0079 -0.05292,-0.01323 -0.103188,-0.02646 -0.156104,-0.03969 l -0.07937,-0.02117 c -0.142875,-0.03704 -0.320146,-0.08467 -0.48948,-0.113771 -0.03969,-0.01323 -0.07937,-0.02117 -0.116416,-0.0291 l -0.07937,-0.0079 v 0.02381 c 0.01588,0.01587 0.04233,0.0344 0.08202,0.06085 l 0.0053,0.01323 c 0.02381,0.05556 0.06085,0.124354 0.148167,0.171979 0.05821,0.01058 0.116417,0.01587 0.187854,0.02646 0.209021,0.02381 0.425979,0.04762 0.595313,0.174625 l 0.04498,0.02381 h 0.01058 c 0,0 0,0 0,0 v 0 l -0.0635,0.03175 c -0.01588,0.0079 -0.0291,0.01587 -0.05027,0.0344 l -0.01852,-0.0053 q -0.201083,-0.04498 -0.27252,-0.06879 c -0.07144,-0.04762 -0.10848,-0.06086 -0.145521,-0.06086 -0.0291,0 -0.0635,0.01323 -0.121709,0.04762 -0.0026,0 -0.0053,0.0026 -0.01058,0.0053 h -0.0026 c 0,0 -0.0026,0.0053 -0.0053,0.0053 l -0.02117,-0.0079 c -0.02117,-0.0079 -0.02381,-0.0079 -0.08467,-0.01587 -0.05556,-0.01852 -0.113771,-0.03704 -0.174625,-0.05821 -0.174625,-0.05556 -0.354541,-0.116417 -0.502708,-0.214313 -0.04498,-0.03704 -0.07408,-0.07144 -0.0979,-0.100541 -0.0079,-0.01058 -0.01323,-0.01587 -0.01852,-0.01587 0,0 0,0 0,0 l -0.01588,-0.01852 c 0,0 -0.0291,0.02117 -0.06085,0.05292 -0.03175,0.09789 0.05821,0.333375 0.137583,0.404812 0.05556,0.02381 0.116417,0.03704 0.179917,0.04763 0.105833,0.02117 0.214313,0.03969 0.320146,0.127 l 0.0291,0.0079 v 0 c 0,0 0,0 0,0 l -0.02646,0.03704 c -0.0344,0.04498 -0.07408,0.08202 -0.119063,0.121709 l -0.02117,0.01852 c -0.01323,0.01058 -0.02646,0.02117 -0.03704,0.0344 h -0.02117 c -0.01587,0.0053 -0.0291,0.0053 -0.04498,0.0053 -0.07937,0 -0.145521,-0.03704 -0.203729,-0.07144 -0.01852,-0.01058 -0.03704,-0.02117 -0.06615,-0.02646 l -0.01058,0.02117 c 0.08202,0.140229 0.193146,0.267229 0.338666,0.388937 l 0.01323,0.02117 c 0.01852,0.01058 0.03704,0.01323 0.05556,0.01323 v 0 c 0.105833,0 0.219604,-0.145521 0.304271,-0.254 0.01852,-0.02381 0.0344,-0.04498 0.05292,-0.06615 l 0.02117,-0.01587 c 0.07937,-0.05821 0.08467,-0.0635 0.08202,-0.0635 l 0.01852,0.0053 c 0.06615,0.01852 0.111125,0.04498 0.174625,0.07937 0.0635,-0.02646 0.127,-0.08996 0.121708,-0.15875 l -0.02646,-0.02381 c -0.03704,-0.0344 -0.07408,-0.06879 -0.113771,-0.103187 h -0.02117 c 0,0 0.01323,-0.03704 0.01323,-0.03704 0.01323,-0.0344 0.0344,-0.05292 0.06085,-0.08202 v -0.01323 c 0,0 0.0291,0.0053 0.0291,0.0053 0.113771,0.02646 0.214312,0.05821 0.338667,0.09525 l 0.108479,0.0344 0.02646,0.02117 c 0.06085,0.04762 0.105833,0.07937 0.177271,0.07937 0.01058,0 0.02117,0 0.03969,-0.0079 0.06615,-0.06879 0.105834,-0.113771 0.132292,-0.166688 v 0 c 0,0 0,-0.0026 0,-0.0053 -0.02117,-0.03175 -0.0291,-0.03969 -0.0344,-0.03969 l 0.02117,-0.02381 c 0,0 0.01323,-0.01323 0.03175,-0.02381 0.182562,-0.05821 0.383646,-0.129646 0.529166,-0.182562 0.08731,-0.05556 0.0979,-0.06085 0.06615,-0.142875 -0.0053,-0.01323 -0.01058,-0.0291 -0.02381,-0.05292 m -0.6985,0.119063 0.0291,-0.02646 c 0.03969,-0.03704 0.05821,-0.05556 0.0635,-0.07408 0,-0.0079 -0.01058,-0.01587 -0.0291,-0.0291 h -0.0079 c 0,0 -0.01058,0 -0.02117,0 -0.03175,0 -0.05292,-0.01588 -0.0635,-0.0291 l -0.01323,-0.01058 v -0.01588 c 0,0 0.01323,-0.03704 0.01323,-0.03704 h -0.0079 c 0,0 0.03969,-0.01587 0.03969,-0.01587 q 0.134937,-0.04498 0.156104,-0.05821 l 0.01058,-0.01852 0.02646,0.02117 c 0.02911,0.02381 0.121709,0.111125 0.137584,0.219604 l -0.01323,0.01587 c -0.07144,0.08467 -0.169334,0.100542 -0.261938,0.103188 l -0.02646,0.0053 -0.01323,-0.03969 z"
       id="path48"
       style="fill:#231815;stroke-width:0.264583" />
    <path
       class="cls-1"
       d="m 72.905937,94.281625 c -0.03969,0 -0.07937,-0.01323 -0.113771,-0.03704 -0.02117,-0.08731 0.04233,-0.179916 0.08996,-0.248708 0.01587,-0.02381 0.0291,-0.04233 0.03969,-0.05821 l 0.0079,-0.02117 0.01588,-0.0291 c 0.01852,-0.03704 0.03704,-0.07408 0.05556,-0.113771 0.0079,-0.02117 0.01323,-0.04233 0.01587,-0.06085 0.0291,-0.113771 0.05027,-0.185209 0.108479,-0.206375 0.04498,0.0079 0.06615,0.01323 0.07673,0.0291 0.01058,0.01587 0.0079,0.03969 0,0.08202 l -0.0079,0.01588 c 0.0053,0.01587 0.0079,0.0344 0.01058,0.05292 0.01323,0.06615 0.01588,0.137584 0.0079,0.201084 v 0.02646 c -0.0079,0.02381 -0.01323,0.04498 -0.02117,0.06615 -0.02646,0.08202 -0.05556,0.171979 -0.113771,0.224896 l -0.02381,0.02117 -0.01587,0.01058 c -0.03969,0.02646 -0.08467,0.03969 -0.127,0.04233 h -0.0053 z"
       id="path49"
       style="fill:#231815;stroke-width:0.264583" />
    <path
       class="cls-1"
       d="m 72.905937,94.278979 h 0.0053 c 0.04233,0 0.08467,-0.01588 0.124354,-0.03969 l 0.01587,-0.01058 0.02381,-0.02117 c 0.05821,-0.05292 0.08731,-0.142875 0.113771,-0.224896 0.0079,-0.02117 0.01323,-0.04233 0.01852,-0.06615 v -0.02646 c 0.01058,-0.06879 0.0053,-0.137584 -0.0053,-0.198438 0,-0.01852 -0.0053,-0.03969 -0.0079,-0.05556 h -0.0026 c 0,0 0.0079,-0.01323 0.0079,-0.01323 0.0079,-0.03969 0.01323,-0.06614 0,-0.07937 -0.01058,-0.01323 -0.03175,-0.02117 -0.07144,-0.0291 -0.05556,0.02117 -0.07673,0.08996 -0.103187,0.195792 -0.0053,0.02117 -0.01058,0.04498 -0.01852,0.06879 -0.01852,0.04233 -0.03704,0.07673 -0.05556,0.11377 l -0.01588,0.02911 -0.0079,0.02117 c -0.0079,0.01587 -0.02117,0.0344 -0.03969,0.05556 -0.04762,0.06879 -0.111125,0.161396 -0.08996,0.243416 0.0344,0.02381 0.07144,0.03704 0.111125,0.03704"
       id="path50"
       style="fill:#231815;stroke-width:0.264583" />
    <path
       class="cls-1"
       d="m 72.50377,94.178437 c -0.02117,0 -0.04498,-0.01058 -0.0926,-0.03969 -0.06085,-0.140229 0.15875,-0.296333 0.185209,-0.314854 0.03704,0.0079 0.05556,0.02646 0.06879,0.06085 0.02646,0.07144 0.0079,0.169333 -0.03969,0.227542 -0.06615,0.04762 -0.09525,0.06615 -0.119063,0.06615 v 0 z"
       id="path51"
       style="fill:#231815;stroke-width:0.264583" />
    <path
       class="cls-1"
       d="m 72.50377,94.175792 v 0 c 0.02381,0 0.05292,-0.01852 0.116417,-0.0635 0.04762,-0.05556 0.0635,-0.153459 0.03969,-0.22225 -0.01058,-0.03175 -0.03175,-0.05292 -0.0635,-0.06085 -0.02381,0.01852 -0.243417,0.174625 -0.185209,0.306917 0.04498,0.0291 0.07144,0.03969 0.08996,0.03969"
       id="path52"
       style="fill:#231815;stroke-width:0.264583" />
  </g>
  <metadata
     id="metadata1">
    <rdf:RDF>
      <cc:Work
         rdf:about="">
        <dc:title>zju-logo</dc:title>
      </cc:Work>
    </rdf:RDF>
  </metadata>
</svg>
