<?xml version="1.0" encoding="UTF-8" standalone="no"?>
<!-- Created with Inkscape (http://www.inkscape.org/) -->

<svg
   width="210mm"
   height="297mm"
   viewBox="0 0 210 297"
   version="1.1"
   id="svg1"
   inkscape:version="1.4.2 (f4327f4, 2025-05-13)"
   sodipodi:docname="zju.svg"
   inkscape:export-filename="zju_simple.svg"
   inkscape:export-xdpi="96"
   inkscape:export-ydpi="96"
   xmlns:inkscape="http://www.inkscape.org/namespaces/inkscape"
   xmlns:sodipodi="http://sodipodi.sourceforge.net/DTD/sodipodi-0.dtd"
   xmlns="http://www.w3.org/2000/svg"
   xmlns:svg="http://www.w3.org/2000/svg"
   xmlns:rdf="http://www.w3.org/1999/02/22-rdf-syntax-ns#"
   xmlns:cc="http://creativecommons.org/ns#"
   xmlns:dc="http://purl.org/dc/elements/1.1/">
  <title
     id="title1">zju-logo</title>
  <sodipodi:namedview
     id="namedview1"
     pagecolor="#ffffff"
     bordercolor="#000000"
     borderopacity="0.25"
     inkscape:showpageshadow="2"
     inkscape:pageopacity="0.0"
     inkscape:pagecheckerboard="0"
     inkscape:deskcolor="#d1d1d1"
     inkscape:document-units="mm"
     inkscape:zoom="1.6239548"
     inkscape:cx="380.24456"
     inkscape:cy="305.7351"
     inkscape:window-width="2560"
     inkscape:window-height="1566"
     inkscape:window-x="-11"
     inkscape:window-y="-11"
     inkscape:window-maximized="1"
     inkscape:current-layer="layer1">
    <inkscape:page
       x="0"
       y="0"
       width="210"
       height="297"
       id="page2"
       margin="0"
       bleed="0" />
  </sodipodi:namedview>
  <defs
     id="defs1" />
  <g
     inkscape:label="图层 1"
     inkscape:groupmode="layer"
     id="layer1">
    <path
       class="cls-2"
       d="m 152.61209,98.762464 c -1.07415,-0.22648 -0.43117,-0.56997 -0.60651,-1.48336 -0.1464,-0.7892 -0.86227,-1.56375 -0.84033,-2.14833 0.0573,-1.57836 2.08992,-1.48338 3.31755,-0.97918 0.21842,0.0877 0.47493,0.42382 0.70145,0.74535 0.56268,0.81109 1.22033,1.98757 0.35076,2.88635 -0.7526,0.76725 -1.98761,1.18377 -2.92292,0.97917"
       id="path1"
       style="fill:#000000;fill-rule:evenodd;stroke:#000000;stroke-width:0.1;stroke-linejoin:round;stroke-dasharray:none;stroke-opacity:1;paint-order:stroke fill markers" />
    <path
       class="cls-2"
       d="m 140.40905,97.118334 c 0,0 -0.0721,-0.0293 -0.1035,-0.0438 0.007,-0.117 0.012,-0.24114 0.0201,-0.34344 0.33625,-0.1242 3.2518,-2.0314 3.2445,-2.11179 0.8476,-0.67957 1.60757,-1.43221 1.856,-2.521 -2.08985,0.68689 -4.07009,2.2068 -6.24039,2.36755 -1.0011,-0.24853 -1.68792,-0.78918 -2.39672,-1.09609 0,-0.051 0,-0.0877 -0.007,-0.117 -1.14721,-0.75266 -1.2495,-1.7099 0.012,-2.12642 2.17763,0.48228 5.51695,-1.07416 7.57032,-1.85602 0.46027,-0.20467 1.7903,-0.67227 2.14831,-1.0961 0.48228,-2.87905 0.16759,-5.758095 0.3361,-8.512925 0.70149,-1.987574 1.94376,-0.635733 3.17141,0.358061 0.0799,0.167987 0.36534,0.350748 0.61381,0.723415 0.0363,0 0.0652,0 0.11775,-0.0075 0.51891,0.825731 0.66499,1.205701 -0.1389,1.980258 -0.54807,1.351851 -0.81112,2.849831 -0.74533,4.406271 1.49792,-0.21185 2.40406,-1.51991 4.13585,-1.54913 0.41655,0.80379 0.36536,1.48336 -0.40192,2.15562 -1.26416,0.60651 -2.6379,1.14723 -4.07014,1.79759 -0.33605,1.45414 -0.91338,3.22979 -1.93634,4.41356 -0.15324,0.17549 -0.89152,0.86226 -1.06687,0.96456 -0.92804,0.54073 -1.76106,1.19839 -2.77681,1.48338 -2.81328,0.78186 -2.8425,0.65034 -3.34667,0.7234"
       id="path2"
       style="fill:#000000;fill-rule:evenodd;stroke:#000000;stroke-width:0.1;stroke-linejoin:round;stroke-dasharray:none;stroke-opacity:1;paint-order:stroke fill markers" />
    <path
       class="cls-2"
       d="m 113.54032,102.02146 c -1.03762,-0.47494 -1.97296,-1.72448 -2.53561,-2.499036 0.0949,-0.27768 0.19002,-0.55536 0.2996,-0.81111 2.44061,-1.8268 4.852,-3.52208 7.05878,-5.69965 0.67227,-1.03032 1.54183,-2.10448 2.25793,-3.12018 0.0292,-0.0219 0.0803,-0.0365 0.1242,-0.0365 0,-0.051 0,-0.0803 -0.007,-0.10949 0.62112,-0.48959 0.88418,-0.61382 1.41761,0.18265 0.0365,0.66495 -1.16186,1.38106 -1.53452,2.00949 -0.46767,1.19107 -1.0011,2.40408 -1.60761,3.61708 q -0.19729,0.21931 -0.97185,1.49799 c -0.65033,0.50419 -1.52722,1.83411 -1.89257,2.63058 -0.76727,0.445746 -1.09608,1.804956 -2.02412,2.279956 -0.20467,0.012 -0.39457,0.0363 -0.58456,0.0649"
       id="path3"
       style="fill:#000000;fill-rule:evenodd;stroke:#000000;stroke-width:0.1;stroke-linejoin:round;stroke-dasharray:none;stroke-opacity:1;paint-order:stroke fill markers" />
    <path
       class="cls-2"
       d="m 127.92827,93.479334 c -1.5053,-0.0657 -1.92912,-1.02301 -2.74752,-1.89988 -0.0219,-0.39459 0.21931,-0.63573 0.24853,-0.90611 q 0.37266,-0.0877 0.6065,-0.22648 c 0.62842,-0.0877 0.85495,-0.051 1.54183,-0.0949 0.86225,-0.1973 3.08367,-1.72452 3.82168,-1.06684 0.1095,1.82678 -1.87797,3.66821 -3.47093,4.19434"
       id="path4"
       style="fill:#000000;fill-rule:evenodd;stroke:#000000;stroke-width:0.1;stroke-linejoin:round;stroke-dasharray:none;stroke-opacity:1;paint-order:stroke fill markers" />
    <path
       class="cls-2"
       d="m 116.38284,90.600284 c -0.57728,-0.5042 -0.68688,-2.82791 -0.73073,-3.55863 0.43113,-1.30069 1.73181,-1.35184 2.8279,-0.5115 0.86955,1.13993 1.45413,1.61491 0.54804,2.94482 -1.03032,0.89147 -1.48336,0.95725 -2.63791,1.11799"
       id="path5"
       style="fill:#000000;fill-rule:evenodd;stroke:#000000;stroke-width:0.1;stroke-linejoin:round;stroke-dasharray:none;stroke-opacity:1;paint-order:stroke fill markers" />
    <path
       class="cls-2"
       d="m 127.51905,89.474974 c -0.15336,-0.7088 0.81842,-2.2141 0.54074,-2.57946 -0.36536,0.0585 -0.73803,0.19003 -1.118,0.21185 -0.9061,-0.43844 -1.89258,-1.54183 -1.53453,-2.38947 0.67227,-0.75995 0.40922,-0.56997 1.45415,-0.63573 0.99378,-0.44574 1.98757,-0.876874 2.99596,-1.300687 1.68798,-0.314218 2.46255,0.613806 2.56486,2.257937 -0.29961,1.06685 -1.01574,1.9145 -1.70989,2.75482 -0.89151,0.48958 -1.70261,1.03032 -2.51371,1.55645 -0.23394,0.0293 -0.46035,0.0732 -0.67958,0.1242"
       id="path6"
       style="fill:#000000;fill-rule:evenodd;stroke:#000000;stroke-width:0.1;stroke-linejoin:round;stroke-dasharray:none;stroke-opacity:1;paint-order:stroke fill markers" />
    <path
       class="cls-2"
       d="m 118.29733,84.703344 c -0.35807,-0.31421 -0.20468,-0.48228 -0.0219,-0.79649 -0.0438,-0.701494 -0.46035,-1.256844 -0.5042,-1.929112 0.22649,-1.2203 -0.007,-1.673346 1.00841,-2.257933 0.78918,0.350751 3.5367,1.753737 2.88636,3.288258 -0.75266,0.957247 -2.27987,1.563747 -3.36864,1.695277"
       id="path7"
       style="fill:#000000;fill-rule:evenodd;stroke:#000000;stroke-width:0.1;stroke-linejoin:round;stroke-dasharray:none;stroke-opacity:1;paint-order:stroke fill markers" />
    <path
       class="cls-2"
       d="m 82.70379,103.16871 c -1.62951,-0.62846 -3.06173,-3.865506 -1.08877,-4.661996 0.051,-0.28498 0.29229,-0.56997 0.53342,-0.65766 0,-0.051 0,-0.0877 -0.007,-0.117 1.58567,-1.53453 2.6306,-3.67555 3.96052,-5.37082 0.34344,-0.64303 0.52612,-1.26415 1.26415,-1.44684 0.36536,0.32153 0.24113,1.05956 0.13879,1.62221 0.16085,0.14625 0.73073,0.0365 1.06687,-0.0657 1.10338,-0.94995 2.5429,-1.78298 3.639,-2.78406 0.0585,-0.4896 0.1095,-0.97917 0.19002,-1.45415 -0.76727,0.18265 -3.29556,0.77458 -2.68906,-0.64302 0.94994,-0.37268 2.38216,-1.19109 2.89366,-2.2068 0.24849,-1.03762 0.1023,-2.184856 0.62842,-2.930195 1.05956,-0.555352 2.31639,0.789181 2.52831,1.936405 0.42382,0.75265 1.75372,-0.18265 0.095,2.14103 -0.35076,0.26314 -0.33615,0.75995 -0.26316,1.29338 0.1242,0.008 0.24114,0.0219 0.36537,0.0292 0.92802,-0.66496 1.94373,-1.38107 2.99596,-1.98757 0.28499,-1.49067 0.52613,-2.7329 1.24224,-3.989751 1.03032,-0.701504 2.42599,0.0585 3.4344,0.862259 0.77457,-0.05103 1.25685,-0.372676 1.95103,-0.884183 q 0.27038,-0.08769 0.79649,-0.0803 c 0.21184,0.365353 0.28498,0.745338 0.32152,1.293382 -0.49689,1.519903 -4.84471,2.016783 -4.01169,3.785143 0.75996,-0.051 1.02303,-0.87688 1.3007,-1.43223 0.85494,-0.45304 2.68906,0.0877 3.58055,0.74534 0.99378,1.2057 0.21932,1.6149 -0.87688,2.37486 -0.1095,0.16085 -0.21931,0.32882 -0.3142,0.48958 q -0.0732,2.43332 -0.0438,5.72158 c -0.37998,0.89147 -0.64304,1.3226 -1.32992,2.0387 0,0.0366 0,0.0657 0.007,0.1023 -0.051,0 -0.0877,0 -0.1242,0 -0.42382,0.73803 -1.45414,1.46145 -2.06794,0.76725 -0.015,-2.70367 0.13875,-5.50234 0.051,-8.07448 -0.051,0 -0.1023,0.0219 -0.13155,0.0438 -0.1973,1.30798 -1.5126,3.77784 -2.63791,4.59625 -1.03763,0.0657 -1.90719,-0.54073 -2.20679,-1.4176 0.1095,-0.26313 0.3069,-0.32883 0.52613,-0.51882 0.58458,-1.19838 0.4092,-3.40516 0.4092,-4.58165 -0.84033,0.12415 -2.26524,2.03142 -2.89367,2.74022 -0.43113,0.33613 -0.86225,0.67959 -1.27145,1.01571 -0.2996,1.00108 -0.53343,1.98757 -0.79649,3.06174 -0.234,0.48225 -0.46036,0.97915 -0.68689,1.48336 -0.051,0 -0.0877,0 -0.1242,0.007 -0.39461,0.66495 -1.66607,2.40408 -2.43333,1.308 -0.007,-0.15339 -0.015,-0.29229 -0.007,-0.43115 0.63573,-0.94261 1.12531,-2.25061 1.13992,-3.32477 -1.03762,0.34344 -1.71719,1.28607 -2.75482,1.35184 -0.59919,-0.117 -1.19838,-0.30691 -1.59298,-0.50421 0,-0.051 0,-0.0877 0,-0.117 -0.25574,-0.16083 -0.5115,-0.38728 -0.66495,-0.32153 -0.19003,0.58459 -0.37998,1.18378 -0.54805,1.78298 -1.07416,2.2287 -1.85603,4.428146 -2.55022,6.876076 -0.39459,0.38732 -0.52612,0.44576 -0.93532,0.54804"
       id="path8"
       style="fill:#000000;fill-rule:evenodd;stroke:#000000;stroke-width:0.1;stroke-linejoin:round;stroke-dasharray:none;stroke-opacity:1;paint-order:stroke fill markers" />
    <path
       class="cls-2"
       d="m 84.74251,90.307994 c -0.32152,-0.46766 0.0731,-1.08147 0.0877,-1.6149 -0.51151,-1.52721 -0.91341,-2.65983 0.0656,-3.95321 0.15335,-0.0219 0.31421,-0.0365 0.46767,-0.0439 0.7088,0.48958 1.70989,1.6222 2.31639,2.44062 0.73803,1.8268 -1.62221,2.64522 -2.93751,3.17864"
       id="path9"
       style="fill:#000000;fill-rule:evenodd;stroke:#000000;stroke-width:0.1;stroke-linejoin:round;stroke-dasharray:none;stroke-opacity:1;paint-order:stroke fill markers" />
    <path
       class="cls-2"
       d="m 86.21126,84.396444 c -0.38728,-0.13155 -0.37997,-0.21932 -0.45304,-0.35076 0.18265,-0.37266 0.36536,-0.591877 0.28498,-0.971849 -0.93533,-1.432226 -0.88418,-3.617076 0.73803,-4.340498 0.46766,0.0585 0.48228,0.453046 0.69418,1.103391 1.05224,1.023011 3.01059,2.294465 1.15455,3.675537 -0.78188,0.343439 -1.62951,0.613809 -2.41139,0.884179"
       id="path10"
       style="fill:#000000;fill-rule:evenodd;stroke:#000000;stroke-width:0.1;stroke-linejoin:round;stroke-dasharray:none;stroke-opacity:1;paint-order:stroke fill markers" />
    <path
       class="cls-2"
       d="m 164.25259,90.001094 c -1.46152,-0.45304 -1.19115,-2.86444 -0.94278,-3.82899 1.06694,-0.67957 2.47001,0.73072 2.55027,1.98757 -0.27082,1.38106 -0.25657,1.58566 -1.60749,1.84142"
       id="path11"
       style="fill:#000000;fill-rule:evenodd;stroke:#000000;stroke-width:0.1;stroke-linejoin:round;stroke-dasharray:none;stroke-opacity:1;paint-order:stroke fill markers" />
    <path
       class="cls-2"
       d="m 172.16623,101.08615 c -0.0505,-0.0293 -0.0885,-0.0657 -0.1245,-0.0803 -1.8707,0.117 -3.66092,-0.0657 -5.33421,-0.65764 q -0.0725,-0.1464 -0.0888,-0.372686 c 0.98634,-0.57726 2.38203,-0.41649 3.13473,-1.45413 0.11775,-0.81109 0.21085,-1.49797 0.13215,-2.19217 -1.85598,0.117 -2.84985,1.42492 -4.3185,1.95835 -1.25685,0.0802 -3.50023,-1.05955 -3.86557,-2.06064 0,-1.62221 0.33607,-0.89149 2.06797,-1.00111 2.0606,-0.36534 4.12119,-1.54911 6.1161,-2.42599 q 0.42391,-0.32151 0.65764,-0.41651 c 0.44579,-1.34452 0.75264,-1.57836 2.15569,-1.85604 q 0.54807,-0.27037 2.14104,-1.24222 c 0.043,-0.15337 0.0805,-0.31422 0.1389,-0.46767 -2.42608,0.28499 -4.38431,2.25063 -6.32077,3.55132 -0.95724,0.26315 -1.688,0.1023 -2.35285,-0.19731 -0.4239,0.0585 -2.84266,0.48228 -1.67347,-0.47497 0.71617,-0.27767 1.26417,-0.79649 2.03146,-1.13262 1.81948,-1.22761 3.92391,-2.27255 5.88235,-3.40517 -0.0201,-0.3069 -0.13215,-0.46766 -0.18948,-0.55535 0.008,-0.40921 0.0807,-0.62111 0.19602,-0.93532 -0.37263,0.12415 -0.4749,0.10233 -0.54072,0.37998 -1.16178,0.5115 -1.65865,1.57105 -2.6379,0.45305 -0.26346,1.02301 -0.98638,1.7318 -2.00955,1.79757 -1.03763,-0.53343 -1.06682,-2.27256 -1.24948,-3.07634 -0.0728,-0.095 -0.21865,-0.76727 -0.50422,-1.55645 -0.4677,-0.957243 -1.33718,-2.031413 -0.75987,-2.900959 0.73797,-0.453049 1.03029,-0.628425 1.65862,0.372659 0.5408,0.40921 1.2204,0.964558 1.76119,1.680663 0.0363,0 0.0732,0 0.11775,-0.0075 0.3288,0.884177 1.13996,2.046027 1.05227,3.178647 0.54793,-0.32152 1.32256,-0.94994 0.92067,-1.64413 -0.89882,-0.48959 -0.38733,-1.322604 0.24232,-1.63682 q 0.44576,0.02188 1.02294,-0.02923 c -0.012,-0.219317 -0.0286,-0.219317 -0.1389,-0.350752 -0.75256,-0.255769 -0.60637,-0.43843 -0.40188,-1.044926 -0.87679,-0.321528 -1.20562,-1.234935 -0.86959,-1.89258 q 2.53561,-0.635738 3.72679,-1.015706 c 0.78906,-0.986472 1.65145,-3.682847 3.18592,-3.185952 0.48219,0.569956 0.81107,1.519908 0.71616,2.46254 -0.19602,0.401894 -0.46768,0.745333 -0.54078,1.19108 0.15324,-0.0075 0.30681,0 0.46038,0 1.05952,-0.526126 1.54917,-1.154552 2.17758,0.423807 1.02301,0.548053 1.39567,0.409213 1.00837,1.899895 -0.74542,1.497969 -1.54914,3.098254 -2.37486,4.596234 -0.012,0.0732 -0.0286,0.1388 -0.0201,0.20468 0.18948,0.0365 0.38001,0.0803 0.56996,0.13879 0.11025,0.67226 0.13215,1.5126 0.11025,2.33101 -0.64304,0.94263 -1.44682,0.94263 -2.46262,1.07417 -1.29332,0.64301 -2.45508,1.17646 -3.66815,1.89986 0,0.24114 -0.0363,0.48228 0.081,0.7965 0.61385,-0.0219 1.24229,-0.0219 1.8779,-0.0292 0.69433,0.45305 0.63583,1.7172 0.2038,2.46254 -0.70875,0.0949 -1.13263,0.19003 -1.68061,0.48228 -0.0649,0.34343 -0.13215,0.68687 -0.18947,1.05224 0.0506,1.34453 0.74544,4.596236 -1.24945,4.903136 m 3.98974,-16.572796 c 0.62841,-0.63572 1.06685,-1.256826 1.00838,-2.126394 -0.51879,-0.460356 -1.43217,-0.526119 -1.98026,-0.489576 q -0.0728,0.241135 -0.70159,1.410291 c 0.0506,0.02919 0.1245,0.0585 0.19602,0.08769 -0.0651,0.02189 -0.1389,0.04383 -0.18168,0.08033 0,0.03651 0.0201,0.06566 0.043,0.116989 0.2778,0.0365 0.43123,-0.175489 0.55539,-0.372682 0.97926,-0.160838 1.00114,0.190029 0.9354,1.234922 0.0363,0.0144 0.0725,0.0292 0.1245,0.0585"
       id="path12"
       style="fill:#000000;fill-rule:evenodd;stroke:#000000;stroke-width:0.1;stroke-linejoin:round;stroke-dasharray:none;stroke-opacity:1;paint-order:stroke fill markers" />
    <path
       class="cls-1"
       d="m 51.830729,73.238294 c 11.421206,0 20.730621,9.316724 20.730621,20.73063 0,11.413906 -9.309415,20.730606 -20.730621,20.730606 -11.421211,0 -20.730626,-9.30943 -20.730626,-20.730606 0,-11.421215 9.316724,-20.73063 20.730626,-20.73063 m 0,0.825709 c -10.960853,0 -19.904917,8.944064 -19.904917,19.904921 0,10.960826 8.944064,19.904836 19.904917,19.904836 10.960849,0 19.904901,-8.94401 19.904901,-19.904836 0,-10.960857 -8.944052,-19.904921 -19.904901,-19.904921"
       id="path23"
       style="fill:#000000;stroke:#000000;stroke-width:0.1;stroke-linejoin:round;stroke-dasharray:none;stroke-opacity:1;paint-order:stroke fill markers" />
    <path
       class="cls-1"
       d="m 44.545419,102.8034 c -1.293385,-1.07424 -2.360239,-2.42604 -3.083658,-3.960566 -0.701493,-1.48336 -1.088774,-3.1348 -1.088774,-4.87391 0,-6.31346 5.151589,-11.457746 11.457742,-11.457746 6.30614,0 11.45774,5.144286 11.45774,11.457746 0,1.73911 -0.394587,3.39055 -1.096082,4.87391 -0.723417,1.541836 -1.790274,2.886326 -3.083648,3.960566 l -0.263151,-0.32156 c 1.249541,-1.03765 2.272549,-2.33831 2.974046,-3.821676 0.672265,-1.42491 1.052243,-3.01789 1.052243,-4.69855 0,-6.07962 -4.961605,-11.04854 -11.048535,-11.04854 -6.086929,0 -11.041241,4.96161 -11.041241,11.04854 0,1.68066 0.379987,3.27364 1.052253,4.69855 0.701488,1.483366 1.724504,2.784026 2.974045,3.821676 z"
       id="path24"
       style="fill:#000000;stroke:#000000;stroke-width:0.1;stroke-linejoin:round;stroke-dasharray:none;stroke-opacity:1;paint-order:stroke fill markers" />
    <path
       class="cls-2"
       d="m 46.423372,106.39127 -1.381064,-0.85498 0.124155,-0.21865 0.511506,0.31417 0.818408,-1.43215 -0.511515,-0.31428 0.1095,-0.18948 c 0.197301,0.11775 0.350753,0.18948 0.460359,0.19602 0.116985,0.012 0.211845,-0.0286 0.292293,-0.1389 l 0.292289,0.18168 -1.103396,1.92181 0.496893,0.30695 -0.124155,0.21839 z m 4.113976,-0.86962 c 0.02189,-0.11025 -0.0144,-0.21036 -0.116985,-0.29964 -0.10233,-0.0885 -0.248508,-0.1464 -0.453048,-0.17512 -0.182654,-0.0287 -0.343439,-0.012 -0.474967,0.0361 -0.13155,0.0506 -0.204673,0.13215 -0.226489,0.24232 -0.0144,0.0805 0,0.15324 0.051,0.2184 0.04386,0.0651 0.124155,0.13215 0.241134,0.18948 0.04383,0.0286 0.124155,0.0653 0.219318,0.11025 0.102329,0.0506 0.1973,0.0888 0.284984,0.11775 0.160841,-0.0506 0.277673,-0.11775 0.343443,-0.18166 0.06566,-0.0649 0.109515,-0.15324 0.131595,-0.25656 m -0.182655,1.2349 c 0.02189,-0.1032 0,-0.18192 -0.04383,-0.24911 -0.0511,-0.0653 -0.153391,-0.1464 -0.32152,-0.23452 -0.05107,-0.0286 -0.124155,-0.0573 -0.211845,-0.10335 -0.08769,-0.0363 -0.197301,-0.081 -0.306904,-0.13215 -0.153392,0.0431 -0.277686,0.10335 -0.365365,0.18167 -0.09497,0.0727 -0.153417,0.16759 -0.175484,0.28499 -0.02919,0.1464 0.0144,0.2777 0.131625,0.39465 0.116985,0.11775 0.284983,0.18948 0.489588,0.21867 0.211845,0.0286 0.394589,0.007 0.540728,-0.0506 0.14619,-0.0649 0.233963,-0.16758 0.263121,-0.31413 m -0.854951,0.60642 c -0.182657,-0.0286 -0.358056,-0.0651 -0.504195,-0.1245 -0.14619,-0.0574 -0.270376,-0.1245 -0.365368,-0.21036 -0.09497,-0.0813 -0.153391,-0.16732 -0.197299,-0.27087 -0.03648,-0.0958 -0.04383,-0.19602 -0.02188,-0.29964 0.02922,-0.13215 0.109515,-0.2491 0.241134,-0.34343 0.131624,-0.0958 0.306911,-0.1608 0.533431,-0.19602 v 0 c -0.167985,-0.1035 -0.29229,-0.20382 -0.365361,-0.29961 -0.07315,-0.0958 -0.09496,-0.20382 -0.07315,-0.32883 0.03656,-0.18168 0.175485,-0.32151 0.416521,-0.41655 0.241134,-0.0958 0.526123,-0.11775 0.854944,-0.0727 0.343441,0.0506 0.606502,0.1464 0.796487,0.29221 0.182656,0.1464 0.255741,0.30695 0.219318,0.48969 -0.02188,0.11025 -0.09497,0.21087 -0.219318,0.30684 -0.116985,0.0958 -0.277671,0.15324 -0.482278,0.18948 v 0 c 0.204673,0.11025 0.358057,0.2106 0.453049,0.32152 0.09497,0.11025 0.124155,0.24231 0.09497,0.39455 -0.04383,0.21162 -0.197301,0.36538 -0.460351,0.47502 -0.263148,0.11025 -0.569967,0.1389 -0.928024,0.0884 m 4.786235,-1.50525 c 0,-0.16758 -0.02188,-0.30691 -0.06565,-0.40927 -0.05111,-0.10335 -0.109515,-0.18948 -0.197301,-0.24911 -0.07315,-0.0506 -0.14619,-0.0888 -0.219318,-0.11025 -0.07315,-0.0201 -0.153391,-0.0286 -0.248531,-0.0286 -0.204674,0 -0.365352,0.0506 -0.489576,0.1464 -0.124155,0.0958 -0.182656,0.24231 -0.182656,0.42384 0,0.1035 0.02188,0.18948 0.0585,0.25656 0.04383,0.0649 0.109515,0.1245 0.197299,0.17513 0.06566,0.0363 0.13155,0.0575 0.219318,0.0653 0.08033,0.012 0.167986,0.012 0.255744,0.012 0.109514,0 0.219317,-0.012 0.343435,-0.0363 0.124155,-0.0201 0.233962,-0.0573 0.321521,-0.1032 0,-0.012 0,-0.0363 0,-0.065 0,-0.0286 0,-0.0575 0,-0.0958 m -1.907189,-0.19602 c 0,-0.13215 0.02919,-0.24911 0.09497,-0.35072 0.06565,-0.11025 0.146189,-0.19602 0.255766,-0.27766 0.10233,-0.0725 0.226489,-0.13215 0.379971,-0.16758 0.153392,-0.043 0.2996,-0.0575 0.453049,-0.0575 0.167986,0 0.328828,0.0201 0.467666,0.0575 0.138795,0.0362 0.255715,0.0958 0.358053,0.16758 0.131595,0.0884 0.226489,0.21085 0.299596,0.35803 0.07315,0.1464 0.109515,0.33612 0.109515,0.56262 0,0.20382 -0.03651,0.40194 -0.10233,0.58458 -0.07315,0.18192 -0.167986,0.33615 -0.306904,0.46045 -0.14619,0.13215 -0.314214,0.22697 -0.518812,0.29223 -0.197299,0.065 -0.445738,0.10335 -0.745337,0.10335 -0.06566,0 -0.138795,0 -0.211845,0 -0.07315,0 -0.14619,-0.012 -0.211845,-0.0286 v -0.32142 h 0.02919 c 0.04383,0.012 0.1095,0.0286 0.197301,0.043 0.08769,0.012 0.175485,0.0201 0.27037,0.0201 0.328828,0 0.584579,-0.0728 0.767255,-0.21036 0.182657,-0.1464 0.2923,-0.34347 0.314218,-0.61381 -0.131594,0.0575 -0.26317,0.1035 -0.379984,0.13215 -0.124155,0.0287 -0.255764,0.0431 -0.394588,0.0431 -0.138795,0 -0.263125,-0.008 -0.37997,-0.0286 -0.109515,-0.0201 -0.22649,-0.0573 -0.343442,-0.11775 -0.138795,-0.0653 -0.233987,-0.15325 -0.306898,-0.25656 -0.06566,-0.1029 -0.102345,-0.22698 -0.102345,-0.37269 m 5.421973,-2.14099 -0.09497,2.55751 -0.387289,0.2491 0.03651,-2.41868 -1.49067,0.72343 -0.13155,-0.285 1.877958,-0.97915 0.197301,0.15324 z"
       id="path36"
       style="fill:#000000;fill-rule:evenodd;stroke:#000000;stroke-width:0.1;stroke-linejoin:round;stroke-dasharray:none;stroke-opacity:1;paint-order:stroke fill markers" />
    <path
       class="cls-2"
       d="m 58.597229,82.818076 c -0.299599,-0.14619 -0.08769,-0.1973 -0.07315,-0.482269 0.0144,-0.241134 -0.138795,-0.526129 -0.09497,-0.694198 0.13155,-0.460354 0.723417,-0.284977 1.044932,-0.051 0.0585,0.04383 0.109515,0.153393 0.153368,0.270379 0.102329,0.277674 0.219317,0.672265 -0.109515,0.876875 -0.277674,0.175485 -0.672264,0.204674 -0.928012,0.08029"
       id="path37"
       style="fill:#000000;fill-rule:evenodd;stroke:#000000;stroke-width:0.1;stroke-linejoin:round;stroke-dasharray:none;stroke-opacity:1;paint-order:stroke fill markers" />
    <path
       class="cls-2"
       d="m 55.11167,81.451621 c 0,0 -0.02188,-0.0144 -0.02919,-0.02188 0.0075,-0.03648 0.02188,-0.06566 0.02919,-0.10233 0.109515,-0.0144 1.103399,-0.36537 1.110707,-0.387282 0.299592,-0.138795 0.577269,-0.306915 0.730719,-0.606518 -0.664959,0.05103 -1.359145,0.358064 -2.009487,0.248531 -0.277677,-0.14619 -0.445744,-0.358061 -0.628431,-0.496885 0,-0.0144 0,-0.02188 0,-0.03648 -0.284971,-0.306898 -0.241133,-0.591886 0.160841,-0.62842 0.606499,0.299588 1.702579,0.08029 2.367544,0 0.153341,-0.02919 0.57727,-0.07315 0.716106,-0.167986 0.350751,-0.811106 0.467667,-1.687975 0.708801,-2.484461 0.350742,-0.533431 0.621115,-0.05103 0.913401,0.33613 0.0144,0.05103 0.08033,0.131595 0.13155,0.255766 0.0144,0 0.02188,0 0.03648,0 0.09497,0.277676 0.1095,0.401904 -0.182656,0.577279 -0.255769,0.35805 -0.44575,0.781869 -0.533434,1.242224 0.453049,0.04383 0.818414,-0.277671 1.329921,-0.16084 0.06566,0.270373 0,0.467644 -0.270373,0.606494 -0.416508,0.08769 -0.862255,0.153392 -1.329914,0.241134 -0.204672,0.401905 -0.496897,0.884171 -0.884178,1.161843 -0.0585,0.04386 -0.321516,0.190029 -0.387287,0.211845 -0.3142,0.08769 -0.606493,0.22649 -0.928014,0.233937 -0.884179,0.02923 -0.884179,-0.0144 -1.037627,-0.02919"
       id="path38"
       style="fill:#000000;fill-rule:evenodd;stroke:#000000;stroke-width:0.1;stroke-linejoin:round;stroke-dasharray:none;stroke-opacity:1;paint-order:stroke fill markers" />
    <path
       class="cls-2"
       d="m 45.013072,84.403744 c -0.365352,-0.0219 -0.796487,-0.28498 -1.059545,-0.45304 0,-0.095 -0.0144,-0.19003 -0.0075,-0.28499 0.518818,-0.840335 1.044944,-1.636826 1.454151,-2.550225 0.0803,-0.387283 0.211845,-0.818405 0.314205,-1.205681 0,-0.0075 0.02188,-0.02188 0.02923,-0.02919 0,-0.0144 -0.0075,-0.02188 -0.0144,-0.02923 0.131655,-0.219318 0.197299,-0.292288 0.445741,-0.109515 0.08769,0.197301 -0.182657,0.555346 -0.226489,0.789182 0,0.416497 -0.0144,0.840325 -0.05103,1.278755 q -0.03647,0.08769 -0.116985,0.562657 c -0.138795,0.226489 -0.241134,0.738034 -0.255741,1.015709 -0.175483,0.226498 -0.116985,0.672268 -0.336138,0.928028 -0.0585,0.0292 -0.116985,0.0585 -0.167986,0.0877"
       id="path39"
       style="fill:#000000;fill-rule:evenodd;stroke:#000000;stroke-width:0.1;stroke-linejoin:round;stroke-dasharray:none;stroke-opacity:1;paint-order:stroke fill markers" />
    <path
       class="cls-2"
       d="m 48.337867,80.12171 c -0.460351,0.16084 -0.701494,-0.0803 -1.052243,-0.248532 -0.0585,-0.116985 -0.0075,-0.219318 -0.02922,-0.299587 q 0.10233,-0.07315 0.153366,-0.138795 c 0.182656,-0.10233 0.248482,-0.116985 0.453047,-0.211845 0.233963,-0.16084 0.723414,-0.884171 1.023011,-0.774565 0.248481,0.533421 -0.131595,1.32991 -0.548044,1.673355"
       id="path40"
       style="fill:#000000;fill-rule:evenodd;stroke:#000000;stroke-width:0.1;stroke-linejoin:round;stroke-dasharray:none;stroke-opacity:1;paint-order:stroke fill markers" />
    <path
       class="cls-2"
       d="m 44.516182,80.625909 c -0.233938,-0.0803 -0.540728,-0.767253 -0.643033,-0.986482 -0.02188,-0.438434 0.36536,-0.613811 0.789187,-0.489583 0.39459,0.241134 0.628416,0.31422 0.511503,0.818416 -0.204674,0.387285 -0.336136,0.460357 -0.664969,0.650338"
       id="path41"
       style="fill:#000000;fill-rule:evenodd;stroke:#000000;stroke-width:0.1;stroke-linejoin:round;stroke-dasharray:none;stroke-opacity:1;paint-order:stroke fill markers" />
    <path
       class="cls-2"
       d="m 47.738667,78.967158 c -0.13155,-0.197301 -0.0144,-0.759943 -0.14619,-0.840328 -0.10233,0.0585 -0.197301,0.14619 -0.314217,0.197301 -0.328825,-0.02189 -0.752644,-0.241134 -0.745339,-0.540744 0.109515,-0.306898 0.0585,-0.219317 0.365369,-0.365348 0.248506,-0.248532 0.496883,-0.496891 0.745337,-0.745339 0.474964,-0.292293 0.811099,-0.109515 1.037621,0.379969 0.03648,0.358062 -0.08029,0.694192 -0.190029,1.030324 -0.211845,0.255793 -0.394585,0.511508 -0.577274,0.767259 -0.06565,0.03659 -0.13152,0.0803 -0.190029,0.116985"
       id="path42"
       style="fill:#000000;fill-rule:evenodd;stroke:#000000;stroke-width:0.1;stroke-linejoin:round;stroke-dasharray:none;stroke-opacity:1;paint-order:stroke fill markers" />
    <path
       class="cls-2"
       d="m 44.391958,78.616421 c -0.146189,-0.051 -0.116984,-0.124155 -0.102329,-0.241134 -0.09497,-0.204673 -0.284981,-0.321523 -0.379973,-0.518821 -0.08029,-0.394587 -0.204673,-0.504198 0.03647,-0.79649 0.277674,0.0075 1.271465,0.109514 1.256846,0.650349 -0.109515,0.379977 -0.496886,0.738031 -0.811109,0.906096"
       id="path43"
       style="fill:#000000;fill-rule:evenodd;stroke:#000000;stroke-width:0.1;stroke-linejoin:round;stroke-dasharray:none;stroke-opacity:1;paint-order:stroke fill markers" />
    <path
       class="cls-2"
       d="m 39.298824,92.280944 c -0.431137,0.29959 -1.468755,0.1023 -1.329927,-0.51882 -0.0585,-0.0585 -0.09497,-0.16799 -0.07315,-0.24113 -0.0144,-0.007 -0.02188,-0.015 -0.02922,-0.015 -0.109515,-0.65034 -0.460362,-1.26415 -0.650346,-1.87795 -0.102329,-0.19003 -0.219317,-0.34344 -0.146189,-0.54805 0.146189,-0.0365 0.299606,0.117 0.423827,0.23391 0.06565,-0.015 0.13152,-0.16799 0.167987,-0.27038 -0.04386,-0.43112 -0.0144,-0.92072 -0.07315,-1.36645 -0.1095,-0.095 -0.219318,-0.19003 -0.321513,-0.29229 -0.08769,0.21931 -0.365365,0.94264 -0.613819,0.55536 0.06566,-0.29229 0.109515,-0.78919 -0.0585,-1.08147 -0.211845,-0.23399 -0.518809,-0.3946 -0.613811,-0.65035 0.04386,-0.35076 0.584585,-0.43844 0.898791,-0.2923 0.255716,0.0219 0.255716,-0.46035 0.540744,0.33614 0,0.13155 0.131625,0.21184 0.277675,0.28498 0.02188,-0.0292 0.04386,-0.0585 0.06566,-0.0877 0,-0.33614 -0.0144,-0.70882 0.0144,-1.07417 -0.314206,-0.32152 -0.584569,-0.58459 -0.774565,-0.97918 0,-0.37266 0.423825,-0.58457 0.789181,-0.70149 0.116985,-0.197298 0.124155,-0.372672 0.116985,-0.628417 q 0.02926,-0.0803 0.116985,-0.211845 c 0.124155,0.0075 0.233986,0.0585 0.372668,0.138795 0.292287,0.37997 -0.321521,1.527207 0.255716,1.622197 0.116985,-0.1973 -0.04386,-0.40189 -0.131625,-0.56265 0.02919,-0.28498 0.474977,-0.643035 0.789179,-0.752642 0.460356,-0.03654 0.431131,0.219318 0.438439,0.613812 0.02188,0.0585 0.04383,0.10951 0.06565,0.16084 q 0.584583,0.42381 1.395681,0.97186 c 0.153366,0.24113 0.211845,0.37997 0.277676,0.67226 0.0075,0 0.0144,0.008 0.02919,0.0144 0,0.0144 -0.0144,0.0219 -0.0144,0.0292 0.109499,0.22649 0.116984,0.59919 -0.160841,0.63574 -0.664958,-0.45305 -1.329908,-0.96456 -1.972954,-1.37377 -0.0075,0.0144 -0.0144,0.0292 -0.0144,0.0439 0.29229,0.27037 0.672271,1.0084 0.686878,1.42491 -0.16084,0.26313 -0.453046,0.37267 -0.723419,0.2996 -0.051,-0.0731 -0.02919,-0.13152 -0.03646,-0.21184 -0.197301,-0.34344 -0.767274,-0.67957 -1.059548,-0.87687 -0.109515,0.22649 0.116984,0.89878 0.182656,1.17646 0.0144,0.16084 0.02188,0.32882 0.03666,0.48229 0.197301,0.24113 0.401899,0.46765 0.621113,0.70879 0.0803,0.13879 0.160841,0.27767 0.248432,0.41652 0,0.0144 -0.0144,0.0219 -0.0144,0.0292 0.09496,0.21185 0.306896,0.81842 -0.08769,0.81842 -0.03647,-0.0219 -0.07314,-0.0438 -0.109515,-0.0732 -0.124155,-0.31421 -0.365346,-0.65765 -0.621111,-0.84033 -0.09497,0.3069 0.02188,0.63573 -0.131625,0.89878 -0.131594,0.1242 -0.277673,0.24113 -0.394597,0.3069 -0.0144,-0.007 -0.02188,-0.015 -0.02919,-0.015 -0.08029,0.0365 -0.182655,0.0585 -0.190027,0.1095 0.1095,0.14625 0.226488,0.29229 0.343437,0.43842 0.365369,0.64305 0.774575,1.19839 1.25685,1.78297 0.02919,0.16083 0.02188,0.20468 -0.02189,0.32153"
       id="path44"
       style="fill:#000000;fill-rule:evenodd;stroke:#000000;stroke-width:0.1;stroke-linejoin:round;stroke-dasharray:none;stroke-opacity:1;paint-order:stroke fill markers" />
    <path
       class="cls-2"
       d="m 36.485538,89.613814 c -0.167987,0 -0.255767,-0.1973 -0.379983,-0.29229 -0.460363,-0.13155 -0.811096,-0.2265 -0.957245,-0.67958 0.02188,-0.0439 0.04386,-0.0803 0.06566,-0.12415 0.241134,-0.0877 0.686884,-0.14619 0.98648,-0.1534 0.569957,0.12416 0.379977,0.84034 0.284977,1.25686"
       id="path45"
       style="fill:#000000;fill-rule:evenodd;stroke:#000000;stroke-width:0.1;stroke-linejoin:round;stroke-dasharray:none;stroke-opacity:1;paint-order:stroke fill markers" />
    <path
       class="cls-2"
       d="m 35.279842,88.261974 c -0.10233,0.0732 -0.116985,0.0585 -0.160839,0.051 -0.0585,-0.10952 -0.08769,-0.19003 -0.190029,-0.23399 -0.511515,-0.0144 -1.037636,-0.39459 -0.942634,-0.91341 0.09497,-0.1095 0.190028,-0.0438 0.387273,0.0144 0.431133,-0.0877 1.066862,-0.35074 1.096091,0.33614 -0.04386,0.24843 -0.124155,0.5042 -0.190027,0.74534"
       id="path46"
       style="fill:#000000;fill-rule:evenodd;stroke:#000000;stroke-width:0.1;stroke-linejoin:round;stroke-dasharray:none;stroke-opacity:1;paint-order:stroke fill markers" />
    <path
       class="cls-1"
       d="m 61.563962,88.912304 h -5.041993 c -1.468749,0 -2.2287,1.43953 -2.784055,2.74023 l -0.84764,-1.91451 1.424904,-0.52611 c -0.833024,-0.78918 -3.434396,-1.22032 -3.77783,-0.0293 l -0.613816,2.46985 c -0.482265,-1.11073 -1.16915,-2.74024 -2.710981,-2.74024 h -5.115058 c 0.664954,1.17646 1.300683,1.60029 3.653608,1.49799 l 0.306916,0.81109 -2.579456,0.015 c 0.759948,1.403 1.198378,1.46145 3.280946,1.403 l 0.438437,0.97186 -2.03141,0.0732 c 0.438434,0.9938 0.891483,1.41761 2.637906,1.33724 l 0.336131,0.86224 h -1.614898 c 0.606504,1.0084 0.906096,1.46875 2.184866,1.35184 l 0.343442,0.93533 h -1.118007 c 0.482279,1.08147 1.044932,1.12531 1.731816,1.23492 0.621112,0.0948 0.708794,1.249566 -0.0144,1.622226 l 2.170258,3.522 2.170247,-3.522 c -0.723422,-0.37266 -0.635729,-1.527216 -0.0144,-1.622226 0.686878,-0.1095 1.24954,-0.1535 1.731816,-1.23492 h -1.118055 l 0.343435,-0.93533 c 1.278765,0.1095 1.578361,-0.34344 2.184868,-1.34454 h -1.614905 c 0,0 0.336135,-0.86954 0.336135,-0.86954 1.739118,0.0803 2.199472,-0.34344 2.637914,-1.33724 l -2.031471,-0.073 0.438435,-0.97186 c 2.075251,0.0585 2.513686,0 3.280949,-1.40298 h -2.579452 c 0,0 0.306897,-0.82574 0.306897,-0.82574 2.352937,0.1023 2.988664,-0.32151 3.65362,-1.49797"
       id="path47"
       style="fill:#000000;stroke:#000000;stroke-width:0.1;stroke-linejoin:round;stroke-dasharray:none;stroke-opacity:1;paint-order:stroke fill markers" />
    <path
       class="cls-1"
       d="m 69.243862,86.500924 0.0144,-0.0438 c 0.07315,-0.18265 0.06565,-0.25569 0.05107,-0.28497 -0.02188,-0.0438 -0.10233,-0.0657 -0.226489,-0.095 -0.03648,-0.008 -0.07315,-0.0144 -0.116985,-0.0219 l -0.07314,-0.0144 -0.02188,-0.051 c 0,0 -0.051,-0.051 -0.0803,-0.0732 l -0.09497,-0.0292 -0.02188,-0.0144 0.124155,-0.095 c 0.08769,-0.0657 0.190029,-0.10233 0.299598,-0.13879 l 0.0144,-0.0292 0.051,0.0219 c 0.175483,-0.15342 0.299593,-0.37999 0.3142,-0.61382 -0.051,-0.0732 -0.14619,-0.1095 -0.284979,-0.1095 -0.175484,0 -0.394591,0.0731 -0.584575,0.13159 -0.116984,0.0365 -0.26312,0.0877 -0.387281,0.1095 l -0.04386,-0.0219 c -0.321513,-0.15339 -0.336126,-0.16084 -1.008394,-0.5115 -0.051,0.0292 -0.08769,0.0803 -0.109515,0.13155 -0.04386,0.095 -0.03648,0.20467 0.0144,0.3069 l 0.06566,0.051 v 0 c 0,0 0,0 0,0 l -0.16084,0.0877 c -0.03648,0.0219 -0.04383,0.0219 -0.04383,0.0219 v 0 l -0.04386,0.0438 c 0,0 0.0144,0.051 0.03647,0.0877 l 0.0144,0.0731 c 0,0.0585 -0.0144,0.0877 -0.06566,0.14619 l -0.02188,0.0731 v 0 c 0,0 0,0.008 0,0.008 l -0.09497,-0.0803 c -0.13155,-0.10233 -0.138795,-0.10952 -0.233938,-0.20468 -0.02188,0 -0.05106,0 -0.0803,0 -0.07315,0 -0.131595,0.0219 -0.16084,0.0585 -0.02919,0.0365 -0.02188,0.0877 0,0.16084 v 0.0365 c -0.02919,0.095 -0.116985,0.26312 -0.416511,0.26312 h -0.153391 c 0,0 -0.0585,0 -0.109515,0.0219 0,0.20467 0.08769,0.21932 0.299587,0.25577 0.08029,0.0144 0.167985,0.0292 0.284986,0.051 0.02188,0 0.03654,-0.0144 0.0585,-0.0144 0.04386,0 0.0803,0.0219 0.124155,0.0366 l 0.16084,0.0657 0.0585,0.0144 0.02919,0.0144 -0.197301,0.095 c -0.07315,0.0365 -0.124154,0.0657 -0.1973,0.1388 -0.0144,0.0585 -0.04383,0.10951 -0.08769,0.16084 v 0.0439 c 0,0 -0.08769,-0.0219 -0.08769,-0.0219 -0.14619,-0.0366 -0.284985,-0.0731 -0.431133,-0.10951 l -0.219318,-0.0585 c -0.394591,-0.10233 -0.884168,-0.23394 -1.351839,-0.31422 -0.109515,-0.0365 -0.219318,-0.0585 -0.321514,-0.0803 l -0.219318,-0.0219 v 0.0657 c 0.04386,0.0438 0.116985,0.095 0.226489,0.16799 l 0.0144,0.0365 c 0.06565,0.15339 0.167987,0.34345 0.409206,0.47498 0.160839,0.0292 0.321516,0.0438 0.518814,0.0731 0.577274,0.0657 1.176463,0.13155 1.644129,0.48228 l 0.124154,0.0657 h 0.02922 c 0,0 0,0 0,0 v 0 l -0.175484,0.0877 c -0.04386,0.0219 -0.0803,0.0438 -0.138795,0.095 l -0.051,-0.0144 q -0.55536,-0.12416 -0.752646,-0.19003 c -0.1973,-0.1316 -0.299605,-0.16801 -0.4019,-0.16801 -0.0803,0 -0.175485,0.0366 -0.336133,0.13155 -0.0075,0 -0.0144,0.008 -0.02919,0.0144 h -0.0075 c 0,0 -0.0075,0.0144 -0.0144,0.0144 l -0.0585,-0.0219 c -0.0585,-0.0219 -0.06566,-0.0219 -0.233963,-0.0438 -0.153442,-0.0511 -0.314206,-0.10233 -0.482278,-0.16084 -0.482281,-0.15341 -0.979164,-0.32153 -1.388373,-0.59189 -0.124155,-0.10233 -0.204673,-0.1973 -0.270375,-0.27767 -0.02188,-0.0292 -0.03648,-0.0438 -0.05103,-0.0438 0,0 0,0 0,0 l -0.04335,-0.051 c 0,0 -0.0803,0.0585 -0.167986,0.14619 -0.08769,0.27035 0.16084,0.92072 0.37998,1.118 0.153366,0.0657 0.321515,0.10233 0.496886,0.13163 0.292293,0.0585 0.591892,0.1095 0.884174,0.35075 l 0.0803,0.0219 v 0 c 0,0 0,0 0,0 l -0.07315,0.10233 c -0.09496,0.12416 -0.204673,0.22649 -0.328828,0.33614 l -0.0585,0.0511 c -0.03647,0.0292 -0.07315,0.0585 -0.10233,0.095 h -0.05847 c -0.04383,0.0144 -0.08029,0.0144 -0.124154,0.0144 -0.219318,0 -0.401906,-0.10233 -0.562662,-0.1973 -0.05103,-0.0292 -0.102345,-0.0585 -0.182656,-0.0732 l -0.02919,0.0585 c 0.226489,0.38729 0.533423,0.73804 0.935324,1.07417 l 0.03648,0.0585 c 0.05103,0.0293 0.10233,0.0365 0.153366,0.0365 v 0 c 0.292295,0 0.606503,-0.40191 0.84033,-0.7015 0.05103,-0.0657 0.09497,-0.1242 0.14619,-0.18266 l 0.0585,-0.0438 c 0.219318,-0.16084 0.233963,-0.17549 0.22649,-0.17549 l 0.05106,0.0144 c 0.182656,0.051 0.306902,0.12416 0.482278,0.21932 0.175484,-0.0731 0.350747,-0.24853 0.336131,-0.43843 l -0.07315,-0.0657 c -0.10233,-0.095 -0.204673,-0.19003 -0.314206,-0.28498 h -0.0585 c 0,0 0.03651,-0.10233 0.03651,-0.10233 0.03648,-0.095 0.09497,-0.14619 0.167985,-0.22649 v -0.0366 c 0,0 0.0803,0.0144 0.0803,0.0144 0.314206,0.0731 0.591886,0.16084 0.935324,0.26312 l 0.299599,0.095 0.07314,0.0585 c 0.167987,0.1316 0.292293,0.21932 0.489586,0.21932 0.02919,0 0.0585,0 0.109515,-0.0219 0.182657,-0.19003 0.29229,-0.31422 0.365365,-0.46036 v 0 c 0,0 0,-0.008 0,-0.0144 -0.0585,-0.0877 -0.08029,-0.10952 -0.09496,-0.10952 l 0.0585,-0.0657 c 0,0 0.03648,-0.0365 0.08769,-0.0657 0.504198,-0.16084 1.059548,-0.35804 1.461441,-0.50419 0.241134,-0.15337 0.270372,-0.16799 0.182655,-0.3946 -0.0144,-0.0365 -0.02919,-0.0803 -0.06566,-0.14619 m -1.929109,0.32883 0.0803,-0.0731 c 0.109515,-0.10233 0.160839,-0.15339 0.175483,-0.20467 0,-0.0219 -0.02919,-0.0438 -0.0803,-0.0803 h -0.02188 c 0,0 -0.0292,0 -0.0585,0 -0.08769,0 -0.14619,-0.0439 -0.175484,-0.0803 l -0.03648,-0.0292 v -0.0439 c 0,0 0.03648,-0.10233 0.03648,-0.10233 h -0.02189 c 0,0 0.109515,-0.0438 0.109515,-0.0438 q 0.372672,-0.12416 0.43113,-0.16084 l 0.02923,-0.0511 0.07315,0.0585 c 0.08033,0.0656 0.336133,0.30691 0.379973,0.6065 l -0.03648,0.0438 c -0.1973,0.23394 -0.467666,0.27767 -0.723416,0.28498 l -0.07315,0.0144 -0.03647,-0.1095 z"
       id="path48"
       style="fill:#000000;stroke:#000000;stroke-width:0.1;stroke-linejoin:round;stroke-dasharray:none;stroke-opacity:1;paint-order:stroke fill markers" />
    <path
       class="cls-1"
       d="m 65.115278,85.909034 c -0.1095,0 -0.219318,-0.0365 -0.314211,-0.10233 -0.0585,-0.24113 0.116985,-0.49688 0.248532,-0.68688 0.04383,-0.0657 0.08029,-0.11698 0.109515,-0.16084 l 0.02188,-0.0585 0.04386,-0.0803 c 0.05103,-0.10233 0.10233,-0.20468 0.153391,-0.31422 0.02189,-0.0585 0.03651,-0.11698 0.04383,-0.16799 0.0803,-0.31421 0.138795,-0.51151 0.299597,-0.56996 0.124154,0.0219 0.182656,0.0365 0.211844,0.0803 0.02919,0.0438 0.02188,0.1095 0,0.22649 l -0.02188,0.0439 c 0.0144,0.0438 0.02188,0.095 0.02919,0.14619 0.03655,0.18266 0.04386,0.37998 0.02188,0.55536 v 0.0731 c -0.02188,0.0657 -0.03648,0.12416 -0.0585,0.18266 -0.07314,0.22648 -0.153391,0.47497 -0.314213,0.62111 l -0.06565,0.0585 -0.04383,0.0292 c -0.109515,0.0732 -0.233964,0.1095 -0.350743,0.11699 h -0.0144 z"
       id="path49"
       style="fill:#000000;stroke:#000000;stroke-width:0.1;stroke-linejoin:round;stroke-dasharray:none;stroke-opacity:1;paint-order:stroke fill markers" />
    <path
       class="cls-1"
       d="m 65.115278,85.901734 h 0.0144 c 0.116985,0 0.233937,-0.0439 0.34344,-0.10952 l 0.04383,-0.0292 0.06566,-0.0585 c 0.16084,-0.14619 0.241133,-0.39459 0.314209,-0.62112 0.02188,-0.0585 0.03654,-0.11698 0.05103,-0.18265 v -0.0732 c 0.02923,-0.19003 0.0144,-0.37998 -0.0144,-0.54805 0,-0.051 -0.0144,-0.1095 -0.02188,-0.15339 h -0.0075 c 0,0 0.02189,-0.0365 0.02189,-0.0365 0.02188,-0.10952 0.03646,-0.18263 0,-0.21932 -0.02922,-0.0365 -0.08769,-0.0585 -0.197299,-0.0803 -0.153368,0.0585 -0.211845,0.24853 -0.284981,0.54073 -0.0144,0.0585 -0.02919,0.12415 -0.05106,0.19003 -0.05103,0.11698 -0.10233,0.21184 -0.153366,0.31421 l -0.04386,0.0803 -0.02188,0.0585 c -0.02188,0.0438 -0.0585,0.095 -0.1095,0.15342 -0.13155,0.19003 -0.306897,0.44574 -0.248432,0.67226 0.09496,0.0657 0.197301,0.10233 0.3069,0.10233"
       id="path50"
       style="fill:#000000;stroke:#000000;stroke-width:0.1;stroke-linejoin:round;stroke-dasharray:none;stroke-opacity:1;paint-order:stroke fill markers" />
    <path
       class="cls-1"
       d="m 64.004577,85.624054 c -0.0585,0 -0.124155,-0.0292 -0.255768,-0.1095 -0.167986,-0.38728 0.438432,-0.8184 0.511507,-0.86955 0.10233,0.0219 0.153366,0.0731 0.190029,0.16798 0.07315,0.1973 0.02188,0.46766 -0.109515,0.62843 -0.182655,0.13159 -0.263147,0.18265 -0.328828,0.18265 v 0 z"
       id="path51"
       style="fill:#000000;stroke:#000000;stroke-width:0.1;stroke-linejoin:round;stroke-dasharray:none;stroke-opacity:1;paint-order:stroke fill markers" />
    <path
       class="cls-1"
       d="m 64.004577,85.616754 v 0 c 0.06566,0 0.14619,-0.0511 0.321522,-0.17549 0.13152,-0.15336 0.175485,-0.42382 0.1095,-0.61381 -0.02919,-0.0877 -0.08769,-0.14618 -0.175484,-0.16798 -0.06565,0.051 -0.672263,0.48228 -0.511505,0.84764 0.124155,0.0803 0.197301,0.1095 0.248482,0.1095"
       id="path52"
       style="fill:#000000;stroke:#000000;stroke-width:0.1;stroke-linejoin:round;stroke-dasharray:none;stroke-opacity:1;paint-order:stroke fill markers" />
  </g>
  <metadata
     id="metadata1">
    <rdf:RDF>
      <cc:Work
         rdf:about="">
        <dc:title>zju-logo</dc:title>
      </cc:Work>
    </rdf:RDF>
  </metadata>
</svg>
