<?xml version="1.0" encoding="UTF-8"?><svg id="_参考线" xmlns="http://www.w3.org/2000/svg" width="106.19mm" height="58.77mm" viewBox="0 0 301.02 166.59"><defs><style>.cls-1,.cls-2{fill:#231815;}.cls-3{fill:#fff;stroke:#231815;stroke-miterlimit:10;stroke-width:.22px;}.cls-2{fill-rule:evenodd;}</style></defs><rect class="cls-3" x=".11" y=".11" width="300.81" height="166.38"/><path class="cls-2" d="M213.99,89.86c-1.47-.31-.59-.78-.83-2.03-.2-1.08-1.18-2.14-1.15-2.94.08-2.16,2.86-2.03,4.54-1.34.3.12.65.58.96,1.02.77,1.11,1.67,2.72.48,3.95-1.03,1.05-2.72,1.62-4,1.34"/><path class="cls-2" d="M197.3,87.6s-.1-.04-.14-.06c.01-.16.02-.33.03-.47.46-.17,4.45-2.78,4.44-2.89,1.16-.93,2.2-1.96,2.54-3.45-2.86.94-5.57,3.02-8.54,3.24-1.37-.34-2.31-1.08-3.28-1.5,0-.07,0-.12-.01-.16-1.57-1.03-1.71-2.34.02-2.91,2.98.66,7.55-1.47,10.36-2.54.63-.28,2.45-.92,2.94-1.5.66-3.94.23-7.88.46-11.65.96-2.72,2.66-.87,4.34.49.11.23.5.48.84.99.05,0,.09,0,.16-.01.71,1.13.91,1.65-.19,2.71-.75,1.85-1.11,3.9-1.02,6.03,2.05-.29,3.29-2.08,5.66-2.12.57,1.1.5,2.03-.55,2.95-1.73.83-3.61,1.57-5.57,2.46-.46,1.99-1.25,4.42-2.65,6.04-.21.24-1.22,1.18-1.46,1.32-1.27.74-2.41,1.64-3.8,2.03-3.85,1.07-3.89.89-4.58.99"/><path class="cls-2" d="M160.52,94.32c-1.42-.65-2.7-2.36-3.47-3.42.13-.38.26-.76.41-1.11,3.34-2.5,6.64-4.82,9.66-7.8.92-1.41,2.11-2.88,3.09-4.27.04-.03.11-.05.17-.05,0-.07,0-.11-.01-.15.85-.67,1.21-.84,1.94.25.05.91-1.59,1.89-2.1,2.75-.64,1.63-1.37,3.29-2.2,4.95q-.27.3-1.33,2.05c-.89.69-2.09,2.51-2.59,3.6-1.05.61-1.5,2.47-2.77,3.12-.28.02-.54.05-.8.09"/><path class="cls-2" d="M180.21,82.63c-2.06-.09-2.64-1.4-3.76-2.6-.03-.54.3-.87.34-1.24q.51-.12.83-.31c.86-.12,1.17-.07,2.11-.13,1.18-.27,4.22-2.36,5.23-1.46.15,2.5-2.57,5.02-4.75,5.74"/><path class="cls-2" d="M164.41,78.69c-.79-.69-.94-3.87-1-4.87.59-1.78,2.37-1.85,3.87-.7,1.19,1.56,1.99,2.21.75,4.03-1.41,1.22-2.03,1.31-3.61,1.53"/><path class="cls-2" d="M179.65,77.15c-.21-.97,1.12-3.03.74-3.53-.5.08-1.01.26-1.53.29-1.24-.6-2.59-2.11-2.1-3.27.92-1.04.56-.78,1.99-.87,1.36-.61,2.72-1.2,4.1-1.78,2.31-.43,3.37.84,3.51,3.09-.41,1.46-1.39,2.62-2.34,3.77-1.22.67-2.33,1.41-3.44,2.13-.32.04-.63.1-.93.17"/><path class="cls-2" d="M167.03,70.61c-.49-.43-.28-.66-.03-1.09-.06-.96-.63-1.72-.69-2.64.31-1.67-.01-2.29,1.38-3.09,1.08.48,4.84,2.4,3.95,4.5-1.03,1.31-3.12,2.14-4.61,2.32"/><path class="cls-2" d="M118.32,95.88c-2.23-.86-4.19-5.29-1.49-6.38.07-.39.4-.78.73-.9,0-.07,0-.12-.01-.16,2.17-2.1,3.6-5.03,5.42-7.35.47-.88.72-1.73,1.73-1.98.5.44.33,1.45.19,2.22.22.2,1,.05,1.46-.09,1.51-1.3,3.48-2.44,4.98-3.81.08-.67.15-1.34.26-1.99-1.05.25-4.51,1.06-3.68-.88,1.3-.51,3.26-1.63,3.96-3.02.34-1.42.14-2.99.86-4.01,1.45-.76,3.17,1.08,3.46,2.65.58,1.03,2.4-.25.13,2.93-.48.36-.46,1.04-.36,1.77.17.01.33.03.5.04,1.27-.91,2.66-1.89,4.1-2.72.39-2.04.72-3.74,1.7-5.46,1.41-.96,3.32.08,4.7,1.18,1.06-.07,1.72-.51,2.67-1.21q.37-.12,1.08-.11c.29.5.39,1.02.44,1.77-.68,2.08-6.63,2.76-5.49,5.18,1.04-.07,1.4-1.2,1.78-1.96,1.17-.62,3.68.12,4.9,1.02,1.36,1.65.3,2.21-1.2,3.25-.15.22-.3.45-.43.67q-.1,3.33-.06,7.83c-.52,1.22-.88,1.81-1.82,2.79,0,.05,0,.09.01.14-.07,0-.12,0-.17,0-.58,1.01-1.99,2-2.83,1.05-.02-3.7.19-7.53.07-11.05-.07,0-.14.03-.18.06-.27,1.79-2.07,5.17-3.61,6.29-1.42.09-2.61-.74-3.02-1.94.15-.36.42-.45.72-.71.8-1.64.56-4.66.56-6.27-1.15.17-3.1,2.78-3.96,3.75-.59.46-1.18.93-1.74,1.39-.41,1.37-.73,2.72-1.09,4.19-.32.66-.63,1.34-.94,2.03-.07,0-.12,0-.17.01-.54.91-2.28,3.29-3.33,1.79-.01-.21-.02-.4-.01-.59.87-1.29,1.54-3.08,1.56-4.55-1.42.47-2.35,1.76-3.77,1.85-.82-.16-1.64-.42-2.18-.69,0-.07,0-.12,0-.16-.35-.22-.7-.53-.91-.44-.26.8-.52,1.62-.75,2.44-1.47,3.05-2.54,6.06-3.49,9.41-.54.53-.72.61-1.28.75"/><path class="cls-2" d="M121.11,78.29c-.44-.64.1-1.48.12-2.21-.7-2.09-1.25-3.64.09-5.41.21-.03.43-.05.64-.06.97.67,2.34,2.22,3.17,3.34,1.01,2.5-2.22,3.62-4.02,4.35"/><path class="cls-2" d="M123.12,70.2c-.53-.18-.52-.3-.62-.48.25-.51.5-.81.39-1.33-1.28-1.96-1.21-4.95,1.01-5.94.64.08.66.62.95,1.51,1.44,1.4,4.12,3.14,1.58,5.03-1.07.47-2.23.84-3.3,1.21"/><path class="cls-2" d="M229.92,77.87c-2-.62-1.63-3.92-1.29-5.24,1.46-.93,3.38,1,3.49,2.72-.37,1.89-.35,2.17-2.2,2.52"/><path class="cls-2" d="M240.75,93.04c-.07-.04-.12-.09-.17-.11-2.56.16-5.01-.09-7.3-.9q-.1-.2-.12-.51c1.35-.79,3.26-.57,4.29-1.99.16-1.11.29-2.05.18-3-2.54.16-3.9,1.95-5.91,2.68-1.72.11-4.79-1.45-5.29-2.82,0-2.22.46-1.22,2.83-1.37,2.82-.5,5.64-2.12,8.37-3.32q.58-.44.9-.57c.61-1.84,1.03-2.16,2.95-2.54q.75-.37,2.93-1.7c.06-.21.11-.43.19-.64-3.32.39-6,3.08-8.65,4.86-1.31.36-2.31.14-3.22-.27-.58.08-3.89.66-2.29-.65.98-.38,1.73-1.09,2.78-1.55,2.49-1.68,5.37-3.11,8.05-4.66-.03-.42-.18-.64-.26-.76.01-.56.11-.85.27-1.28-.51.17-.65.14-.74.52-1.59.7-2.27,2.15-3.61.62-.36,1.4-1.35,2.37-2.75,2.46-1.42-.73-1.46-3.11-1.71-4.21-.1-.13-.3-1.05-.69-2.13-.64-1.31-1.83-2.78-1.04-3.97,1.01-.62,1.41-.86,2.27.51.74.56,1.67,1.32,2.41,2.3.05,0,.1,0,.16-.01.45,1.21,1.56,2.8,1.44,4.35.75-.44,1.81-1.3,1.26-2.25-1.23-.67-.53-1.81.33-2.24q.61.03,1.4-.04c-.02-.3-.04-.3-.19-.48-1.03-.35-.83-.6-.55-1.43-1.2-.44-1.65-1.69-1.19-2.59q3.47-.87,5.1-1.39c1.08-1.35,2.26-5.04,4.36-4.36.66.78,1.11,2.08.98,3.37-.27.55-.64,1.02-.74,1.63.21-.01.42,0,.63,0,1.45-.72,2.12-1.58,2.98.58,1.4.75,1.91.56,1.38,2.6-1.02,2.05-2.12,4.24-3.25,6.29-.02.1-.04.19-.03.28.26.05.52.11.78.19.15.92.18,2.07.15,3.19-.88,1.29-1.98,1.29-3.37,1.47-1.77.88-3.36,1.61-5.02,2.6,0,.33-.05.66.11,1.09.84-.03,1.7-.03,2.57-.04.95.62.87,2.35.28,3.37-.97.13-1.55.26-2.3.66-.09.47-.18.94-.26,1.44.07,1.84,1.02,6.29-1.71,6.71M246.18,70.34c.86-.87,1.46-1.72,1.38-2.91-.71-.63-1.96-.72-2.71-.67q-.1.33-.96,1.93c.07.04.17.08.27.12-.09.03-.19.06-.25.11,0,.05.03.09.06.16.38.05.59-.24.76-.51,1.34-.22,1.37.26,1.28,1.69.05.02.1.04.17.08"/><polygon class="cls-1" points="122.24 104.4 126.17 99.55 122.55 99.55 122.55 99.16 122.55 98.78 127.25 98.78 127.25 99.15 127.25 99.53 123.33 104.39 127.25 104.39 127.25 104.77 127.25 105.15 122.24 105.15 122.24 104.78 122.24 104.4"/><polygon class="cls-1" points="129.21 98.78 129.64 98.78 130.07 98.78 130.07 101.39 133.4 101.39 133.4 98.78 133.82 98.78 134.26 98.78 134.26 105.15 133.83 105.15 133.4 105.15 133.4 102.15 130.07 102.15 130.07 105.15 129.64 105.15 129.21 105.15 129.21 98.78"/><polygon class="cls-1" points="136.58 105.15 136.58 98.78 141.24 98.78 141.24 99.16 141.24 99.55 137.44 99.55 137.44 101.49 140.91 101.49 140.91 101.87 140.91 102.25 137.44 102.25 137.44 104.39 141.29 104.39 141.29 104.77 141.29 105.15 136.58 105.15"/><path class="cls-1" d="M145.74,98.78h.86v4.58c0,.62-.16,1.11-.48,1.45-.31.34-.76.51-1.35.51s-1.06-.16-1.38-.47c-.32-.32-.47-.75-.45-1.31v-.44h.81v.44c0,.34.08.6.25.78.17.19.41.28.71.28s.56-.11.74-.33c.18-.22.27-.52.27-.9v-4.58Z"/><polygon class="cls-1" points="148.93 98.78 149.36 98.78 149.79 98.78 149.79 105.15 149.37 105.15 148.93 105.15 148.93 98.78"/><path class="cls-1" d="M154.01,98.78h.98l2.29,6.37h-.93l-.65-1.85h-2.55l-.67,1.85h-.89l2.4-6.37ZM153.44,102.54h2l-.98-2.83h0l-1.02,2.83Z"/><polygon class="cls-1" points="159.79 105.15 159.38 105.15 158.96 105.15 158.96 98.78 159.47 98.78 159.99 98.78 163.18 103.96 163.18 98.78 163.6 98.78 164.01 98.78 164.01 105.15 163.54 105.15 163.07 105.15 159.79 99.95 159.79 105.15"/><path class="cls-1" d="M169.32,105.32c-.88,0-1.6-.31-2.15-.92-.54-.62-.82-1.42-.82-2.43s.28-1.82.84-2.44c.56-.62,1.28-.93,2.19-.93.7,0,1.3.19,1.8.58.5.39.79.89.88,1.5h-.83c-.08-.42-.29-.75-.61-.98-.33-.23-.76-.34-1.29-.34-.62,0-1.12.24-1.51.72-.38.48-.58,1.11-.58,1.89,0,.83.19,1.47.56,1.93.37.45.9.68,1.57.68s1.19-.24,1.59-.72c.07-.08.12-.15.18-.24.07-.11.13-.27.18-.47.05-.2.07-.39.07-.58v-.08h-1.99v-.73h2.79v3.37h-.54l-.21-.8-.05.05c-.52.62-1.21.92-2.06.92"/><path class="cls-1" d="M183.14,102.82c0,.79-.22,1.4-.66,1.84-.44.44-1.06.66-1.84.66s-1.44-.21-1.87-.64c-.43-.43-.64-1.05-.64-1.87v-4.04h.86v3.97c0,.59.14,1.04.42,1.35.28.31.69.46,1.23.46s.94-.15,1.23-.46c.28-.31.42-.76.42-1.35v-3.97h.86v4.04Z"/><polygon class="cls-1" points="186.41 105.15 185.99 105.15 185.57 105.15 185.57 98.78 186.09 98.78 186.61 98.78 189.8 103.96 189.8 98.78 190.21 98.78 190.63 98.78 190.63 105.15 190.16 105.15 189.69 105.15 186.41 99.95 186.41 105.15"/><polygon class="cls-1" points="193 98.78 193.43 98.78 193.86 98.78 193.86 105.15 193.43 105.15 193 105.15 193 98.78"/><polygon class="cls-1" points="195.55 98.78 196.02 98.78 196.5 98.78 198.33 104.23 198.33 104.23 200.15 98.78 200.63 98.78 201.11 98.78 198.79 105.15 198.33 105.15 197.86 105.15 195.55 98.78"/><polygon class="cls-1" points="202.76 105.15 202.76 98.78 207.41 98.78 207.41 99.16 207.41 99.55 203.62 99.55 203.62 101.49 207.09 101.49 207.09 101.87 207.09 102.25 203.62 102.25 203.62 104.39 207.47 104.39 207.47 104.77 207.47 105.15 202.76 105.15"/><path class="cls-1" d="M209.76,98.78h2.96c.67,0,1.19.15,1.54.44.35.29.53.72.53,1.29s-.19.99-.55,1.31c-.09.08-.19.15-.3.21l.14.07c.39.22.59.6.6,1.12l.03,1.16c0,.19.03.33.08.41.04.08.12.15.25.22v.14h-1.06s-.05-.19-.07-.41c-.02-.22-.04-.46-.05-.73l-.02-.5c-.01-.4-.11-.68-.29-.85-.18-.17-.48-.25-.89-.25h-2.05v2.74h-.86v-6.37ZM210.62,101.66h2.13c.4,0,.69-.09.88-.26.18-.17.28-.45.28-.83s-.1-.64-.29-.8c-.19-.17-.5-.26-.92-.26h-2.07v2.15Z"/><path class="cls-1" d="M221.01,100.63c-.04-.4-.2-.71-.47-.93-.28-.22-.65-.33-1.12-.33s-.86.09-1.11.28c-.25.19-.38.46-.38.82,0,.25.09.43.25.55.17.12.5.24,1.01.36l1.11.27c.59.14,1.02.35,1.27.63.26.27.39.67.39,1.17,0,.58-.22,1.04-.66,1.37-.44.34-1.03.51-1.78.51-.83,0-1.48-.19-1.95-.58-.46-.39-.69-.91-.69-1.58v-.05h.79c.01.46.18.82.5,1.07.32.25.77.38,1.34.38.53,0,.93-.09,1.21-.27.27-.18.41-.45.41-.8,0-.3-.09-.53-.27-.68-.18-.15-.54-.28-1.08-.41l-1.11-.26c-.56-.13-.96-.32-1.2-.55-.24-.24-.36-.57-.36-.98,0-.61.2-1.09.62-1.45.42-.36.98-.54,1.68-.54s1.29.18,1.71.54c.43.36.65.85.68,1.48h-.79Z"/><polygon class="cls-1" points="224.06 98.78 224.49 98.78 224.92 98.78 224.92 105.15 224.49 105.15 224.06 105.15 224.06 98.78"/><polygon class="cls-1" points="228.89 99.55 226.74 99.55 226.74 99.16 226.74 98.78 231.9 98.78 231.9 99.16 231.9 99.55 229.75 99.55 229.75 105.15 229.32 105.15 228.89 105.15 228.89 99.55"/><polygon class="cls-1" points="235.8 102.6 233.4 98.78 233.9 98.78 234.4 98.78 236.23 101.87 236.23 101.87 238.06 98.78 238.56 98.78 239.06 98.78 236.66 102.61 236.66 105.15 236.23 105.15 235.8 105.15 235.8 102.6"/><path class="cls-1" d="M76.07,54.93c15.63,0,28.37,12.75,28.37,28.37s-12.74,28.37-28.37,28.37-28.37-12.75-28.37-28.37,12.75-28.37,28.37-28.37M76.07,56.06c-15,0-27.24,12.24-27.24,27.24s12.24,27.24,27.24,27.24,27.24-12.24,27.24-27.24-12.23-27.24-27.24-27.24"/><path class="cls-1" d="M66.11,95.39c-1.77-1.47-3.23-3.32-4.22-5.42-.96-2.03-1.49-4.29-1.49-6.67,0-8.64,7.05-15.68,15.68-15.68s15.68,7.04,15.68,15.68c0,2.38-.54,4.64-1.5,6.67-.99,2.11-2.45,3.95-4.22,5.42l-.36-.44c1.71-1.42,3.11-3.2,4.07-5.23.92-1.95,1.44-4.13,1.44-6.43,0-8.32-6.79-15.12-15.12-15.12s-15.11,6.79-15.11,15.12c0,2.3.52,4.48,1.44,6.43.96,2.03,2.36,3.81,4.07,5.23l-.36.44Z"/><polygon class="cls-2" points="51.78 92.77 50.71 89.9 51.29 89.69 56.2 90.44 55.45 88.43 56.03 88.22 57.01 90.85 56.42 91.06 51.52 90.31 52.36 92.56 51.78 92.77"/><polygon class="cls-2" points="53.64 96.68 53.35 96.11 55.66 94.92 54.92 93.5 52.62 94.69 52.32 94.11 57.25 91.58 57.55 92.15 55.47 93.22 56.2 94.64 58.28 93.57 58.57 94.14 53.64 96.68"/><polygon class="cls-2" points="55.98 99.8 54.23 97.36 58.85 94.49 60.52 96.81 60.01 97.13 58.74 95.36 57.3 96.25 58.47 97.88 57.96 98.2 56.79 96.57 55.14 97.59 56.5 99.48 55.98 99.8"/><polygon class="cls-2" points="59.91 103.65 59.33 103.15 62.73 98.97 63.32 99.47 59.91 103.65"/><path class="cls-2" d="M62.55,105.49l.7-1.48-.85-.61-1.26,1.22-.58-.44,3.99-3.94.8.49-2.12,5.15-.69-.38ZM63.57,103.28l.83-1.91-.08-.06-1.44,1.46.68.51Z"/><polygon class="cls-2" points="66.55 107.42 65.83 107.09 66.25 103.24 64.67 106.48 63.95 106.14 66.45 101.2 67.1 101.5 66.8 105.15 68.43 102.13 69.03 102.38 66.55 107.42"/><path class="cls-2" d="M70.27,108.53l-.46-.15.04-.44c-.11.09-.25.15-.43.18-.18.03-.36.01-.54-.05-.38-.12-.67-.42-.85-.9-.19-.48-.15-1.14.11-1.97.28-.91.63-1.55,1.04-1.91.41-.36,1.04-.56,1.59-.38.6.19.98.92.81,1.94l-.71-.06c.12-.43.06-1.11-.37-1.25-.34-.11-.73,0-.97.27-.24.27-.48.79-.72,1.55-.22.72-.28,1.25-.19,1.58.1.33.27.54.5.61.24.08.45.05.65-.1.19-.14.35-.41.47-.79l.1-.32-.85-.27.17-.55,1.4.45-.79,2.57Z"/><path class="cls-2" d="M77.64,107.31c-.02.5-.15.89-.4,1.17-.25.28-.64.41-1.16.39-.52-.02-.9-.18-1.13-.48-.23-.3-.34-.7-.32-1.2l.12-3.78.66.03-.12,3.78c-.01.36.06.62.21.79.15.17.35.26.6.27.25,0,.46-.07.62-.23.16-.16.25-.42.26-.77l.12-3.78.66.03-.12,3.78Z"/><polygon class="cls-2" points="81.43 108.32 80.84 108.41 78.97 104.81 79.25 108.68 78.55 108.78 78.13 103.35 78.94 103.27 80.49 105.8 80.2 103.08 80.79 102.98 81.43 108.32"/><polygon class="cls-2" points="83.46 107.75 82.76 107.96 81.31 102.83 82.01 102.61 83.46 107.75"/><polygon class="cls-2" points="85.33 101.24 86.21 106.91 85.53 107.25 82.52 102.44 83.18 102.16 85.27 105.44 84.69 101.52 85.33 101.24"/><polygon class="cls-2" points="90.91 104.46 88.38 105.83 85.62 101.09 88.03 99.79 88.34 100.31 86.5 101.31 87.35 102.78 89.04 101.86 89.35 102.39 87.66 103.3 88.64 104.99 90.6 103.93 90.91 104.46"/><path class="cls-2" d="M93.8,102.43l-.56.48-1.96-1.63-.51.46,1.33,1.81-.56.58-3.25-4.56,1.04-.74c.33-.24.77-.41,1.16-.36,1.01.12,1.44.8,1.4,1.59-.01.25-.03.5-.13.75l2.04,1.63ZM90.3,99.22c-.41-.11-.74.21-1.04.44l1.08,1.43c.33-.24.48-.29.73-.72.11-.52-.12-.97-.78-1.14"/><path class="cls-2" d="M95.55,98.02c1.13.68.87,2.62-.62,2.84-.4.06-.87-.06-1.07-.19l.25-.58c.25.05.49.14.73.1.97-.18.92-1.19.36-1.6-.2-.15-.48-.16-.71-.14-.65.07-1.07.56-1.79.6-.79.05-1.34-.43-1.48-1.21-.07-.41.03-.8.23-1.12.42-.66,1.31-.75,1.96-.36l-.25.6c-.35-.19-.97-.19-1.21.18-.12.19-.17.39-.13.59.08.44.38.69.8.64.7-.09,1.18-.67,1.87-.64.33,0,.72.09,1.05.29"/><polygon class="cls-2" points="97.94 97.32 97.54 97.82 92.86 94.89 93.27 94.39 97.94 97.32"/><polygon class="cls-2" points="95.59 91.41 95.07 92.37 99.48 94.96 99.19 95.52 94.77 92.92 94.25 93.88 93.7 93.55 95.03 91.09 95.59 91.41"/><polygon class="cls-2" points="96.39 87.76 99.09 90.17 100.88 90.94 100.67 91.55 99 90.9 95.16 90.81 95.35 90.2 98.03 90.24 96.13 88.5 96.39 87.76"/><path class="cls-2" d="M59.5,101.23c-.48.47-.92.72-1.33.73-.41.01-.78-.15-1.12-.49-.3-.31-.46-.67-.45-1.09,0-.21.06-.43.18-.65l.61.37c-.05.1-.08.2-.08.3,0,.22.06.41.21.56.21.21.42.3.65.29.23-.02.5-.19.82-.51l2.7-2.67.5.51-2.67,2.65Z"/><path class="cls-2" d="M68.67,100.3l-1.89-1.17.17-.3.7.43,1.12-1.96-.7-.43.15-.26c.27.16.48.26.63.27.16.02.29-.04.4-.19l.4.25-1.51,2.63.68.42-.17.3ZM74.3,99.11c.03-.15-.02-.29-.16-.41-.14-.12-.34-.2-.62-.24-.25-.04-.47-.02-.65.05-.18.07-.28.18-.31.33-.02.11,0,.21.07.3.06.09.17.18.33.26.06.04.17.09.3.15.14.07.27.12.39.16.22-.07.38-.16.47-.25.09-.09.15-.21.18-.35M74.06,100.8c.03-.14,0-.25-.06-.34-.07-.09-.21-.2-.44-.32-.07-.04-.17-.08-.29-.14-.12-.05-.27-.11-.42-.18-.21.06-.38.14-.5.25-.13.1-.21.23-.24.39-.04.2.02.38.18.54.16.16.39.26.67.3.29.04.54.01.74-.07.2-.09.32-.23.36-.43M72.88,101.63c-.25-.04-.49-.09-.69-.17-.2-.08-.37-.17-.5-.29-.13-.11-.21-.23-.27-.37-.05-.13-.06-.27-.03-.41.04-.18.15-.34.33-.47.18-.13.42-.22.73-.27h0c-.23-.14-.4-.28-.5-.41-.1-.13-.13-.28-.1-.45.05-.25.24-.44.57-.57.33-.13.72-.16,1.17-.1.47.07.83.2,1.09.4.25.2.35.42.3.67-.03.15-.13.29-.3.42-.17.13-.38.21-.66.26h0c.28.15.49.29.62.44.13.15.17.33.13.54-.06.29-.27.5-.63.65-.36.15-.78.19-1.27.12M79.42,99.56c0-.23-.03-.42-.09-.56-.07-.14-.15-.26-.27-.34-.1-.07-.2-.12-.3-.15-.1-.03-.21-.04-.34-.04-.28,0-.5.07-.67.2-.17.13-.25.33-.25.58,0,.14.03.26.08.35.06.09.15.17.27.24.09.05.18.08.3.09.11.02.23.02.35.02.15,0,.3-.02.47-.05.17-.03.32-.08.44-.14,0-.02,0-.05,0-.09,0-.04,0-.08,0-.13M76.8,99.27c0-.18.04-.34.13-.48.09-.15.2-.27.35-.38.14-.1.31-.18.52-.23.21-.06.41-.08.62-.08.23,0,.45.03.64.08.19.05.35.13.49.23.18.12.31.29.41.49.1.2.15.46.15.77,0,.28-.05.55-.14.8-.1.25-.23.46-.42.63-.2.18-.43.31-.71.4-.27.09-.61.14-1.02.14-.09,0-.19,0-.29,0-.1,0-.2-.02-.29-.04v-.44h.04c.06.02.15.04.27.06.12.02.24.03.37.03.45,0,.8-.1,1.05-.29.25-.2.4-.47.43-.84-.18.08-.36.14-.52.18-.17.04-.35.06-.54.06s-.36-.01-.52-.04c-.15-.03-.31-.08-.47-.16-.19-.09-.32-.21-.42-.35-.09-.14-.14-.31-.14-.51M84.21,96.36l-.13,3.5-.53.34.05-3.31-2.04.99-.18-.39,2.57-1.34.27.21Z"/><path class="cls-2" d="M85.33,68.03c-.41-.2-.12-.27-.1-.66.02-.33-.19-.72-.13-.95.18-.63.99-.39,1.43-.07.08.06.15.21.21.37.14.38.3.92-.15,1.2-.38.24-.92.28-1.27.11"/><path class="cls-2" d="M80.57,66.17s-.03-.02-.04-.03c.01-.05.03-.09.04-.14.15-.02,1.51-.5,1.52-.53.41-.19.79-.42,1-.83-.91.07-1.86.49-2.75.34-.38-.2-.61-.49-.86-.68,0-.02,0-.03,0-.05-.39-.42-.33-.81.22-.86.83.41,2.33.11,3.24,0,.21-.04.79-.1.98-.23.48-1.11.64-2.31.97-3.4.48-.73.85-.07,1.25.46.02.07.11.18.18.35.02,0,.03,0,.05,0,.13.38.15.55-.25.79-.35.49-.61,1.07-.73,1.71.62.06,1.12-.38,1.82-.22.09.37,0,.64-.37.83-.57.12-1.18.21-1.82.33-.28.55-.68,1.21-1.21,1.59-.08.06-.44.26-.53.29-.43.12-.83.31-1.27.32-1.21.04-1.21-.02-1.42-.04"/><path class="cls-2" d="M66.74,70.21c-.5-.03-1.09-.39-1.45-.62,0-.13-.02-.26-.01-.39.71-1.15,1.43-2.24,1.99-3.49.11-.53.29-1.12.43-1.65,0-.01.03-.03.04-.04,0-.02-.01-.03-.02-.04.18-.3.27-.4.61-.15.12.27-.25.76-.31,1.08,0,.57-.02,1.15-.07,1.75q-.04.12-.16.77c-.19.31-.33,1.01-.35,1.39-.24.31-.16.92-.46,1.27-.08.04-.16.08-.23.12"/><path class="cls-2" d="M71.29,64.35c-.63.22-.96-.11-1.44-.34-.08-.16-.01-.3-.04-.42q.14-.1.21-.19c.25-.14.34-.16.62-.29.32-.22.99-1.21,1.4-1.06.34.73-.18,1.82-.75,2.29"/><path class="cls-2" d="M66.06,65.03c-.32-.11-.74-1.05-.88-1.35-.03-.6.5-.84,1.08-.67.54.33.86.43.7,1.12-.28.53-.46.63-.91.89"/><path class="cls-2" d="M70.47,62.76c-.18-.27-.02-1.04-.2-1.15-.14.08-.27.2-.43.27-.45-.03-1.03-.33-1.02-.74.15-.42.08-.3.5-.5.34-.34.68-.68,1.02-1.02.65-.4,1.11-.15,1.42.52.05.49-.11.95-.26,1.41-.29.35-.54.7-.79,1.05-.09.05-.18.11-.26.16"/><path class="cls-2" d="M65.89,62.29c-.2-.07-.16-.17-.14-.33-.13-.28-.39-.44-.52-.71-.11-.54-.28-.69.05-1.09.38.01,1.74.15,1.72.89-.15.52-.68,1.01-1.11,1.24"/><path class="cls-2" d="M58.92,80.99c-.59.41-2.01.14-1.82-.71-.08-.08-.13-.23-.1-.33-.02-.01-.03-.02-.04-.02-.15-.89-.63-1.73-.89-2.57-.14-.26-.3-.47-.2-.75.2-.05.41.16.58.32.09-.02.18-.23.23-.37-.06-.59-.02-1.26-.1-1.87-.15-.13-.3-.26-.44-.4-.12.3-.5,1.29-.84.76.09-.4.15-1.08-.08-1.48-.29-.32-.71-.54-.84-.89.06-.48.8-.6,1.23-.4.35.03.35-.63.74.46,0,.18.18.29.38.39.03-.04.06-.08.09-.12,0-.46-.02-.97.02-1.47-.43-.44-.8-.8-1.06-1.34,0-.51.58-.8,1.08-.96.16-.27.17-.51.16-.86q.04-.11.16-.29c.17.01.32.08.51.19.4.52-.44,2.09.35,2.22.16-.27-.06-.55-.18-.77.04-.39.65-.88,1.08-1.03.63-.05.59.3.6.84.03.08.06.15.09.22q.8.58,1.91,1.33c.21.33.29.52.38.92.01,0,.02.01.04.02,0,.02-.02.03-.02.04.15.31.16.82-.22.87-.91-.62-1.82-1.32-2.7-1.88-.01.02-.02.04-.02.06.4.37.92,1.38.94,1.95-.22.36-.62.51-.99.41-.07-.1-.04-.18-.05-.29-.27-.47-1.05-.93-1.45-1.2-.15.31.16,1.23.25,1.61.02.22.03.45.05.66.27.33.55.64.85.97.11.19.22.38.34.57,0,.02-.02.03-.02.04.13.29.42,1.12-.12,1.12-.05-.03-.1-.06-.15-.1-.17-.43-.5-.9-.85-1.15-.13.42.03.87-.18,1.23-.18.17-.38.33-.54.42-.02-.01-.03-.02-.04-.02-.11.05-.25.08-.26.15.15.2.31.4.47.6.5.88,1.06,1.64,1.72,2.44.04.22.03.28-.03.44"/><path class="cls-2" d="M55.07,77.34c-.23,0-.35-.27-.52-.4-.63-.18-1.11-.31-1.31-.93.03-.06.06-.11.09-.17.33-.12.94-.2,1.35-.21.78.17.52,1.15.39,1.72"/><path class="cls-2" d="M53.42,75.48c-.14.1-.16.08-.22.07-.08-.15-.12-.26-.26-.32-.7-.02-1.42-.54-1.29-1.25.13-.15.26-.06.53.02.59-.12,1.46-.48,1.5.46-.06.34-.17.69-.26,1.02"/><path class="cls-1" d="M89.39,76.38h-6.9c-2.01,0-3.05,1.97-3.81,3.75l-1.16-2.62,1.95-.72c-1.14-1.08-4.7-1.67-5.17-.04l-.84,3.38c-.66-1.52-1.6-3.75-3.71-3.75h-7c.91,1.61,1.78,2.19,5,2.05l.42,1.11-3.53.02c1.04,1.92,1.64,2,4.49,1.92l.6,1.33-2.78.1c.6,1.36,1.22,1.94,3.61,1.83l.46,1.18h-2.21c.83,1.38,1.24,2.01,2.99,1.85l.47,1.28h-1.53c.66,1.48,1.43,1.54,2.37,1.69.85.13.97,1.71-.02,2.22l2.97,4.82,2.97-4.82c-.99-.51-.87-2.09-.02-2.22.94-.15,1.71-.21,2.37-1.69h-1.53l.47-1.28c1.75.15,2.16-.47,2.99-1.84h-2.21s.46-1.19.46-1.19c2.38.11,3.01-.47,3.61-1.83l-2.78-.1.6-1.33c2.84.08,3.44,0,4.49-1.92h-3.53s.42-1.13.42-1.13c3.22.14,4.09-.44,5-2.05"/><path class="cls-1" d="M99.9,73.07l.02-.06c.1-.25.09-.35.07-.39-.03-.06-.14-.09-.31-.13-.05-.01-.1-.02-.16-.03l-.1-.02-.03-.07s-.07-.07-.11-.1l-.13-.04-.03-.02.17-.13c.12-.09.26-.14.41-.19l.02-.04.07.03c.24-.21.41-.52.43-.84-.07-.1-.2-.15-.39-.15-.24,0-.54.1-.8.18-.16.05-.36.12-.53.15l-.06-.03c-.44-.21-.46-.22-1.38-.7-.07.04-.12.11-.15.18-.06.13-.05.28.02.42l.09.07h0s0,0,0,0l-.22.12c-.05.03-.06.03-.06.03h0l-.06.06s.02.07.05.12l.02.1c0,.08-.02.12-.09.2l-.03.1h0s0,.01,0,.01l-.13-.11c-.18-.14-.19-.15-.32-.28-.03,0-.07,0-.11,0-.1,0-.18.03-.22.08-.04.05-.03.12,0,.22v.05c-.04.13-.16.36-.57.36h-.21s-.08,0-.15.03c0,.28.12.3.41.35.11.02.23.04.39.07.03,0,.05-.02.08-.02.06,0,.11.03.17.05l.22.09.08.02.04.02-.27.13c-.1.05-.17.09-.27.19-.02.08-.06.15-.12.22v.06s-.12-.03-.12-.03c-.2-.05-.39-.1-.59-.15l-.3-.08c-.54-.14-1.21-.32-1.85-.43-.15-.05-.3-.08-.44-.11l-.3-.03v.08c.06.06.16.13.31.23l.02.05c.08.21.23.47.56.65.22.04.44.06.71.1.79.09,1.61.18,2.25.66l.17.09h.04s0,0,0,0h0l-.24.12c-.06.03-.11.06-.19.13l-.07-.02q-.76-.17-1.03-.26c-.27-.18-.41-.23-.55-.23-.11,0-.24.05-.46.18-.01,0-.02.01-.04.02h-.01s-.01.02-.02.02l-.08-.03c-.08-.03-.09-.03-.32-.06-.21-.07-.43-.14-.66-.22-.66-.21-1.34-.44-1.9-.81-.17-.14-.28-.27-.37-.38-.03-.04-.05-.06-.07-.06,0,0,0,0,0,0l-.06-.07s-.11.08-.23.2c-.12.37.22,1.26.52,1.53.21.09.44.14.68.18.4.08.81.15,1.21.48l.11.03h0s0,0,0,0l-.1.14c-.13.17-.28.31-.45.46l-.08.07c-.05.04-.1.08-.14.13h-.08c-.06.02-.11.02-.17.02-.3,0-.55-.14-.77-.27-.07-.04-.14-.08-.25-.1l-.04.08c.31.53.73,1.01,1.28,1.47l.05.08c.07.04.14.05.21.05h0c.4,0,.83-.55,1.15-.96.07-.09.13-.17.2-.25l.08-.06c.3-.22.32-.24.31-.24l.07.02c.25.07.42.17.66.3.24-.1.48-.34.46-.6l-.1-.09c-.14-.13-.28-.26-.43-.39h-.08s.05-.14.05-.14c.05-.13.13-.2.23-.31v-.05s.11.02.11.02c.43.1.81.22,1.28.36l.41.13.1.08c.23.18.4.3.67.3.04,0,.08,0,.15-.03.25-.26.4-.43.5-.63h0s0-.01,0-.02c-.08-.12-.11-.15-.13-.15l.08-.09s.05-.05.12-.09c.69-.22,1.45-.49,2-.69.33-.21.37-.23.25-.54-.02-.05-.04-.11-.09-.2M97.2,73.49l.11-.1c.15-.14.22-.21.24-.28,0-.03-.04-.06-.11-.11h-.03s-.04,0-.08,0c-.12,0-.2-.06-.24-.11l-.05-.04v-.06s.05-.14.05-.14h-.03s.15-.06.15-.06q.51-.17.59-.22l.04-.07.1.08c.11.09.46.42.52.83l-.05.06c-.27.32-.64.38-.99.39l-.1.02-.05-.15-.07-.04h0Z"/><path class="cls-1" d="M94.25,72.27c-.15,0-.3-.05-.43-.14-.08-.33.16-.68.34-.94.06-.09.11-.16.15-.22l.03-.08.06-.11c.07-.14.14-.28.21-.43.03-.08.05-.16.06-.23.11-.43.19-.7.41-.78.17.03.25.05.29.11.04.06.03.15,0,.31l-.03.06c.02.06.03.13.04.2.05.25.06.52.03.76v.1c-.03.09-.05.17-.08.25-.1.31-.21.65-.43.85l-.09.08-.06.04c-.15.1-.32.15-.48.16h-.02Z"/><path class="cls-1" d="M94.25,72.26h.02c.16,0,.32-.06.47-.15l.06-.04.09-.08c.22-.2.33-.54.43-.85.03-.08.05-.16.07-.25v-.1c.04-.26.02-.52-.02-.75,0-.07-.02-.15-.03-.21h-.01s.03-.05.03-.05c.03-.15.05-.25,0-.3-.04-.05-.12-.08-.27-.11-.21.08-.29.34-.39.74-.02.08-.04.17-.07.26-.07.16-.14.29-.21.43l-.06.11-.03.08c-.03.06-.08.13-.15.21-.18.26-.42.61-.34.92.13.09.27.14.42.14"/><path class="cls-1" d="M92.73,71.88c-.08,0-.17-.04-.35-.15-.23-.53.6-1.12.7-1.19.14.03.21.1.26.23.1.27.03.64-.15.86-.25.18-.36.25-.45.25h0Z"/><path class="cls-1" d="M92.73,71.86h0c.09,0,.2-.07.44-.24.18-.21.24-.58.15-.84-.04-.12-.12-.2-.24-.23-.09.07-.92.66-.7,1.16.17.11.27.15.34.15"/></svg>