<?xml version="1.0" encoding="UTF-8"?><svg id="_图层_2" xmlns="http://www.w3.org/2000/svg" width="217.27mm" height="60.05mm" viewBox="0 0 615.89 170.23"><defs><style>.cls-1,.cls-2{fill:#231815;}.cls-2{fill-rule:evenodd;}</style></defs><g id="_参考线"><path class="cls-2" d="M498.86,104.79c-4.4-.94-1.78-2.33-2.48-6.09-.6-3.25-3.53-6.42-3.46-8.83.25-6.48,8.57-6.08,13.61-4.01.9.37,1.95,1.73,2.88,3.06,2.31,3.34,5.02,8.17,1.45,11.84-3.1,3.16-8.17,4.86-11.99,4.03"/><path class="cls-2" d="M448.78,98.04c-.14-.06-.29-.12-.43-.18.03-.49.06-.98.1-1.41,1.38-.52,13.35-8.34,13.33-8.66,3.49-2.78,6.61-5.87,7.61-10.35-8.59,2.82-16.72,9.07-25.61,9.73-4.12-1.02-6.94-3.25-9.83-4.51-.02-.21-.02-.35-.03-.48-4.7-3.08-5.13-7.03.05-8.73,8.95,1.98,22.65-4.41,31.07-7.62,1.89-.83,7.34-2.77,8.82-4.49,1.98-11.81.69-23.65,1.39-34.94,2.89-8.17,7.97-2.62,13.02,1.47.34.68,1.5,1.43,2.52,2.96.14-.01.28-.02.49-.04,2.14,3.4,2.74,4.96-.58,8.14-2.24,5.54-3.33,11.7-3.05,18.1,6.15-.87,9.86-6.25,16.98-6.35,1.7,3.3,1.49,6.1-1.65,8.85-5.19,2.48-10.82,4.72-16.7,7.39-1.37,5.97-3.74,13.27-7.94,18.11-.62.71-3.65,3.53-4.38,3.97-3.81,2.21-7.24,4.91-11.41,6.08-11.54,3.21-11.68,2.68-13.75,2.97"/><path class="cls-2" d="M338.46,118.18c-4.25-1.96-8.11-7.07-10.4-10.27.38-1.14.78-2.28,1.23-3.34,10.01-7.5,19.91-14.46,28.98-23.39,2.75-4.22,6.33-8.64,9.28-12.81.13-.08.32-.15.52-.16-.01-.2-.02-.33-.03-.45,2.56-2,3.64-2.52,5.81.75.16,2.73-4.76,5.66-6.3,8.24-1.92,4.89-4.1,9.86-6.6,14.86q-.8.9-4,6.14c-2.68,2.07-6.27,7.52-7.78,10.81-3.16,1.84-4.51,7.42-8.32,9.35-.85.05-1.63.16-2.4.28"/><path class="cls-2" d="M397.53,83.11c-6.17-.27-7.92-4.21-11.29-7.8-.1-1.63.89-2.6,1.01-3.72q1.54-.36,2.5-.94c2.59-.37,3.52-.22,6.32-.4,3.55-.8,12.65-7.07,15.7-4.38.46,7.49-7.7,15.06-14.24,17.23"/><path class="cls-2" d="M350.13,71.28c-2.36-2.08-2.82-11.6-3.01-14.6,1.76-5.34,7.12-5.54,11.6-2.09,3.56,4.67,5.97,6.62,2.25,12.08-4.22,3.66-6.1,3.92-10.83,4.6"/><path class="cls-2" d="M395.86,66.67c-.64-2.9,3.36-9.1,2.21-10.6-1.49.23-3.02.78-4.6.87-3.71-1.79-7.78-6.32-6.29-9.81,2.75-3.12,1.68-2.33,5.98-2.6,4.08-1.82,8.16-3.59,12.3-5.34,6.93-1.29,10.11,2.51,10.53,9.28-1.23,4.39-4.16,7.85-7.02,11.3-3.67,2-7,4.23-10.33,6.4-.97.13-1.88.31-2.78.5"/><path class="cls-2" d="M357.98,47.06c-1.46-1.29-.85-1.98-.08-3.28-.18-2.87-1.89-5.17-2.06-7.91.93-5.02-.04-6.86,4.14-9.28,3.23,1.44,14.52,7.2,11.84,13.51-3.1,3.93-9.36,6.41-13.83,6.96"/><path class="cls-2" d="M211.85,122.87c-6.7-2.58-12.58-15.86-4.46-19.13.21-1.16,1.21-2.35,2.18-2.7-.02-.21-.02-.35-.03-.49,6.51-6.3,10.79-15.1,16.26-22.05,1.41-2.65,2.17-5.19,5.18-5.94,1.51,1.33.98,4.35.56,6.65.67.59,3,.16,4.38-.28,4.52-3.9,10.43-7.33,14.94-11.44.24-2.01.46-4.03.77-5.96-3.16.76-13.53,3.19-11.05-2.65,3.89-1.53,9.79-4.88,11.88-9.07,1.01-4.25.43-8.98,2.59-12.03,4.34-2.27,9.52,3.24,10.38,7.95,1.75,3.09,7.21-.74.4,8.8-1.43,1.07-1.37,3.13-1.09,5.32.5.04.99.08,1.5.11,3.81-2.73,7.97-5.68,12.29-8.16,1.18-6.12,2.15-11.22,5.1-16.39,4.22-2.88,9.97.24,14.09,3.54,3.19-.2,5.17-1.54,8.02-3.63q1.12-.35,3.25-.33c.87,1.51,1.18,3.05,1.32,5.31-2.03,6.24-19.9,8.28-16.46,15.53,3.12-.2,4.19-3.6,5.34-5.88,3.5-1.85,11.04.37,14.69,3.06,4.08,4.94.91,6.63-3.59,9.75-.45.67-.9,1.34-1.3,2q-.31,9.98-.17,23.48c-1.55,3.65-2.65,5.42-5.45,8.38.02.14.02.28.03.42-.22.01-.35.02-.5.03-1.74,3.02-5.96,5.99-8.48,3.16-.05-11.09.58-22.58.21-33.15-.21.01-.42.09-.55.18-.8,5.38-6.22,15.52-10.84,18.87-4.26.26-7.83-2.22-9.05-5.83.44-1.09,1.27-1.36,2.15-2.12,2.4-4.91,1.69-13.98,1.67-18.81-3.46.5-9.3,8.33-11.88,11.26-1.76,1.39-3.53,2.79-5.22,4.17-1.23,4.12-2.2,8.17-3.27,12.57-.95,1.97-1.89,4.03-2.82,6.08-.22.02-.36.03-.5.03-1.61,2.73-6.85,9.88-9.98,5.38-.04-.64-.07-1.2-.04-1.78,2.6-3.86,4.62-9.25,4.69-13.66-4.25,1.41-7.06,5.28-11.32,5.54-2.45-.49-4.91-1.26-6.53-2.08-.01-.22-.02-.35-.03-.49-1.04-.65-2.09-1.58-2.72-1.33-.78,2.39-1.55,4.86-2.25,7.32-4.4,9.16-7.61,18.17-10.47,28.24-1.61,1.59-2.16,1.84-3.85,2.24"/><path class="cls-2" d="M220.23,70.08c-1.33-1.91.29-4.43.37-6.64-2.1-6.26-3.74-10.93.26-16.23.64-.1,1.28-.15,1.91-.19,2.9,2.02,7.03,6.67,9.52,10.01,3.03,7.49-6.65,10.86-12.06,13.05"/><path class="cls-2" d="M226.26,45.81c-1.6-.53-1.55-.9-1.87-1.45.76-1.54,1.49-2.43,1.17-3.98-3.85-5.88-3.63-14.85,3.02-17.82,1.93.24,1.97,1.88,2.84,4.52,4.32,4.21,12.36,9.41,4.74,15.09-3.22,1.41-6.7,2.52-9.91,3.64"/><path class="cls-2" d="M546.65,68.82c-6.01-1.87-4.88-11.75-3.86-15.73,4.39-2.79,10.15,3.01,10.47,8.17-1.12,5.67-1.06,6.5-6.61,7.56"/><path class="cls-2" d="M579.14,114.34c-.22-.13-.37-.27-.51-.32-7.68.48-15.02-.26-21.91-2.7q-.31-.6-.37-1.52c4.06-2.36,9.77-1.72,12.88-5.98.49-3.32.87-6.15.55-8.99-7.62.47-11.69,5.84-17.73,8.03-5.16.33-14.36-4.35-15.87-8.46,0-6.66,1.38-3.66,8.5-4.11,8.47-1.5,16.92-6.36,25.12-9.95q1.73-1.31,2.7-1.72c1.83-5.51,3.1-6.49,8.85-7.62q2.24-1.12,8.79-5.1c.17-.64.34-1.29.58-1.93-9.95,1.18-18,9.24-25.95,14.57-3.93,1.08-6.92.43-9.65-.8-1.74.24-11.66,1.98-6.86-1.96,2.95-1.15,5.2-3.26,8.33-4.64,7.47-5.03,16.11-9.34,24.16-13.97-.08-1.26-.54-1.93-.78-2.27.03-1.68.34-2.54.82-3.83-1.52.52-1.94.41-2.22,1.55-4.78,2.11-6.82,6.44-10.82,1.86-1.08,4.2-4.04,7.11-8.24,7.37-4.27-2.18-4.37-9.32-5.13-12.63-.3-.4-.9-3.16-2.08-6.39-1.93-3.93-5.49-8.33-3.12-11.92,3.04-1.87,4.24-2.57,6.82,1.54,2.21,1.68,5.02,3.96,7.23,6.91.15-.01.29-.02.49-.04,1.35,3.63,4.67,8.4,4.32,13.04,2.24-1.33,5.44-3.91,3.79-6.75-3.7-2.01-1.6-5.43.99-6.71q1.83.1,4.2-.13c-.06-.89-.13-.89-.58-1.44-3.08-1.06-2.49-1.8-1.66-4.3-3.59-1.32-4.95-5.08-3.57-7.76q10.42-2.61,15.3-4.17c3.25-4.05,6.77-15.12,13.07-13.07,1.97,2.34,3.33,6.24,2.95,10.12-.8,1.66-1.92,3.06-2.22,4.9.63-.04,1.26-.01,1.89.02,4.36-2.15,6.37-4.73,8.95,1.75,4.21,2.26,5.72,1.68,4.14,7.8-3.06,6.14-6.36,12.72-9.76,18.88-.06.29-.11.57-.09.84.78.16,1.56.33,2.34.56.45,2.77.53,6.2.45,9.57-2.63,3.87-5.93,3.86-10.11,4.41-5.3,2.64-10.07,4.83-15.07,7.8-.02.98-.16,1.97.34,3.26,2.52-.08,5.11-.1,7.7-.13,2.86,1.85,2.62,7.05.85,10.1-2.92.39-4.65.78-6.89,1.97-.27,1.41-.53,2.83-.78,4.31.2,5.53,3.06,18.86-5.13,20.14M595.45,46.25c2.57-2.62,4.37-5.17,4.15-8.74-2.14-1.88-5.88-2.15-8.12-2.02q-.29,1-2.87,5.79c.22.13.51.24.8.36-.27.09-.56.18-.75.33.01.14.09.28.17.47,1.13.15,1.78-.73,2.28-1.53,4.03-.67,4.12.79,3.83,5.08.15.06.29.12.51.25"/><polygon class="cls-1" points="223.63 148.42 235.41 133.86 224.55 133.86 224.55 132.71 224.55 131.57 238.66 131.57 238.66 132.69 238.66 133.81 226.87 148.39 238.64 148.39 238.64 149.53 238.64 150.67 223.63 150.67 223.63 149.56 223.63 148.42"/><polygon class="cls-1" points="244.52 131.57 245.81 131.57 247.1 131.57 247.1 139.4 257.08 139.4 257.08 131.57 258.37 131.57 259.67 131.57 259.67 150.67 258.38 150.67 257.08 150.67 257.08 141.69 247.1 141.69 247.1 150.67 245.82 150.67 244.52 150.67 244.52 131.57"/><polygon class="cls-1" points="266.64 150.67 266.64 131.57 280.61 131.57 280.61 132.71 280.61 133.86 269.23 133.86 269.23 139.71 279.63 139.71 279.63 140.84 279.63 141.98 269.23 141.98 269.23 148.39 280.76 148.39 280.76 149.53 280.76 150.67 266.64 150.67"/><path class="cls-1" d="M294.11,131.57h2.59v13.74c0,1.88-.48,3.33-1.44,4.35-.94,1.02-2.29,1.53-4.04,1.53s-3.17-.47-4.13-1.42c-.97-.95-1.42-2.26-1.34-3.94v-1.32h2.42v1.32c0,1.01.25,1.79.75,2.34.51.56,1.22.83,2.14.83s1.68-.34,2.23-.99c.54-.66.81-1.57.81-2.7v-13.74Z"/><polygon class="cls-1" points="303.69 131.57 304.98 131.57 306.28 131.57 306.28 150.67 304.99 150.67 303.69 150.67 303.69 131.57"/><path class="cls-1" d="M318.92,131.57h2.95l6.87,19.11h-2.78l-1.94-5.54h-7.64l-2,5.54h-2.66l7.21-19.11ZM317.21,142.85h6l-2.94-8.48h.01l-3.07,8.48Z"/><polygon class="cls-1" points="336.26 150.67 335.02 150.67 333.77 150.67 333.77 131.57 335.31 131.57 336.87 131.57 346.44 147.1 346.44 131.57 347.69 131.57 348.93 131.57 348.93 150.67 347.52 150.67 346.11 150.67 336.26 135.08 336.26 150.67"/><path class="cls-1" d="M364.85,151.19c-2.65,0-4.8-.92-6.44-2.77-1.63-1.85-2.45-4.27-2.45-7.28s.84-5.47,2.51-7.31c1.67-1.86,3.85-2.78,6.56-2.78,2.09,0,3.89.58,5.39,1.75,1.51,1.17,2.38,2.66,2.64,4.49h-2.49c-.24-1.26-.86-2.25-1.84-2.94-.99-.68-2.28-1.03-3.86-1.03-1.86,0-3.36.72-4.52,2.16-1.15,1.44-1.73,3.34-1.73,5.67,0,2.49.56,4.41,1.67,5.78,1.11,1.36,2.69,2.04,4.71,2.04s3.56-.72,4.77-2.16c.2-.23.37-.46.53-.72.21-.34.38-.8.53-1.41.14-.6.21-1.18.21-1.73v-.23h-5.98v-2.19h8.36v10.11h-1.61l-.62-2.4-.14.16c-1.57,1.85-3.63,2.77-6.19,2.77"/><path class="cls-1" d="M406.32,143.67c0,2.36-.66,4.2-1.98,5.53-1.33,1.33-3.17,1.99-5.53,1.99s-4.32-.64-5.6-1.91c-1.28-1.28-1.93-3.15-1.93-5.61v-12.11h2.59v11.91c0,1.78.42,3.12,1.26,4.05.84.93,2.06,1.38,3.68,1.38s2.83-.46,3.68-1.38c.83-.93,1.25-2.27,1.25-4.05v-11.91h2.58v12.11Z"/><polygon class="cls-1" points="416.12 150.67 414.87 150.67 413.62 150.67 413.62 131.57 415.17 131.57 416.72 131.57 426.29 147.1 426.29 131.57 427.54 131.57 428.79 131.57 428.79 150.67 427.38 150.67 425.95 150.67 416.12 135.08 416.12 150.67"/><polygon class="cls-1" points="435.9 131.57 437.18 131.57 438.47 131.57 438.47 150.67 437.2 150.67 435.9 150.67 435.9 131.57"/><polygon class="cls-1" points="443.54 131.57 444.96 131.57 446.41 131.57 451.88 147.91 451.9 147.91 457.36 131.57 458.79 131.57 460.22 131.57 453.27 150.67 451.88 150.67 450.49 150.67 443.54 131.57"/><polygon class="cls-1" points="465.17 150.67 465.17 131.57 479.14 131.57 479.14 132.71 479.14 133.86 467.76 133.86 467.76 139.71 478.15 139.71 478.15 140.84 478.15 141.98 467.76 141.98 467.76 148.39 479.29 148.39 479.29 149.53 479.29 150.67 465.17 150.67"/><path class="cls-1" d="M486.18,131.57h8.89c2.02,0,3.57.45,4.63,1.32,1.06.88,1.59,2.17,1.59,3.87s-.56,2.98-1.65,3.93c-.28.24-.58.44-.9.62l.43.2c1.16.67,1.77,1.79,1.8,3.37l.1,3.48c.02.57.09.99.23,1.24.13.25.37.46.75.65v.41h-3.18c-.07-.15-.14-.56-.21-1.22-.07-.66-.13-1.39-.16-2.19l-.06-1.51c-.04-1.19-.32-2.03-.87-2.54-.55-.51-1.45-.76-2.68-.76h-6.14v8.23h-2.58v-19.11ZM488.76,140.2h6.39c1.2,0,2.07-.27,2.63-.79.55-.52.83-1.35.83-2.49s-.29-1.91-.88-2.41c-.58-.52-1.51-.77-2.77-.77h-6.2v6.45Z"/><path class="cls-1" d="M519.92,137.11c-.11-1.21-.59-2.13-1.42-2.79-.84-.65-1.96-.98-3.37-.98s-2.57.28-3.32.85c-.75.57-1.13,1.38-1.13,2.46,0,.74.26,1.29.76,1.66.51.36,1.51.72,3.04,1.07l3.32.8c1.78.41,3.05,1.05,3.81,1.88.77.82,1.16,2,1.16,3.5,0,1.73-.66,3.11-1.97,4.12-1.31,1.02-3.09,1.52-5.33,1.52-2.5,0-4.45-.58-5.85-1.75-1.37-1.16-2.06-2.73-2.06-4.73v-.14h2.38c.04,1.38.55,2.45,1.51,3.2.97.75,2.3,1.13,4.02,1.13,1.59,0,2.79-.27,3.62-.81.82-.55,1.24-1.35,1.24-2.41,0-.91-.28-1.6-.82-2.03-.54-.44-1.62-.84-3.25-1.24l-3.33-.79c-1.68-.4-2.89-.95-3.61-1.66-.71-.72-1.07-1.7-1.07-2.95,0-1.83.61-3.27,1.85-4.34,1.25-1.08,2.93-1.61,5.04-1.61s3.86.54,5.13,1.61c1.28,1.08,1.95,2.55,2.04,4.45h-2.38Z"/><polygon class="cls-1" points="529.08 131.57 530.37 131.57 531.67 131.57 531.67 150.67 530.38 150.67 529.08 150.67 529.08 131.57"/><polygon class="cls-1" points="543.56 133.86 537.1 133.86 537.1 132.71 537.1 131.57 552.6 131.57 552.6 132.71 552.6 133.86 546.14 133.86 546.14 150.68 544.86 150.68 543.56 150.68 543.56 133.86"/><polygon class="cls-1" points="564.29 143.04 557.09 131.57 558.58 131.57 560.1 131.57 565.6 140.84 565.6 140.84 571.08 131.57 572.59 131.57 574.08 131.57 566.88 143.07 566.88 150.67 565.6 150.67 564.29 150.67 564.29 143.04"/><path class="cls-1" d="M85.11,0c46.88,0,85.11,38.24,85.11,85.11s-38.23,85.11-85.11,85.11S0,131.99,0,85.11,38.24,0,85.11,0M85.11,3.4C40.1,3.4,3.4,40.11,3.4,85.11s36.71,81.72,81.71,81.72,81.71-36.71,81.71-81.72S130.12,3.4,85.11,3.4"/><path class="cls-1" d="M55.21,121.39c-5.32-4.41-9.68-9.95-12.66-16.27-2.88-6.08-4.48-12.86-4.48-20.01,0-25.91,21.14-47.04,47.04-47.04s47.04,21.13,47.04,47.04c0,7.15-1.62,13.93-4.49,20.01-2.98,6.32-7.34,11.86-12.66,16.27l-1.08-1.31c5.14-4.25,9.33-9.6,12.21-15.69,2.77-5.85,4.32-12.39,4.32-19.28,0-24.97-20.37-45.35-45.35-45.35s-45.34,20.37-45.34,45.35c0,6.89,1.55,13.43,4.31,19.28,2.88,6.09,7.07,11.44,12.21,15.69l-1.08,1.31Z"/><polygon class="cls-2" points="12.23 113.53 9.02 104.91 10.77 104.3 25.49 106.54 23.24 100.51 24.98 99.9 27.92 107.78 26.17 108.39 11.46 106.15 13.97 112.91 12.23 113.53"/><polygon class="cls-2" points="17.83 125.26 16.95 123.55 23.86 119.99 21.67 115.72 14.75 119.28 13.86 117.56 28.65 109.95 29.54 111.67 23.31 114.88 25.5 119.14 31.73 115.94 32.62 117.66 17.83 125.26"/><polygon class="cls-2" points="24.84 134.64 19.59 127.29 33.45 118.68 38.46 125.66 36.92 126.62 33.11 121.3 28.8 123.97 32.31 128.86 30.76 129.81 27.26 124.92 22.31 128 26.38 133.68 24.84 134.64"/><polygon class="cls-2" points="36.63 146.17 34.87 144.68 45.08 132.14 46.84 133.62 36.63 146.17"/><path class="cls-2" d="M44.54,151.69l2.09-4.45-2.54-1.83-3.77,3.67-1.73-1.33,11.97-11.82,2.41,1.46-6.37,15.45-2.06-1.15ZM47.6,145.08l2.5-5.74-.23-.19-4.31,4.39,2.05,1.54Z"/><polygon class="cls-2" points="56.53 157.49 54.38 156.49 55.63 144.95 50.91 154.65 48.75 153.66 56.25 138.81 58.2 139.71 57.3 150.67 62.17 141.62 63.99 142.37 56.53 157.49"/><path class="cls-2" d="M67.7,160.83l-1.39-.46.13-1.31c-.32.28-.76.46-1.29.54-.54.09-1.08.04-1.63-.14-1.15-.38-2-1.27-2.55-2.71-.56-1.44-.44-3.42.33-5.92.85-2.74,1.89-4.66,3.12-5.73,1.23-1.07,3.11-1.67,4.77-1.14,1.79.57,2.94,2.77,2.44,5.82l-2.14-.18c.36-1.3.17-3.33-1.1-3.75-1.03-.33-2.18-.02-2.92.81-.73.82-1.45,2.36-2.15,4.65-.66,2.16-.85,3.74-.56,4.73.29,1,.8,1.61,1.51,1.84.71.23,1.36.14,1.94-.29.58-.41,1.05-1.22,1.41-2.38l.3-.96-2.56-.82.52-1.66,4.19,1.36-2.38,7.72Z"/><path class="cls-2" d="M89.83,157.16c-.05,1.49-.45,2.67-1.2,3.52-.75.84-1.91,1.24-3.47,1.18-1.56-.06-2.69-.54-3.39-1.44-.69-.9-1.02-2.1-.97-3.6l.37-11.33,1.99.08-.37,11.33c-.04,1.07.18,1.85.62,2.36.45.52,1.05.79,1.8.82.75.03,1.37-.2,1.85-.69.48-.49.74-1.25.77-2.31l.37-11.33,1.99.08-.37,11.33Z"/><polygon class="cls-2" points="101.19 160.18 99.4 160.46 93.79 149.64 94.65 161.25 92.53 161.55 91.29 145.27 93.72 145.05 98.36 152.63 97.49 144.47 99.26 144.17 101.19 160.18"/><polygon class="cls-2" points="107.26 158.48 105.18 159.11 100.84 143.71 102.92 143.07 107.26 158.48"/><polygon class="cls-2" points="112.9 138.95 115.53 155.96 113.48 156.98 104.46 142.54 106.44 141.7 112.71 151.55 110.97 139.79 112.9 138.95"/><polygon class="cls-2" points="129.63 148.6 122.03 152.71 113.75 138.49 120.98 134.58 121.9 136.16 116.38 139.14 118.95 143.55 124.02 140.81 124.94 142.39 119.87 145.13 122.82 150.21 128.71 147.02 129.63 148.6"/><path class="cls-2" d="M138.29,142.52l-1.67,1.43-5.89-4.88-1.53,1.38,3.98,5.42-1.67,1.75-9.75-13.69,3.11-2.23c.99-.71,2.3-1.22,3.48-1.08,3.04.36,4.33,2.41,4.2,4.78-.04.76-.09,1.49-.38,2.24l6.13,4.89ZM127.78,132.88c-1.23-.34-2.22.62-3.11,1.31l3.24,4.29c.99-.71,1.45-.87,2.2-2.16.32-1.55-.37-2.9-2.34-3.43"/><path class="cls-2" d="M143.55,129.29c3.4,2.05,2.6,7.85-1.86,8.52-1.21.19-2.62-.18-3.22-.56l.76-1.73c.74.16,1.48.42,2.19.29,2.9-.55,2.77-3.56,1.09-4.8-.59-.44-1.43-.49-2.13-.41-1.95.21-3.21,1.67-5.37,1.81-2.38.14-4.03-1.3-4.43-3.62-.2-1.22.09-2.41.7-3.37,1.26-1.97,3.93-2.24,5.87-1.09l-.76,1.79c-1.05-.56-2.92-.56-3.62.54-.37.57-.5,1.16-.38,1.76.24,1.31,1.13,2.07,2.39,1.91,2.11-.26,3.53-2,5.61-1.92.98.03,2.16.28,3.16.87"/><polygon class="cls-2" points="150.73 127.19 149.51 128.69 135.48 119.9 136.71 118.4 150.73 127.19"/><polygon class="cls-2" points="143.65 109.46 142.1 112.33 155.34 120.12 154.45 121.77 141.21 113.99 139.65 116.86 138.01 115.89 142 108.48 143.65 109.46"/><polygon class="cls-2" points="146.08 98.52 154.16 105.73 159.55 108.05 158.89 109.87 153.89 107.92 142.39 107.67 142.95 105.82 150.98 105.95 145.28 100.72 146.08 98.52"/><path class="cls-2" d="M35.39,138.93c-1.43,1.42-2.76,2.16-4,2.2-1.24.04-2.35-.45-3.37-1.48-.91-.93-1.37-2.02-1.36-3.26,0-.63.19-1.28.55-1.95l1.82,1.11c-.16.31-.24.61-.25.9-.02.67.19,1.24.62,1.68.62.62,1.26.91,1.94.86.68-.06,1.5-.56,2.46-1.53l8.09-8,1.51,1.53-8.02,7.94Z"/><path class="cls-2" d="M62.9,136.12l-5.67-3.51.51-.89,2.11,1.3,3.37-5.87-2.1-1.3.46-.79c.8.49,1.43.77,1.9.82.47.07.87-.12,1.19-.56l1.21.74-4.52,7.89,2.05,1.27-.51.89ZM79.8,132.54c.09-.45-.06-.86-.47-1.23-.41-.36-1.03-.6-1.86-.71-.75-.11-1.41-.06-1.95.14-.54.2-.85.53-.94.99-.07.33,0,.63.2.89.19.26.52.53.98.78.19.11.5.27.91.46.42.2.8.35,1.16.49.67-.22,1.13-.47,1.42-.76.28-.28.46-.63.55-1.04M79.06,137.61c.08-.41.03-.76-.17-1.03-.21-.28-.64-.6-1.31-.95-.22-.11-.51-.25-.88-.41-.37-.15-.8-.33-1.26-.54-.63.17-1.13.41-1.51.74-.38.31-.62.7-.72,1.17-.13.61.06,1.15.55,1.62.48.47,1.16.77,2.02.9.88.12,1.62.04,2.21-.22.6-.27.96-.69,1.08-1.28M75.55,140.11c-.76-.11-1.46-.28-2.06-.52-.61-.24-1.1-.52-1.49-.86-.38-.33-.64-.7-.8-1.1-.15-.4-.17-.81-.1-1.23.11-.54.45-1.01.98-1.41.54-.39,1.26-.66,2.18-.81v-.04c-.7-.39-1.2-.79-1.5-1.18-.3-.39-.39-.84-.29-1.36.15-.76.72-1.32,1.72-1.71.98-.38,2.15-.48,3.51-.29,1.42.2,2.5.59,3.26,1.19.76.6,1.05,1.27.91,2.02-.09.46-.38.87-.89,1.26-.5.38-1.15.64-1.97.78v.04c.84.41,1.46.83,1.85,1.29.39.46.52,1,.39,1.61-.18.86-.8,1.51-1.89,1.96-1.09.45-2.35.57-3.8.37M95.16,133.9c0-.69-.09-1.26-.28-1.69-.2-.43-.46-.77-.8-1.01-.3-.22-.6-.36-.91-.45-.31-.08-.64-.12-1.01-.12-.85,0-1.51.2-2.01.6-.51.4-.76.98-.76,1.74,0,.43.08.79.24,1.06.17.28.44.52.8.71.26.14.55.24.89.28.33.05.68.07,1.05.07.44,0,.91-.05,1.41-.15.51-.1.95-.24,1.32-.41,0-.06.02-.16.03-.27,0-.11.02-.24.02-.38M87.31,133.03c0-.53.13-1.01.39-1.43.26-.44.61-.81,1.05-1.13.42-.3.94-.54,1.55-.7.62-.17,1.23-.25,1.87-.25.7,0,1.34.08,1.91.24.57.16,1.06.39,1.48.68.53.37.93.86,1.22,1.46.29.61.44,1.38.44,2.31,0,.84-.15,1.64-.43,2.39-.29.76-.7,1.38-1.25,1.88-.59.53-1.3.93-2.12,1.21-.82.28-1.84.42-3.05.42-.27,0-.56-.01-.87-.03-.31-.03-.6-.07-.87-.11v-1.31h.11c.17.06.44.13.8.19.36.06.73.09,1.1.09,1.34,0,2.4-.29,3.16-.88.76-.59,1.2-1.42,1.3-2.52-.54.25-1.07.43-1.56.54-.5.12-1.04.17-1.62.17s-1.08-.04-1.55-.12c-.46-.08-.93-.24-1.4-.48-.56-.27-.97-.63-1.25-1.05-.28-.43-.42-.94-.42-1.54M109.53,124.32l-.38,10.51-1.6,1.01.14-9.93-6.13,2.98-.54-1.18,7.71-4.01.8.63Z"/><path class="cls-2" d="M112.88,39.32c-1.23-.6-.36-.81-.3-1.97.06-1-.58-2.15-.38-2.85.54-1.89,2.96-1.17,4.3-.2.24.18.45.64.63,1.11.43,1.15.89,2.77-.44,3.59-1.14.71-2.75.85-3.82.33"/><path class="cls-2" d="M98.59,33.72s-.08-.05-.11-.08c.04-.15.08-.28.13-.41.44-.06,4.54-1.5,4.55-1.6,1.24-.57,2.37-1.26,2.99-2.5-2.73.2-5.58,1.47-8.25,1.02-1.15-.6-1.82-1.46-2.58-2.04,0-.06.02-.1.02-.14-1.16-1.25-1-2.44.65-2.57,2.49,1.23,6.99.33,9.71,0,.62-.11,2.36-.29,2.93-.69,1.43-3.34,1.91-6.92,2.92-10.21,1.44-2.2,2.54-.2,3.74,1.37.05.22.34.53.53,1.05.05,0,.08.02.14.03.39,1.15.45,1.65-.76,2.36-1.05,1.47-1.82,3.2-2.2,5.12,1.87.19,3.36-1.13,5.46-.66.27,1.1,0,1.92-1.12,2.5-1.72.36-3.54.62-5.47.98-.83,1.66-2.06,3.64-3.64,4.77-.23.17-1.33.78-1.58.86-1.29.38-2.49.92-3.8.97-3.64.11-3.64-.05-4.27-.12"/><path class="cls-2" d="M57.13,45.85c-1.5-.08-3.27-1.18-4.34-1.87-.02-.39-.05-.78-.03-1.16,2.13-3.44,4.28-6.71,5.96-10.48.32-1.6.88-3.35,1.28-4.96.03-.04.08-.09.13-.11-.02-.06-.04-.09-.06-.13.54-.9.8-1.19,1.84-.46.37.81-.76,2.27-.92,3.23,0,1.7-.07,3.46-.22,5.26q-.13.36-.48,2.32c-.57.94-1,3.02-1.06,4.18-.73.92-.47,2.77-1.39,3.8-.25.12-.47.25-.69.38"/><path class="cls-2" d="M70.76,28.27c-1.89.65-2.89-.33-4.32-1.01-.23-.48-.04-.9-.13-1.25q.42-.29.64-.58c.74-.41,1.03-.48,1.86-.86.97-.66,2.97-3.63,4.21-3.18,1.02,2.2-.54,5.45-2.25,6.88"/><path class="cls-2" d="M55.08,30.32c-.95-.34-2.22-3.15-2.63-4.04-.1-1.81,1.49-2.51,3.24-2,1.62.99,2.58,1.29,2.11,3.38-.83,1.6-1.37,1.9-2.72,2.67"/><path class="cls-2" d="M68.31,23.51c-.54-.8-.07-3.13-.59-3.46-.43.25-.82.6-1.28.81-1.34-.1-3.1-.98-3.06-2.21.46-1.26.23-.9,1.49-1.49,1.01-1.03,2.03-2.04,3.07-3.07,1.94-1.2,3.34-.44,4.27,1.56.15,1.47-.32,2.85-.77,4.23-.87,1.04-1.61,2.1-2.36,3.16-.28.15-.53.32-.77.47"/><path class="cls-2" d="M54.57,22.09c-.59-.21-.49-.5-.41-.98-.39-.84-1.18-1.33-1.56-2.14-.32-1.63-.83-2.06.14-3.28,1.15.04,5.23.45,5.16,2.67-.46,1.55-2.05,3.03-3.34,3.72"/><path class="cls-2" d="M33.65,78.19c-1.77,1.22-6.02.42-5.45-2.13-.25-.25-.38-.7-.29-.99-.05-.04-.1-.06-.13-.07-.45-2.67-1.89-5.2-2.67-7.72-.42-.79-.91-1.4-.59-2.26.59-.15,1.24.49,1.73.97.26-.06.55-.7.68-1.12-.19-1.76-.05-3.79-.29-5.6-.45-.39-.91-.79-1.33-1.19-.35.91-1.5,3.86-2.51,2.27.27-1.21.45-3.23-.23-4.45-.87-.96-2.13-1.62-2.52-2.66.18-1.45,2.4-1.79,3.7-1.21,1.06.08,1.04-1.89,2.23,1.39.03.54.54.87,1.13,1.17.1-.11.19-.23.28-.35-.02-1.39-.05-2.91.07-4.4-1.3-1.31-2.4-2.41-3.17-4.01,0-1.53,1.73-2.41,3.24-2.87.49-.82.5-1.53.47-2.58q.11-.33.47-.86c.51.04.95.23,1.53.57,1.19,1.55-1.32,6.28,1.04,6.66.47-.8-.18-1.64-.54-2.3.13-1.18,1.95-2.65,3.23-3.1,1.89-.16,1.78.9,1.79,2.53.09.23.17.46.27.66q2.4,1.75,5.74,4c.63,1,.88,1.57,1.14,2.76.04.02.07.04.11.06-.03.05-.05.09-.07.12.45.93.47,2.47-.65,2.61-2.73-1.85-5.45-3.95-8.1-5.64-.03.06-.05.12-.05.17,1.19,1.11,2.77,4.15,2.81,5.85-.65,1.09-1.86,1.54-2.96,1.24-.2-.29-.12-.54-.16-.88-.81-1.42-3.15-2.78-4.34-3.59-.46.94.47,3.69.76,4.82.05.67.08,1.34.14,1.98.81,1,1.64,1.91,2.54,2.92.32.56.67,1.14,1.01,1.71-.03.05-.05.09-.07.13.39.86,1.26,3.35-.36,3.36-.16-.09-.3-.18-.44-.29-.51-1.29-1.5-2.69-2.56-3.45-.38,1.27.1,2.62-.55,3.7-.54.52-1.14,1-1.61,1.25-.06-.03-.08-.06-.13-.07-.33.14-.74.24-.78.44.46.59.94,1.2,1.42,1.79,1.51,2.63,3.18,4.93,5.17,7.33.12.66.09.84-.1,1.32"/><path class="cls-2" d="M22.1,67.24c-.7,0-1.04-.81-1.57-1.2-1.89-.54-3.32-.92-3.94-2.8.08-.17.17-.34.27-.5.99-.36,2.82-.59,4.06-.64,2.35.52,1.55,3.46,1.17,5.16"/><path class="cls-2" d="M17.15,61.67c-.41.3-.48.23-.67.21-.25-.44-.35-.77-.79-.95-2.09-.06-4.25-1.62-3.87-3.75.38-.44.79-.17,1.59.06,1.76-.35,4.39-1.45,4.5,1.38-.19,1.03-.51,2.07-.77,3.05"/><path class="cls-1" d="M125.06,64.36h-20.69c-6.04-.01-9.14,5.9-11.42,11.26l-3.49-7.85,5.86-2.16c-3.43-3.25-14.11-5.02-15.52-.13l-2.52,10.13c-1.99-4.56-4.8-11.25-11.12-11.25h-21c2.73,4.83,5.34,6.57,15,6.16l1.26,3.33-10.59.05c3.13,5.77,4.93,6.01,13.46,5.77l1.81,3.98-8.33.3c1.79,4.07,3.67,5.82,10.82,5.5l1.39,3.53-6.63.04c2.49,4.11,3.71,5.99,8.97,5.53l1.41,3.84h-4.59c1.99,4.44,4.29,4.62,7.11,5.06,2.54.39,2.9,5.14-.05,6.67l8.91,14.46,8.92-14.47c-2.96-1.52-2.6-6.28-.06-6.67,2.83-.44,5.13-.62,7.11-5.06h-4.58l1.41-3.84c5.25.46,6.47-1.42,8.96-5.52l-6.62-.04,1.39-3.53c7.15.33,9.03-1.42,10.82-5.49l-8.33-.29,1.81-3.98c8.52.24,10.33,0,13.46-5.77l-10.6-.04,1.27-3.34c9.65.42,12.27-1.32,15-6.14"/><path class="cls-1" d="M156.59,54.45l.07-.18c.3-.75.28-1.05.21-1.17-.09-.18-.42-.27-.93-.4-.14-.04-.3-.06-.48-.08l-.29-.05-.09-.2c-.1-.11-.2-.22-.33-.31l-.4-.13-.09-.05.52-.39c.37-.28.78-.41,1.24-.56l.05-.12.2.08c.73-.64,1.22-1.56,1.28-2.53-.22-.31-.6-.45-1.16-.45-.73.01-1.61.29-2.4.53-.48.15-1.08.35-1.6.45l-.19-.09c-1.32-.64-1.38-.66-4.14-2.11-.2.13-.35.32-.44.55-.17.4-.14.84.07,1.27l.26.2.02.02h0s-.65.36-.65.36c-.16.08-.19.1-.17.1h.01l-.19.17c.02.07.06.2.16.38l.05.3c-.01.25-.06.36-.27.6l-.08.31-.02.04h0l-.4-.32c-.53-.42-.58-.46-.97-.83-.1-.01-.21-.03-.33-.03-.3.01-.54.1-.65.25-.12.16-.1.37.02.66l-.04.16c-.09.4-.42,1.07-1.65,1.09h-.63c-.12-.01-.24,0-.44.08,0,.83.36.9,1.24,1.04.33.05.69.11,1.16.22.08-.03.16-.05.24-.05.19,0,.34.08.51.16l.66.26.23.06.11.05-.8.39c-.3.15-.51.26-.81.58-.06.23-.17.45-.36.67l-.03.18-.33-.08c-.59-.15-1.18-.3-1.78-.45l-.91-.24c-1.63-.42-3.64-.96-5.54-1.29-.45-.16-.89-.25-1.33-.33l-.9-.1-.04.25c.22.18.51.39.97.68l.06.15c.25.62.68,1.4,1.67,1.95.65.11,1.33.19,2.14.29,2.37.27,4.82.55,6.74,1.99l.5.26h.12s.03,0,.03,0h0l-.71.36c-.18.1-.34.19-.56.39l-.22-.05q-2.29-.5-3.1-.77c-.82-.53-1.23-.69-1.66-.69-.33,0-.72.15-1.37.53-.04.02-.07.03-.11.05l-.03.03s-.04.02-.06.04l-.23-.09c-.25-.09-.27-.09-.95-.19-.63-.22-1.28-.43-1.98-.67-1.97-.64-4.01-1.31-5.71-2.43-.5-.42-.83-.81-1.11-1.13-.09-.11-.15-.17-.2-.17,0,0-.02,0-.02,0l-.17-.21c-.13.04-.34.23-.68.6-.36,1.12.65,3.79,1.56,4.58.64.28,1.32.41,2.04.54,1.2.23,2.44.46,3.62,1.45l.32.08h.02s0,.02,0,.02l-.31.41c-.39.51-.84.93-1.35,1.39l-.23.2c-.16.12-.3.24-.41.38l-.23.02c-.17.03-.32.05-.52.06-.88,0-1.64-.43-2.31-.8-.22-.12-.43-.24-.74-.31l-.12.23c.92,1.58,2.18,3.02,3.84,4.4l.14.23c.2.11.41.16.62.16h.03c1.2-.02,2.5-1.66,3.45-2.87.2-.26.39-.5.61-.74l.23-.18c.91-.66.97-.72.94-.73l.22.06c.76.21,1.25.5,1.97.91.71-.31,1.44-1.03,1.37-1.81l-.29-.27c-.43-.39-.85-.79-1.29-1.18l-.23-.04.15-.37c.16-.38.4-.61.7-.92l.03-.15.3.07c1.28.29,2.43.65,3.83,1.08l1.23.4.31.23c.7.53,1.21.91,2.01.91.13,0,.24-.01.45-.08.76-.78,1.19-1.3,1.49-1.9h0s.02-.03.03-.05c-.23-.35-.34-.45-.38-.45l.23-.26c.07-.09.14-.15.36-.28,2.08-.66,4.34-1.48,6-2.07,1-.63,1.1-.69.75-1.62-.06-.16-.13-.34-.26-.59M148.49,55.68l.34-.31c.46-.43.67-.63.71-.84-.02-.08-.11-.19-.33-.34l-.1-.02c-.07,0-.13.02-.23.02-.37,0-.6-.18-.73-.33l-.15-.12v-.17s.14-.42.14-.42l-.08-.03.45-.15q1.53-.5,1.78-.65l.11-.2.3.25c.32.27,1.39,1.25,1.55,2.48l-.15.18c-.81.97-1.91,1.14-2.98,1.18l-.29.07-.15-.45-.2-.13h-.01Z"/><path class="cls-1" d="M139.65,52.03c-.46,0-.89-.14-1.29-.42-.25-.99.49-2.04,1.02-2.83.18-.26.33-.47.44-.65l.08-.23.18-.34c.22-.42.43-.84.63-1.3.08-.24.14-.47.19-.69.33-1.29.58-2.1,1.22-2.33.5.08.75.15.87.33.12.19.08.45-.02.94l-.09.18c.07.17.1.39.13.61.14.76.18,1.55.1,2.27l-.04.29c-.04.28-.12.52-.2.76-.3.92-.63,1.96-1.3,2.56l-.28.25-.18.11c-.46.3-.96.46-1.43.47h-.05Z"/><path class="cls-1" d="M139.65,51.99h.05c.47,0,.96-.17,1.41-.46l.18-.11.28-.25c.66-.6.99-1.63,1.28-2.55.08-.24.16-.48.2-.76l.04-.29c.09-.79.03-1.57-.1-2.26-.03-.22-.06-.44-.09-.64h-.04s.09-.16.09-.16c.09-.46.14-.74.02-.91-.11-.16-.35-.24-.82-.33-.62.23-.86,1.01-1.17,2.22-.07.25-.13.5-.22.77-.2.47-.42.88-.63,1.3l-.18.34-.09.23c-.1.18-.25.39-.44.64-.53.78-1.26,1.83-1.03,2.77.38.27.8.41,1.26.41"/><path class="cls-1" d="M135.09,50.86c-.23,0-.52-.13-1.04-.46-.7-1.58,1.8-3.36,2.09-3.56.41.1.64.31.78.7.29.8.08,1.92-.46,2.58-.76.53-1.07.74-1.36.75h0Z"/><path class="cls-1" d="M135.09,50.82h0c.27,0,.59-.22,1.33-.73.53-.64.73-1.75.45-2.53-.13-.38-.35-.59-.71-.69-.28.2-2.76,1.97-2.09,3.49.51.33.8.45,1.02.45"/></g></svg>