<?xml version="1.0" encoding="UTF-8" standalone="no"?>
<svg
   id="_参考线"
   width="744"
   height="1052"
   viewBox="0 0 744 1052"
   version="1.1"
   sodipodi:docname="zjulogo4.svg"
   inkscape:version="1.4.2 (f4327f4, 2025-05-13)"
   xmlns:inkscape="http://www.inkscape.org/namespaces/inkscape"
   xmlns:sodipodi="http://sodipodi.sourceforge.net/DTD/sodipodi-0.dtd"
   xmlns="http://www.w3.org/2000/svg"
   xmlns:svg="http://www.w3.org/2000/svg"
   xmlns:rdf="http://www.w3.org/1999/02/22-rdf-syntax-ns#"
   xmlns:cc="http://creativecommons.org/ns#"
   xmlns:dc="http://purl.org/dc/elements/1.1/">
  <title
     id="title52">zju-logo</title>
  <sodipodi:namedview
     id="namedview52"
     pagecolor="#ffffff"
     bordercolor="#000000"
     borderopacity="0.25"
     inkscape:showpageshadow="2"
     inkscape:pageopacity="0.0"
     inkscape:pagecheckerboard="false"
     inkscape:deskcolor="#d1d1d1"
     inkscape:document-units="mm"
     showgrid="false"
     showborder="false"
     inkscape:zoom="1.5784305"
     inkscape:cx="150.46592"
     inkscape:cy="135.89448"
     inkscape:window-width="1276"
     inkscape:window-height="1544"
     inkscape:window-x="1271"
     inkscape:window-y="0"
     inkscape:window-maximized="0"
     inkscape:current-layer="_参考线" />
  <defs
     id="defs1">
    <style
       id="style1">.cls-1,.cls-2{fill:#231815;}.cls-3{fill:#fff;stroke:#231815;stroke-miterlimit:10;stroke-width:.22px;}.cls-2{fill-rule:evenodd;}</style>
  </defs>
  <path
     id="rect1"
     class="cls-3"
     style="fill:#ffffff;stroke:#231815;stroke-width:0.22px;stroke-miterlimit:10"
     d="M 0.11,0.11 H 300.92 V 166.49 H 0.11 Z" />
  <path
     class="cls-2"
     d="m 213.99,89.86 c -1.47,-0.31 -0.59,-0.78 -0.83,-2.03 -0.2,-1.08 -1.18,-2.14 -1.15,-2.94 0.08,-2.16 2.86,-2.03 4.54,-1.34 0.3,0.12 0.65,0.58 0.96,1.02 0.77,1.11 1.67,2.72 0.48,3.95 -1.03,1.05 -2.72,1.62 -4,1.34"
     id="path1" />
  <path
     class="cls-2"
     d="m 197.3,87.6 c 0,0 -0.1,-0.04 -0.14,-0.06 0.01,-0.16 0.02,-0.33 0.03,-0.47 0.46,-0.17 4.45,-2.78 4.44,-2.89 1.16,-0.93 2.2,-1.96 2.54,-3.45 -2.86,0.94 -5.57,3.02 -8.54,3.24 -1.37,-0.34 -2.31,-1.08 -3.28,-1.5 0,-0.07 0,-0.12 -0.01,-0.16 -1.57,-1.03 -1.71,-2.34 0.02,-2.91 2.98,0.66 7.55,-1.47 10.36,-2.54 0.63,-0.28 2.45,-0.92 2.94,-1.5 0.66,-3.94 0.23,-7.88 0.46,-11.65 0.96,-2.72 2.66,-0.87 4.34,0.49 0.11,0.23 0.5,0.48 0.84,0.99 0.05,0 0.09,0 0.16,-0.01 0.71,1.13 0.91,1.65 -0.19,2.71 -0.75,1.85 -1.11,3.9 -1.02,6.03 2.05,-0.29 3.29,-2.08 5.66,-2.12 0.57,1.1 0.5,2.03 -0.55,2.95 -1.73,0.83 -3.61,1.57 -5.57,2.46 -0.46,1.99 -1.25,4.42 -2.65,6.04 -0.21,0.24 -1.22,1.18 -1.46,1.32 -1.27,0.74 -2.41,1.64 -3.8,2.03 -3.85,1.07 -3.89,0.89 -4.58,0.99"
     id="path2" />
  <path
     class="cls-2"
     d="m 160.52,94.32 c -1.42,-0.65 -2.7,-2.36 -3.47,-3.42 0.13,-0.38 0.26,-0.76 0.41,-1.11 3.34,-2.5 6.64,-4.82 9.66,-7.8 0.92,-1.41 2.11,-2.88 3.09,-4.27 0.04,-0.03 0.11,-0.05 0.17,-0.05 0,-0.07 0,-0.11 -0.01,-0.15 0.85,-0.67 1.21,-0.84 1.94,0.25 0.05,0.91 -1.59,1.89 -2.1,2.75 -0.64,1.63 -1.37,3.29 -2.2,4.95 q -0.27,0.3 -1.33,2.05 c -0.89,0.69 -2.09,2.51 -2.59,3.6 -1.05,0.61 -1.5,2.47 -2.77,3.12 -0.28,0.02 -0.54,0.05 -0.8,0.09"
     id="path3" />
  <path
     class="cls-2"
     d="m 180.21,82.63 c -2.06,-0.09 -2.64,-1.4 -3.76,-2.6 -0.03,-0.54 0.3,-0.87 0.34,-1.24 q 0.51,-0.12 0.83,-0.31 c 0.86,-0.12 1.17,-0.07 2.11,-0.13 1.18,-0.27 4.22,-2.36 5.23,-1.46 0.15,2.5 -2.57,5.02 -4.75,5.74"
     id="path4" />
  <path
     class="cls-2"
     d="m 164.41,78.69 c -0.79,-0.69 -0.94,-3.87 -1,-4.87 0.59,-1.78 2.37,-1.85 3.87,-0.7 1.19,1.56 1.99,2.21 0.75,4.03 -1.41,1.22 -2.03,1.31 -3.61,1.53"
     id="path5" />
  <path
     class="cls-2"
     d="m 179.65,77.15 c -0.21,-0.97 1.12,-3.03 0.74,-3.53 -0.5,0.08 -1.01,0.26 -1.53,0.29 -1.24,-0.6 -2.59,-2.11 -2.1,-3.27 0.92,-1.04 0.56,-0.78 1.99,-0.87 1.36,-0.61 2.72,-1.2 4.1,-1.78 2.31,-0.43 3.37,0.84 3.51,3.09 -0.41,1.46 -1.39,2.62 -2.34,3.77 -1.22,0.67 -2.33,1.41 -3.44,2.13 -0.32,0.04 -0.63,0.1 -0.93,0.17"
     id="path6" />
  <path
     class="cls-2"
     d="m 167.03,70.61 c -0.49,-0.43 -0.28,-0.66 -0.03,-1.09 -0.06,-0.96 -0.63,-1.72 -0.69,-2.64 0.31,-1.67 -0.01,-2.29 1.38,-3.09 1.08,0.48 4.84,2.4 3.95,4.5 -1.03,1.31 -3.12,2.14 -4.61,2.32"
     id="path7" />
  <path
     class="cls-2"
     d="m 118.32,95.88 c -2.23,-0.86 -4.19,-5.29 -1.49,-6.38 0.07,-0.39 0.4,-0.78 0.73,-0.9 0,-0.07 0,-0.12 -0.01,-0.16 2.17,-2.1 3.6,-5.03 5.42,-7.35 0.47,-0.88 0.72,-1.73 1.73,-1.98 0.5,0.44 0.33,1.45 0.19,2.22 0.22,0.2 1,0.05 1.46,-0.09 1.51,-1.3 3.48,-2.44 4.98,-3.81 0.08,-0.67 0.15,-1.34 0.26,-1.99 -1.05,0.25 -4.51,1.06 -3.68,-0.88 1.3,-0.51 3.26,-1.63 3.96,-3.02 0.34,-1.42 0.14,-2.99 0.86,-4.01 1.45,-0.76 3.17,1.08 3.46,2.65 0.58,1.03 2.4,-0.25 0.13,2.93 -0.48,0.36 -0.46,1.04 -0.36,1.77 0.17,0.01 0.33,0.03 0.5,0.04 1.27,-0.91 2.66,-1.89 4.1,-2.72 0.39,-2.04 0.72,-3.74 1.7,-5.46 1.41,-0.96 3.32,0.08 4.7,1.18 1.06,-0.07 1.72,-0.51 2.67,-1.21 q 0.37,-0.12 1.08,-0.11 c 0.29,0.5 0.39,1.02 0.44,1.77 -0.68,2.08 -6.63,2.76 -5.49,5.18 1.04,-0.07 1.4,-1.2 1.78,-1.96 1.17,-0.62 3.68,0.12 4.9,1.02 1.36,1.65 0.3,2.21 -1.2,3.25 -0.15,0.22 -0.3,0.45 -0.43,0.67 q -0.1,3.33 -0.06,7.83 c -0.52,1.22 -0.88,1.81 -1.82,2.79 0,0.05 0,0.09 0.01,0.14 -0.07,0 -0.12,0 -0.17,0 -0.58,1.01 -1.99,2 -2.83,1.05 -0.02,-3.7 0.19,-7.53 0.07,-11.05 -0.07,0 -0.14,0.03 -0.18,0.06 -0.27,1.79 -2.07,5.17 -3.61,6.29 -1.42,0.09 -2.61,-0.74 -3.02,-1.94 0.15,-0.36 0.42,-0.45 0.72,-0.71 0.8,-1.64 0.56,-4.66 0.56,-6.27 -1.15,0.17 -3.1,2.78 -3.96,3.75 -0.59,0.46 -1.18,0.93 -1.74,1.39 -0.41,1.37 -0.73,2.72 -1.09,4.19 -0.32,0.66 -0.63,1.34 -0.94,2.03 -0.07,0 -0.12,0 -0.17,0.01 -0.54,0.91 -2.28,3.29 -3.33,1.79 -0.01,-0.21 -0.02,-0.4 -0.01,-0.59 0.87,-1.29 1.54,-3.08 1.56,-4.55 -1.42,0.47 -2.35,1.76 -3.77,1.85 -0.82,-0.16 -1.64,-0.42 -2.18,-0.69 0,-0.07 0,-0.12 0,-0.16 -0.35,-0.22 -0.7,-0.53 -0.91,-0.44 -0.26,0.8 -0.52,1.62 -0.75,2.44 -1.47,3.05 -2.54,6.06 -3.49,9.41 -0.54,0.53 -0.72,0.61 -1.28,0.75"
     id="path8" />
  <path
     class="cls-2"
     d="m 121.11,78.29 c -0.44,-0.64 0.1,-1.48 0.12,-2.21 -0.7,-2.09 -1.25,-3.64 0.09,-5.41 0.21,-0.03 0.43,-0.05 0.64,-0.06 0.97,0.67 2.34,2.22 3.17,3.34 1.01,2.5 -2.22,3.62 -4.02,4.35"
     id="path9" />
  <path
     class="cls-2"
     d="m 123.12,70.2 c -0.53,-0.18 -0.52,-0.3 -0.62,-0.48 0.25,-0.51 0.5,-0.81 0.39,-1.33 -1.28,-1.96 -1.21,-4.95 1.01,-5.94 0.64,0.08 0.66,0.62 0.95,1.51 1.44,1.4 4.12,3.14 1.58,5.03 -1.07,0.47 -2.23,0.84 -3.3,1.21"
     id="path10" />
  <path
     class="cls-2"
     d="m 229.92,77.87 c -2,-0.62 -1.63,-3.92 -1.29,-5.24 1.46,-0.93 3.38,1 3.49,2.72 -0.37,1.89 -0.35,2.17 -2.2,2.52"
     id="path11" />
  <path
     class="cls-2"
     d="m 240.75,93.04 c -0.07,-0.04 -0.12,-0.09 -0.17,-0.11 -2.56,0.16 -5.01,-0.09 -7.3,-0.9 q -0.1,-0.2 -0.12,-0.51 c 1.35,-0.79 3.26,-0.57 4.29,-1.99 0.16,-1.11 0.29,-2.05 0.18,-3 -2.54,0.16 -3.9,1.95 -5.91,2.68 -1.72,0.11 -4.79,-1.45 -5.29,-2.82 0,-2.22 0.46,-1.22 2.83,-1.37 2.82,-0.5 5.64,-2.12 8.37,-3.32 q 0.58,-0.44 0.9,-0.57 c 0.61,-1.84 1.03,-2.16 2.95,-2.54 q 0.75,-0.37 2.93,-1.7 c 0.06,-0.21 0.11,-0.43 0.19,-0.64 -3.32,0.39 -6,3.08 -8.65,4.86 -1.31,0.36 -2.31,0.14 -3.22,-0.27 -0.58,0.08 -3.89,0.66 -2.29,-0.65 0.98,-0.38 1.73,-1.09 2.78,-1.55 2.49,-1.68 5.37,-3.11 8.05,-4.66 -0.03,-0.42 -0.18,-0.64 -0.26,-0.76 0.01,-0.56 0.11,-0.85 0.27,-1.28 -0.51,0.17 -0.65,0.14 -0.74,0.52 -1.59,0.7 -2.27,2.15 -3.61,0.62 -0.36,1.4 -1.35,2.37 -2.75,2.46 -1.42,-0.73 -1.46,-3.11 -1.71,-4.21 -0.1,-0.13 -0.3,-1.05 -0.69,-2.13 -0.64,-1.31 -1.83,-2.78 -1.04,-3.97 1.01,-0.62 1.41,-0.86 2.27,0.51 0.74,0.56 1.67,1.32 2.41,2.3 0.05,0 0.1,0 0.16,-0.01 0.45,1.21 1.56,2.8 1.44,4.35 0.75,-0.44 1.81,-1.3 1.26,-2.25 -1.23,-0.67 -0.53,-1.81 0.33,-2.24 q 0.61,0.03 1.4,-0.04 c -0.02,-0.3 -0.04,-0.3 -0.19,-0.48 -1.03,-0.35 -0.83,-0.6 -0.55,-1.43 -1.2,-0.44 -1.65,-1.69 -1.19,-2.59 q 3.47,-0.87 5.1,-1.39 c 1.08,-1.35 2.26,-5.04 4.36,-4.36 0.66,0.78 1.11,2.08 0.98,3.37 -0.27,0.55 -0.64,1.02 -0.74,1.63 0.21,-0.01 0.42,0 0.63,0 1.45,-0.72 2.12,-1.58 2.98,0.58 1.4,0.75 1.91,0.56 1.38,2.6 -1.02,2.05 -2.12,4.24 -3.25,6.29 -0.02,0.1 -0.04,0.19 -0.03,0.28 0.26,0.05 0.52,0.11 0.78,0.19 0.15,0.92 0.18,2.07 0.15,3.19 -0.88,1.29 -1.98,1.29 -3.37,1.47 -1.77,0.88 -3.36,1.61 -5.02,2.6 0,0.33 -0.05,0.66 0.11,1.09 0.84,-0.03 1.7,-0.03 2.57,-0.04 0.95,0.62 0.87,2.35 0.28,3.37 -0.97,0.13 -1.55,0.26 -2.3,0.66 -0.09,0.47 -0.18,0.94 -0.26,1.44 0.07,1.84 1.02,6.29 -1.71,6.71 m 5.46,-22.69 c 0.86,-0.87 1.46,-1.72 1.38,-2.91 -0.71,-0.63 -1.96,-0.72 -2.71,-0.67 q -0.1,0.33 -0.96,1.93 c 0.07,0.04 0.17,0.08 0.27,0.12 -0.09,0.03 -0.19,0.06 -0.25,0.11 0,0.05 0.03,0.09 0.06,0.16 0.38,0.05 0.59,-0.24 0.76,-0.51 1.34,-0.22 1.37,0.26 1.28,1.69 0.05,0.02 0.1,0.04 0.17,0.08"
     id="path12" />
  <path
     id="polygon12"
     class="cls-1"
     style="fill:#231815"
     d="m 122.55,99.55 v -0.39 -0.38 h 4.7 v 0.37 0.38 l -3.92,4.86 h 3.92 v 0.38 0.38 h -5.01 v -0.37 -0.38 l 3.93,-4.85 z" />
  <path
     id="polygon13"
     class="cls-1"
     style="fill:#231815"
     d="m 129.21,98.78 h 0.43 0.43 v 2.61 h 3.33 v -2.61 h 0.42 0.44 v 6.37 h -0.43 -0.43 v -3 h -3.33 v 3 h -0.43 -0.43 z" />
  <path
     id="polygon14"
     class="cls-1"
     style="fill:#231815"
     d="m 140.91,101.87 v 0.38 h -3.47 v 2.14 h 3.85 v 0.38 0.38 h -4.71 v -6.37 h 4.66 v 0.38 0.39 h -3.8 v 1.94 h 3.47 z" />
  <path
     class="cls-1"
     d="m 145.74,98.78 h 0.86 v 4.58 c 0,0.62 -0.16,1.11 -0.48,1.45 -0.31,0.34 -0.76,0.51 -1.35,0.51 -0.59,0 -1.06,-0.16 -1.38,-0.47 -0.32,-0.32 -0.47,-0.75 -0.45,-1.31 v -0.44 h 0.81 v 0.44 c 0,0.34 0.08,0.6 0.25,0.78 0.17,0.19 0.41,0.28 0.71,0.28 0.3,0 0.56,-0.11 0.74,-0.33 0.18,-0.22 0.27,-0.52 0.27,-0.9 v -4.58 z"
     id="path14" />
  <path
     id="polygon15"
     class="cls-1"
     style="fill:#231815"
     d="m 149.79,98.78 v 6.37 h -0.42 -0.44 v -6.37 h 0.43 z" />
  <path
     class="cls-1"
     d="m 154.01,98.78 h 0.98 l 2.29,6.37 h -0.93 l -0.65,-1.85 h -2.55 l -0.67,1.85 h -0.89 l 2.4,-6.37 z m -0.57,3.76 h 2 l -0.98,-2.83 v 0 z"
     id="path15" />
  <path
     id="polygon16"
     class="cls-1"
     style="fill:#231815"
     d="m 158.96,105.15 v -6.37 h 0.51 0.52 l 3.19,5.18 v -5.18 h 0.42 0.41 v 6.37 h -0.47 -0.47 l -3.28,-5.2 v 5.2 h -0.41 z" />
  <path
     class="cls-1"
     d="m 169.32,105.32 c -0.88,0 -1.6,-0.31 -2.15,-0.92 -0.54,-0.62 -0.82,-1.42 -0.82,-2.43 0,-1.01 0.28,-1.82 0.84,-2.44 0.56,-0.62 1.28,-0.93 2.19,-0.93 0.7,0 1.3,0.19 1.8,0.58 0.5,0.39 0.79,0.89 0.88,1.5 h -0.83 c -0.08,-0.42 -0.29,-0.75 -0.61,-0.98 -0.33,-0.23 -0.76,-0.34 -1.29,-0.34 -0.62,0 -1.12,0.24 -1.51,0.72 -0.38,0.48 -0.58,1.11 -0.58,1.89 0,0.83 0.19,1.47 0.56,1.93 0.37,0.45 0.9,0.68 1.57,0.68 0.67,0 1.19,-0.24 1.59,-0.72 0.07,-0.08 0.12,-0.15 0.18,-0.24 0.07,-0.11 0.13,-0.27 0.18,-0.47 0.05,-0.2 0.07,-0.39 0.07,-0.58 v -0.08 h -1.99 v -0.73 h 2.79 v 3.37 h -0.54 l -0.21,-0.8 -0.05,0.05 c -0.52,0.62 -1.21,0.92 -2.06,0.92"
     id="path16" />
  <path
     class="cls-1"
     d="m 183.14,102.82 c 0,0.79 -0.22,1.4 -0.66,1.84 -0.44,0.44 -1.06,0.66 -1.84,0.66 -0.78,0 -1.44,-0.21 -1.87,-0.64 -0.43,-0.43 -0.64,-1.05 -0.64,-1.87 v -4.04 h 0.86 v 3.97 c 0,0.59 0.14,1.04 0.42,1.35 0.28,0.31 0.69,0.46 1.23,0.46 0.54,0 0.94,-0.15 1.23,-0.46 0.28,-0.31 0.42,-0.76 0.42,-1.35 v -3.97 h 0.86 v 4.04 z"
     id="path17" />
  <path
     id="polygon17"
     class="cls-1"
     style="fill:#231815"
     d="m 185.57,105.15 v -6.37 h 0.52 0.52 l 3.19,5.18 v -5.18 h 0.41 0.42 v 6.37 h -0.47 -0.47 l -3.28,-5.2 v 5.2 h -0.42 z" />
  <path
     id="polygon18"
     class="cls-1"
     style="fill:#231815"
     d="m 193.86,98.78 v 6.37 H 193.43 193 v -6.37 h 0.43 z" />
  <path
     id="polygon19"
     class="cls-1"
     style="fill:#231815"
     d="m 198.79,105.15 h -0.46 -0.47 l -2.31,-6.37 h 0.47 0.48 l 1.83,5.45 1.82,-5.45 h 0.48 0.48 z" />
  <path
     id="polygon20"
     class="cls-1"
     style="fill:#231815"
     d="m 207.09,101.87 v 0.38 h -3.47 v 2.14 h 3.85 v 0.38 0.38 h -4.71 v -6.37 h 4.65 v 0.38 0.39 h -3.79 v 1.94 h 3.47 z" />
  <path
     class="cls-1"
     d="m 209.76,98.78 h 2.96 c 0.67,0 1.19,0.15 1.54,0.44 0.35,0.29 0.53,0.72 0.53,1.29 0,0.57 -0.19,0.99 -0.55,1.31 -0.09,0.08 -0.19,0.15 -0.3,0.21 l 0.14,0.07 c 0.39,0.22 0.59,0.6 0.6,1.12 l 0.03,1.16 c 0,0.19 0.03,0.33 0.08,0.41 0.04,0.08 0.12,0.15 0.25,0.22 v 0.14 h -1.06 c 0,0 -0.05,-0.19 -0.07,-0.41 -0.02,-0.22 -0.04,-0.46 -0.05,-0.73 l -0.02,-0.5 c -0.01,-0.4 -0.11,-0.68 -0.29,-0.85 -0.18,-0.17 -0.48,-0.25 -0.89,-0.25 h -2.05 v 2.74 h -0.86 v -6.37 z m 0.86,2.88 h 2.13 c 0.4,0 0.69,-0.09 0.88,-0.26 0.18,-0.17 0.28,-0.45 0.28,-0.83 0,-0.38 -0.1,-0.64 -0.29,-0.8 -0.19,-0.17 -0.5,-0.26 -0.92,-0.26 h -2.07 v 2.15 z"
     id="path20" />
  <path
     class="cls-1"
     d="m 221.01,100.63 c -0.04,-0.4 -0.2,-0.71 -0.47,-0.93 -0.28,-0.22 -0.65,-0.33 -1.12,-0.33 -0.47,0 -0.86,0.09 -1.11,0.28 -0.25,0.19 -0.38,0.46 -0.38,0.82 0,0.25 0.09,0.43 0.25,0.55 0.17,0.12 0.5,0.24 1.01,0.36 l 1.11,0.27 c 0.59,0.14 1.02,0.35 1.27,0.63 0.26,0.27 0.39,0.67 0.39,1.17 0,0.58 -0.22,1.04 -0.66,1.37 -0.44,0.34 -1.03,0.51 -1.78,0.51 -0.83,0 -1.48,-0.19 -1.95,-0.58 -0.46,-0.39 -0.69,-0.91 -0.69,-1.58 v -0.05 h 0.79 c 0.01,0.46 0.18,0.82 0.5,1.07 0.32,0.25 0.77,0.38 1.34,0.38 0.53,0 0.93,-0.09 1.21,-0.27 0.27,-0.18 0.41,-0.45 0.41,-0.8 0,-0.3 -0.09,-0.53 -0.27,-0.68 -0.18,-0.15 -0.54,-0.28 -1.08,-0.41 l -1.11,-0.26 c -0.56,-0.13 -0.96,-0.32 -1.2,-0.55 -0.24,-0.24 -0.36,-0.57 -0.36,-0.98 0,-0.61 0.2,-1.09 0.62,-1.45 0.42,-0.36 0.98,-0.54 1.68,-0.54 0.7,0 1.29,0.18 1.71,0.54 0.43,0.36 0.65,0.85 0.68,1.48 h -0.79 z"
     id="path21" />
  <path
     id="polygon21"
     class="cls-1"
     style="fill:#231815"
     d="m 224.92,98.78 v 6.37 h -0.43 -0.43 v -6.37 h 0.43 z" />
  <path
     id="polygon22"
     class="cls-1"
     style="fill:#231815"
     d="m 229.75,99.55 v 5.6 h -0.43 -0.43 v -5.6 h -2.15 v -0.39 -0.38 h 5.16 v 0.38 0.39 z" />
  <path
     id="polygon23"
     class="cls-1"
     style="fill:#231815"
     d="m 239.06,98.78 -2.4,3.83 v 2.54 h -0.43 -0.43 v -2.55 l -2.4,-3.82 h 0.5 0.5 l 1.83,3.09 1.83,-3.09 h 0.5 z" />
  <path
     class="cls-1"
     d="m 76.07,54.93 c 15.63,0 28.37,12.75 28.37,28.37 0,15.62 -12.74,28.37 -28.37,28.37 C 60.44,111.67 47.7,98.92 47.7,83.3 47.7,67.68 60.45,54.93 76.07,54.93 m 0,1.13 c -15,0 -27.24,12.24 -27.24,27.24 0,15 12.24,27.24 27.24,27.24 15,0 27.24,-12.24 27.24,-27.24 0,-15 -12.23,-27.24 -27.24,-27.24"
     id="path23" />
  <path
     class="cls-1"
     d="M 66.11,95.39 C 64.34,93.92 62.88,92.07 61.89,89.97 60.93,87.94 60.4,85.68 60.4,83.3 c 0,-8.64 7.05,-15.68 15.68,-15.68 8.63,0 15.68,7.04 15.68,15.68 0,2.38 -0.54,4.64 -1.5,6.67 -0.99,2.11 -2.45,3.95 -4.22,5.42 l -0.36,-0.44 c 1.71,-1.42 3.11,-3.2 4.07,-5.23 0.92,-1.95 1.44,-4.13 1.44,-6.43 0,-8.32 -6.79,-15.12 -15.12,-15.12 -8.33,0 -15.11,6.79 -15.11,15.12 0,2.3 0.52,4.48 1.44,6.43 0.96,2.03 2.36,3.81 4.07,5.23 z"
     id="path24" />
  <path
     id="polygon24"
     class="cls-2"
     style="fill:#231815;fill-rule:evenodd"
     d="m 51.52,90.31 0.84,2.25 -0.58,0.21 -1.07,-2.87 0.58,-0.21 4.91,0.75 -0.75,-2.01 0.58,-0.21 0.98,2.63 -0.59,0.21 z" />
  <path
     id="polygon25"
     class="cls-2"
     style="fill:#231815;fill-rule:evenodd"
     d="m 55.47,93.22 0.73,1.42 2.08,-1.07 0.29,0.57 -4.93,2.54 -0.29,-0.57 2.31,-1.19 -0.74,-1.42 -2.3,1.19 -0.3,-0.58 4.93,-2.53 0.3,0.57 z" />
  <path
     id="polygon26"
     class="cls-2"
     style="fill:#231815;fill-rule:evenodd"
     d="m 57.96,98.2 -1.17,-1.63 -1.65,1.02 1.36,1.89 -0.52,0.32 -1.75,-2.44 4.62,-2.87 1.67,2.32 -0.51,0.32 -1.27,-1.77 -1.44,0.89 1.17,1.63 z" />
  <path
     id="polygon27"
     class="cls-2"
     style="fill:#231815;fill-rule:evenodd"
     d="m 59.91,103.65 -0.58,-0.5 3.4,-4.18 0.59,0.5 z" />
  <path
     class="cls-2"
     d="m 62.55,105.49 0.7,-1.48 -0.85,-0.61 -1.26,1.22 -0.58,-0.44 3.99,-3.94 0.8,0.49 -2.12,5.15 -0.69,-0.38 z m 1.02,-2.21 0.83,-1.91 -0.08,-0.06 -1.44,1.46 0.68,0.51 z"
     id="path27" />
  <path
     id="polygon28"
     class="cls-2"
     style="fill:#231815;fill-rule:evenodd"
     d="m 68.43,102.13 0.6,0.25 -2.48,5.04 -0.72,-0.33 0.42,-3.85 -1.58,3.24 -0.72,-0.34 2.5,-4.94 0.65,0.3 -0.3,3.65 z" />
  <path
     class="cls-2"
     d="m 70.27,108.53 -0.46,-0.15 0.04,-0.44 c -0.11,0.09 -0.25,0.15 -0.43,0.18 -0.18,0.03 -0.36,0.01 -0.54,-0.05 -0.38,-0.12 -0.67,-0.42 -0.85,-0.9 -0.19,-0.48 -0.15,-1.14 0.11,-1.97 0.28,-0.91 0.63,-1.55 1.04,-1.91 0.41,-0.36 1.04,-0.56 1.59,-0.38 0.6,0.19 0.98,0.92 0.81,1.94 l -0.71,-0.06 c 0.12,-0.43 0.06,-1.11 -0.37,-1.25 -0.34,-0.11 -0.73,0 -0.97,0.27 -0.24,0.27 -0.48,0.79 -0.72,1.55 -0.22,0.72 -0.28,1.25 -0.19,1.58 0.1,0.33 0.27,0.54 0.5,0.61 0.24,0.08 0.45,0.05 0.65,-0.1 0.19,-0.14 0.35,-0.41 0.47,-0.79 l 0.1,-0.32 -0.85,-0.27 0.17,-0.55 1.4,0.45 -0.79,2.57 z"
     id="path28" />
  <path
     class="cls-2"
     d="m 77.64,107.31 c -0.02,0.5 -0.15,0.89 -0.4,1.17 -0.25,0.28 -0.64,0.41 -1.16,0.39 -0.52,-0.02 -0.9,-0.18 -1.13,-0.48 -0.23,-0.3 -0.34,-0.7 -0.32,-1.2 l 0.12,-3.78 0.66,0.03 -0.12,3.78 c -0.01,0.36 0.06,0.62 0.21,0.79 0.15,0.17 0.35,0.26 0.6,0.27 0.25,0 0.46,-0.07 0.62,-0.23 0.16,-0.16 0.25,-0.42 0.26,-0.77 l 0.12,-3.78 0.66,0.03 z"
     id="path29" />
  <path
     id="polygon29"
     class="cls-2"
     style="fill:#231815;fill-rule:evenodd"
     d="m 80.2,103.08 0.59,-0.1 0.64,5.34 -0.59,0.09 -1.87,-3.6 0.28,3.87 -0.7,0.1 -0.42,-5.43 0.81,-0.08 1.55,2.53 z" />
  <path
     id="polygon30"
     class="cls-2"
     style="fill:#231815;fill-rule:evenodd"
     d="m 83.46,107.75 -0.7,0.21 -1.45,-5.13 0.7,-0.22 z" />
  <path
     id="polygon31"
     class="cls-2"
     style="fill:#231815;fill-rule:evenodd"
     d="m 85.53,107.25 -3.01,-4.81 0.66,-0.28 2.09,3.28 -0.58,-3.92 0.64,-0.28 0.88,5.67 z" />
  <path
     id="polygon32"
     class="cls-2"
     style="fill:#231815;fill-rule:evenodd"
     d="m 89.35,102.39 -1.69,0.91 0.98,1.69 1.96,-1.06 0.31,0.53 -2.53,1.37 -2.76,-4.74 2.41,-1.3 0.31,0.52 -1.84,1 0.85,1.47 1.69,-0.92 z" />
  <path
     class="cls-2"
     d="m 93.8,102.43 -0.56,0.48 -1.96,-1.63 -0.51,0.46 1.33,1.81 -0.56,0.58 -3.25,-4.56 1.04,-0.74 c 0.33,-0.24 0.77,-0.41 1.16,-0.36 1.01,0.12 1.44,0.8 1.4,1.59 -0.01,0.25 -0.03,0.5 -0.13,0.75 l 2.04,1.63 z m -3.5,-3.21 c -0.41,-0.11 -0.74,0.21 -1.04,0.44 l 1.08,1.43 c 0.33,-0.24 0.48,-0.29 0.73,-0.72 0.11,-0.52 -0.12,-0.97 -0.78,-1.14"
     id="path32" />
  <path
     class="cls-2"
     d="m 95.55,98.02 c 1.13,0.68 0.87,2.62 -0.62,2.84 -0.4,0.06 -0.87,-0.06 -1.07,-0.19 l 0.25,-0.58 c 0.25,0.05 0.49,0.14 0.73,0.1 0.97,-0.18 0.92,-1.19 0.36,-1.6 -0.2,-0.15 -0.48,-0.16 -0.71,-0.14 -0.65,0.07 -1.07,0.56 -1.79,0.6 -0.79,0.05 -1.34,-0.43 -1.48,-1.21 -0.07,-0.41 0.03,-0.8 0.23,-1.12 0.42,-0.66 1.31,-0.75 1.96,-0.36 l -0.25,0.6 c -0.35,-0.19 -0.97,-0.19 -1.21,0.18 -0.12,0.19 -0.17,0.39 -0.13,0.59 0.08,0.44 0.38,0.69 0.8,0.64 0.7,-0.09 1.18,-0.67 1.87,-0.64 0.33,0 0.72,0.09 1.05,0.29"
     id="path33" />
  <path
     id="polygon33"
     class="cls-2"
     style="fill:#231815;fill-rule:evenodd"
     d="m 97.94,97.32 -0.4,0.5 -4.68,-2.93 0.41,-0.5 z" />
  <path
     id="polygon34"
     class="cls-2"
     style="fill:#231815;fill-rule:evenodd"
     d="m 95.59,91.41 -0.52,0.96 4.41,2.59 -0.29,0.56 -4.42,-2.6 -0.52,0.96 -0.55,-0.33 1.33,-2.46 z" />
  <path
     id="polygon35"
     class="cls-2"
     style="fill:#231815;fill-rule:evenodd"
     d="m 100.88,90.94 -0.21,0.61 -1.67,-0.65 -3.84,-0.09 0.19,-0.61 2.68,0.04 -1.9,-1.74 0.26,-0.74 2.7,2.41 z" />
  <path
     class="cls-2"
     d="m 59.5,101.23 c -0.48,0.47 -0.92,0.72 -1.33,0.73 -0.41,0.01 -0.78,-0.15 -1.12,-0.49 -0.3,-0.31 -0.46,-0.67 -0.45,-1.09 0,-0.21 0.06,-0.43 0.18,-0.65 l 0.61,0.37 c -0.05,0.1 -0.08,0.2 -0.08,0.3 0,0.22 0.06,0.41 0.21,0.56 0.21,0.21 0.42,0.3 0.65,0.29 0.23,-0.02 0.5,-0.19 0.82,-0.51 l 2.7,-2.67 0.5,0.51 -2.67,2.65 z"
     id="path35" />
  <path
     class="cls-2"
     d="m 68.67,100.3 -1.89,-1.17 0.17,-0.3 0.7,0.43 1.12,-1.96 -0.7,-0.43 0.15,-0.26 c 0.27,0.16 0.48,0.26 0.63,0.27 0.16,0.02 0.29,-0.04 0.4,-0.19 l 0.4,0.25 -1.51,2.63 0.68,0.42 -0.17,0.3 z M 74.3,99.11 C 74.33,98.96 74.28,98.82 74.14,98.7 74,98.58 73.8,98.5 73.52,98.46 c -0.25,-0.04 -0.47,-0.02 -0.65,0.05 -0.18,0.07 -0.28,0.18 -0.31,0.33 -0.02,0.11 0,0.21 0.07,0.3 0.06,0.09 0.17,0.18 0.33,0.26 0.06,0.04 0.17,0.09 0.3,0.15 0.14,0.07 0.27,0.12 0.39,0.16 0.22,-0.07 0.38,-0.16 0.47,-0.25 0.09,-0.09 0.15,-0.21 0.18,-0.35 m -0.24,1.69 c 0.03,-0.14 0,-0.25 -0.06,-0.34 -0.07,-0.09 -0.21,-0.2 -0.44,-0.32 -0.07,-0.04 -0.17,-0.08 -0.29,-0.14 -0.12,-0.05 -0.27,-0.11 -0.42,-0.18 -0.21,0.06 -0.38,0.14 -0.5,0.25 -0.13,0.1 -0.21,0.23 -0.24,0.39 -0.04,0.2 0.02,0.38 0.18,0.54 0.16,0.16 0.39,0.26 0.67,0.3 0.29,0.04 0.54,0.01 0.74,-0.07 0.2,-0.09 0.32,-0.23 0.36,-0.43 m -1.18,0.83 c -0.25,-0.04 -0.49,-0.09 -0.69,-0.17 -0.2,-0.08 -0.37,-0.17 -0.5,-0.29 -0.13,-0.11 -0.21,-0.23 -0.27,-0.37 -0.05,-0.13 -0.06,-0.27 -0.03,-0.41 0.04,-0.18 0.15,-0.34 0.33,-0.47 0.18,-0.13 0.42,-0.22 0.73,-0.27 v 0 c -0.23,-0.14 -0.4,-0.28 -0.5,-0.41 -0.1,-0.13 -0.13,-0.28 -0.1,-0.45 0.05,-0.25 0.24,-0.44 0.57,-0.57 0.33,-0.13 0.72,-0.16 1.17,-0.1 0.47,0.07 0.83,0.2 1.09,0.4 0.25,0.2 0.35,0.42 0.3,0.67 -0.03,0.15 -0.13,0.29 -0.3,0.42 -0.17,0.13 -0.38,0.21 -0.66,0.26 v 0 c 0.28,0.15 0.49,0.29 0.62,0.44 0.13,0.15 0.17,0.33 0.13,0.54 -0.06,0.29 -0.27,0.5 -0.63,0.65 -0.36,0.15 -0.78,0.19 -1.27,0.12 m 6.55,-2.06 c 0,-0.23 -0.03,-0.42 -0.09,-0.56 -0.07,-0.14 -0.15,-0.26 -0.27,-0.34 -0.1,-0.07 -0.2,-0.12 -0.3,-0.15 -0.1,-0.03 -0.21,-0.04 -0.34,-0.04 -0.28,0 -0.5,0.07 -0.67,0.2 -0.17,0.13 -0.25,0.33 -0.25,0.58 0,0.14 0.03,0.26 0.08,0.35 0.06,0.09 0.15,0.17 0.27,0.24 0.09,0.05 0.18,0.08 0.3,0.09 0.11,0.02 0.23,0.02 0.35,0.02 0.15,0 0.3,-0.02 0.47,-0.05 0.17,-0.03 0.32,-0.08 0.44,-0.14 0,-0.02 0,-0.05 0,-0.09 0,-0.04 0,-0.08 0,-0.13 M 76.8,99.27 c 0,-0.18 0.04,-0.34 0.13,-0.48 0.09,-0.15 0.2,-0.27 0.35,-0.38 0.14,-0.1 0.31,-0.18 0.52,-0.23 0.21,-0.06 0.41,-0.08 0.62,-0.08 0.23,0 0.45,0.03 0.64,0.08 0.19,0.05 0.35,0.13 0.49,0.23 0.18,0.12 0.31,0.29 0.41,0.49 0.1,0.2 0.15,0.46 0.15,0.77 0,0.28 -0.05,0.55 -0.14,0.8 -0.1,0.25 -0.23,0.46 -0.42,0.63 -0.2,0.18 -0.43,0.31 -0.71,0.4 -0.27,0.09 -0.61,0.14 -1.02,0.14 -0.09,0 -0.19,0 -0.29,0 -0.1,0 -0.2,-0.02 -0.29,-0.04 v -0.44 h 0.04 c 0.06,0.02 0.15,0.04 0.27,0.06 0.12,0.02 0.24,0.03 0.37,0.03 0.45,0 0.8,-0.1 1.05,-0.29 0.25,-0.2 0.4,-0.47 0.43,-0.84 -0.18,0.08 -0.36,0.14 -0.52,0.18 -0.17,0.04 -0.35,0.06 -0.54,0.06 -0.19,0 -0.36,-0.01 -0.52,-0.04 -0.15,-0.03 -0.31,-0.08 -0.47,-0.16 -0.19,-0.09 -0.32,-0.21 -0.42,-0.35 -0.09,-0.14 -0.14,-0.31 -0.14,-0.51 m 7.42,-2.94 -0.13,3.5 -0.53,0.34 0.05,-3.31 -2.04,0.99 -0.18,-0.39 2.57,-1.34 0.27,0.21 z"
     id="path36" />
  <path
     class="cls-2"
     d="m 85.33,68.03 c -0.41,-0.2 -0.12,-0.27 -0.1,-0.66 0.02,-0.33 -0.19,-0.72 -0.13,-0.95 0.18,-0.63 0.99,-0.39 1.43,-0.07 0.08,0.06 0.15,0.21 0.21,0.37 0.14,0.38 0.3,0.92 -0.15,1.2 -0.38,0.24 -0.92,0.28 -1.27,0.11"
     id="path37" />
  <path
     class="cls-2"
     d="m 80.57,66.17 c 0,0 -0.03,-0.02 -0.04,-0.03 0.01,-0.05 0.03,-0.09 0.04,-0.14 0.15,-0.02 1.51,-0.5 1.52,-0.53 0.41,-0.19 0.79,-0.42 1,-0.83 -0.91,0.07 -1.86,0.49 -2.75,0.34 -0.38,-0.2 -0.61,-0.49 -0.86,-0.68 0,-0.02 0,-0.03 0,-0.05 -0.39,-0.42 -0.33,-0.81 0.22,-0.86 0.83,0.41 2.33,0.11 3.24,0 0.21,-0.04 0.79,-0.1 0.98,-0.23 0.48,-1.11 0.64,-2.31 0.97,-3.4 0.48,-0.73 0.85,-0.07 1.25,0.46 0.02,0.07 0.11,0.18 0.18,0.35 0.02,0 0.03,0 0.05,0 0.13,0.38 0.15,0.55 -0.25,0.79 -0.35,0.49 -0.61,1.07 -0.73,1.71 0.62,0.06 1.12,-0.38 1.82,-0.22 0.09,0.37 0,0.64 -0.37,0.83 -0.57,0.12 -1.18,0.21 -1.82,0.33 -0.28,0.55 -0.68,1.21 -1.21,1.59 -0.08,0.06 -0.44,0.26 -0.53,0.29 -0.43,0.12 -0.83,0.31 -1.27,0.32 -1.21,0.04 -1.21,-0.02 -1.42,-0.04"
     id="path38" />
  <path
     class="cls-2"
     d="m 66.74,70.21 c -0.5,-0.03 -1.09,-0.39 -1.45,-0.62 0,-0.13 -0.02,-0.26 -0.01,-0.39 0.71,-1.15 1.43,-2.24 1.99,-3.49 0.11,-0.53 0.29,-1.12 0.43,-1.65 0,-0.01 0.03,-0.03 0.04,-0.04 0,-0.02 -0.01,-0.03 -0.02,-0.04 0.18,-0.3 0.27,-0.4 0.61,-0.15 0.12,0.27 -0.25,0.76 -0.31,1.08 0,0.57 -0.02,1.15 -0.07,1.75 q -0.04,0.12 -0.16,0.77 c -0.19,0.31 -0.33,1.01 -0.35,1.39 -0.24,0.31 -0.16,0.92 -0.46,1.27 -0.08,0.04 -0.16,0.08 -0.23,0.12"
     id="path39" />
  <path
     class="cls-2"
     d="m 71.29,64.35 c -0.63,0.22 -0.96,-0.11 -1.44,-0.34 -0.08,-0.16 -0.01,-0.3 -0.04,-0.42 q 0.14,-0.1 0.21,-0.19 c 0.25,-0.14 0.34,-0.16 0.62,-0.29 0.32,-0.22 0.99,-1.21 1.4,-1.06 0.34,0.73 -0.18,1.82 -0.75,2.29"
     id="path40" />
  <path
     class="cls-2"
     d="m 66.06,65.03 c -0.32,-0.11 -0.74,-1.05 -0.88,-1.35 -0.03,-0.6 0.5,-0.84 1.08,-0.67 0.54,0.33 0.86,0.43 0.7,1.12 -0.28,0.53 -0.46,0.63 -0.91,0.89"
     id="path41" />
  <path
     class="cls-2"
     d="m 70.47,62.76 c -0.18,-0.27 -0.02,-1.04 -0.2,-1.15 -0.14,0.08 -0.27,0.2 -0.43,0.27 -0.45,-0.03 -1.03,-0.33 -1.02,-0.74 0.15,-0.42 0.08,-0.3 0.5,-0.5 0.34,-0.34 0.68,-0.68 1.02,-1.02 0.65,-0.4 1.11,-0.15 1.42,0.52 0.05,0.49 -0.11,0.95 -0.26,1.41 -0.29,0.35 -0.54,0.7 -0.79,1.05 -0.09,0.05 -0.18,0.11 -0.26,0.16"
     id="path42" />
  <path
     class="cls-2"
     d="m 65.89,62.29 c -0.2,-0.07 -0.16,-0.17 -0.14,-0.33 -0.13,-0.28 -0.39,-0.44 -0.52,-0.71 -0.11,-0.54 -0.28,-0.69 0.05,-1.09 0.38,0.01 1.74,0.15 1.72,0.89 -0.15,0.52 -0.68,1.01 -1.11,1.24"
     id="path43" />
  <path
     class="cls-2"
     d="M 58.92,80.99 C 58.33,81.4 56.91,81.13 57.1,80.28 57.02,80.2 56.97,80.05 57,79.95 56.98,79.94 56.97,79.93 56.96,79.93 56.81,79.04 56.33,78.2 56.07,77.36 c -0.14,-0.26 -0.3,-0.47 -0.2,-0.75 0.2,-0.05 0.41,0.16 0.58,0.32 0.09,-0.02 0.18,-0.23 0.23,-0.37 -0.06,-0.59 -0.02,-1.26 -0.1,-1.87 -0.15,-0.13 -0.3,-0.26 -0.44,-0.4 -0.12,0.3 -0.5,1.29 -0.84,0.76 0.09,-0.4 0.15,-1.08 -0.08,-1.48 -0.29,-0.32 -0.71,-0.54 -0.84,-0.89 0.06,-0.48 0.8,-0.6 1.23,-0.4 0.35,0.03 0.35,-0.63 0.74,0.46 0,0.18 0.18,0.29 0.38,0.39 0.03,-0.04 0.06,-0.08 0.09,-0.12 0,-0.46 -0.02,-0.97 0.02,-1.47 -0.43,-0.44 -0.8,-0.8 -1.06,-1.34 0,-0.51 0.58,-0.8 1.08,-0.96 0.16,-0.27 0.17,-0.51 0.16,-0.86 q 0.04,-0.11 0.16,-0.29 c 0.17,0.01 0.32,0.08 0.51,0.19 0.4,0.52 -0.44,2.09 0.35,2.22 0.16,-0.27 -0.06,-0.55 -0.18,-0.77 0.04,-0.39 0.65,-0.88 1.08,-1.03 0.63,-0.05 0.59,0.3 0.6,0.84 0.03,0.08 0.06,0.15 0.09,0.22 q 0.8,0.58 1.91,1.33 c 0.21,0.33 0.29,0.52 0.38,0.92 0.01,0 0.02,0.01 0.04,0.02 0,0.02 -0.02,0.03 -0.02,0.04 0.15,0.31 0.16,0.82 -0.22,0.87 -0.91,-0.62 -1.82,-1.32 -2.7,-1.88 -0.01,0.02 -0.02,0.04 -0.02,0.06 0.4,0.37 0.92,1.38 0.94,1.95 -0.22,0.36 -0.62,0.51 -0.99,0.41 -0.07,-0.1 -0.04,-0.18 -0.05,-0.29 -0.27,-0.47 -1.05,-0.93 -1.45,-1.2 -0.15,0.31 0.16,1.23 0.25,1.61 0.02,0.22 0.03,0.45 0.05,0.66 0.27,0.33 0.55,0.64 0.85,0.97 0.11,0.19 0.22,0.38 0.34,0.57 0,0.02 -0.02,0.03 -0.02,0.04 0.13,0.29 0.42,1.12 -0.12,1.12 -0.05,-0.03 -0.1,-0.06 -0.15,-0.1 -0.17,-0.43 -0.5,-0.9 -0.85,-1.15 -0.13,0.42 0.03,0.87 -0.18,1.23 -0.18,0.17 -0.38,0.33 -0.54,0.42 -0.02,-0.01 -0.03,-0.02 -0.04,-0.02 -0.11,0.05 -0.25,0.08 -0.26,0.15 0.15,0.2 0.31,0.4 0.47,0.6 0.5,0.88 1.06,1.64 1.72,2.44 0.04,0.22 0.03,0.28 -0.03,0.44"
     id="path44" />
  <path
     class="cls-2"
     d="m 55.07,77.34 c -0.23,0 -0.35,-0.27 -0.52,-0.4 -0.63,-0.18 -1.11,-0.31 -1.31,-0.93 0.03,-0.06 0.06,-0.11 0.09,-0.17 0.33,-0.12 0.94,-0.2 1.35,-0.21 0.78,0.17 0.52,1.15 0.39,1.72"
     id="path45" />
  <path
     class="cls-2"
     d="m 53.42,75.48 c -0.14,0.1 -0.16,0.08 -0.22,0.07 -0.08,-0.15 -0.12,-0.26 -0.26,-0.32 -0.7,-0.02 -1.42,-0.54 -1.29,-1.25 0.13,-0.15 0.26,-0.06 0.53,0.02 0.59,-0.12 1.46,-0.48 1.5,0.46 -0.06,0.34 -0.17,0.69 -0.26,1.02"
     id="path46" />
  <path
     class="cls-1"
     d="m 89.39,76.38 h -6.9 c -2.01,0 -3.05,1.97 -3.81,3.75 l -1.16,-2.62 1.95,-0.72 c -1.14,-1.08 -4.7,-1.67 -5.17,-0.04 l -0.84,3.38 c -0.66,-1.52 -1.6,-3.75 -3.71,-3.75 h -7 c 0.91,1.61 1.78,2.19 5,2.05 l 0.42,1.11 -3.53,0.02 c 1.04,1.92 1.64,2 4.49,1.92 l 0.6,1.33 -2.78,0.1 c 0.6,1.36 1.22,1.94 3.61,1.83 l 0.46,1.18 h -2.21 c 0.83,1.38 1.24,2.01 2.99,1.85 l 0.47,1.28 h -1.53 c 0.66,1.48 1.43,1.54 2.37,1.69 0.85,0.13 0.97,1.71 -0.02,2.22 l 2.97,4.82 2.97,-4.82 c -0.99,-0.51 -0.87,-2.09 -0.02,-2.22 0.94,-0.15 1.71,-0.21 2.37,-1.69 h -1.53 l 0.47,-1.28 c 1.75,0.15 2.16,-0.47 2.99,-1.84 H 81.1 c 0,0 0.46,-1.19 0.46,-1.19 2.38,0.11 3.01,-0.47 3.61,-1.83 l -2.78,-0.1 0.6,-1.33 c 2.84,0.08 3.44,0 4.49,-1.92 h -3.53 c 0,0 0.42,-1.13 0.42,-1.13 3.22,0.14 4.09,-0.44 5,-2.05"
     id="path47" />
  <path
     class="cls-1"
     d="m 99.9,73.07 0.02,-0.06 c 0.1,-0.25 0.09,-0.35 0.07,-0.39 -0.03,-0.06 -0.14,-0.09 -0.31,-0.13 -0.05,-0.01 -0.1,-0.02 -0.16,-0.03 l -0.1,-0.02 -0.03,-0.07 c 0,0 -0.07,-0.07 -0.11,-0.1 l -0.13,-0.04 -0.03,-0.02 0.17,-0.13 c 0.12,-0.09 0.26,-0.14 0.41,-0.19 l 0.02,-0.04 0.07,0.03 c 0.24,-0.21 0.41,-0.52 0.43,-0.84 -0.07,-0.1 -0.2,-0.15 -0.39,-0.15 -0.24,0 -0.54,0.1 -0.8,0.18 -0.16,0.05 -0.36,0.12 -0.53,0.15 l -0.06,-0.03 c -0.44,-0.21 -0.46,-0.22 -1.38,-0.7 -0.07,0.04 -0.12,0.11 -0.15,0.18 -0.06,0.13 -0.05,0.28 0.02,0.42 l 0.09,0.07 v 0 c 0,0 0,0 0,0 l -0.22,0.12 c -0.05,0.03 -0.06,0.03 -0.06,0.03 v 0 l -0.06,0.06 c 0,0 0.02,0.07 0.05,0.12 l 0.02,0.1 c 0,0.08 -0.02,0.12 -0.09,0.2 l -0.03,0.1 v 0 c 0,0 0,0.01 0,0.01 L 96.5,71.79 c -0.18,-0.14 -0.19,-0.15 -0.32,-0.28 -0.03,0 -0.07,0 -0.11,0 -0.1,0 -0.18,0.03 -0.22,0.08 -0.04,0.05 -0.03,0.12 0,0.22 v 0.05 c -0.04,0.13 -0.16,0.36 -0.57,0.36 h -0.21 c 0,0 -0.08,0 -0.15,0.03 0,0.28 0.12,0.3 0.41,0.35 0.11,0.02 0.23,0.04 0.39,0.07 0.03,0 0.05,-0.02 0.08,-0.02 0.06,0 0.11,0.03 0.17,0.05 l 0.22,0.09 0.08,0.02 0.04,0.02 -0.27,0.13 c -0.1,0.05 -0.17,0.09 -0.27,0.19 -0.02,0.08 -0.06,0.15 -0.12,0.22 v 0.06 c 0,0 -0.12,-0.03 -0.12,-0.03 -0.2,-0.05 -0.39,-0.1 -0.59,-0.15 l -0.3,-0.08 c -0.54,-0.14 -1.21,-0.32 -1.85,-0.43 -0.15,-0.05 -0.3,-0.08 -0.44,-0.11 l -0.3,-0.03 v 0.08 c 0.06,0.06 0.16,0.13 0.31,0.23 l 0.02,0.05 c 0.08,0.21 0.23,0.47 0.56,0.65 0.22,0.04 0.44,0.06 0.71,0.1 0.79,0.09 1.61,0.18 2.25,0.66 l 0.17,0.09 h 0.04 c 0,0 0,0 0,0 v 0 l -0.24,0.12 c -0.06,0.03 -0.11,0.06 -0.19,0.13 l -0.07,-0.02 q -0.76,-0.17 -1.03,-0.26 c -0.27,-0.18 -0.41,-0.23 -0.55,-0.23 -0.11,0 -0.24,0.05 -0.46,0.18 -0.01,0 -0.02,0.01 -0.04,0.02 h -0.01 c 0,0 -0.01,0.02 -0.02,0.02 L 93.42,74.39 C 93.34,74.36 93.33,74.36 93.1,74.33 92.89,74.26 92.67,74.19 92.44,74.11 91.78,73.9 91.1,73.67 90.54,73.3 90.37,73.16 90.26,73.03 90.17,72.92 90.14,72.88 90.12,72.86 90.1,72.86 c 0,0 0,0 0,0 l -0.06,-0.07 c 0,0 -0.11,0.08 -0.23,0.2 -0.12,0.37 0.22,1.26 0.52,1.53 0.21,0.09 0.44,0.14 0.68,0.18 0.4,0.08 0.81,0.15 1.21,0.48 l 0.11,0.03 v 0 c 0,0 0,0 0,0 l -0.1,0.14 c -0.13,0.17 -0.28,0.31 -0.45,0.46 l -0.08,0.07 c -0.05,0.04 -0.1,0.08 -0.14,0.13 h -0.08 c -0.06,0.02 -0.11,0.02 -0.17,0.02 -0.3,0 -0.55,-0.14 -0.77,-0.27 -0.07,-0.04 -0.14,-0.08 -0.25,-0.1 l -0.04,0.08 c 0.31,0.53 0.73,1.01 1.28,1.47 l 0.05,0.08 c 0.07,0.04 0.14,0.05 0.21,0.05 v 0 c 0.4,0 0.83,-0.55 1.15,-0.96 0.07,-0.09 0.13,-0.17 0.2,-0.25 l 0.08,-0.06 c 0.3,-0.22 0.32,-0.24 0.31,-0.24 l 0.07,0.02 c 0.25,0.07 0.42,0.17 0.66,0.3 0.24,-0.1 0.48,-0.34 0.46,-0.6 l -0.1,-0.09 C 94.48,75.33 94.34,75.2 94.19,75.07 h -0.08 c 0,0 0.05,-0.14 0.05,-0.14 0.05,-0.13 0.13,-0.2 0.23,-0.31 v -0.05 c 0,0 0.11,0.02 0.11,0.02 0.43,0.1 0.81,0.22 1.28,0.36 l 0.41,0.13 0.1,0.08 c 0.23,0.18 0.4,0.3 0.67,0.3 0.04,0 0.08,0 0.15,-0.03 0.25,-0.26 0.4,-0.43 0.5,-0.63 v 0 c 0,0 0,-0.01 0,-0.02 -0.08,-0.12 -0.11,-0.15 -0.13,-0.15 l 0.08,-0.09 c 0,0 0.05,-0.05 0.12,-0.09 0.69,-0.22 1.45,-0.49 2,-0.69 0.33,-0.21 0.37,-0.23 0.25,-0.54 -0.02,-0.05 -0.04,-0.11 -0.09,-0.2 m -2.64,0.47 0.11,-0.1 c 0.15,-0.14 0.22,-0.21 0.24,-0.28 0,-0.03 -0.04,-0.06 -0.11,-0.11 h -0.03 c 0,0 -0.04,0 -0.08,0 -0.12,0 -0.2,-0.06 -0.24,-0.11 l -0.05,-0.04 v -0.06 c 0,0 0.05,-0.14 0.05,-0.14 h -0.03 c 0,0 0.15,-0.06 0.15,-0.06 q 0.51,-0.17 0.59,-0.22 l 0.04,-0.07 0.1,0.08 c 0.11,0.09 0.46,0.42 0.52,0.83 l -0.05,0.06 c -0.27,0.32 -0.64,0.38 -0.99,0.39 l -0.1,0.02 -0.05,-0.15 z"
     id="path48" />
  <path
     class="cls-1"
     d="m 94.25,72.27 c -0.15,0 -0.3,-0.05 -0.43,-0.14 -0.08,-0.33 0.16,-0.68 0.34,-0.94 0.06,-0.09 0.11,-0.16 0.15,-0.22 l 0.03,-0.08 0.06,-0.11 c 0.07,-0.14 0.14,-0.28 0.21,-0.43 0.03,-0.08 0.05,-0.16 0.06,-0.23 0.11,-0.43 0.19,-0.7 0.41,-0.78 0.17,0.03 0.25,0.05 0.29,0.11 0.04,0.06 0.03,0.15 0,0.31 l -0.03,0.06 c 0.02,0.06 0.03,0.13 0.04,0.2 0.05,0.25 0.06,0.52 0.03,0.76 v 0.1 c -0.03,0.09 -0.05,0.17 -0.08,0.25 -0.1,0.31 -0.21,0.65 -0.43,0.85 l -0.09,0.08 -0.06,0.04 c -0.15,0.1 -0.32,0.15 -0.48,0.16 h -0.02 z"
     id="path49" />
  <path
     class="cls-1"
     d="m 94.25,72.26 h 0.02 c 0.16,0 0.32,-0.06 0.47,-0.15 l 0.06,-0.04 0.09,-0.08 c 0.22,-0.2 0.33,-0.54 0.43,-0.85 0.03,-0.08 0.05,-0.16 0.07,-0.25 v -0.1 c 0.04,-0.26 0.02,-0.52 -0.02,-0.75 0,-0.07 -0.02,-0.15 -0.03,-0.21 h -0.01 c 0,0 0.03,-0.05 0.03,-0.05 0.03,-0.15 0.05,-0.25 0,-0.3 -0.04,-0.05 -0.12,-0.08 -0.27,-0.11 -0.21,0.08 -0.29,0.34 -0.39,0.74 -0.02,0.08 -0.04,0.17 -0.07,0.26 -0.07,0.16 -0.14,0.29 -0.21,0.43 l -0.06,0.11 -0.03,0.08 c -0.03,0.06 -0.08,0.13 -0.15,0.21 -0.18,0.26 -0.42,0.61 -0.34,0.92 0.13,0.09 0.27,0.14 0.42,0.14"
     id="path50" />
  <path
     class="cls-1"
     d="m 92.73,71.88 c -0.08,0 -0.17,-0.04 -0.35,-0.15 -0.23,-0.53 0.6,-1.12 0.7,-1.19 0.14,0.03 0.21,0.1 0.26,0.23 0.1,0.27 0.03,0.64 -0.15,0.86 -0.25,0.18 -0.36,0.25 -0.45,0.25 v 0 z"
     id="path51" />
  <path
     class="cls-1"
     d="m 92.73,71.86 v 0 c 0.09,0 0.2,-0.07 0.44,-0.24 0.18,-0.21 0.24,-0.58 0.15,-0.84 -0.04,-0.12 -0.12,-0.2 -0.24,-0.23 -0.09,0.07 -0.92,0.66 -0.7,1.16 0.17,0.11 0.27,0.15 0.34,0.15"
     id="path52" />
  <metadata
     id="metadata52">
    <rdf:RDF>
      <cc:Work
         rdf:about="">
        <dc:title>zju-logo</dc:title>
      </cc:Work>
    </rdf:RDF>
  </metadata>
</svg>
