<?xml version="1.0" encoding="UTF-8" standalone="no"?>
<!-- Created with Inkscape (http://www.inkscape.org/) -->

<svg
   width="210mm"
   height="297mm"
   viewBox="0 0 210 297"
   version="1.1"
   id="svg1"
   xmlns:inkscape="http://www.inkscape.org/namespaces/inkscape"
   xmlns:sodipodi="http://sodipodi.sourceforge.net/DTD/sodipodi-0.dtd"
   xmlns="http://www.w3.org/2000/svg"
   xmlns:svg="http://www.w3.org/2000/svg">
  <sodipodi:namedview
     id="namedview1"
     pagecolor="#ffffff"
     bordercolor="#000000"
     borderopacity="0.25"
     inkscape:showpageshadow="2"
     inkscape:pageopacity="0.0"
     inkscape:pagecheckerboard="0"
     inkscape:deskcolor="#d1d1d1"
     inkscape:document-units="mm">
    <inkscape:page
       x="0"
       y="0"
       width="210"
       height="297"
       id="page2"
       margin="0"
       bleed="0" />
  </sodipodi:namedview>
  <defs
     id="defs1">
    <linearGradient
       id="swatch2"
       inkscape:swatch="solid">
      <stop
         style="stop-color:#000000;stop-opacity:1;"
         offset="0"
         id="stop2" />
    </linearGradient>
  </defs>
  <g
     inkscape:label="图层 1"
     inkscape:groupmode="layer"
     id="layer1">
    <path
       style="font-size:85.3333px;font-family:Syastro;-inkscape-font-specification:Syastro;white-space:pre;fill:none;stroke:#000000;stroke-width:0.265;stroke-dasharray:none;stroke-opacity:1"
       d="m 75.127534,136.65386 c 3.351389,-0.0588 6.114814,-0.33073 8.290274,-0.8158 l 0.507119,1.63159 c -2.101966,0.32338 -4.490564,0.55122 -7.165795,0.68351 v 5.07118 h 7.408331 v 1.5875 h -2.55764 v 11.99444 h -1.609547 v -11.99444 h -3.241144 c 0,5.51215 -0.874594,9.51764 -2.623783,12.01649 -0.514468,-0.38218 -1.021586,-0.72026 -1.521354,-1.01424 1.675693,-2.07257 2.513539,-5.4607 2.513539,-10.1644 z m -7.981592,10.1203 c 0.999535,-0.27928 1.977023,-0.55856 2.932464,-0.83784 v -5.09323 h -2.623783 v -1.5434 h 2.623783 v -4.16719 h 1.631595 v 4.16719 h 2.579688 v 1.5434 h -2.579688 v 4.58611 c 0.837847,-0.26459 1.660995,-0.52917 2.469444,-0.79375 0.01469,0.66146 0.05879,1.23472 0.132292,1.71979 -0.911342,0.29398 -1.778587,0.57326 -2.601736,0.83785 v 7.09965 c 0,1.39641 -0.7717,2.10931 -2.315101,2.13871 -0.632061,0 -1.433161,-0.007 -2.403298,-0.022 -0.0735,-0.61736 -0.16904,-1.22002 -0.286633,-1.80798 1.146527,0.0882 1.977025,0.13229 2.491493,0.13229 0.587963,0 0.881944,-0.30133 0.881944,-0.90399 v -6.08542 c -0.984837,0.32338 -1.88883,0.63206 -2.711979,0.92604 z m -1.852084,0.74966 c 0.617361,0.32338 1.197975,0.59531 1.74184,0.81579 -0.867245,3.10151 -1.602198,5.82819 -2.204861,8.18004 l -1.807985,-0.83785 c 0.881945,-2.46945 1.638947,-5.18877 2.271006,-8.15798 z m -1.85208,-6.35 c 1.249421,0.98484 2.447394,1.97703 3.59392,2.97656 l -1.300867,1.38906 c -0.911343,-0.89664 -2.043171,-1.94762 -3.395485,-3.15295 z m 1.014235,-5.66649 c 1.175925,0.94074 2.322451,1.92558 3.43958,2.95451 l -1.300866,1.30087 c -1.014236,-1.08773 -2.101967,-2.14607 -3.263193,-3.175 z m 26.48037,17.85937 h 7.055551 V 138.79257 H 92.2593 v -1.6316 h 13.69218 v 1.6316 h -6.107463 v 14.57413 h 7.077603 v 1.63159 H 90.936383 Z m -2.160762,-6.01927 c 0.587962,0.38217 1.190624,0.7276 1.807985,1.03628 -1.058333,2.63113 -2.094618,5.36516 -3.108854,8.20208 l -1.874131,-1.05833 c 1.161226,-2.44005 2.219559,-5.16672 3.175,-8.18003 z m -2.734027,-6.3941 c 1.499304,0.91135 2.97656,1.90353 4.431768,2.97656 l -1.23472,1.60955 c -1.469907,-1.20532 -2.888367,-2.2563 -4.255381,-3.15295 z m 1.124479,-5.62239 c 1.367012,0.92604 2.785472,1.97702 4.255379,3.15295 l -1.190625,1.4993 c -1.381713,-1.23472 -2.763425,-2.3592 -4.145138,-3.37343 z m 20.372907,19.57916 c 6.06337,-2.69728 9.33391,-6.74687 9.81163,-12.14878 h -9.41476 v -1.71979 h 9.49193 c 0.0367,-1.97703 0.0551,-3.96875 0.0551,-5.97517 h 1.91823 c 0,1.97702 -0.0184,3.96874 -0.0551,5.97517 h 9.77856 v 1.71979 h -9.81163 c 1.04363,5.87228 4.46852,9.74548 10.27465,11.61961 -0.74965,0.72025 -1.30822,1.31557 -1.67569,1.78594 -4.78455,-1.92558 -7.91177,-5.35414 -9.38168,-10.28568 -1.14653,4.46117 -4.3546,8.03672 -9.62422,10.72665 -0.29398,-0.39687 -0.74965,-0.96279 -1.36701,-1.69774 z m 22.77621,-5.99722 h 10.31874 v -1.23472 l 4.21128,-2.38125 h -1.14509 -9.21775 v -1.60955 h 12.94253 v 1.85208 l -5.00503,2.88837 v 0.48507 h 9.4809 v 1.60954 h -9.4809 v 3.32934 c 0,1.73449 -0.8746,2.60174 -2.62379,2.60174 -0.97013,0 -2.10931,-0.0147 -3.41753,-0.0441 -0.0441,-0.49977 -0.13226,-1.12448 -0.26458,-1.87413 1.17593,0.11759 2.3004,0.18374 3.37343,0.19844 0.76435,0.0147 1.14653,-0.38956 1.14653,-1.21268 v -2.99861 h -10.31874 z m 0.74965,-8.99583 h 20.10832 v 4.45381 h -1.74184 v -2.84426 h -16.62464 v 2.84426 h -1.74184 z m 13.95676,-1.27882 c 0.98484,-1.05833 1.91088,-2.19751 2.77813,-3.41753 l 1.58749,1.16857 c -0.95543,1.08773 -1.97702,2.22691 -3.06475,3.41754 z m -6.2618,-2.97656 1.43316,-0.83785 c 0.89664,1.17593 1.72714,2.3739 2.49149,3.59392 l -1.5875,0.904 c -0.64676,-1.14653 -1.42581,-2.36656 -2.33715,-3.66007 z m -5.95312,0.66146 1.30087,-0.94809 c 0.89664,0.98483 1.77858,2.05051 2.64583,3.19704 l -1.49931,1.05834 c -0.82315,-1.24943 -1.63894,-2.35186 -2.44739,-3.30729 z"
       id="text1"
       aria-label="浙江大学"
       sodipodi:nodetypes="ccccccccccccccscccccccccccccccccscccssccccccccccccccccccccccccccccccccccccccccccccccsccccccccccccccssccccccccccccccsscccsccccccccccccccccccccccccccc" />
  </g>
</svg>
